<svg width="16" height="16" viewBox="0 0 16 16" fill="none" xmlns="http://www.w3.org/2000/svg">
<path d="M6.16653 0H1.16661C0.523307 0 0 0.523307 0 1.16661V4.16656C0 4.80999 0.523307 5.33329 1.16661 5.33329H6.16653C6.80995 5.33329 7.33326 4.80999 7.33326 4.16656V1.16661C7.33326 0.523307 6.80995 0 6.16653 0Z" fill="white"/>
<path d="M6.16653 6.66797H1.16661C0.523307 6.66797 0 7.19128 0 7.8347V14.8346C0 15.4779 0.523307 16.0012 1.16661 16.0012H6.16653C6.80995 16.0012 7.33326 15.4779 7.33326 14.8346V7.8347C7.33326 7.19128 6.80995 6.66797 6.16653 6.66797Z" fill="white"/>
<path d="M14.8327 10.668H9.83275C9.18932 10.668 8.66602 11.1913 8.66602 11.8347V14.8347C8.66602 15.478 9.18932 16.0013 9.83275 16.0013H14.8327C15.476 16.0013 15.9993 15.478 15.9993 14.8347V11.8347C15.9993 11.1913 15.476 10.668 14.8327 10.668Z" fill="white"/>
<path d="M14.8327 0H9.83275C9.18932 0 8.66602 0.523308 8.66602 1.16661V8.1665C8.66602 8.80993 9.18932 9.33323 9.83275 9.33323H14.8327C15.476 9.33323 15.9993 8.80993 15.9993 8.1665V1.16661C15.9993 0.523308 15.476 0 14.8327 0Z" fill="white"/>
</svg>
