<svg width="14" height="14" viewBox="0 0 14 14" fill="none" xmlns="http://www.w3.org/2000/svg">
<mask id="path-1-inside-1_648_614" fill="white">
<path d="M5.25503 12.3976C5.14419 12.3976 5.03336 12.3568 4.94586 12.2693L2.02336 9.34677C1.85419 9.1776 1.85419 8.8976 2.02336 8.72844C2.19253 8.55927 2.47253 8.55927 2.64169 8.72844L5.56419 11.6509C5.73336 11.8201 5.73336 12.1001 5.56419 12.2693C5.47669 12.3509 5.36586 12.3976 5.25503 12.3976Z"/>
</mask>
<path d="M5.25503 12.3976C5.14419 12.3976 5.03336 12.3568 4.94586 12.2693L2.02336 9.34677C1.85419 9.1776 1.85419 8.8976 2.02336 8.72844C2.19253 8.55927 2.47253 8.55927 2.64169 8.72844L5.56419 11.6509C5.73336 11.8201 5.73336 12.1001 5.56419 12.2693C5.47669 12.3509 5.36586 12.3976 5.25503 12.3976Z" fill="#082042"/>
<path d="M4.94586 12.2693L4.23875 12.9764L4.94586 12.2693ZM2.02336 9.34677L2.73047 8.63966L2.73047 8.63966L2.02336 9.34677ZM2.64169 8.72844L1.93459 9.43554H1.93459L2.64169 8.72844ZM5.56419 11.6509L6.2713 10.9438L5.56419 11.6509ZM5.56419 12.2693L6.24651 13.0003L6.25911 12.9886L6.2713 12.9764L5.56419 12.2693ZM5.25503 11.3976C5.39509 11.3976 5.54304 11.4522 5.65297 11.5622L4.23875 12.9764C4.52367 13.2613 4.89329 13.3976 5.25503 13.3976V11.3976ZM5.65297 11.5622L2.73047 8.63966L1.31625 10.0539L4.23875 12.9764L5.65297 11.5622ZM2.73047 8.63966C2.95182 8.86102 2.95182 9.21419 2.73047 9.43554L1.31625 8.02133C0.756562 8.58102 0.756562 9.49419 1.31625 10.0539L2.73047 8.63966ZM2.73047 9.43554C2.50911 9.6569 2.15594 9.6569 1.93459 9.43554L3.3488 8.02133C2.78911 7.46164 1.87594 7.46164 1.31625 8.02133L2.73047 9.43554ZM1.93459 9.43554L4.85709 12.358L6.2713 10.9438L3.3488 8.02133L1.93459 9.43554ZM4.85709 12.358C4.63573 12.1367 4.63573 11.7835 4.85709 11.5622L6.2713 12.9764C6.83099 12.4167 6.83099 11.5035 6.2713 10.9438L4.85709 12.358ZM4.88187 11.5382C4.9588 11.4664 5.08555 11.3976 5.25503 11.3976V13.3976C5.64617 13.3976 5.99458 13.2355 6.24651 13.0003L4.88187 11.5382Z" fill="#082042" mask="url(#path-1-inside-1_648_614)"/>
<mask id="path-3-inside-2_648_614" fill="white">
<path d="M5.25586 12.3971C5.01669 12.3971 4.81836 12.1988 4.81836 11.9596V2.04297C4.81836 1.8038 5.01669 1.60547 5.25586 1.60547C5.49503 1.60547 5.69336 1.8038 5.69336 2.04297V11.9596C5.69336 12.1988 5.49503 12.3971 5.25586 12.3971Z"/>
</mask>
<path d="M5.25586 12.3971C5.01669 12.3971 4.81836 12.1988 4.81836 11.9596V2.04297C4.81836 1.8038 5.01669 1.60547 5.25586 1.60547C5.49503 1.60547 5.69336 1.8038 5.69336 2.04297V11.9596C5.69336 12.1988 5.49503 12.3971 5.25586 12.3971Z" fill="#082042"/>
<path d="M5.25586 11.3971C5.56898 11.3971 5.81836 11.6465 5.81836 11.9596H3.81836C3.81836 12.7511 4.46441 13.3971 5.25586 13.3971V11.3971ZM5.81836 11.9596V2.04297H3.81836V11.9596H5.81836ZM5.81836 2.04297C5.81836 2.35609 5.56898 2.60547 5.25586 2.60547V0.605469C4.46441 0.605469 3.81836 1.25152 3.81836 2.04297H5.81836ZM5.25586 2.60547C4.94274 2.60547 4.69336 2.35609 4.69336 2.04297H6.69336C6.69336 1.25152 6.04731 0.605469 5.25586 0.605469V2.60547ZM4.69336 2.04297V11.9596H6.69336V2.04297H4.69336ZM4.69336 11.9596C4.69336 11.6465 4.94274 11.3971 5.25586 11.3971V13.3971C6.04731 13.3971 6.69336 12.7511 6.69336 11.9596H4.69336Z" fill="#082042" mask="url(#path-3-inside-2_648_614)"/>
<path d="M11.673 5.40151C11.5622 5.40151 11.4513 5.36068 11.3638 5.27318L8.44133 2.35068C8.27216 2.18151 8.27216 1.90151 8.44133 1.73234C8.61049 1.56318 8.89049 1.56318 9.05966 1.73234L11.9822 4.65484C12.1513 4.82401 12.1513 5.10401 11.9822 5.27318C11.8947 5.36068 11.7838 5.40151 11.673 5.40151Z" fill="#082042"/>
<path d="M8.74414 12.3971C8.50497 12.3971 8.30664 12.1988 8.30664 11.9596V2.04297C8.30664 1.8038 8.50497 1.60547 8.74414 1.60547C8.98331 1.60547 9.18164 1.8038 9.18164 2.04297V11.9596C9.18164 12.1988 8.98914 12.3971 8.74414 12.3971Z" fill="#082042"/>
</svg>
