<?xml version="1.0" standalone="no"?>
<!DOCTYPE svg PUBLIC "-//W3C//DTD SVG 20010904//EN"
 "http://www.w3.org/TR/2001/REC-SVG-20010904/DTD/svg10.dtd">
<svg version="1.0" xmlns="http://www.w3.org/2000/svg"
 width="24.000000pt" height="24.000000pt" viewBox="0 0 24.000000 24.000000"
 preserveAspectRatio="xMidYMid meet">

<g transform="translate(0.000000,24.000000) scale(0.100000,-0.100000)"
fill="#000000" stroke="none">
<path d="M99 214 c-8 -10 -21 -13 -37 -9 -34 8 -42 -7 -42 -85 0 -79 8 -93 43
-84 16 3 27 2 27 -4 0 -18 29 -22 45 -6 9 10 23 13 36 9 30 -10 39 9 39 85 0
79 -8 93 -43 84 -16 -3 -27 -2 -27 4 0 17 -28 21 -41 6z m38 -20 c11 -11 19
-12 26 -5 22 22 27 9 27 -69 0 -78 -5 -91 -27 -69 -7 7 -15 6 -26 -5 -19 -20
-25 -20 -44 0 -11 11 -19 12 -26 5 -22 -22 -27 -9 -27 69 0 77 1 80 20 70 14
-8 22 -7 32 5 17 19 26 19 45 -1z"/>
<path d="M93 133 c15 -2 37 -2 50 0 12 2 0 4 -28 4 -27 0 -38 -2 -22 -4z"/>
<path d="M98 103 c12 -2 30 -2 40 0 9 3 -1 5 -23 4 -22 0 -30 -2 -17 -4z"/>
</g>
</svg>
