<svg width="20" height="20" viewBox="0 0 20 20" fill="none" xmlns="http://www.w3.org/2000/svg">
<path d="M6.66602 4.29297C6.63587 4.29297 6.60459 4.28068 6.57894 4.25504C6.5533 4.2294 6.54102 4.19812 6.54102 4.16797V1.66797C6.54102 1.63782 6.5533 1.60654 6.57894 1.5809C6.60459 1.55525 6.63587 1.54297 6.66602 1.54297C6.69616 1.54297 6.72744 1.55525 6.75309 1.5809C6.77873 1.60654 6.79102 1.63782 6.79102 1.66797V4.16797C6.79102 4.19812 6.77873 4.2294 6.75309 4.25504C6.72744 4.28068 6.69616 4.29297 6.66602 4.29297Z" fill="#546E7F" stroke="#546E7F"/>
<path d="M13.334 4.29297C13.3038 4.29297 13.2726 4.28068 13.2469 4.25504C13.2213 4.2294 13.209 4.19812 13.209 4.16797V1.66797C13.209 1.63782 13.2213 1.60654 13.2469 1.5809C13.2726 1.55525 13.3038 1.54297 13.334 1.54297C13.3641 1.54297 13.3954 1.55525 13.4211 1.5809C13.4467 1.60654 13.459 1.63782 13.459 1.66797V4.16797C13.459 4.19812 13.4467 4.2294 13.4211 4.25504C13.3954 4.28068 13.3641 4.29297 13.334 4.29297Z" fill="#546E7F" stroke="#546E7F"/>
<path d="M7.08333 12.0839C6.975 12.0839 6.86667 12.0589 6.76667 12.0173C6.65833 11.9756 6.575 11.9172 6.49167 11.8422C6.34167 11.6839 6.25 11.4756 6.25 11.2506C6.25 11.1423 6.275 11.0339 6.31667 10.9339C6.35833 10.8339 6.41667 10.7423 6.49167 10.6589C6.575 10.5839 6.65833 10.5256 6.76667 10.4839C7.06667 10.3589 7.44167 10.4256 7.675 10.6589C7.825 10.8173 7.91667 11.0339 7.91667 11.2506C7.91667 11.3006 7.90833 11.3589 7.9 11.4173C7.89167 11.4673 7.875 11.5173 7.85 11.5673C7.83333 11.6173 7.80833 11.6672 7.775 11.7172C7.75 11.7589 7.70833 11.8006 7.675 11.8422C7.51667 11.9922 7.3 12.0839 7.08333 12.0839Z" fill="#546E7F"/>
<path d="M9.99935 12.0837C9.89102 12.0837 9.78268 12.0587 9.68268 12.0171C9.57435 11.9754 9.49102 11.917 9.40768 11.842C9.25768 11.6837 9.16602 11.4754 9.16602 11.2504C9.16602 11.142 9.19102 11.0337 9.23268 10.9337C9.27435 10.8337 9.33268 10.7421 9.40768 10.6587C9.49102 10.5837 9.57435 10.5254 9.68268 10.4837C9.98268 10.3504 10.3577 10.4254 10.591 10.6587C10.741 10.8171 10.8327 11.0337 10.8327 11.2504C10.8327 11.3004 10.8243 11.3587 10.816 11.4171C10.8077 11.4671 10.791 11.5171 10.766 11.5671C10.7493 11.6171 10.7243 11.667 10.691 11.717C10.666 11.7587 10.6243 11.8004 10.591 11.842C10.4327 11.992 10.216 12.0837 9.99935 12.0837Z" fill="#546E7F"/>
<path d="M12.9173 12.0837C12.809 12.0837 12.7007 12.0587 12.6007 12.0171C12.4923 11.9754 12.409 11.917 12.3257 11.842C12.2923 11.8004 12.259 11.7587 12.2256 11.717C12.1923 11.667 12.1673 11.6171 12.1507 11.5671C12.1257 11.5171 12.109 11.4671 12.1007 11.4171C12.0923 11.3587 12.084 11.3004 12.084 11.2504C12.084 11.0337 12.1757 10.8171 12.3257 10.6587C12.409 10.5837 12.4923 10.5254 12.6007 10.4837C12.909 10.3504 13.2757 10.4254 13.509 10.6587C13.659 10.8171 13.7507 11.0337 13.7507 11.2504C13.7507 11.3004 13.7423 11.3587 13.734 11.4171C13.7257 11.4671 13.709 11.5171 13.684 11.5671C13.6673 11.6171 13.6423 11.667 13.609 11.717C13.584 11.7587 13.5423 11.8004 13.509 11.842C13.3507 11.992 13.134 12.0837 12.9173 12.0837Z" fill="#546E7F"/>
<path d="M7.08333 15C6.975 15 6.86667 14.975 6.76667 14.9333C6.66667 14.8917 6.575 14.8333 6.49167 14.7583C6.34167 14.6 6.25 14.3833 6.25 14.1667C6.25 14.0583 6.275 13.95 6.31667 13.85C6.35833 13.7417 6.41667 13.65 6.49167 13.575C6.8 13.2667 7.36667 13.2667 7.675 13.575C7.825 13.7333 7.91667 13.95 7.91667 14.1667C7.91667 14.3833 7.825 14.6 7.675 14.7583C7.51667 14.9083 7.3 15 7.08333 15Z" fill="#546E7F"/>
<path d="M9.99935 15C9.78268 15 9.56602 14.9083 9.40768 14.7583C9.25768 14.6 9.16602 14.3833 9.16602 14.1667C9.16602 14.0583 9.19102 13.95 9.23268 13.85C9.27435 13.7417 9.33268 13.65 9.40768 13.575C9.71602 13.2667 10.2827 13.2667 10.591 13.575C10.666 13.65 10.7243 13.7417 10.766 13.85C10.8077 13.95 10.8327 14.0583 10.8327 14.1667C10.8327 14.3833 10.741 14.6 10.591 14.7583C10.4327 14.9083 10.216 15 9.99935 15Z" fill="#546E7F"/>
<path d="M12.9173 14.9994C12.7007 14.9994 12.484 14.9078 12.3257 14.7578C12.2507 14.6828 12.1923 14.5911 12.1507 14.4828C12.109 14.3828 12.084 14.2744 12.084 14.1661C12.084 14.0578 12.109 13.9494 12.1507 13.8494C12.1923 13.7411 12.2507 13.6494 12.3257 13.5744C12.5173 13.3828 12.809 13.2911 13.0757 13.3494C13.134 13.3578 13.184 13.3744 13.234 13.3994C13.284 13.4161 13.334 13.4411 13.384 13.4745C13.4257 13.4995 13.4673 13.5411 13.509 13.5744C13.659 13.7328 13.7507 13.9494 13.7507 14.1661C13.7507 14.3828 13.659 14.5994 13.509 14.7578C13.3507 14.9078 13.134 14.9994 12.9173 14.9994Z" fill="#546E7F"/>
<path d="M17.0827 8.19922H2.91602C2.57435 8.19922 2.29102 7.91589 2.29102 7.57422C2.29102 7.23255 2.57435 6.94922 2.91602 6.94922H17.0827C17.4243 6.94922 17.7077 7.23255 17.7077 7.57422C17.7077 7.91589 17.4243 8.19922 17.0827 8.19922Z" fill="#546E7F"/>
<path d="M13.3333 18.9596H6.66667C3.625 18.9596 1.875 17.2096 1.875 14.168V7.08464C1.875 4.04297 3.625 2.29297 6.66667 2.29297H13.3333C16.375 2.29297 18.125 4.04297 18.125 7.08464V14.168C18.125 17.2096 16.375 18.9596 13.3333 18.9596ZM6.66667 3.54297C4.28333 3.54297 3.125 4.7013 3.125 7.08464V14.168C3.125 16.5513 4.28333 17.7096 6.66667 17.7096H13.3333C15.7167 17.7096 16.875 16.5513 16.875 14.168V7.08464C16.875 4.7013 15.7167 3.54297 13.3333 3.54297H6.66667Z" fill="#546E7F"/>
</svg>
