<svg width="21" height="20" viewBox="0 0 21 20" fill="none" xmlns="http://www.w3.org/2000/svg">
<path d="M11.2753 10.5527L11.2736 10.5521L8.76527 9.67711L8.76527 9.6771L8.76313 9.67636C8.53017 9.59629 8.31085 9.48768 8.14772 9.3059C7.99496 9.13566 7.85059 8.85554 7.85059 8.34922C7.85059 7.56613 8.46898 6.94922 9.18393 6.94922H10.7506C11.5683 6.94922 12.2673 7.64404 12.2673 8.53255C12.2673 8.5627 12.255 8.59398 12.2293 8.61962C12.2037 8.64527 12.1724 8.65755 12.1423 8.65755C12.1121 8.65755 12.0808 8.64527 12.0552 8.61962C12.0295 8.59398 12.0173 8.5627 12.0173 8.53255C12.0173 7.8396 11.4915 7.19922 10.7506 7.19922H9.18393C8.53149 7.19922 8.10059 7.76899 8.10059 8.34922C8.10059 8.59771 8.12966 8.87262 8.30434 9.09643C8.46779 9.30585 8.70198 9.38804 8.82819 9.43234C8.83313 9.43407 8.8379 9.43575 8.8425 9.43737L8.84423 9.43798L11.3526 10.313L11.3526 10.313L11.3547 10.3137C11.5877 10.3938 11.807 10.5024 11.9701 10.6842C12.1229 10.8544 12.2673 11.1346 12.2673 11.6409C12.2673 12.4308 11.6503 13.0409 10.9339 13.0409H9.36726C8.5495 13.0409 7.85059 12.3461 7.85059 11.4575C7.85059 11.4274 7.86287 11.3961 7.88851 11.3705C7.91416 11.3448 7.94544 11.3325 7.97559 11.3325C8.00573 11.3325 8.03701 11.3448 8.06266 11.3705C8.0883 11.3961 8.10059 11.4274 8.10059 11.4575C8.10059 12.1505 8.62635 12.7909 9.36726 12.7909H10.9339C11.5863 12.7909 12.0173 12.2211 12.0173 11.6409C12.0173 11.3924 11.9882 11.1175 11.8135 10.8937C11.6501 10.6842 11.4159 10.602 11.2896 10.5577C11.2847 10.556 11.2799 10.5543 11.2753 10.5527Z" fill="#252525" stroke="#252525"/>
<path d="M10.0586 13.875C10.0284 13.875 9.99717 13.8627 9.97152 13.8371C9.94588 13.8114 9.93359 13.7801 9.93359 13.75V6.25C9.93359 6.21985 9.94588 6.18857 9.97152 6.16293C9.99717 6.13728 10.0284 6.125 10.0586 6.125C10.0887 6.125 10.12 6.13728 10.1457 6.16293C10.1713 6.18857 10.1836 6.21985 10.1836 6.25V13.75C10.1836 13.7801 10.1713 13.8114 10.1457 13.8371C10.12 13.8627 10.0887 13.875 10.0586 13.875Z" fill="#252525" stroke="#252525"/>
<path d="M10.0589 18.9596C5.11725 18.9596 1.10059 14.943 1.10059 10.0013C1.10059 5.05964 5.11725 1.04297 10.0589 1.04297C10.4006 1.04297 10.6839 1.3263 10.6839 1.66797C10.6839 2.00964 10.4006 2.29297 10.0589 2.29297C5.80892 2.29297 2.35059 5.7513 2.35059 10.0013C2.35059 14.2513 5.80892 17.7096 10.0589 17.7096C14.3089 17.7096 17.7673 14.2513 17.7673 10.0013C17.7673 9.65964 18.0506 9.3763 18.3923 9.3763C18.7339 9.3763 19.0173 9.65964 19.0173 10.0013C19.0173 14.943 15.0006 18.9596 10.0589 18.9596Z" fill="#252525"/>
<path d="M17.5589 6.45833H14.2256C13.8839 6.45833 13.6006 6.175 13.6006 5.83333V2.5C13.6006 2.15833 13.8839 1.875 14.2256 1.875C14.5673 1.875 14.8506 2.15833 14.8506 2.5V5.20833H17.5589C17.9006 5.20833 18.1839 5.49167 18.1839 5.83333C18.1839 6.175 17.9006 6.45833 17.5589 6.45833Z" fill="#292D32"/>
<path d="M14.2255 6.45755C14.0671 6.45755 13.9088 6.39922 13.7838 6.27422C13.5421 6.03255 13.5421 5.63255 13.7838 5.39089L17.9505 1.22422C18.1921 0.982552 18.5921 0.982552 18.8338 1.22422C19.0755 1.46589 19.0755 1.86588 18.8338 2.10755L14.6671 6.27422C14.5421 6.39922 14.3838 6.45755 14.2255 6.45755Z" fill="#292D32"/>
</svg>
