<svg width="21" height="20" viewBox="0 0 21 20" fill="none" xmlns="http://www.w3.org/2000/svg">
<path d="M10.5 18.4583C5.83448 18.4583 2.04167 14.6655 2.04167 9.99999C2.04167 5.33447 5.83448 1.54166 10.5 1.54166C15.1655 1.54166 18.9583 5.33447 18.9583 9.99999C18.9583 14.6655 15.1655 18.4583 10.5 18.4583ZM10.5 1.79166C5.97386 1.79166 2.29167 5.47385 2.29167 9.99999C2.29167 14.5261 5.97386 18.2083 10.5 18.2083C15.0261 18.2083 18.7083 14.5261 18.7083 9.99999C18.7083 5.47385 15.0261 1.79166 10.5 1.79166Z" fill="#E45050" stroke="#E45050"/>
<path d="M8.22978 12.4464L8.22369 12.4525L8.21781 12.4588C8.21453 12.4623 8.20745 12.4683 8.19353 12.4739C8.17893 12.4797 8.16059 12.4833 8.14167 12.4833C8.12399 12.4833 8.10846 12.4801 8.09514 12.4747C8.08229 12.4696 8.06824 12.4611 8.05356 12.4464C8.03203 12.4249 8.01875 12.3942 8.01875 12.3583C8.01875 12.3225 8.03203 12.2917 8.05356 12.2702L12.7702 7.55354C12.7917 7.53201 12.8225 7.51874 12.8583 7.51874C12.8942 7.51874 12.9249 7.53201 12.9464 7.55354C12.968 7.57507 12.9813 7.6058 12.9813 7.64165C12.9813 7.67751 12.968 7.70824 12.9464 7.72977L8.22978 12.4464Z" fill="#E45050" stroke="#E45050"/>
<path d="M12.8583 12.9833C12.7 12.9833 12.5417 12.925 12.4167 12.8L7.7 8.08332C7.45834 7.84165 7.45834 7.44165 7.7 7.19999C7.94167 6.95832 8.34167 6.95832 8.58334 7.19999L13.3 11.9167C13.5417 12.1583 13.5417 12.5583 13.3 12.8C13.175 12.925 13.0167 12.9833 12.8583 12.9833Z" fill="#E45050"/>
</svg>
