<svg width="21" height="20" viewBox="0 0 21 20" fill="none" xmlns="http://www.w3.org/2000/svg">
<path d="M14.3294 17.832H5.99609C5.96595 17.832 5.93467 17.8197 5.90902 17.7941C5.88338 17.7685 5.87109 17.7372 5.87109 17.707C5.87109 17.6769 5.88338 17.6456 5.90902 17.62C5.93467 17.5943 5.96595 17.582 5.99609 17.582H14.3294C14.3596 17.582 14.3909 17.5943 14.4165 17.62C14.4421 17.6456 14.4544 17.6769 14.4544 17.707C14.4544 17.7372 14.4421 17.7685 14.4165 17.7941C14.3909 17.8197 14.3596 17.832 14.3294 17.832Z" fill="white" stroke="white"/>
<path d="M17.4105 5.00595L17.4122 5.00469C17.6737 4.81602 18.0213 5.077 17.9084 5.38586L17.9071 5.38941L14.4407 15.097C14.4407 15.0971 14.4406 15.0972 14.4406 15.0973C14.3949 15.2241 14.2663 15.3159 14.128 15.3159H6.18632C6.0419 15.3159 5.91914 15.2271 5.87491 15.1007L5.87492 15.1007L5.87386 15.0977L2.40753 5.39035C2.40749 5.39022 2.40744 5.3901 2.4074 5.38998C2.29957 5.08508 2.64611 4.80762 2.92295 4.99936L6.25138 7.37919C6.9652 7.90145 7.9659 7.58633 8.27119 6.76633L9.85406 2.5759L9.85408 2.57591L9.85558 2.57182C9.96168 2.28335 10.3693 2.28335 10.4754 2.57182L10.4754 2.57182L10.4765 2.57478L12.0515 6.77478L12.0518 6.77562C12.3595 7.59164 13.3688 7.89687 14.0774 7.3891C14.0775 7.38904 14.0776 7.38897 14.0777 7.3889L17.4105 5.00595ZM8.07798 12.7909H12.2446C12.8625 12.7909 13.3696 12.2837 13.3696 11.6659C13.3696 11.0481 12.8625 10.5409 12.2446 10.5409H8.07798C7.46017 10.5409 6.95298 11.0481 6.95298 11.6659C6.95298 12.2837 7.46017 12.7909 8.07798 12.7909Z" fill="white" stroke="white"/>
</svg>
