<svg width="16" height="16" viewBox="0 0 16 16" fill="none" xmlns="http://www.w3.org/2000/svg">
<path d="M1.16661 0.5H6.16653C6.53385 0.5 6.83326 0.799484 6.83326 1.16661V4.16656C6.83326 4.53384 6.53381 4.83329 6.16653 4.83329H1.16661C0.799484 4.83329 0.5 4.53388 0.5 4.16656V1.16661C0.5 0.79945 0.79945 0.5 1.16661 0.5Z" stroke="#082042"/>
<path d="M1.16661 7.16797H6.16653C6.53381 7.16797 6.83326 7.46742 6.83326 7.8347V14.8346C6.83326 15.2017 6.53385 15.5012 6.16653 15.5012H1.16661C0.79945 15.5012 0.5 15.2018 0.5 14.8346V7.8347C0.5 7.46738 0.799484 7.16797 1.16661 7.16797Z" stroke="#082042"/>
<path d="M9.83275 11.168H14.8327C15.1998 11.168 15.4993 11.4674 15.4993 11.8347V14.8347C15.4993 15.2018 15.1998 15.5013 14.8327 15.5013H9.83275C9.46543 15.5013 9.16602 15.2018 9.16602 14.8347V11.8347C9.16602 11.4674 9.46547 11.168 9.83275 11.168Z" stroke="#082042"/>
<path d="M9.83275 0.5H14.8327C15.1998 0.5 15.4993 0.79945 15.4993 1.16661V8.1665C15.4993 8.53382 15.1998 8.83323 14.8327 8.83323H9.83275C9.46547 8.83323 9.16602 8.53378 9.16602 8.1665V1.16661C9.16602 0.799484 9.46543 0.5 9.83275 0.5Z" stroke="#082042"/>
</svg>
