<svg width="20" height="20" viewBox="0 0 20 20" fill="none" xmlns="http://www.w3.org/2000/svg">
<path d="M10.0009 13.1073C8.28539 13.1073 6.89258 11.7145 6.89258 9.99896C6.89258 8.28343 8.28539 6.89062 10.0009 6.89062C11.7164 6.89062 13.1092 8.28343 13.1092 9.99896C13.1092 11.7145 11.7164 13.1073 10.0009 13.1073ZM10.0009 7.14062C8.42477 7.14062 7.14258 8.42282 7.14258 9.99896C7.14258 11.5751 8.42477 12.8573 10.0009 12.8573C11.5771 12.8573 12.8592 11.5751 12.8592 9.99896C12.8592 8.42282 11.5771 7.14062 10.0009 7.14062Z" fill="#082042" stroke="#082042"/>
<path d="M2.29677 12.2319L2.29606 12.2308C1.91735 11.6413 1.71289 10.8365 1.71289 10.0042C1.71289 9.17213 1.9172 8.36484 2.29653 7.77057C4.26916 4.69511 7.08436 2.98438 10.0004 2.98438C12.9166 2.98438 15.7316 4.69528 17.6957 7.77019L17.6964 7.77129C18.0751 8.3608 18.2796 9.16555 18.2796 9.99792C18.2796 10.8302 18.0751 11.6376 17.6956 12.2319C15.7316 15.3068 12.9166 17.0177 10.0004 17.0177C7.07561 17.0177 4.26069 15.3066 2.29677 12.2319ZM10.0004 3.23438C7.09547 3.23438 4.37871 4.97808 2.51242 7.90679C2.13476 8.49626 1.96497 9.26612 1.96497 10.001C1.96497 10.7357 2.13465 11.5053 2.51205 12.0947C4.37835 15.0238 7.09528 16.7677 10.0004 16.7677C12.9053 16.7677 15.6221 15.024 17.4884 12.0953C17.866 11.5058 18.0358 10.736 18.0358 10.001C18.0358 9.26636 17.8661 8.49676 17.4887 7.90736C15.6224 4.97831 12.9055 3.23438 10.0004 3.23438Z" fill="#082042" stroke="#082042"/>
</svg>
