<svg width="70" height="71" viewBox="0 0 70 71" fill="none" xmlns="http://www.w3.org/2000/svg">
<path d="M26.25 31.3542C22.0928 31.3542 18.7292 27.9905 18.7292 23.8333C18.7292 19.6761 22.0928 16.3125 26.25 16.3125C30.4072 16.3125 33.7708 19.6761 33.7708 23.8333C33.7708 27.9905 30.4072 31.3542 26.25 31.3542ZM26.25 19.6875C23.9614 19.6875 22.1042 21.5447 22.1042 23.8333C22.1042 26.122 23.9614 27.9792 26.25 27.9792C28.5386 27.9792 30.3958 26.122 30.3958 23.8333C30.3958 21.5447 28.5386 19.6875 26.25 19.6875Z" fill="#9FB3C1" stroke="#9FB3C1"/>
<path d="M43.75 66.3542H26.25C18.3886 66.3542 12.8976 64.6728 9.36241 61.1376C5.82718 57.6024 4.14583 52.1114 4.14583 44.25V26.75C4.14583 18.8887 5.82718 13.3976 9.36241 9.86242C12.8976 6.32719 18.3886 4.64584 26.25 4.64584H37.9167C38.8364 4.64584 39.6042 5.41365 39.6042 6.33334C39.6042 7.25303 38.8364 8.02084 37.9167 8.02084H26.25C19.4918 8.02084 14.7616 9.21775 11.7397 12.2397C8.71774 15.2616 7.52083 19.9918 7.52083 26.75V44.25C7.52083 51.0082 8.71774 55.7384 11.7397 58.7603C14.7616 61.7823 19.4918 62.9792 26.25 62.9792H43.75C50.5082 62.9792 55.2384 61.7823 58.2603 58.7603C61.2823 55.7384 62.4792 51.0082 62.4792 44.25V29.6667C62.4792 28.747 63.247 27.9792 64.1667 27.9792C65.0864 27.9792 65.8542 28.747 65.8542 29.6667V44.25C65.8542 52.1114 64.1728 57.6024 60.6376 61.1376C57.1024 64.6728 51.6114 66.3542 43.75 66.3542Z" fill="#9FB3C1" stroke="#9FB3C1"/>
<path d="M52.5 26.0208C51.3042 26.0208 50.3125 25.0292 50.3125 23.8333V6.33332C50.3125 5.45832 50.8375 4.64165 51.6542 4.32082C52.4708 3.99999 53.4042 4.17499 54.0458 4.78749L59.8792 10.6208C60.725 11.4667 60.725 12.8667 59.8792 13.7125C59.0333 14.5583 57.6333 14.5583 56.7875 13.7125L54.6875 11.6125V23.8333C54.6875 25.0292 53.6958 26.0208 52.5 26.0208Z" fill="#9FB3C1"/>
<path d="M46.6667 14.3542C46.1125 14.3542 45.5583 14.15 45.1208 13.7125C44.275 12.8667 44.275 11.4667 45.1208 10.6208L50.9542 4.78751C51.8 3.94168 53.2 3.94168 54.0458 4.78751C54.8917 5.63335 54.8917 7.03335 54.0458 7.87918L48.2125 13.7125C47.775 14.15 47.2208 14.3542 46.6667 14.3542Z" fill="#9FB3C1"/>
<path d="M7.7875 57.9583C7.0875 57.9583 6.3875 57.6083 5.97917 56.9958C5.30833 56.0042 5.57083 54.6333 6.5625 53.9625L20.9417 44.3083C24.0917 42.2083 28.4375 42.4417 31.2958 44.8625L32.2583 45.7083C33.7167 46.9625 36.1958 46.9625 37.625 45.7083L49.7583 35.2958C52.85 32.6417 57.7208 32.6417 60.8417 35.2958L65.5958 39.3792C66.5 40.1667 66.6167 41.5375 65.8292 42.4708C65.0417 43.375 63.6417 43.4917 62.7375 42.7042L57.9833 38.6208C56.525 37.3667 54.075 37.3667 52.6167 38.6208L40.4833 49.0333C37.3917 51.6875 32.5208 51.6875 29.4 49.0333L28.4375 48.1875C27.0958 47.05 24.8792 46.9333 23.3917 47.9542L9.04167 57.6083C8.63333 57.8417 8.19583 57.9583 7.7875 57.9583Z" fill="#9FB3C1"/>
</svg>
