<svg width="21" height="20" viewBox="0 0 21 20" fill="none" xmlns="http://www.w3.org/2000/svg">
<g clip-path="url(#clip0_406_12069)">
<path d="M8.14341 16.9049L8.14355 16.9051C8.93102 17.6628 9.93899 18.0404 10.9469 18.0404C11.9551 18.0404 12.962 17.6626 13.7401 16.9067L13.742 16.9049C16.0979 14.6396 18.5559 11.1791 17.6426 7.15093C16.8313 3.58204 13.7228 1.95703 10.9469 1.95703H10.9469H10.9468H10.9468H10.9468H10.9468H10.9468H10.9468H10.9468H10.9468H10.9468H10.9468H10.9468H10.9468H10.9468H10.9468H10.9468H10.9468H10.9468H10.9468H10.9468H10.9468H10.9468H10.9468H10.9468H10.9467H10.9467H10.9467H10.9467H10.9467H10.9467H10.9467H10.9467H10.9467H10.9467H10.9467H10.9467H10.9467H10.9467H10.9467H10.9467H10.9467H10.9467H10.9467H10.9467H10.9466H10.9466H10.9466H10.9466H10.9466H10.9466H10.9466H10.9466H10.9466H10.9466H10.9466H10.9466H10.9466H10.9466H10.9466H10.9466H10.9466H10.9466H10.9466H10.9466H10.9466H10.9465H10.9465H10.9465H10.9465H10.9465H10.9465H10.9465H10.9465H10.9465H10.9465H10.9465H10.9465H10.9465H10.9465H10.9465H10.9465H10.9465H10.9464H10.9464H10.9464H10.9464H10.9464H10.9464H10.9464H10.9464H10.9464H10.9464H10.9464H10.9464H10.9464H10.9464H10.9463H10.9463H10.9463H10.9463H10.9463H10.9463H10.9463H10.9463H10.9463H10.9463H10.9463H10.9463H10.9462H10.9462H10.9462H10.9462H10.9462H10.9462H10.9462H10.9462H10.9462H10.9462H10.9462H10.9461H10.9461H10.9461H10.9461H10.9461H10.9461H10.9461H10.9461H10.9461H10.9461H10.9461H10.946H10.946H10.946H10.946H10.946H10.946H10.946H10.946H10.946H10.9459H10.9459H10.9459H10.9459H10.9459H10.9459H10.9459H10.9459H10.9459H10.9458H10.9458H10.9458H10.9458H10.9458H10.9458H10.9458H10.9458H10.9457H10.9457H10.9457H10.9457H10.9457H10.9457H10.9457H10.9456H10.9456H10.9456H10.9456H10.9456H10.9456H10.9456H10.9456H10.9455H10.9455H10.9455H10.9455H10.9455H10.9455H10.9454H10.9454H10.9454H10.9454H10.9454H10.9454H10.9454H10.9453H10.9453H10.9453H10.9453H10.9453H10.9453H10.9452H10.9452H10.9452H10.9452H10.9452H10.9452H10.9451H10.9451H10.9451H10.9451H10.9451H10.9451H10.945H10.945H10.945H10.945H10.945H10.945H10.9449H10.9449H10.9449H10.9449H10.9449H10.9448H10.9448H10.9448H10.9448H10.9448H10.9447H10.9447H10.9447H10.9447H10.9447H10.9446H10.9446H10.9446H10.9446H10.9446H10.9445H10.9445H10.9445H10.9445H10.9445H10.9444H10.9444H10.9444H10.9444H10.9444H10.9443H10.9443H10.9443H10.9443H10.9442H10.9442H10.9442H10.9442H10.9441H10.9441H10.9441H10.9441H10.9441H10.944H10.944H10.944H10.944H10.9439H10.9439H10.9439H10.9439H10.9438H10.9438H10.9438H10.9438H10.9437H10.9437H10.9437H10.9437H10.9436H10.9436H10.9436H10.9436H10.9435H10.9435H10.9435H10.9434H10.9434H10.9434H10.9434H10.9433H10.9433H10.9433H10.9433H10.9432H10.9432H10.9432H10.9431H10.9431H10.9431H10.9431H10.943H10.943H10.943H10.9429H10.9429H10.9429H10.9429H10.9428H10.9428H10.9428H10.9427H10.9427H10.9427H10.9426H10.9426H10.9426H10.9425H10.9425H10.9425H10.9425H10.9424H10.9424H10.9424H10.9423H10.9423H10.9423H10.9422H10.9422H10.9422H10.9421H10.9421H10.9421H10.942H10.942H10.942H10.9419H10.9419H10.9419H10.9418H10.9418H10.9417H10.9417H10.9417H10.9416H10.9416H10.9416H10.9415H10.9415H10.9415H10.9414H10.9414H10.9413H10.9413H10.9413H10.9412H10.9412H10.9412H10.9411H10.9411H10.941H10.941H10.941H10.9409H10.9409H10.9409H10.9408H10.9408H10.9407H10.9407H10.9407H10.9406H10.9406H10.9405H10.9405H10.9405H10.9404H10.9404H10.9403H10.9403H10.9402H10.9402H10.9402H10.9401H10.9401H10.94H10.94H10.9399H10.9399H10.9399H10.9398H10.9398H10.9397H10.9397H10.9396H10.9396H10.9396H10.9395H10.9395H10.9394H10.9394H10.9393H10.9393H10.9392H10.9392H10.9391H10.9391H10.939H10.939H10.939H10.9389H10.9389H10.9388H10.9388H10.9387H10.9387H10.9386H10.9386H10.9385C8.1696 1.95703 5.0538 3.5748 4.24281 7.1426L8.14341 16.9049ZM8.14341 16.9049C5.78784 14.64 3.32948 11.1712 4.24276 7.14284L8.14341 16.9049ZM7.82186 8.59036C7.82186 10.3165 9.22071 11.7154 10.9469 11.7154C12.673 11.7154 14.0719 10.3165 14.0719 8.59036C14.0719 6.86422 12.673 5.46536 10.9469 5.46536C9.22071 5.46536 7.82186 6.86422 7.82186 8.59036Z" fill="white" stroke="white"/>
</g>
<defs>
<clipPath id="clip0_406_12069">
<rect width="20" height="20" fill="white" transform="translate(0.947266)"/>
</clipPath>
</defs>
</svg>
