<svg width="21" height="20" viewBox="0 0 21 20" fill="none" xmlns="http://www.w3.org/2000/svg">
<path d="M15.7427 12.3343L15.744 12.3365C15.9893 12.739 16.0319 13.2114 15.8698 13.6417C15.7048 14.0796 15.3666 14.4084 14.9316 14.5513L14.9316 14.5513L14.9288 14.5522C13.3652 15.0761 11.719 15.3346 10.071 15.3346C8.42299 15.3346 6.7776 15.0761 5.21535 14.5446L5.21435 14.5443C4.72063 14.3775 4.37456 14.0435 4.23336 13.6494L4.23338 13.6493L4.23194 13.6454C4.08156 13.2364 4.12694 12.7772 4.39128 12.3338C4.3915 12.3334 4.39173 12.333 4.39196 12.3326L5.23215 10.9434L5.23221 10.9434L5.2362 10.9366C5.35438 10.734 5.45168 10.4669 5.51909 10.2189C5.5864 9.97137 5.63765 9.69241 5.63765 9.45964V7.3513C5.63765 5.61701 6.64676 4.11034 8.11034 3.38231L8.24866 3.3135L8.32406 3.17865C8.67027 2.55947 9.3213 2.16797 10.046 2.16797C10.7833 2.16797 11.4165 2.54671 11.7607 3.15566L11.8383 3.29293L11.9806 3.36086C13.4725 4.07308 14.5043 5.59379 14.5043 7.3513V9.45964C14.5043 9.6924 14.5556 9.97131 14.6227 10.2194C14.6902 10.4687 14.7869 10.7355 14.9028 10.9398L14.9027 10.9399L14.9094 10.951L15.7427 12.3343Z" fill="white" stroke="white"/>
<path d="M10.0551 17.8346C9.54546 17.8346 9.04387 17.634 8.68497 17.2828C9.1404 17.3205 9.6051 17.343 10.0717 17.343C10.5304 17.343 10.9871 17.3205 11.4345 17.2829C11.074 17.6251 10.5879 17.8346 10.0551 17.8346Z" fill="white" stroke="white"/>
</svg>
