<svg width="20" height="20" viewBox="0 0 20 20" fill="none" xmlns="http://www.w3.org/2000/svg">
<path d="M13.3327 10.125H6.66602C6.63587 10.125 6.60459 10.1127 6.57894 10.0871C6.5533 10.0614 6.54102 10.0301 6.54102 10C6.54102 9.96985 6.5533 9.93857 6.57894 9.91293C6.60459 9.88728 6.63587 9.875 6.66602 9.875H13.3327C13.3628 9.875 13.3941 9.88728 13.4198 9.91293C13.4454 9.93857 13.4577 9.96985 13.4577 10C13.4577 10.0301 13.4454 10.0614 13.4198 10.0871C13.3941 10.1127 13.3628 10.125 13.3327 10.125Z" fill="white" stroke="white"/>
<path d="M10 13.4596C9.96985 13.4596 9.93857 13.4474 9.91293 13.4217C9.88728 13.3961 9.875 13.3648 9.875 13.3346V6.66797C9.875 6.63782 9.88728 6.60654 9.91293 6.5809C9.93857 6.55525 9.96985 6.54297 10 6.54297C10.0301 6.54297 10.0614 6.55525 10.0871 6.5809C10.1127 6.60654 10.125 6.63782 10.125 6.66797V13.3346C10.125 13.3648 10.1127 13.3961 10.0871 13.4217C10.0614 13.4474 10.0301 13.4596 10 13.4596Z" fill="white" stroke="white"/>
<path d="M12.4993 18.9596H7.49935C2.97435 18.9596 1.04102 17.0263 1.04102 12.5013V7.5013C1.04102 2.9763 2.97435 1.04297 7.49935 1.04297H12.4993C17.0243 1.04297 18.9577 2.9763 18.9577 7.5013V12.5013C18.9577 17.0263 17.0243 18.9596 12.4993 18.9596ZM7.49935 2.29297C3.65768 2.29297 2.29102 3.65964 2.29102 7.5013V12.5013C2.29102 16.343 3.65768 17.7096 7.49935 17.7096H12.4993C16.341 17.7096 17.7077 16.343 17.7077 12.5013V7.5013C17.7077 3.65964 16.341 2.29297 12.4993 2.29297H7.49935Z" fill="white"/>
</svg>
