<svg width="27" height="28" viewBox="0 0 27 28" fill="none" xmlns="http://www.w3.org/2000/svg">
<path d="M9 25.611C8.685 25.611 8.35873 25.5323 8.06623 25.3748C7.42498 25.0373 7.03125 24.3623 7.03125 23.6423V22.0449C3.63375 21.6961 1.40625 19.1985 1.40625 15.621V8.87109C1.40625 5.00109 4.005 2.40234 7.875 2.40234H19.125C22.995 2.40234 25.5938 5.00109 25.5938 8.87109V15.621C25.5938 19.491 22.995 22.0898 19.125 22.0898H14.8837L10.0912 25.2849C9.76497 25.4986 9.3825 25.611 9 25.611ZM7.875 4.07858C4.9725 4.07858 3.09375 5.95733 3.09375 8.85983V15.6099C3.09375 18.5124 4.9725 20.3912 7.875 20.3912C8.33625 20.3912 8.71875 20.7737 8.71875 21.2349V23.6312C8.71875 23.7774 8.80876 23.8449 8.86501 23.8786C8.92126 23.9124 9.03377 23.9461 9.15752 23.8674L14.1638 20.5374C14.2988 20.4474 14.4675 20.3912 14.6363 20.3912H19.1363C22.0388 20.3912 23.9175 18.5124 23.9175 15.6099V8.85983C23.9175 5.95733 22.0388 4.07858 19.1363 4.07858H7.875V4.07858Z" fill="#082042"/>
<path d="M13.5003 14.125C13.039 14.125 12.6565 13.7425 12.6565 13.2812V13.045C12.6565 11.74 13.6128 11.0988 13.9728 10.8513C14.389 10.57 14.524 10.3788 14.524 10.0863C14.524 9.52379 14.0628 9.0625 13.5003 9.0625C12.9378 9.0625 12.4766 9.52379 12.4766 10.0863C12.4766 10.5475 12.0941 10.93 11.6328 10.93C11.1716 10.93 10.7891 10.5475 10.7891 10.0863C10.7891 8.59004 12.004 7.375 13.5003 7.375C14.9965 7.375 16.2115 8.59004 16.2115 10.0863C16.2115 11.3688 15.2665 12.01 14.9178 12.2463C14.479 12.5388 14.344 12.73 14.344 13.045V13.2812C14.344 13.7537 13.9615 14.125 13.5003 14.125Z" fill="#082042"/>
<path d="M13.5 16.9258C13.0275 16.9258 12.6562 16.5433 12.6562 16.082C12.6562 15.6208 13.0388 15.2383 13.5 15.2383C13.9612 15.2383 14.3438 15.6208 14.3438 16.082C14.3438 16.5433 13.9725 16.9258 13.5 16.9258Z" fill="#082042"/>
</svg>
