<svg width="14" height="14" viewBox="0 0 14 14" fill="none" xmlns="http://www.w3.org/2000/svg">
<mask id="path-1-inside-1_603_1447" fill="white">
<path d="M8.48685 13.0796C8.29435 13.0796 8.11352 12.9513 8.06102 12.753C7.99685 12.5196 8.13685 12.2805 8.37602 12.2163C10.7443 11.5921 12.3952 9.44547 12.3952 6.99547C12.3952 4.02047 9.97435 1.59964 6.99935 1.59964C4.47352 1.59964 2.81685 3.07547 2.04102 3.96797H3.75602C3.99518 3.96797 4.19352 4.1663 4.19352 4.40547C4.19352 4.64464 4.00102 4.8488 3.75602 4.8488H1.17185C1.14268 4.8488 1.09018 4.84297 1.04935 4.8313C0.996849 4.8138 0.950182 4.79047 0.909349 4.7613C0.856849 4.7263 0.816016 4.67964 0.786849 4.62714C0.757682 4.57464 0.734349 4.51047 0.728516 4.4463C0.728516 4.4288 0.728516 4.41714 0.728516 4.39964V1.7513C0.728516 1.51214 0.926849 1.3138 1.16602 1.3138C1.40518 1.3138 1.60352 1.51214 1.60352 1.7513V3.14547C2.55435 2.12464 4.34518 0.730469 6.99935 0.730469C10.4585 0.730469 13.2702 3.54214 13.2702 7.0013C13.2702 9.84797 11.351 12.3446 8.59768 13.068C8.56268 13.0738 8.52185 13.0796 8.48685 13.0796Z"/>
</mask>
<path d="M8.48685 13.0796C8.29435 13.0796 8.11352 12.9513 8.06102 12.753C7.99685 12.5196 8.13685 12.2805 8.37602 12.2163C10.7443 11.5921 12.3952 9.44547 12.3952 6.99547C12.3952 4.02047 9.97435 1.59964 6.99935 1.59964C4.47352 1.59964 2.81685 3.07547 2.04102 3.96797H3.75602C3.99518 3.96797 4.19352 4.1663 4.19352 4.40547C4.19352 4.64464 4.00102 4.8488 3.75602 4.8488H1.17185C1.14268 4.8488 1.09018 4.84297 1.04935 4.8313C0.996849 4.8138 0.950182 4.79047 0.909349 4.7613C0.856849 4.7263 0.816016 4.67964 0.786849 4.62714C0.757682 4.57464 0.734349 4.51047 0.728516 4.4463C0.728516 4.4288 0.728516 4.41714 0.728516 4.39964V1.7513C0.728516 1.51214 0.926849 1.3138 1.16602 1.3138C1.40518 1.3138 1.60352 1.51214 1.60352 1.7513V3.14547C2.55435 2.12464 4.34518 0.730469 6.99935 0.730469C10.4585 0.730469 13.2702 3.54214 13.2702 7.0013C13.2702 9.84797 11.351 12.3446 8.59768 13.068C8.56268 13.0738 8.52185 13.0796 8.48685 13.0796Z" fill="white"/>
<path d="M8.06102 12.753L9.02777 12.4971L9.02522 12.4878L8.06102 12.753ZM8.37602 12.2163L8.12117 11.2493L8.11689 11.2505L8.37602 12.2163ZM2.04102 3.96797L1.2863 3.31191L-0.153275 4.96797H2.04102V3.96797ZM1.04935 4.8313L0.733121 5.77998L0.753735 5.78686L0.774628 5.79283L1.04935 4.8313ZM0.909349 4.7613L1.49059 3.94757L1.47747 3.9382L1.46405 3.92925L0.909349 4.7613ZM0.728516 4.4463H-0.271484V4.49166L-0.267378 4.53684L0.728516 4.4463ZM1.60352 3.14547H0.603516V5.68628L2.33527 3.82704L1.60352 3.14547ZM8.59768 13.068L8.76208 14.0544L8.80737 14.0468L8.85177 14.0351L8.59768 13.068ZM8.48685 12.0796C8.72686 12.0796 8.95877 12.2366 9.02772 12.4971L7.09431 13.0089C7.26826 13.666 7.86184 14.0796 8.48685 14.0796V12.0796ZM9.02522 12.4878C9.11326 12.808 8.91293 13.1076 8.63514 13.1821L8.11689 11.2505C7.36077 11.4533 6.88044 12.2313 7.09681 13.0181L9.02522 12.4878ZM8.63086 13.1833C11.4394 12.4431 13.3952 9.89854 13.3952 6.99547H11.3952C11.3952 8.99239 10.0493 10.7412 8.12117 11.2493L8.63086 13.1833ZM13.3952 6.99547C13.3952 3.46818 10.5266 0.599635 6.99935 0.599635V2.59964C9.42206 2.59964 11.3952 4.57275 11.3952 6.99547H13.3952ZM6.99935 0.599635C4.05514 0.599635 2.14693 2.32187 1.2863 3.31191L2.79573 4.62403C3.48677 3.82907 4.89189 2.59964 6.99935 2.59964V0.599635ZM2.04102 4.96797H3.75602V2.96797H2.04102V4.96797ZM3.75602 4.96797C3.4429 4.96797 3.19352 4.71859 3.19352 4.40547H5.19352C5.19352 3.61402 4.54747 2.96797 3.75602 2.96797V4.96797ZM3.19352 4.40547C3.19352 4.11836 3.42308 3.8488 3.75602 3.8488V5.8488C4.57895 5.8488 5.19352 5.17092 5.19352 4.40547H3.19352ZM3.75602 3.8488H1.17185V5.8488H3.75602V3.8488ZM1.17185 3.8488C1.19548 3.8488 1.21258 3.84988 1.22141 3.85054C1.2314 3.8513 1.23981 3.85222 1.24714 3.8532C1.25749 3.85458 1.28448 3.85847 1.32407 3.86978L0.774628 5.79283C0.913138 5.8324 1.05885 5.8488 1.17185 5.8488V3.8488ZM1.36558 3.88262C1.39801 3.89343 1.44243 3.91317 1.49059 3.94757L0.328111 5.57504C0.457931 5.66776 0.595687 5.73417 0.733121 5.77998L1.36558 3.88262ZM1.46405 3.92925C1.55567 3.99033 1.61985 4.0674 1.66101 4.14149L-0.0873083 5.11278C0.012185 5.29187 0.158024 5.46227 0.354649 5.59335L1.46405 3.92925ZM1.66101 4.14149C1.67472 4.16617 1.68718 4.19355 1.69762 4.22487C1.70791 4.25576 1.71931 4.29972 1.72441 4.35577L-0.267378 4.53684C-0.246262 4.76911 -0.168178 4.96721 -0.0873083 5.11278L1.66101 4.14149ZM1.72852 4.4463C1.72852 4.44627 1.72852 4.44623 1.72852 4.4462C1.72852 4.44617 1.72852 4.44613 1.72852 4.4461C1.72852 4.44606 1.72852 4.44603 1.72852 4.44599C1.72852 4.44596 1.72852 4.44593 1.72852 4.44589C1.72852 4.44586 1.72852 4.44582 1.72852 4.44579C1.72852 4.44576 1.72852 4.44572 1.72852 4.44569C1.72852 4.44566 1.72852 4.44562 1.72852 4.44559C1.72852 4.44555 1.72852 4.44552 1.72852 4.44549C1.72852 4.44545 1.72852 4.44542 1.72852 4.44538C1.72852 4.44535 1.72852 4.44532 1.72852 4.44528C1.72852 4.44525 1.72852 4.44522 1.72852 4.44518C1.72852 4.44515 1.72852 4.44511 1.72852 4.44508C1.72852 4.44505 1.72852 4.44501 1.72852 4.44498C1.72852 4.44495 1.72852 4.44491 1.72852 4.44488C1.72852 4.44485 1.72852 4.44481 1.72852 4.44478C1.72852 4.44475 1.72852 4.44471 1.72852 4.44468C1.72852 4.44464 1.72852 4.44461 1.72852 4.44458C1.72852 4.44454 1.72852 4.44451 1.72852 4.44448C1.72852 4.44444 1.72852 4.44441 1.72852 4.44438C1.72852 4.44434 1.72852 4.44431 1.72852 4.44428C1.72852 4.44424 1.72852 4.44421 1.72852 4.44418C1.72852 4.44414 1.72852 4.44411 1.72852 4.44408C1.72852 4.44404 1.72852 4.44401 1.72852 4.44398C1.72852 4.44394 1.72852 4.44391 1.72852 4.44388C1.72852 4.44385 1.72852 4.44381 1.72852 4.44378C1.72852 4.44375 1.72852 4.44371 1.72852 4.44368C1.72852 4.44365 1.72852 4.44361 1.72852 4.44358C1.72852 4.44355 1.72852 4.44351 1.72852 4.44348C1.72852 4.44345 1.72852 4.44342 1.72852 4.44338C1.72852 4.44335 1.72852 4.44332 1.72852 4.44328C1.72852 4.44325 1.72852 4.44322 1.72852 4.44318C1.72852 4.44315 1.72852 4.44312 1.72852 4.44309C1.72852 4.44305 1.72852 4.44302 1.72852 4.44299C1.72852 4.44295 1.72852 4.44292 1.72852 4.44289C1.72852 4.44286 1.72852 4.44282 1.72852 4.44279C1.72852 4.44276 1.72852 4.44273 1.72852 4.44269C1.72852 4.44266 1.72852 4.44263 1.72852 4.4426C1.72852 4.44256 1.72852 4.44253 1.72852 4.4425C1.72852 4.44246 1.72852 4.44243 1.72852 4.4424C1.72852 4.44237 1.72852 4.44233 1.72852 4.4423C1.72852 4.44227 1.72852 4.44224 1.72852 4.4422C1.72852 4.44217 1.72852 4.44214 1.72852 4.44211C1.72852 4.44207 1.72852 4.44204 1.72852 4.44201C1.72852 4.44198 1.72852 4.44194 1.72852 4.44191C1.72852 4.44188 1.72852 4.44185 1.72852 4.44181C1.72852 4.44178 1.72852 4.44175 1.72852 4.44172C1.72852 4.44169 1.72852 4.44165 1.72852 4.44162C1.72852 4.44159 1.72852 4.44156 1.72852 4.44152C1.72852 4.44149 1.72852 4.44146 1.72852 4.44143C1.72852 4.4414 1.72852 4.44136 1.72852 4.44133C1.72852 4.4413 1.72852 4.44127 1.72852 4.44123C1.72852 4.4412 1.72852 4.44117 1.72852 4.44114C1.72852 4.44111 1.72852 4.44107 1.72852 4.44104C1.72852 4.44101 1.72852 4.44098 1.72852 4.44095C1.72852 4.44091 1.72852 4.44088 1.72852 4.44085C1.72852 4.44082 1.72852 4.44079 1.72852 4.44075C1.72852 4.44072 1.72852 4.44069 1.72852 4.44066C1.72852 4.44063 1.72852 4.44059 1.72852 4.44056C1.72852 4.44053 1.72852 4.4405 1.72852 4.44047C1.72852 4.44043 1.72852 4.4404 1.72852 4.44037C1.72852 4.44034 1.72852 4.44031 1.72852 4.44028C1.72852 4.44024 1.72852 4.44021 1.72852 4.44018C1.72852 4.44015 1.72852 4.44012 1.72852 4.44009C1.72852 4.44005 1.72852 4.44002 1.72852 4.43999C1.72852 4.43996 1.72852 4.43993 1.72852 4.43989C1.72852 4.43986 1.72852 4.43983 1.72852 4.4398C1.72852 4.43977 1.72852 4.43974 1.72852 4.43971C1.72852 4.43967 1.72852 4.43964 1.72852 4.43961C1.72852 4.43958 1.72852 4.43955 1.72852 4.43952C1.72852 4.43948 1.72852 4.43945 1.72852 4.43942C1.72852 4.43939 1.72852 4.43936 1.72852 4.43933C1.72852 4.4393 1.72852 4.43926 1.72852 4.43923C1.72852 4.4392 1.72852 4.43917 1.72852 4.43914C1.72852 4.43911 1.72852 4.43908 1.72852 4.43904C1.72852 4.43901 1.72852 4.43898 1.72852 4.43895C1.72852 4.43892 1.72852 4.43889 1.72852 4.43886C1.72852 4.43883 1.72852 4.43879 1.72852 4.43876C1.72852 4.43873 1.72852 4.4387 1.72852 4.43867C1.72852 4.43864 1.72852 4.43861 1.72852 4.43858C1.72852 4.43854 1.72852 4.43851 1.72852 4.43848C1.72852 4.43845 1.72852 4.43842 1.72852 4.43839C1.72852 4.43836 1.72852 4.43833 1.72852 4.43829C1.72852 4.43826 1.72852 4.43823 1.72852 4.4382C1.72852 4.43817 1.72852 4.43814 1.72852 4.43811C1.72852 4.43808 1.72852 4.43805 1.72852 4.43801C1.72852 4.43798 1.72852 4.43795 1.72852 4.43792C1.72852 4.43789 1.72852 4.43786 1.72852 4.43783C1.72852 4.4378 1.72852 4.43777 1.72852 4.43774C1.72852 4.43771 1.72852 4.43767 1.72852 4.43764C1.72852 4.43761 1.72852 4.43758 1.72852 4.43755C1.72852 4.43752 1.72852 4.43749 1.72852 4.43746C1.72852 4.43743 1.72852 4.4374 1.72852 4.43737C1.72852 4.43733 1.72852 4.4373 1.72852 4.43727C1.72852 4.43724 1.72852 4.43721 1.72852 4.43718C1.72852 4.43715 1.72852 4.43712 1.72852 4.43709C1.72852 4.43706 1.72852 4.43703 1.72852 4.437C1.72852 4.43697 1.72852 4.43694 1.72852 4.4369C1.72852 4.43687 1.72852 4.43684 1.72852 4.43681C1.72852 4.43678 1.72852 4.43675 1.72852 4.43672C1.72852 4.43669 1.72852 4.43666 1.72852 4.43663C1.72852 4.4366 1.72852 4.43657 1.72852 4.43654C1.72852 4.43651 1.72852 4.43648 1.72852 4.43645C1.72852 4.43641 1.72852 4.43638 1.72852 4.43635C1.72852 4.43632 1.72852 4.43629 1.72852 4.43626C1.72852 4.43623 1.72852 4.4362 1.72852 4.43617C1.72852 4.43614 1.72852 4.43611 1.72852 4.43608C1.72852 4.43605 1.72852 4.43602 1.72852 4.43599C1.72852 4.43596 1.72852 4.43593 1.72852 4.4359C1.72852 4.43587 1.72852 4.43584 1.72852 4.43581C1.72852 4.43578 1.72852 4.43575 1.72852 4.43571C1.72852 4.43568 1.72852 4.43565 1.72852 4.43562C1.72852 4.43559 1.72852 4.43556 1.72852 4.43553C1.72852 4.4355 1.72852 4.43547 1.72852 4.43544C1.72852 4.43541 1.72852 4.43538 1.72852 4.43535C1.72852 4.43532 1.72852 4.43529 1.72852 4.43526C1.72852 4.43523 1.72852 4.4352 1.72852 4.43517C1.72852 4.43514 1.72852 4.43511 1.72852 4.43508C1.72852 4.43505 1.72852 4.43502 1.72852 4.43499C1.72852 4.43496 1.72852 4.43493 1.72852 4.4349C1.72852 4.43487 1.72852 4.43484 1.72852 4.43481C1.72852 4.43478 1.72852 4.43475 1.72852 4.43472C1.72852 4.43469 1.72852 4.43466 1.72852 4.43463C1.72852 4.4346 1.72852 4.43457 1.72852 4.43454C1.72852 4.43451 1.72852 4.43448 1.72852 4.43445C1.72852 4.43442 1.72852 4.43439 1.72852 4.43436C1.72852 4.43433 1.72852 4.4343 1.72852 4.43427C1.72852 4.43424 1.72852 4.43421 1.72852 4.43418C1.72852 4.43415 1.72852 4.43412 1.72852 4.43409C1.72852 4.43406 1.72852 4.43403 1.72852 4.434C1.72852 4.43397 1.72852 4.43394 1.72852 4.43391C1.72852 4.43388 1.72852 4.43385 1.72852 4.43382C1.72852 4.43379 1.72852 4.43376 1.72852 4.43373C1.72852 4.4337 1.72852 4.43367 1.72852 4.43364C1.72852 4.43361 1.72852 4.43358 1.72852 4.43355C1.72852 4.43352 1.72852 4.43349 1.72852 4.43346C1.72852 4.43343 1.72852 4.4334 1.72852 4.43337C1.72852 4.43334 1.72852 4.43331 1.72852 4.43328C1.72852 4.43325 1.72852 4.43322 1.72852 4.43319C1.72852 4.43316 1.72852 4.43314 1.72852 4.43311C1.72852 4.43308 1.72852 4.43305 1.72852 4.43302C1.72852 4.43299 1.72852 4.43296 1.72852 4.43293C1.72852 4.4329 1.72852 4.43287 1.72852 4.43284C1.72852 4.43281 1.72852 4.43278 1.72852 4.43275C1.72852 4.43272 1.72852 4.43269 1.72852 4.43266C1.72852 4.43263 1.72852 4.4326 1.72852 4.43257C1.72852 4.43254 1.72852 4.43251 1.72852 4.43248C1.72852 4.43245 1.72852 4.43242 1.72852 4.43239C1.72852 4.43237 1.72852 4.43234 1.72852 4.43231C1.72852 4.43228 1.72852 4.43225 1.72852 4.43222C1.72852 4.43219 1.72852 4.43216 1.72852 4.43213C1.72852 4.4321 1.72852 4.43207 1.72852 4.43204C1.72852 4.43201 1.72852 4.43198 1.72852 4.43195C1.72852 4.43192 1.72852 4.43189 1.72852 4.43186C1.72852 4.43184 1.72852 4.43181 1.72852 4.43178C1.72852 4.43175 1.72852 4.43172 1.72852 4.43169C1.72852 4.43166 1.72852 4.43163 1.72852 4.4316C1.72852 4.43157 1.72852 4.43154 1.72852 4.43151C1.72852 4.43148 1.72852 4.43145 1.72852 4.43142C1.72852 4.4314 1.72852 4.43137 1.72852 4.43134C1.72852 4.43131 1.72852 4.43128 1.72852 4.43125C1.72852 4.43122 1.72852 4.43119 1.72852 4.43116C1.72852 4.43113 1.72852 4.4311 1.72852 4.43107C1.72852 4.43104 1.72852 4.43101 1.72852 4.43099C1.72852 4.43096 1.72852 4.43093 1.72852 4.4309C1.72852 4.43087 1.72852 4.43084 1.72852 4.43081C1.72852 4.43078 1.72852 4.43075 1.72852 4.43072C1.72852 4.43069 1.72852 4.43066 1.72852 4.43063C1.72852 4.43061 1.72852 4.43058 1.72852 4.43055C1.72852 4.43052 1.72852 4.43049 1.72852 4.43046C1.72852 4.43043 1.72852 4.4304 1.72852 4.43037C1.72852 4.43034 1.72852 4.43031 1.72852 4.43029C1.72852 4.43026 1.72852 4.43023 1.72852 4.4302C1.72852 4.43017 1.72852 4.43014 1.72852 4.43011C1.72852 4.43008 1.72852 4.43005 1.72852 4.43002C1.72852 4.42999 1.72852 4.42997 1.72852 4.42994C1.72852 4.42991 1.72852 4.42988 1.72852 4.42985C1.72852 4.42982 1.72852 4.42979 1.72852 4.42976C1.72852 4.42973 1.72852 4.4297 1.72852 4.42967C1.72852 4.42965 1.72852 4.42962 1.72852 4.42959C1.72852 4.42956 1.72852 4.42953 1.72852 4.4295C1.72852 4.42947 1.72852 4.42944 1.72852 4.42941C1.72852 4.42938 1.72852 4.42936 1.72852 4.42933C1.72852 4.4293 1.72852 4.42927 1.72852 4.42924C1.72852 4.42921 1.72852 4.42918 1.72852 4.42915C1.72852 4.42912 1.72852 4.4291 1.72852 4.42907C1.72852 4.42904 1.72852 4.42901 1.72852 4.42898C1.72852 4.42895 1.72852 4.42892 1.72852 4.42889C1.72852 4.42886 1.72852 4.42884 1.72852 4.42881C1.72852 4.42878 1.72852 4.42875 1.72852 4.42872C1.72852 4.42869 1.72852 4.42866 1.72852 4.42863C1.72852 4.4286 1.72852 4.42858 1.72852 4.42855C1.72852 4.42852 1.72852 4.42849 1.72852 4.42846C1.72852 4.42843 1.72852 4.4284 1.72852 4.42837C1.72852 4.42834 1.72852 4.42832 1.72852 4.42829C1.72852 4.42826 1.72852 4.42823 1.72852 4.4282C1.72852 4.42817 1.72852 4.42814 1.72852 4.42811C1.72852 4.42809 1.72852 4.42806 1.72852 4.42803C1.72852 4.428 1.72852 4.42797 1.72852 4.42794C1.72852 4.42791 1.72852 4.42788 1.72852 4.42786C1.72852 4.42783 1.72852 4.4278 1.72852 4.42777C1.72852 4.42774 1.72852 4.42771 1.72852 4.42768C1.72852 4.42765 1.72852 4.42763 1.72852 4.4276C1.72852 4.42757 1.72852 4.42754 1.72852 4.42751C1.72852 4.42748 1.72852 4.42745 1.72852 4.42742C1.72852 4.4274 1.72852 4.42737 1.72852 4.42734C1.72852 4.42731 1.72852 4.42728 1.72852 4.42725C1.72852 4.42722 1.72852 4.42719 1.72852 4.42717C1.72852 4.42714 1.72852 4.42711 1.72852 4.42708C1.72852 4.42705 1.72852 4.42702 1.72852 4.42699C1.72852 4.42696 1.72852 4.42694 1.72852 4.42691C1.72852 4.42688 1.72852 4.42685 1.72852 4.42682C1.72852 4.42679 1.72852 4.42676 1.72852 4.42674C1.72852 4.42671 1.72852 4.42668 1.72852 4.42665C1.72852 4.42662 1.72852 4.42659 1.72852 4.42656C1.72852 4.42654 1.72852 4.42651 1.72852 4.42648C1.72852 4.42645 1.72852 4.42642 1.72852 4.42639C1.72852 4.42636 1.72852 4.42633 1.72852 4.42631C1.72852 4.42628 1.72852 4.42625 1.72852 4.42622C1.72852 4.42619 1.72852 4.42616 1.72852 4.42613C1.72852 4.42611 1.72852 4.42608 1.72852 4.42605C1.72852 4.42602 1.72852 4.42599 1.72852 4.42596C1.72852 4.42593 1.72852 4.42591 1.72852 4.42588C1.72852 4.42585 1.72852 4.42582 1.72852 4.42579C1.72852 4.42576 1.72852 4.42573 1.72852 4.42571C1.72852 4.42568 1.72852 4.42565 1.72852 4.42562C1.72852 4.42559 1.72852 4.42556 1.72852 4.42553C1.72852 4.42551 1.72852 4.42548 1.72852 4.42545C1.72852 4.42542 1.72852 4.42539 1.72852 4.42536C1.72852 4.42533 1.72852 4.42531 1.72852 4.42528C1.72852 4.42525 1.72852 4.42522 1.72852 4.42519C1.72852 4.42516 1.72852 4.42513 1.72852 4.42511C1.72852 4.42508 1.72852 4.42505 1.72852 4.42502C1.72852 4.42499 1.72852 4.42496 1.72852 4.42493C1.72852 4.42491 1.72852 4.42488 1.72852 4.42485C1.72852 4.42482 1.72852 4.42479 1.72852 4.42476C1.72852 4.42474 1.72852 4.42471 1.72852 4.42468C1.72852 4.42465 1.72852 4.42462 1.72852 4.42459C1.72852 4.42456 1.72852 4.42454 1.72852 4.42451C1.72852 4.42448 1.72852 4.42445 1.72852 4.42442C1.72852 4.42439 1.72852 4.42436 1.72852 4.42434C1.72852 4.42431 1.72852 4.42428 1.72852 4.42425C1.72852 4.42422 1.72852 4.42419 1.72852 4.42417C1.72852 4.42414 1.72852 4.42411 1.72852 4.42408C1.72852 4.42405 1.72852 4.42402 1.72852 4.42399C1.72852 4.42397 1.72852 4.42394 1.72852 4.42391C1.72852 4.42388 1.72852 4.42385 1.72852 4.42382C1.72852 4.42379 1.72852 4.42377 1.72852 4.42374C1.72852 4.42371 1.72852 4.42368 1.72852 4.42365C1.72852 4.42362 1.72852 4.4236 1.72852 4.42357C1.72852 4.42354 1.72852 4.42351 1.72852 4.42348C1.72852 4.42345 1.72852 4.42342 1.72852 4.4234C1.72852 4.42337 1.72852 4.42334 1.72852 4.42331C1.72852 4.42328 1.72852 4.42325 1.72852 4.42322C1.72852 4.4232 1.72852 4.42317 1.72852 4.42314C1.72852 4.42311 1.72852 4.42308 1.72852 4.42305C1.72852 4.42303 1.72852 4.423 1.72852 4.42297C1.72852 4.42294 1.72852 4.42291 1.72852 4.42288C1.72852 4.42285 1.72852 4.42283 1.72852 4.4228C1.72852 4.42277 1.72852 4.42274 1.72852 4.42271C1.72852 4.42268 1.72852 4.42266 1.72852 4.42263C1.72852 4.4226 1.72852 4.42257 1.72852 4.42254C1.72852 4.42251 1.72852 4.42248 1.72852 4.42246C1.72852 4.42243 1.72852 4.4224 1.72852 4.42237C1.72852 4.42234 1.72852 4.42231 1.72852 4.42228C1.72852 4.42226 1.72852 4.42223 1.72852 4.4222C1.72852 4.42217 1.72852 4.42214 1.72852 4.42211C1.72852 4.42209 1.72852 4.42206 1.72852 4.42203C1.72852 4.422 1.72852 4.42197 1.72852 4.42194C1.72852 4.42191 1.72852 4.42189 1.72852 4.42186C1.72852 4.42183 1.72852 4.4218 1.72852 4.42177C1.72852 4.42174 1.72852 4.42172 1.72852 4.42169C1.72852 4.42166 1.72852 4.42163 1.72852 4.4216C1.72852 4.42157 1.72852 4.42154 1.72852 4.42152C1.72852 4.42149 1.72852 4.42146 1.72852 4.42143C1.72852 4.4214 1.72852 4.42137 1.72852 4.42134C1.72852 4.42132 1.72852 4.42129 1.72852 4.42126C1.72852 4.42123 1.72852 4.4212 1.72852 4.42117C1.72852 4.42114 1.72852 4.42112 1.72852 4.42109C1.72852 4.42106 1.72852 4.42103 1.72852 4.421C1.72852 4.42097 1.72852 4.42095 1.72852 4.42092C1.72852 4.42089 1.72852 4.42086 1.72852 4.42083C1.72852 4.4208 1.72852 4.42077 1.72852 4.42075C1.72852 4.42072 1.72852 4.42069 1.72852 4.42066C1.72852 4.42063 1.72852 4.4206 1.72852 4.42057C1.72852 4.42055 1.72852 4.42052 1.72852 4.42049C1.72852 4.42046 1.72852 4.42043 1.72852 4.4204C1.72852 4.42037 1.72852 4.42035 1.72852 4.42032C1.72852 4.42029 1.72852 4.42026 1.72852 4.42023C1.72852 4.4202 1.72852 4.42017 1.72852 4.42015C1.72852 4.42012 1.72852 4.42009 1.72852 4.42006C1.72852 4.42003 1.72852 4.42 1.72852 4.41997C1.72852 4.41995 1.72852 4.41992 1.72852 4.41989C1.72852 4.41986 1.72852 4.41983 1.72852 4.4198C1.72852 4.41977 1.72852 4.41975 1.72852 4.41972C1.72852 4.41969 1.72852 4.41966 1.72852 4.41963C1.72852 4.4196 1.72852 4.41957 1.72852 4.41954C1.72852 4.41952 1.72852 4.41949 1.72852 4.41946C1.72852 4.41943 1.72852 4.4194 1.72852 4.41937C1.72852 4.41934 1.72852 4.41932 1.72852 4.41929C1.72852 4.41926 1.72852 4.41923 1.72852 4.4192C1.72852 4.41917 1.72852 4.41914 1.72852 4.41912C1.72852 4.41909 1.72852 4.41906 1.72852 4.41903C1.72852 4.419 1.72852 4.41897 1.72852 4.41894C1.72852 4.41891 1.72852 4.41889 1.72852 4.41886C1.72852 4.41883 1.72852 4.4188 1.72852 4.41877C1.72852 4.41874 1.72852 4.41871 1.72852 4.41869C1.72852 4.41866 1.72852 4.41863 1.72852 4.4186C1.72852 4.41857 1.72852 4.41854 1.72852 4.41851C1.72852 4.41848 1.72852 4.41846 1.72852 4.41843C1.72852 4.4184 1.72852 4.41837 1.72852 4.41834C1.72852 4.41831 1.72852 4.41828 1.72852 4.41825C1.72852 4.41823 1.72852 4.4182 1.72852 4.41817C1.72852 4.41814 1.72852 4.41811 1.72852 4.41808C1.72852 4.41805 1.72852 4.41802 1.72852 4.418C1.72852 4.41797 1.72852 4.41794 1.72852 4.41791C1.72852 4.41788 1.72852 4.41785 1.72852 4.41782C1.72852 4.41779 1.72852 4.41777 1.72852 4.41774C1.72852 4.41771 1.72852 4.41768 1.72852 4.41765C1.72852 4.41762 1.72852 4.41759 1.72852 4.41756C1.72852 4.41753 1.72852 4.41751 1.72852 4.41748C1.72852 4.41745 1.72852 4.41742 1.72852 4.41739C1.72852 4.41736 1.72852 4.41733 1.72852 4.4173C1.72852 4.41728 1.72852 4.41725 1.72852 4.41722C1.72852 4.41719 1.72852 4.41716 1.72852 4.41713C1.72852 4.4171 1.72852 4.41707 1.72852 4.41704C1.72852 4.41702 1.72852 4.41699 1.72852 4.41696C1.72852 4.41693 1.72852 4.4169 1.72852 4.41687C1.72852 4.41684 1.72852 4.41681 1.72852 4.41678C1.72852 4.41675 1.72852 4.41673 1.72852 4.4167C1.72852 4.41667 1.72852 4.41664 1.72852 4.41661C1.72852 4.41658 1.72852 4.41655 1.72852 4.41652C1.72852 4.41649 1.72852 4.41647 1.72852 4.41644C1.72852 4.41641 1.72852 4.41638 1.72852 4.41635C1.72852 4.41632 1.72852 4.41629 1.72852 4.41626C1.72852 4.41623 1.72852 4.4162 1.72852 4.41618C1.72852 4.41615 1.72852 4.41612 1.72852 4.41609C1.72852 4.41606 1.72852 4.41603 1.72852 4.416C1.72852 4.41597 1.72852 4.41594 1.72852 4.41591C1.72852 4.41588 1.72852 4.41586 1.72852 4.41583C1.72852 4.4158 1.72852 4.41577 1.72852 4.41574C1.72852 4.41571 1.72852 4.41568 1.72852 4.41565C1.72852 4.41562 1.72852 4.41559 1.72852 4.41556C1.72852 4.41554 1.72852 4.41551 1.72852 4.41548C1.72852 4.41545 1.72852 4.41542 1.72852 4.41539C1.72852 4.41536 1.72852 4.41533 1.72852 4.4153C1.72852 4.41527 1.72852 4.41524 1.72852 4.41521C1.72852 4.41519 1.72852 4.41516 1.72852 4.41513C1.72852 4.4151 1.72852 4.41507 1.72852 4.41504C1.72852 4.41501 1.72852 4.41498 1.72852 4.41495C1.72852 4.41492 1.72852 4.41489 1.72852 4.41486C1.72852 4.41483 1.72852 4.41481 1.72852 4.41478C1.72852 4.41475 1.72852 4.41472 1.72852 4.41469C1.72852 4.41466 1.72852 4.41463 1.72852 4.4146C1.72852 4.41457 1.72852 4.41454 1.72852 4.41451C1.72852 4.41448 1.72852 4.41445 1.72852 4.41442C1.72852 4.4144 1.72852 4.41437 1.72852 4.41434C1.72852 4.41431 1.72852 4.41428 1.72852 4.41425C1.72852 4.41422 1.72852 4.41419 1.72852 4.41416C1.72852 4.41413 1.72852 4.4141 1.72852 4.41407C1.72852 4.41404 1.72852 4.41401 1.72852 4.41398C1.72852 4.41395 1.72852 4.41393 1.72852 4.4139C1.72852 4.41387 1.72852 4.41384 1.72852 4.41381C1.72852 4.41378 1.72852 4.41375 1.72852 4.41372C1.72852 4.41369 1.72852 4.41366 1.72852 4.41363C1.72852 4.4136 1.72852 4.41357 1.72852 4.41354C1.72852 4.41351 1.72852 4.41348 1.72852 4.41345C1.72852 4.41342 1.72852 4.41339 1.72852 4.41336C1.72852 4.41334 1.72852 4.41331 1.72852 4.41328C1.72852 4.41325 1.72852 4.41322 1.72852 4.41319C1.72852 4.41316 1.72852 4.41313 1.72852 4.4131C1.72852 4.41307 1.72852 4.41304 1.72852 4.41301C1.72852 4.41298 1.72852 4.41295 1.72852 4.41292C1.72852 4.41289 1.72852 4.41286 1.72852 4.41283C1.72852 4.4128 1.72852 4.41277 1.72852 4.41274C1.72852 4.41271 1.72852 4.41268 1.72852 4.41265C1.72852 4.41262 1.72852 4.41259 1.72852 4.41256C1.72852 4.41253 1.72852 4.4125 1.72852 4.41248C1.72852 4.41245 1.72852 4.41242 1.72852 4.41239C1.72852 4.41236 1.72852 4.41233 1.72852 4.4123C1.72852 4.41227 1.72852 4.41224 1.72852 4.41221C1.72852 4.41218 1.72852 4.41215 1.72852 4.41212C1.72852 4.41209 1.72852 4.41206 1.72852 4.41203C1.72852 4.412 1.72852 4.41197 1.72852 4.41194C1.72852 4.41191 1.72852 4.41188 1.72852 4.41185C1.72852 4.41182 1.72852 4.41179 1.72852 4.41176C1.72852 4.41173 1.72852 4.4117 1.72852 4.41167C1.72852 4.41164 1.72852 4.41161 1.72852 4.41158C1.72852 4.41155 1.72852 4.41152 1.72852 4.41149C1.72852 4.41146 1.72852 4.41143 1.72852 4.4114C1.72852 4.41137 1.72852 4.41134 1.72852 4.41131C1.72852 4.41128 1.72852 4.41125 1.72852 4.41122C1.72852 4.41119 1.72852 4.41116 1.72852 4.41113C1.72852 4.4111 1.72852 4.41107 1.72852 4.41104C1.72852 4.41101 1.72852 4.41098 1.72852 4.41095C1.72852 4.41092 1.72852 4.41089 1.72852 4.41086C1.72852 4.41083 1.72852 4.4108 1.72852 4.41077C1.72852 4.41074 1.72852 4.41071 1.72852 4.41068C1.72852 4.41065 1.72852 4.41062 1.72852 4.41059C1.72852 4.41056 1.72852 4.41053 1.72852 4.4105C1.72852 4.41047 1.72852 4.41043 1.72852 4.4104C1.72852 4.41037 1.72852 4.41034 1.72852 4.41031C1.72852 4.41028 1.72852 4.41025 1.72852 4.41022C1.72852 4.41019 1.72852 4.41016 1.72852 4.41013C1.72852 4.4101 1.72852 4.41007 1.72852 4.41004C1.72852 4.41001 1.72852 4.40998 1.72852 4.40995C1.72852 4.40992 1.72852 4.40989 1.72852 4.40986C1.72852 4.40983 1.72852 4.4098 1.72852 4.40977C1.72852 4.40974 1.72852 4.40971 1.72852 4.40968C1.72852 4.40964 1.72852 4.40961 1.72852 4.40958C1.72852 4.40955 1.72852 4.40952 1.72852 4.40949C1.72852 4.40946 1.72852 4.40943 1.72852 4.4094C1.72852 4.40937 1.72852 4.40934 1.72852 4.40931C1.72852 4.40928 1.72852 4.40925 1.72852 4.40922C1.72852 4.40919 1.72852 4.40916 1.72852 4.40912C1.72852 4.40909 1.72852 4.40906 1.72852 4.40903C1.72852 4.409 1.72852 4.40897 1.72852 4.40894C1.72852 4.40891 1.72852 4.40888 1.72852 4.40885C1.72852 4.40882 1.72852 4.40879 1.72852 4.40876C1.72852 4.40873 1.72852 4.40869 1.72852 4.40866C1.72852 4.40863 1.72852 4.4086 1.72852 4.40857C1.72852 4.40854 1.72852 4.40851 1.72852 4.40848C1.72852 4.40845 1.72852 4.40842 1.72852 4.40839C1.72852 4.40836 1.72852 4.40832 1.72852 4.40829C1.72852 4.40826 1.72852 4.40823 1.72852 4.4082C1.72852 4.40817 1.72852 4.40814 1.72852 4.40811C1.72852 4.40808 1.72852 4.40805 1.72852 4.40802C1.72852 4.40798 1.72852 4.40795 1.72852 4.40792C1.72852 4.40789 1.72852 4.40786 1.72852 4.40783C1.72852 4.4078 1.72852 4.40777 1.72852 4.40774C1.72852 4.4077 1.72852 4.40767 1.72852 4.40764C1.72852 4.40761 1.72852 4.40758 1.72852 4.40755C1.72852 4.40752 1.72852 4.40749 1.72852 4.40746C1.72852 4.40742 1.72852 4.40739 1.72852 4.40736C1.72852 4.40733 1.72852 4.4073 1.72852 4.40727C1.72852 4.40724 1.72852 4.40721 1.72852 4.40717C1.72852 4.40714 1.72852 4.40711 1.72852 4.40708C1.72852 4.40705 1.72852 4.40702 1.72852 4.40699C1.72852 4.40696 1.72852 4.40692 1.72852 4.40689C1.72852 4.40686 1.72852 4.40683 1.72852 4.4068C1.72852 4.40677 1.72852 4.40674 1.72852 4.4067C1.72852 4.40667 1.72852 4.40664 1.72852 4.40661C1.72852 4.40658 1.72852 4.40655 1.72852 4.40652C1.72852 4.40648 1.72852 4.40645 1.72852 4.40642C1.72852 4.40639 1.72852 4.40636 1.72852 4.40633C1.72852 4.4063 1.72852 4.40626 1.72852 4.40623C1.72852 4.4062 1.72852 4.40617 1.72852 4.40614C1.72852 4.40611 1.72852 4.40607 1.72852 4.40604C1.72852 4.40601 1.72852 4.40598 1.72852 4.40595C1.72852 4.40592 1.72852 4.40588 1.72852 4.40585C1.72852 4.40582 1.72852 4.40579 1.72852 4.40576C1.72852 4.40573 1.72852 4.40569 1.72852 4.40566C1.72852 4.40563 1.72852 4.4056 1.72852 4.40557C1.72852 4.40553 1.72852 4.4055 1.72852 4.40547C1.72852 4.40544 1.72852 4.40541 1.72852 4.40538C1.72852 4.40534 1.72852 4.40531 1.72852 4.40528C1.72852 4.40525 1.72852 4.40522 1.72852 4.40518C1.72852 4.40515 1.72852 4.40512 1.72852 4.40509C1.72852 4.40506 1.72852 4.40502 1.72852 4.40499C1.72852 4.40496 1.72852 4.40493 1.72852 4.4049C1.72852 4.40486 1.72852 4.40483 1.72852 4.4048C1.72852 4.40477 1.72852 4.40473 1.72852 4.4047C1.72852 4.40467 1.72852 4.40464 1.72852 4.40461C1.72852 4.40457 1.72852 4.40454 1.72852 4.40451C1.72852 4.40448 1.72852 4.40445 1.72852 4.40441C1.72852 4.40438 1.72852 4.40435 1.72852 4.40432C1.72852 4.40428 1.72852 4.40425 1.72852 4.40422C1.72852 4.40419 1.72852 4.40415 1.72852 4.40412C1.72852 4.40409 1.72852 4.40406 1.72852 4.40403C1.72852 4.40399 1.72852 4.40396 1.72852 4.40393C1.72852 4.4039 1.72852 4.40386 1.72852 4.40383C1.72852 4.4038 1.72852 4.40377 1.72852 4.40373C1.72852 4.4037 1.72852 4.40367 1.72852 4.40364C1.72852 4.4036 1.72852 4.40357 1.72852 4.40354C1.72852 4.40351 1.72852 4.40347 1.72852 4.40344C1.72852 4.40341 1.72852 4.40337 1.72852 4.40334C1.72852 4.40331 1.72852 4.40328 1.72852 4.40324C1.72852 4.40321 1.72852 4.40318 1.72852 4.40315C1.72852 4.40311 1.72852 4.40308 1.72852 4.40305C1.72852 4.40302 1.72852 4.40298 1.72852 4.40295C1.72852 4.40292 1.72852 4.40288 1.72852 4.40285C1.72852 4.40282 1.72852 4.40279 1.72852 4.40275C1.72852 4.40272 1.72852 4.40269 1.72852 4.40265C1.72852 4.40262 1.72852 4.40259 1.72852 4.40255C1.72852 4.40252 1.72852 4.40249 1.72852 4.40246C1.72852 4.40242 1.72852 4.40239 1.72852 4.40236C1.72852 4.40232 1.72852 4.40229 1.72852 4.40226C1.72852 4.40222 1.72852 4.40219 1.72852 4.40216C1.72852 4.40213 1.72852 4.40209 1.72852 4.40206C1.72852 4.40203 1.72852 4.40199 1.72852 4.40196C1.72852 4.40193 1.72852 4.40189 1.72852 4.40186C1.72852 4.40183 1.72852 4.40179 1.72852 4.40176C1.72852 4.40173 1.72852 4.40169 1.72852 4.40166C1.72852 4.40163 1.72852 4.40159 1.72852 4.40156C1.72852 4.40153 1.72852 4.40149 1.72852 4.40146C1.72852 4.40143 1.72852 4.40139 1.72852 4.40136C1.72852 4.40133 1.72852 4.40129 1.72852 4.40126C1.72852 4.40123 1.72852 4.40119 1.72852 4.40116C1.72852 4.40113 1.72852 4.40109 1.72852 4.40106C1.72852 4.40102 1.72852 4.40099 1.72852 4.40096C1.72852 4.40092 1.72852 4.40089 1.72852 4.40086C1.72852 4.40082 1.72852 4.40079 1.72852 4.40076C1.72852 4.40072 1.72852 4.40069 1.72852 4.40065C1.72852 4.40062 1.72852 4.40059 1.72852 4.40055C1.72852 4.40052 1.72852 4.40049 1.72852 4.40045C1.72852 4.40042 1.72852 4.40038 1.72852 4.40035C1.72852 4.40032 1.72852 4.40028 1.72852 4.40025C1.72852 4.40021 1.72852 4.40018 1.72852 4.40015C1.72852 4.40011 1.72852 4.40008 1.72852 4.40004C1.72852 4.40001 1.72852 4.39998 1.72852 4.39994C1.72852 4.39991 1.72852 4.39987 1.72852 4.39984C1.72852 4.39981 1.72852 4.39977 1.72852 4.39974C1.72852 4.3997 1.72852 4.39967 1.72852 4.39964H-0.271484C-0.271484 4.39967 -0.271484 4.3997 -0.271484 4.39974C-0.271484 4.39977 -0.271484 4.39981 -0.271484 4.39984C-0.271484 4.39987 -0.271484 4.39991 -0.271484 4.39994C-0.271484 4.39998 -0.271484 4.40001 -0.271484 4.40004C-0.271484 4.40008 -0.271484 4.40011 -0.271484 4.40015C-0.271484 4.40018 -0.271484 4.40021 -0.271484 4.40025C-0.271484 4.40028 -0.271484 4.40032 -0.271484 4.40035C-0.271484 4.40038 -0.271484 4.40042 -0.271484 4.40045C-0.271484 4.40049 -0.271484 4.40052 -0.271484 4.40055C-0.271484 4.40059 -0.271484 4.40062 -0.271484 4.40065C-0.271484 4.40069 -0.271484 4.40072 -0.271484 4.40076C-0.271484 4.40079 -0.271484 4.40082 -0.271484 4.40086C-0.271484 4.40089 -0.271484 4.40092 -0.271484 4.40096C-0.271484 4.40099 -0.271484 4.40102 -0.271484 4.40106C-0.271484 4.40109 -0.271484 4.40113 -0.271484 4.40116C-0.271484 4.40119 -0.271484 4.40123 -0.271484 4.40126C-0.271484 4.40129 -0.271484 4.40133 -0.271484 4.40136C-0.271484 4.40139 -0.271484 4.40143 -0.271484 4.40146C-0.271484 4.40149 -0.271484 4.40153 -0.271484 4.40156C-0.271484 4.40159 -0.271484 4.40163 -0.271484 4.40166C-0.271484 4.40169 -0.271484 4.40173 -0.271484 4.40176C-0.271484 4.40179 -0.271484 4.40183 -0.271484 4.40186C-0.271484 4.40189 -0.271484 4.40193 -0.271484 4.40196C-0.271484 4.40199 -0.271484 4.40203 -0.271484 4.40206C-0.271484 4.40209 -0.271484 4.40213 -0.271484 4.40216C-0.271484 4.40219 -0.271484 4.40222 -0.271484 4.40226C-0.271484 4.40229 -0.271484 4.40232 -0.271484 4.40236C-0.271484 4.40239 -0.271484 4.40242 -0.271484 4.40246C-0.271484 4.40249 -0.271484 4.40252 -0.271484 4.40255C-0.271484 4.40259 -0.271484 4.40262 -0.271484 4.40265C-0.271484 4.40269 -0.271484 4.40272 -0.271484 4.40275C-0.271484 4.40279 -0.271484 4.40282 -0.271484 4.40285C-0.271484 4.40288 -0.271484 4.40292 -0.271484 4.40295C-0.271484 4.40298 -0.271484 4.40302 -0.271484 4.40305C-0.271484 4.40308 -0.271484 4.40311 -0.271484 4.40315C-0.271484 4.40318 -0.271484 4.40321 -0.271484 4.40324C-0.271484 4.40328 -0.271484 4.40331 -0.271484 4.40334C-0.271484 4.40337 -0.271484 4.40341 -0.271484 4.40344C-0.271484 4.40347 -0.271484 4.40351 -0.271484 4.40354C-0.271484 4.40357 -0.271484 4.4036 -0.271484 4.40364C-0.271484 4.40367 -0.271484 4.4037 -0.271484 4.40373C-0.271484 4.40377 -0.271484 4.4038 -0.271484 4.40383C-0.271484 4.40386 -0.271484 4.4039 -0.271484 4.40393C-0.271484 4.40396 -0.271484 4.40399 -0.271484 4.40403C-0.271484 4.40406 -0.271484 4.40409 -0.271484 4.40412C-0.271484 4.40415 -0.271484 4.40419 -0.271484 4.40422C-0.271484 4.40425 -0.271484 4.40428 -0.271484 4.40432C-0.271484 4.40435 -0.271484 4.40438 -0.271484 4.40441C-0.271484 4.40445 -0.271484 4.40448 -0.271484 4.40451C-0.271484 4.40454 -0.271484 4.40457 -0.271484 4.40461C-0.271484 4.40464 -0.271484 4.40467 -0.271484 4.4047C-0.271484 4.40473 -0.271484 4.40477 -0.271484 4.4048C-0.271484 4.40483 -0.271484 4.40486 -0.271484 4.4049C-0.271484 4.40493 -0.271484 4.40496 -0.271484 4.40499C-0.271484 4.40502 -0.271484 4.40506 -0.271484 4.40509C-0.271484 4.40512 -0.271484 4.40515 -0.271484 4.40518C-0.271484 4.40522 -0.271484 4.40525 -0.271484 4.40528C-0.271484 4.40531 -0.271484 4.40534 -0.271484 4.40538C-0.271484 4.40541 -0.271484 4.40544 -0.271484 4.40547C-0.271484 4.4055 -0.271484 4.40553 -0.271484 4.40557C-0.271484 4.4056 -0.271484 4.40563 -0.271484 4.40566C-0.271484 4.40569 -0.271484 4.40573 -0.271484 4.40576C-0.271484 4.40579 -0.271484 4.40582 -0.271484 4.40585C-0.271484 4.40588 -0.271484 4.40592 -0.271484 4.40595C-0.271484 4.40598 -0.271484 4.40601 -0.271484 4.40604C-0.271484 4.40607 -0.271484 4.40611 -0.271484 4.40614C-0.271484 4.40617 -0.271484 4.4062 -0.271484 4.40623C-0.271484 4.40626 -0.271484 4.4063 -0.271484 4.40633C-0.271484 4.40636 -0.271484 4.40639 -0.271484 4.40642C-0.271484 4.40645 -0.271484 4.40648 -0.271484 4.40652C-0.271484 4.40655 -0.271484 4.40658 -0.271484 4.40661C-0.271484 4.40664 -0.271484 4.40667 -0.271484 4.4067C-0.271484 4.40674 -0.271484 4.40677 -0.271484 4.4068C-0.271484 4.40683 -0.271484 4.40686 -0.271484 4.40689C-0.271484 4.40692 -0.271484 4.40696 -0.271484 4.40699C-0.271484 4.40702 -0.271484 4.40705 -0.271484 4.40708C-0.271484 4.40711 -0.271484 4.40714 -0.271484 4.40717C-0.271484 4.40721 -0.271484 4.40724 -0.271484 4.40727C-0.271484 4.4073 -0.271484 4.40733 -0.271484 4.40736C-0.271484 4.40739 -0.271484 4.40742 -0.271484 4.40746C-0.271484 4.40749 -0.271484 4.40752 -0.271484 4.40755C-0.271484 4.40758 -0.271484 4.40761 -0.271484 4.40764C-0.271484 4.40767 -0.271484 4.4077 -0.271484 4.40774C-0.271484 4.40777 -0.271484 4.4078 -0.271484 4.40783C-0.271484 4.40786 -0.271484 4.40789 -0.271484 4.40792C-0.271484 4.40795 -0.271484 4.40798 -0.271484 4.40802C-0.271484 4.40805 -0.271484 4.40808 -0.271484 4.40811C-0.271484 4.40814 -0.271484 4.40817 -0.271484 4.4082C-0.271484 4.40823 -0.271484 4.40826 -0.271484 4.40829C-0.271484 4.40832 -0.271484 4.40836 -0.271484 4.40839C-0.271484 4.40842 -0.271484 4.40845 -0.271484 4.40848C-0.271484 4.40851 -0.271484 4.40854 -0.271484 4.40857C-0.271484 4.4086 -0.271484 4.40863 -0.271484 4.40866C-0.271484 4.40869 -0.271484 4.40873 -0.271484 4.40876C-0.271484 4.40879 -0.271484 4.40882 -0.271484 4.40885C-0.271484 4.40888 -0.271484 4.40891 -0.271484 4.40894C-0.271484 4.40897 -0.271484 4.409 -0.271484 4.40903C-0.271484 4.40906 -0.271484 4.40909 -0.271484 4.40912C-0.271484 4.40916 -0.271484 4.40919 -0.271484 4.40922C-0.271484 4.40925 -0.271484 4.40928 -0.271484 4.40931C-0.271484 4.40934 -0.271484 4.40937 -0.271484 4.4094C-0.271484 4.40943 -0.271484 4.40946 -0.271484 4.40949C-0.271484 4.40952 -0.271484 4.40955 -0.271484 4.40958C-0.271484 4.40961 -0.271484 4.40964 -0.271484 4.40968C-0.271484 4.40971 -0.271484 4.40974 -0.271484 4.40977C-0.271484 4.4098 -0.271484 4.40983 -0.271484 4.40986C-0.271484 4.40989 -0.271484 4.40992 -0.271484 4.40995C-0.271484 4.40998 -0.271484 4.41001 -0.271484 4.41004C-0.271484 4.41007 -0.271484 4.4101 -0.271484 4.41013C-0.271484 4.41016 -0.271484 4.41019 -0.271484 4.41022C-0.271484 4.41025 -0.271484 4.41028 -0.271484 4.41031C-0.271484 4.41034 -0.271484 4.41037 -0.271484 4.4104C-0.271484 4.41043 -0.271484 4.41047 -0.271484 4.4105C-0.271484 4.41053 -0.271484 4.41056 -0.271484 4.41059C-0.271484 4.41062 -0.271484 4.41065 -0.271484 4.41068C-0.271484 4.41071 -0.271484 4.41074 -0.271484 4.41077C-0.271484 4.4108 -0.271484 4.41083 -0.271484 4.41086C-0.271484 4.41089 -0.271484 4.41092 -0.271484 4.41095C-0.271484 4.41098 -0.271484 4.41101 -0.271484 4.41104C-0.271484 4.41107 -0.271484 4.4111 -0.271484 4.41113C-0.271484 4.41116 -0.271484 4.41119 -0.271484 4.41122C-0.271484 4.41125 -0.271484 4.41128 -0.271484 4.41131C-0.271484 4.41134 -0.271484 4.41137 -0.271484 4.4114C-0.271484 4.41143 -0.271484 4.41146 -0.271484 4.41149C-0.271484 4.41152 -0.271484 4.41155 -0.271484 4.41158C-0.271484 4.41161 -0.271484 4.41164 -0.271484 4.41167C-0.271484 4.4117 -0.271484 4.41173 -0.271484 4.41176C-0.271484 4.41179 -0.271484 4.41182 -0.271484 4.41185C-0.271484 4.41188 -0.271484 4.41191 -0.271484 4.41194C-0.271484 4.41197 -0.271484 4.412 -0.271484 4.41203C-0.271484 4.41206 -0.271484 4.41209 -0.271484 4.41212C-0.271484 4.41215 -0.271484 4.41218 -0.271484 4.41221C-0.271484 4.41224 -0.271484 4.41227 -0.271484 4.4123C-0.271484 4.41233 -0.271484 4.41236 -0.271484 4.41239C-0.271484 4.41242 -0.271484 4.41245 -0.271484 4.41248C-0.271484 4.4125 -0.271484 4.41253 -0.271484 4.41256C-0.271484 4.41259 -0.271484 4.41262 -0.271484 4.41265C-0.271484 4.41268 -0.271484 4.41271 -0.271484 4.41274C-0.271484 4.41277 -0.271484 4.4128 -0.271484 4.41283C-0.271484 4.41286 -0.271484 4.41289 -0.271484 4.41292C-0.271484 4.41295 -0.271484 4.41298 -0.271484 4.41301C-0.271484 4.41304 -0.271484 4.41307 -0.271484 4.4131C-0.271484 4.41313 -0.271484 4.41316 -0.271484 4.41319C-0.271484 4.41322 -0.271484 4.41325 -0.271484 4.41328C-0.271484 4.41331 -0.271484 4.41334 -0.271484 4.41336C-0.271484 4.41339 -0.271484 4.41342 -0.271484 4.41345C-0.271484 4.41348 -0.271484 4.41351 -0.271484 4.41354C-0.271484 4.41357 -0.271484 4.4136 -0.271484 4.41363C-0.271484 4.41366 -0.271484 4.41369 -0.271484 4.41372C-0.271484 4.41375 -0.271484 4.41378 -0.271484 4.41381C-0.271484 4.41384 -0.271484 4.41387 -0.271484 4.4139C-0.271484 4.41393 -0.271484 4.41395 -0.271484 4.41398C-0.271484 4.41401 -0.271484 4.41404 -0.271484 4.41407C-0.271484 4.4141 -0.271484 4.41413 -0.271484 4.41416C-0.271484 4.41419 -0.271484 4.41422 -0.271484 4.41425C-0.271484 4.41428 -0.271484 4.41431 -0.271484 4.41434C-0.271484 4.41437 -0.271484 4.4144 -0.271484 4.41442C-0.271484 4.41445 -0.271484 4.41448 -0.271484 4.41451C-0.271484 4.41454 -0.271484 4.41457 -0.271484 4.4146C-0.271484 4.41463 -0.271484 4.41466 -0.271484 4.41469C-0.271484 4.41472 -0.271484 4.41475 -0.271484 4.41478C-0.271484 4.41481 -0.271484 4.41483 -0.271484 4.41486C-0.271484 4.41489 -0.271484 4.41492 -0.271484 4.41495C-0.271484 4.41498 -0.271484 4.41501 -0.271484 4.41504C-0.271484 4.41507 -0.271484 4.4151 -0.271484 4.41513C-0.271484 4.41516 -0.271484 4.41519 -0.271484 4.41521C-0.271484 4.41524 -0.271484 4.41527 -0.271484 4.4153C-0.271484 4.41533 -0.271484 4.41536 -0.271484 4.41539C-0.271484 4.41542 -0.271484 4.41545 -0.271484 4.41548C-0.271484 4.41551 -0.271484 4.41554 -0.271484 4.41556C-0.271484 4.41559 -0.271484 4.41562 -0.271484 4.41565C-0.271484 4.41568 -0.271484 4.41571 -0.271484 4.41574C-0.271484 4.41577 -0.271484 4.4158 -0.271484 4.41583C-0.271484 4.41586 -0.271484 4.41588 -0.271484 4.41591C-0.271484 4.41594 -0.271484 4.41597 -0.271484 4.416C-0.271484 4.41603 -0.271484 4.41606 -0.271484 4.41609C-0.271484 4.41612 -0.271484 4.41615 -0.271484 4.41618C-0.271484 4.4162 -0.271484 4.41623 -0.271484 4.41626C-0.271484 4.41629 -0.271484 4.41632 -0.271484 4.41635C-0.271484 4.41638 -0.271484 4.41641 -0.271484 4.41644C-0.271484 4.41647 -0.271484 4.41649 -0.271484 4.41652C-0.271484 4.41655 -0.271484 4.41658 -0.271484 4.41661C-0.271484 4.41664 -0.271484 4.41667 -0.271484 4.4167C-0.271484 4.41673 -0.271484 4.41675 -0.271484 4.41678C-0.271484 4.41681 -0.271484 4.41684 -0.271484 4.41687C-0.271484 4.4169 -0.271484 4.41693 -0.271484 4.41696C-0.271484 4.41699 -0.271484 4.41702 -0.271484 4.41704C-0.271484 4.41707 -0.271484 4.4171 -0.271484 4.41713C-0.271484 4.41716 -0.271484 4.41719 -0.271484 4.41722C-0.271484 4.41725 -0.271484 4.41728 -0.271484 4.4173C-0.271484 4.41733 -0.271484 4.41736 -0.271484 4.41739C-0.271484 4.41742 -0.271484 4.41745 -0.271484 4.41748C-0.271484 4.41751 -0.271484 4.41753 -0.271484 4.41756C-0.271484 4.41759 -0.271484 4.41762 -0.271484 4.41765C-0.271484 4.41768 -0.271484 4.41771 -0.271484 4.41774C-0.271484 4.41777 -0.271484 4.41779 -0.271484 4.41782C-0.271484 4.41785 -0.271484 4.41788 -0.271484 4.41791C-0.271484 4.41794 -0.271484 4.41797 -0.271484 4.418C-0.271484 4.41802 -0.271484 4.41805 -0.271484 4.41808C-0.271484 4.41811 -0.271484 4.41814 -0.271484 4.41817C-0.271484 4.4182 -0.271484 4.41823 -0.271484 4.41825C-0.271484 4.41828 -0.271484 4.41831 -0.271484 4.41834C-0.271484 4.41837 -0.271484 4.4184 -0.271484 4.41843C-0.271484 4.41846 -0.271484 4.41848 -0.271484 4.41851C-0.271484 4.41854 -0.271484 4.41857 -0.271484 4.4186C-0.271484 4.41863 -0.271484 4.41866 -0.271484 4.41869C-0.271484 4.41871 -0.271484 4.41874 -0.271484 4.41877C-0.271484 4.4188 -0.271484 4.41883 -0.271484 4.41886C-0.271484 4.41889 -0.271484 4.41891 -0.271484 4.41894C-0.271484 4.41897 -0.271484 4.419 -0.271484 4.41903C-0.271484 4.41906 -0.271484 4.41909 -0.271484 4.41912C-0.271484 4.41914 -0.271484 4.41917 -0.271484 4.4192C-0.271484 4.41923 -0.271484 4.41926 -0.271484 4.41929C-0.271484 4.41932 -0.271484 4.41934 -0.271484 4.41937C-0.271484 4.4194 -0.271484 4.41943 -0.271484 4.41946C-0.271484 4.41949 -0.271484 4.41952 -0.271484 4.41954C-0.271484 4.41957 -0.271484 4.4196 -0.271484 4.41963C-0.271484 4.41966 -0.271484 4.41969 -0.271484 4.41972C-0.271484 4.41975 -0.271484 4.41977 -0.271484 4.4198C-0.271484 4.41983 -0.271484 4.41986 -0.271484 4.41989C-0.271484 4.41992 -0.271484 4.41995 -0.271484 4.41997C-0.271484 4.42 -0.271484 4.42003 -0.271484 4.42006C-0.271484 4.42009 -0.271484 4.42012 -0.271484 4.42015C-0.271484 4.42017 -0.271484 4.4202 -0.271484 4.42023C-0.271484 4.42026 -0.271484 4.42029 -0.271484 4.42032C-0.271484 4.42035 -0.271484 4.42037 -0.271484 4.4204C-0.271484 4.42043 -0.271484 4.42046 -0.271484 4.42049C-0.271484 4.42052 -0.271484 4.42055 -0.271484 4.42057C-0.271484 4.4206 -0.271484 4.42063 -0.271484 4.42066C-0.271484 4.42069 -0.271484 4.42072 -0.271484 4.42075C-0.271484 4.42077 -0.271484 4.4208 -0.271484 4.42083C-0.271484 4.42086 -0.271484 4.42089 -0.271484 4.42092C-0.271484 4.42095 -0.271484 4.42097 -0.271484 4.421C-0.271484 4.42103 -0.271484 4.42106 -0.271484 4.42109C-0.271484 4.42112 -0.271484 4.42114 -0.271484 4.42117C-0.271484 4.4212 -0.271484 4.42123 -0.271484 4.42126C-0.271484 4.42129 -0.271484 4.42132 -0.271484 4.42134C-0.271484 4.42137 -0.271484 4.4214 -0.271484 4.42143C-0.271484 4.42146 -0.271484 4.42149 -0.271484 4.42152C-0.271484 4.42154 -0.271484 4.42157 -0.271484 4.4216C-0.271484 4.42163 -0.271484 4.42166 -0.271484 4.42169C-0.271484 4.42172 -0.271484 4.42174 -0.271484 4.42177C-0.271484 4.4218 -0.271484 4.42183 -0.271484 4.42186C-0.271484 4.42189 -0.271484 4.42191 -0.271484 4.42194C-0.271484 4.42197 -0.271484 4.422 -0.271484 4.42203C-0.271484 4.42206 -0.271484 4.42209 -0.271484 4.42211C-0.271484 4.42214 -0.271484 4.42217 -0.271484 4.4222C-0.271484 4.42223 -0.271484 4.42226 -0.271484 4.42228C-0.271484 4.42231 -0.271484 4.42234 -0.271484 4.42237C-0.271484 4.4224 -0.271484 4.42243 -0.271484 4.42246C-0.271484 4.42248 -0.271484 4.42251 -0.271484 4.42254C-0.271484 4.42257 -0.271484 4.4226 -0.271484 4.42263C-0.271484 4.42266 -0.271484 4.42268 -0.271484 4.42271C-0.271484 4.42274 -0.271484 4.42277 -0.271484 4.4228C-0.271484 4.42283 -0.271484 4.42285 -0.271484 4.42288C-0.271484 4.42291 -0.271484 4.42294 -0.271484 4.42297C-0.271484 4.423 -0.271484 4.42303 -0.271484 4.42305C-0.271484 4.42308 -0.271484 4.42311 -0.271484 4.42314C-0.271484 4.42317 -0.271484 4.4232 -0.271484 4.42322C-0.271484 4.42325 -0.271484 4.42328 -0.271484 4.42331C-0.271484 4.42334 -0.271484 4.42337 -0.271484 4.4234C-0.271484 4.42342 -0.271484 4.42345 -0.271484 4.42348C-0.271484 4.42351 -0.271484 4.42354 -0.271484 4.42357C-0.271484 4.4236 -0.271484 4.42362 -0.271484 4.42365C-0.271484 4.42368 -0.271484 4.42371 -0.271484 4.42374C-0.271484 4.42377 -0.271484 4.42379 -0.271484 4.42382C-0.271484 4.42385 -0.271484 4.42388 -0.271484 4.42391C-0.271484 4.42394 -0.271484 4.42397 -0.271484 4.42399C-0.271484 4.42402 -0.271484 4.42405 -0.271484 4.42408C-0.271484 4.42411 -0.271484 4.42414 -0.271484 4.42417C-0.271484 4.42419 -0.271484 4.42422 -0.271484 4.42425C-0.271484 4.42428 -0.271484 4.42431 -0.271484 4.42434C-0.271484 4.42436 -0.271484 4.42439 -0.271484 4.42442C-0.271484 4.42445 -0.271484 4.42448 -0.271484 4.42451C-0.271484 4.42454 -0.271484 4.42456 -0.271484 4.42459C-0.271484 4.42462 -0.271484 4.42465 -0.271484 4.42468C-0.271484 4.42471 -0.271484 4.42474 -0.271484 4.42476C-0.271484 4.42479 -0.271484 4.42482 -0.271484 4.42485C-0.271484 4.42488 -0.271484 4.42491 -0.271484 4.42493C-0.271484 4.42496 -0.271484 4.42499 -0.271484 4.42502C-0.271484 4.42505 -0.271484 4.42508 -0.271484 4.42511C-0.271484 4.42513 -0.271484 4.42516 -0.271484 4.42519C-0.271484 4.42522 -0.271484 4.42525 -0.271484 4.42528C-0.271484 4.42531 -0.271484 4.42533 -0.271484 4.42536C-0.271484 4.42539 -0.271484 4.42542 -0.271484 4.42545C-0.271484 4.42548 -0.271484 4.42551 -0.271484 4.42553C-0.271484 4.42556 -0.271484 4.42559 -0.271484 4.42562C-0.271484 4.42565 -0.271484 4.42568 -0.271484 4.42571C-0.271484 4.42573 -0.271484 4.42576 -0.271484 4.42579C-0.271484 4.42582 -0.271484 4.42585 -0.271484 4.42588C-0.271484 4.42591 -0.271484 4.42593 -0.271484 4.42596C-0.271484 4.42599 -0.271484 4.42602 -0.271484 4.42605C-0.271484 4.42608 -0.271484 4.42611 -0.271484 4.42613C-0.271484 4.42616 -0.271484 4.42619 -0.271484 4.42622C-0.271484 4.42625 -0.271484 4.42628 -0.271484 4.42631C-0.271484 4.42633 -0.271484 4.42636 -0.271484 4.42639C-0.271484 4.42642 -0.271484 4.42645 -0.271484 4.42648C-0.271484 4.42651 -0.271484 4.42654 -0.271484 4.42656C-0.271484 4.42659 -0.271484 4.42662 -0.271484 4.42665C-0.271484 4.42668 -0.271484 4.42671 -0.271484 4.42674C-0.271484 4.42676 -0.271484 4.42679 -0.271484 4.42682C-0.271484 4.42685 -0.271484 4.42688 -0.271484 4.42691C-0.271484 4.42694 -0.271484 4.42696 -0.271484 4.42699C-0.271484 4.42702 -0.271484 4.42705 -0.271484 4.42708C-0.271484 4.42711 -0.271484 4.42714 -0.271484 4.42717C-0.271484 4.42719 -0.271484 4.42722 -0.271484 4.42725C-0.271484 4.42728 -0.271484 4.42731 -0.271484 4.42734C-0.271484 4.42737 -0.271484 4.4274 -0.271484 4.42742C-0.271484 4.42745 -0.271484 4.42748 -0.271484 4.42751C-0.271484 4.42754 -0.271484 4.42757 -0.271484 4.4276C-0.271484 4.42763 -0.271484 4.42765 -0.271484 4.42768C-0.271484 4.42771 -0.271484 4.42774 -0.271484 4.42777C-0.271484 4.4278 -0.271484 4.42783 -0.271484 4.42786C-0.271484 4.42788 -0.271484 4.42791 -0.271484 4.42794C-0.271484 4.42797 -0.271484 4.428 -0.271484 4.42803C-0.271484 4.42806 -0.271484 4.42809 -0.271484 4.42811C-0.271484 4.42814 -0.271484 4.42817 -0.271484 4.4282C-0.271484 4.42823 -0.271484 4.42826 -0.271484 4.42829C-0.271484 4.42832 -0.271484 4.42834 -0.271484 4.42837C-0.271484 4.4284 -0.271484 4.42843 -0.271484 4.42846C-0.271484 4.42849 -0.271484 4.42852 -0.271484 4.42855C-0.271484 4.42858 -0.271484 4.4286 -0.271484 4.42863C-0.271484 4.42866 -0.271484 4.42869 -0.271484 4.42872C-0.271484 4.42875 -0.271484 4.42878 -0.271484 4.42881C-0.271484 4.42884 -0.271484 4.42886 -0.271484 4.42889C-0.271484 4.42892 -0.271484 4.42895 -0.271484 4.42898C-0.271484 4.42901 -0.271484 4.42904 -0.271484 4.42907C-0.271484 4.4291 -0.271484 4.42912 -0.271484 4.42915C-0.271484 4.42918 -0.271484 4.42921 -0.271484 4.42924C-0.271484 4.42927 -0.271484 4.4293 -0.271484 4.42933C-0.271484 4.42936 -0.271484 4.42938 -0.271484 4.42941C-0.271484 4.42944 -0.271484 4.42947 -0.271484 4.4295C-0.271484 4.42953 -0.271484 4.42956 -0.271484 4.42959C-0.271484 4.42962 -0.271484 4.42965 -0.271484 4.42967C-0.271484 4.4297 -0.271484 4.42973 -0.271484 4.42976C-0.271484 4.42979 -0.271484 4.42982 -0.271484 4.42985C-0.271484 4.42988 -0.271484 4.42991 -0.271484 4.42994C-0.271484 4.42997 -0.271484 4.42999 -0.271484 4.43002C-0.271484 4.43005 -0.271484 4.43008 -0.271484 4.43011C-0.271484 4.43014 -0.271484 4.43017 -0.271484 4.4302C-0.271484 4.43023 -0.271484 4.43026 -0.271484 4.43029C-0.271484 4.43031 -0.271484 4.43034 -0.271484 4.43037C-0.271484 4.4304 -0.271484 4.43043 -0.271484 4.43046C-0.271484 4.43049 -0.271484 4.43052 -0.271484 4.43055C-0.271484 4.43058 -0.271484 4.43061 -0.271484 4.43063C-0.271484 4.43066 -0.271484 4.43069 -0.271484 4.43072C-0.271484 4.43075 -0.271484 4.43078 -0.271484 4.43081C-0.271484 4.43084 -0.271484 4.43087 -0.271484 4.4309C-0.271484 4.43093 -0.271484 4.43096 -0.271484 4.43099C-0.271484 4.43101 -0.271484 4.43104 -0.271484 4.43107C-0.271484 4.4311 -0.271484 4.43113 -0.271484 4.43116C-0.271484 4.43119 -0.271484 4.43122 -0.271484 4.43125C-0.271484 4.43128 -0.271484 4.43131 -0.271484 4.43134C-0.271484 4.43137 -0.271484 4.4314 -0.271484 4.43142C-0.271484 4.43145 -0.271484 4.43148 -0.271484 4.43151C-0.271484 4.43154 -0.271484 4.43157 -0.271484 4.4316C-0.271484 4.43163 -0.271484 4.43166 -0.271484 4.43169C-0.271484 4.43172 -0.271484 4.43175 -0.271484 4.43178C-0.271484 4.43181 -0.271484 4.43184 -0.271484 4.43186C-0.271484 4.43189 -0.271484 4.43192 -0.271484 4.43195C-0.271484 4.43198 -0.271484 4.43201 -0.271484 4.43204C-0.271484 4.43207 -0.271484 4.4321 -0.271484 4.43213C-0.271484 4.43216 -0.271484 4.43219 -0.271484 4.43222C-0.271484 4.43225 -0.271484 4.43228 -0.271484 4.43231C-0.271484 4.43234 -0.271484 4.43237 -0.271484 4.43239C-0.271484 4.43242 -0.271484 4.43245 -0.271484 4.43248C-0.271484 4.43251 -0.271484 4.43254 -0.271484 4.43257C-0.271484 4.4326 -0.271484 4.43263 -0.271484 4.43266C-0.271484 4.43269 -0.271484 4.43272 -0.271484 4.43275C-0.271484 4.43278 -0.271484 4.43281 -0.271484 4.43284C-0.271484 4.43287 -0.271484 4.4329 -0.271484 4.43293C-0.271484 4.43296 -0.271484 4.43299 -0.271484 4.43302C-0.271484 4.43305 -0.271484 4.43308 -0.271484 4.43311C-0.271484 4.43314 -0.271484 4.43316 -0.271484 4.43319C-0.271484 4.43322 -0.271484 4.43325 -0.271484 4.43328C-0.271484 4.43331 -0.271484 4.43334 -0.271484 4.43337C-0.271484 4.4334 -0.271484 4.43343 -0.271484 4.43346C-0.271484 4.43349 -0.271484 4.43352 -0.271484 4.43355C-0.271484 4.43358 -0.271484 4.43361 -0.271484 4.43364C-0.271484 4.43367 -0.271484 4.4337 -0.271484 4.43373C-0.271484 4.43376 -0.271484 4.43379 -0.271484 4.43382C-0.271484 4.43385 -0.271484 4.43388 -0.271484 4.43391C-0.271484 4.43394 -0.271484 4.43397 -0.271484 4.434C-0.271484 4.43403 -0.271484 4.43406 -0.271484 4.43409C-0.271484 4.43412 -0.271484 4.43415 -0.271484 4.43418C-0.271484 4.43421 -0.271484 4.43424 -0.271484 4.43427C-0.271484 4.4343 -0.271484 4.43433 -0.271484 4.43436C-0.271484 4.43439 -0.271484 4.43442 -0.271484 4.43445C-0.271484 4.43448 -0.271484 4.43451 -0.271484 4.43454C-0.271484 4.43457 -0.271484 4.4346 -0.271484 4.43463C-0.271484 4.43466 -0.271484 4.43469 -0.271484 4.43472C-0.271484 4.43475 -0.271484 4.43478 -0.271484 4.43481C-0.271484 4.43484 -0.271484 4.43487 -0.271484 4.4349C-0.271484 4.43493 -0.271484 4.43496 -0.271484 4.43499C-0.271484 4.43502 -0.271484 4.43505 -0.271484 4.43508C-0.271484 4.43511 -0.271484 4.43514 -0.271484 4.43517C-0.271484 4.4352 -0.271484 4.43523 -0.271484 4.43526C-0.271484 4.43529 -0.271484 4.43532 -0.271484 4.43535C-0.271484 4.43538 -0.271484 4.43541 -0.271484 4.43544C-0.271484 4.43547 -0.271484 4.4355 -0.271484 4.43553C-0.271484 4.43556 -0.271484 4.43559 -0.271484 4.43562C-0.271484 4.43565 -0.271484 4.43568 -0.271484 4.43571C-0.271484 4.43575 -0.271484 4.43578 -0.271484 4.43581C-0.271484 4.43584 -0.271484 4.43587 -0.271484 4.4359C-0.271484 4.43593 -0.271484 4.43596 -0.271484 4.43599C-0.271484 4.43602 -0.271484 4.43605 -0.271484 4.43608C-0.271484 4.43611 -0.271484 4.43614 -0.271484 4.43617C-0.271484 4.4362 -0.271484 4.43623 -0.271484 4.43626C-0.271484 4.43629 -0.271484 4.43632 -0.271484 4.43635C-0.271484 4.43638 -0.271484 4.43641 -0.271484 4.43645C-0.271484 4.43648 -0.271484 4.43651 -0.271484 4.43654C-0.271484 4.43657 -0.271484 4.4366 -0.271484 4.43663C-0.271484 4.43666 -0.271484 4.43669 -0.271484 4.43672C-0.271484 4.43675 -0.271484 4.43678 -0.271484 4.43681C-0.271484 4.43684 -0.271484 4.43687 -0.271484 4.4369C-0.271484 4.43694 -0.271484 4.43697 -0.271484 4.437C-0.271484 4.43703 -0.271484 4.43706 -0.271484 4.43709C-0.271484 4.43712 -0.271484 4.43715 -0.271484 4.43718C-0.271484 4.43721 -0.271484 4.43724 -0.271484 4.43727C-0.271484 4.4373 -0.271484 4.43733 -0.271484 4.43737C-0.271484 4.4374 -0.271484 4.43743 -0.271484 4.43746C-0.271484 4.43749 -0.271484 4.43752 -0.271484 4.43755C-0.271484 4.43758 -0.271484 4.43761 -0.271484 4.43764C-0.271484 4.43767 -0.271484 4.43771 -0.271484 4.43774C-0.271484 4.43777 -0.271484 4.4378 -0.271484 4.43783C-0.271484 4.43786 -0.271484 4.43789 -0.271484 4.43792C-0.271484 4.43795 -0.271484 4.43798 -0.271484 4.43801C-0.271484 4.43805 -0.271484 4.43808 -0.271484 4.43811C-0.271484 4.43814 -0.271484 4.43817 -0.271484 4.4382C-0.271484 4.43823 -0.271484 4.43826 -0.271484 4.43829C-0.271484 4.43833 -0.271484 4.43836 -0.271484 4.43839C-0.271484 4.43842 -0.271484 4.43845 -0.271484 4.43848C-0.271484 4.43851 -0.271484 4.43854 -0.271484 4.43858C-0.271484 4.43861 -0.271484 4.43864 -0.271484 4.43867C-0.271484 4.4387 -0.271484 4.43873 -0.271484 4.43876C-0.271484 4.43879 -0.271484 4.43883 -0.271484 4.43886C-0.271484 4.43889 -0.271484 4.43892 -0.271484 4.43895C-0.271484 4.43898 -0.271484 4.43901 -0.271484 4.43904C-0.271484 4.43908 -0.271484 4.43911 -0.271484 4.43914C-0.271484 4.43917 -0.271484 4.4392 -0.271484 4.43923C-0.271484 4.43926 -0.271484 4.4393 -0.271484 4.43933C-0.271484 4.43936 -0.271484 4.43939 -0.271484 4.43942C-0.271484 4.43945 -0.271484 4.43948 -0.271484 4.43952C-0.271484 4.43955 -0.271484 4.43958 -0.271484 4.43961C-0.271484 4.43964 -0.271484 4.43967 -0.271484 4.43971C-0.271484 4.43974 -0.271484 4.43977 -0.271484 4.4398C-0.271484 4.43983 -0.271484 4.43986 -0.271484 4.43989C-0.271484 4.43993 -0.271484 4.43996 -0.271484 4.43999C-0.271484 4.44002 -0.271484 4.44005 -0.271484 4.44009C-0.271484 4.44012 -0.271484 4.44015 -0.271484 4.44018C-0.271484 4.44021 -0.271484 4.44024 -0.271484 4.44028C-0.271484 4.44031 -0.271484 4.44034 -0.271484 4.44037C-0.271484 4.4404 -0.271484 4.44043 -0.271484 4.44047C-0.271484 4.4405 -0.271484 4.44053 -0.271484 4.44056C-0.271484 4.44059 -0.271484 4.44063 -0.271484 4.44066C-0.271484 4.44069 -0.271484 4.44072 -0.271484 4.44075C-0.271484 4.44079 -0.271484 4.44082 -0.271484 4.44085C-0.271484 4.44088 -0.271484 4.44091 -0.271484 4.44095C-0.271484 4.44098 -0.271484 4.44101 -0.271484 4.44104C-0.271484 4.44107 -0.271484 4.44111 -0.271484 4.44114C-0.271484 4.44117 -0.271484 4.4412 -0.271484 4.44123C-0.271484 4.44127 -0.271484 4.4413 -0.271484 4.44133C-0.271484 4.44136 -0.271484 4.4414 -0.271484 4.44143C-0.271484 4.44146 -0.271484 4.44149 -0.271484 4.44152C-0.271484 4.44156 -0.271484 4.44159 -0.271484 4.44162C-0.271484 4.44165 -0.271484 4.44169 -0.271484 4.44172C-0.271484 4.44175 -0.271484 4.44178 -0.271484 4.44181C-0.271484 4.44185 -0.271484 4.44188 -0.271484 4.44191C-0.271484 4.44194 -0.271484 4.44198 -0.271484 4.44201C-0.271484 4.44204 -0.271484 4.44207 -0.271484 4.44211C-0.271484 4.44214 -0.271484 4.44217 -0.271484 4.4422C-0.271484 4.44224 -0.271484 4.44227 -0.271484 4.4423C-0.271484 4.44233 -0.271484 4.44237 -0.271484 4.4424C-0.271484 4.44243 -0.271484 4.44246 -0.271484 4.4425C-0.271484 4.44253 -0.271484 4.44256 -0.271484 4.4426C-0.271484 4.44263 -0.271484 4.44266 -0.271484 4.44269C-0.271484 4.44273 -0.271484 4.44276 -0.271484 4.44279C-0.271484 4.44282 -0.271484 4.44286 -0.271484 4.44289C-0.271484 4.44292 -0.271484 4.44295 -0.271484 4.44299C-0.271484 4.44302 -0.271484 4.44305 -0.271484 4.44309C-0.271484 4.44312 -0.271484 4.44315 -0.271484 4.44318C-0.271484 4.44322 -0.271484 4.44325 -0.271484 4.44328C-0.271484 4.44332 -0.271484 4.44335 -0.271484 4.44338C-0.271484 4.44342 -0.271484 4.44345 -0.271484 4.44348C-0.271484 4.44351 -0.271484 4.44355 -0.271484 4.44358C-0.271484 4.44361 -0.271484 4.44365 -0.271484 4.44368C-0.271484 4.44371 -0.271484 4.44375 -0.271484 4.44378C-0.271484 4.44381 -0.271484 4.44385 -0.271484 4.44388C-0.271484 4.44391 -0.271484 4.44394 -0.271484 4.44398C-0.271484 4.44401 -0.271484 4.44404 -0.271484 4.44408C-0.271484 4.44411 -0.271484 4.44414 -0.271484 4.44418C-0.271484 4.44421 -0.271484 4.44424 -0.271484 4.44428C-0.271484 4.44431 -0.271484 4.44434 -0.271484 4.44438C-0.271484 4.44441 -0.271484 4.44444 -0.271484 4.44448C-0.271484 4.44451 -0.271484 4.44454 -0.271484 4.44458C-0.271484 4.44461 -0.271484 4.44464 -0.271484 4.44468C-0.271484 4.44471 -0.271484 4.44475 -0.271484 4.44478C-0.271484 4.44481 -0.271484 4.44485 -0.271484 4.44488C-0.271484 4.44491 -0.271484 4.44495 -0.271484 4.44498C-0.271484 4.44501 -0.271484 4.44505 -0.271484 4.44508C-0.271484 4.44511 -0.271484 4.44515 -0.271484 4.44518C-0.271484 4.44522 -0.271484 4.44525 -0.271484 4.44528C-0.271484 4.44532 -0.271484 4.44535 -0.271484 4.44538C-0.271484 4.44542 -0.271484 4.44545 -0.271484 4.44549C-0.271484 4.44552 -0.271484 4.44555 -0.271484 4.44559C-0.271484 4.44562 -0.271484 4.44566 -0.271484 4.44569C-0.271484 4.44572 -0.271484 4.44576 -0.271484 4.44579C-0.271484 4.44582 -0.271484 4.44586 -0.271484 4.44589C-0.271484 4.44593 -0.271484 4.44596 -0.271484 4.44599C-0.271484 4.44603 -0.271484 4.44606 -0.271484 4.4461C-0.271484 4.44613 -0.271484 4.44617 -0.271484 4.4462C-0.271484 4.44623 -0.271484 4.44627 -0.271484 4.4463H1.72852ZM1.72852 4.39964V1.7513H-0.271484V4.39964H1.72852ZM1.72852 1.7513C1.72852 2.06442 1.47913 2.3138 1.16602 2.3138V0.313802C0.374564 0.313802 -0.271484 0.959851 -0.271484 1.7513H1.72852ZM1.16602 2.3138C0.852898 2.3138 0.603516 2.06442 0.603516 1.7513H2.60352C2.60352 0.959851 1.95747 0.313802 1.16602 0.313802V2.3138ZM0.603516 1.7513V3.14547H2.60352V1.7513H0.603516ZM2.33527 3.82704C3.17986 2.92027 4.7246 1.73047 6.99935 1.73047V-0.269531C3.96576 -0.269531 1.92884 1.329 0.871765 2.4639L2.33527 3.82704ZM6.99935 1.73047C9.90623 1.73047 12.2702 4.09442 12.2702 7.0013H14.2702C14.2702 2.98985 11.0108 -0.269531 6.99935 -0.269531V1.73047ZM12.2702 7.0013C12.2702 9.39509 10.6559 11.4933 8.34359 12.1008L8.85177 14.0351C12.0461 13.196 14.2702 10.3008 14.2702 7.0013H12.2702ZM8.43328 12.0816C8.42348 12.0832 8.42295 12.0831 8.42764 12.0826C8.43042 12.0823 8.4366 12.0816 8.44554 12.081C8.45427 12.0804 8.46843 12.0796 8.48685 12.0796V14.0796C8.61171 14.0796 8.7237 14.0608 8.76208 14.0544L8.43328 12.0816Z" fill="white" mask="url(#path-1-inside-1_603_1447)"/>
<path d="M1.36016 8.72529C1.36015 8.7252 1.36016 8.72526 1.36017 8.72552L1.36016 8.72529Z" fill="white" stroke="white"/>
</svg>
