<svg width="21" height="20" viewBox="0 0 21 20" fill="none" xmlns="http://www.w3.org/2000/svg">
<path d="M17.5168 9.68331C17.4866 9.68331 17.4553 9.67102 17.4297 9.64538C17.404 9.61974 17.3918 9.58846 17.3918 9.55831V6.79169C17.3918 5.48221 16.3262 4.41669 15.0168 4.41669H3.4834C3.45325 4.41669 3.42197 4.4044 3.39633 4.37876C3.37068 4.35311 3.3584 4.32183 3.3584 4.29169C3.3584 4.26154 3.37068 4.23026 3.39633 4.20462C3.42197 4.17897 3.45325 4.16669 3.4834 4.16669H15.0168C16.4656 4.16669 17.6418 5.34283 17.6418 6.79169V9.55831C17.6418 9.62783 17.5866 9.68331 17.5168 9.68331Z" fill="white" stroke="white"/>
<path d="M3.39529 4.21187L3.39529 4.21186L6.02862 1.5785C6.02862 1.5785 6.02862 1.5785 6.02862 1.5785C6.05015 1.55698 6.08089 1.5437 6.11673 1.5437C6.15259 1.5437 6.18332 1.55698 6.20485 1.5785C6.22636 1.60002 6.23965 1.63076 6.23965 1.66664C6.23965 1.70252 6.22636 1.73326 6.20485 1.75478C6.20485 1.75478 6.20485 1.75478 6.20485 1.75478L4.0132 3.9464L3.65965 4.29995L4.0132 4.6535L6.20485 6.84518L6.5483 6.50173L6.20485 6.84518C6.22637 6.86671 6.23965 6.89744 6.23965 6.93329C6.23965 6.96625 6.22843 6.99489 6.20989 7.01602C6.16993 7.0504 6.13382 7.05832 6.11673 7.05832C6.09908 7.05832 6.08357 7.0551 6.07024 7.04973C6.05738 7.04455 6.04332 7.0361 6.02862 7.0214L5.68647 7.36355L6.02862 7.0214L3.39529 4.38809C3.39529 4.38809 3.39529 4.38809 3.39528 4.38809C3.37133 4.36413 3.3584 4.33252 3.3584 4.29995C3.3584 4.26743 3.3713 4.23585 3.39529 4.21187Z" fill="white" stroke="white"/>
<path d="M17.5168 16.325H5.9834C4.2584 16.325 2.8584 14.925 2.8584 13.2V10.4333C2.8584 10.0917 3.14173 9.80835 3.4834 9.80835C3.82507 9.80835 4.1084 10.0917 4.1084 10.4333V13.2C4.1084 14.2334 4.95007 15.075 5.9834 15.075H17.5168C17.8584 15.075 18.1418 15.3584 18.1418 15.7C18.1418 16.0417 17.8584 16.325 17.5168 16.325Z" fill="white"/>
<path d="M14.8835 18.9583C14.7252 18.9583 14.5668 18.9 14.4418 18.775C14.2002 18.5333 14.2002 18.1333 14.4418 17.8916L16.6335 15.7L14.4418 13.5083C14.2002 13.2666 14.2002 12.8666 14.4418 12.625C14.6835 12.3833 15.0835 12.3833 15.3252 12.625L17.9585 15.2583C18.0752 15.375 18.1418 15.5333 18.1418 15.7C18.1418 15.8666 18.0752 16.025 17.9585 16.1416L15.3252 18.775C15.2085 18.9 15.0502 18.9583 14.8835 18.9583Z" fill="white"/>
</svg>
