<svg width="20" height="20" viewBox="0 0 20 20" fill="none" xmlns="http://www.w3.org/2000/svg">
<path d="M9.58268 17.6263C5.15049 17.6263 1.54102 14.0168 1.54102 9.58464C1.54102 5.15244 5.15049 1.54297 9.58268 1.54297C14.0149 1.54297 17.6243 5.15244 17.6243 9.58464C17.6243 14.0168 14.0149 17.6263 9.58268 17.6263ZM9.58268 1.79297C5.28117 1.79297 1.79102 5.2922 1.79102 9.58464C1.79102 13.8771 5.28117 17.3763 9.58268 17.3763C13.8842 17.3763 17.3743 13.8771 17.3743 9.58464C17.3743 5.2922 13.8842 1.79297 9.58268 1.79297Z" fill="#546E7F" stroke="#546E7F"/>
<path d="M18.3326 18.4576C18.3149 18.4576 18.2993 18.4543 18.286 18.449C18.2732 18.4438 18.2591 18.4353 18.2444 18.4207L16.5778 16.754C16.5562 16.7325 16.543 16.7017 16.543 16.6659C16.543 16.63 16.5562 16.5993 16.5778 16.5778C16.5993 16.5562 16.63 16.543 16.6659 16.543C16.7017 16.543 16.7325 16.5562 16.754 16.5778L18.4207 18.2444C18.4422 18.266 18.4555 18.2967 18.4555 18.3326C18.4555 18.3684 18.4422 18.3991 18.4207 18.4207C18.406 18.4353 18.3919 18.4438 18.3791 18.449C18.3658 18.4543 18.3502 18.4576 18.3326 18.4576Z" fill="#546E7F" stroke="#546E7F"/>
</svg>
