<svg width="25" height="24" viewBox="0 0 25 24" fill="none" xmlns="http://www.w3.org/2000/svg">
<path d="M11.0744 2.47174L11.0751 2.47149C11.4851 2.31851 12.0072 2.25245 12.4987 2.25245C12.9893 2.25245 13.5097 2.31829 13.9161 2.47203C13.9164 2.47214 13.9167 2.47225 13.917 2.47237L18.9054 4.34174L18.9091 4.34311L18.909 4.34313C19.4555 4.55281 19.9316 4.98249 20.2682 5.46734C20.6044 5.95177 20.8399 6.54701 20.8399 7.12995V14.5599C20.8399 15.1321 20.6439 15.7774 20.3623 16.3419C20.0808 16.9064 19.6821 17.4533 19.2199 17.7999L19.219 17.8006L14.9193 21.0103C14.9193 21.0104 14.9192 21.0104 14.9192 21.0105L14.919 21.0106L14.6199 20.6099C13.4699 21.4699 11.5199 21.4699 10.3699 20.6099L11.0744 2.47174ZM11.0744 2.47174L6.08555 4.34133C6.08538 4.34139 6.08521 4.34145 6.08504 4.34152C5.53594 4.54599 5.05852 4.97454 4.72166 5.45983C4.38466 5.94535 4.1499 6.54303 4.1499 7.12995V14.5599C4.1499 15.1377 4.34883 15.7859 4.63166 16.3502C4.91438 16.9143 5.3132 17.4589 5.77077 17.8006L5.77081 17.8006L10.0705 21.0103L11.0744 2.47174ZM5.479 18.1993L5.47877 18.1991C4.98552 17.8313 4.52333 17.244 4.18415 16.5692C3.84496 15.8943 3.6499 15.1738 3.6499 14.5599V7.12995C3.6499 5.79741 4.65141 4.34514 5.90442 3.87851L5.90538 3.87815L10.895 2.00831C10.895 2.00828 10.8951 2.00825 10.8952 2.00822C11.3187 1.84999 11.8932 1.76245 12.4899 1.76245C13.0867 1.76245 13.6613 1.85001 14.0848 2.00827C14.0848 2.00828 14.0848 2.0083 14.0849 2.00831L19.0848 3.87827L19.0854 3.87851C20.3384 4.34514 21.3399 5.7974 21.3399 7.12995V14.5599C21.3399 15.1738 21.1449 15.8943 20.8057 16.5692C20.4665 17.244 20.0043 17.8313 19.511 18.1991L19.5108 18.1993L15.2108 21.4093L15.2099 21.4099C14.4677 21.9666 13.4967 22.26 12.4999 22.26C11.504 22.26 10.5319 21.967 9.77827 21.4087C9.77806 21.4086 9.77785 21.4084 9.77765 21.4082L5.479 18.1993Z" fill="white" stroke="white"/>
<path d="M12.3714 10.6797L12.3807 10.68H12.3899H12.3899H12.3899H12.3899H12.3899H12.39H12.39H12.39H12.39H12.39H12.39H12.39H12.39H12.3901H12.3901H12.3901H12.3901H12.3901H12.3901H12.3902H12.3902H12.3902H12.3902H12.3903H12.3903H12.3903H12.3904H12.3904H12.3904H12.3905H12.3905H12.3905H12.3906H12.3906H12.3907H12.3907H12.3907H12.3908H12.3908H12.3909H12.3909H12.391H12.391H12.3911H12.3911H12.3912H12.3912H12.3913H12.3913H12.3914H12.3914H12.3915H12.3915H12.3916H12.3917H12.3917H12.3918H12.3919H12.3919H12.392H12.3921H12.3921H12.3922H12.3923H12.3923H12.3924H12.3925H12.3925H12.3926H12.3927H12.3928H12.3929H12.3929H12.393H12.3931H12.3932H12.3933H12.3933H12.3934H12.3935H12.3936H12.3937H12.3938H12.3939H12.394H12.3941H12.3942H12.3942H12.3943H12.3944H12.3945H12.3946H12.3947H12.3948H12.3949H12.395H12.3951H12.3952H12.3953H12.3955H12.3956H12.3957H12.3958H12.3959H12.396H12.3961H12.3962H12.3963H12.3964H12.3966H12.3967H12.3968H12.3969H12.397H12.3972H12.3973H12.3974H12.3975H12.3976H12.3978H12.3979H12.398H12.3982H12.3983H12.3984H12.3985H12.3987H12.3988H12.3989H12.3991H12.3992H12.3993H12.3995H12.3996H12.3998H12.3999H12.4H12.4002H12.4003H12.4005H12.4006H12.4007H12.4009H12.401H12.4012H12.4013H12.4015H12.4016H12.4018H12.4019H12.4021H12.4022H12.4024H12.4026H12.4027H12.4029H12.403H12.4032H12.4033H12.4035H12.4037H12.4038H12.404H12.4042H12.4043H12.4045H12.4047H12.4048H12.405H12.4052H12.4053H12.4055H12.4057H12.4058H12.406H12.4062H12.4064H12.4065H12.4067H12.4069H12.4071H12.4073H12.4074H12.4076H12.4078H12.408H12.4082H12.4083H12.4085H12.4087H12.4089H12.4091H12.4093H12.4095H12.4097H12.4098H12.41H12.4102H12.4104H12.4106H12.4108H12.411H12.4112H12.4114H12.4116H12.4118H12.412H12.4122H12.4124H12.4126H12.4128H12.413H12.4132H12.4134H12.4136H12.4138H12.414H12.4142H12.4144H12.4146H12.4149H12.4151H12.4153H12.4155H12.4157H12.4159H12.4161H12.4163H12.4166H12.4168H12.417H12.4172H12.4174H12.4176H12.4179H12.4181H12.4183H12.4185H12.4188H12.419H12.4192H12.4194H12.4197H12.4199H12.4201H12.4203H12.4206H12.4208H12.421H12.4213H12.4215H12.4217H12.4219H12.4222H12.4224H12.4227H12.4229H12.4231H12.4234H12.4236H12.4238H12.4241H12.4243H12.4246H12.4248H12.425H12.4253H12.4255H12.4258H12.426H12.4263H12.4265H12.4267H12.427H12.4272H12.4275H12.4277H12.428H12.4282H12.4285H12.4287H12.429H12.4292H12.4295H12.4297H12.43H12.4303H12.4305H12.4308H12.431H12.4313H12.4315H12.4318H12.4321H12.4323H12.4326H12.4328H12.4331H12.4334H12.4336H12.4339H12.4342H12.4344H12.4347H12.435H12.4352H12.4355H12.4358H12.436H12.4363H12.4366H12.4368H12.4371H12.4374H12.4376H12.4379H12.4382H12.4385H12.4387H12.439H12.4393H12.4396H12.4398H12.4401H12.4404H12.4407H12.441H12.4412H12.4415H12.4418H12.4421H12.4424H12.4426H12.4429H12.4432H12.4435H12.4438H12.4441H12.4443H12.4446H12.4449H12.4452H12.4455H12.4458H12.4461H12.4464H12.4466H12.4469H12.4472H12.4475H12.4478H12.4481H12.4484H12.4487H12.449H12.4493H12.4496H12.4499H12.4502H12.4505H12.4508H12.4511H12.4514H12.4517H12.452H12.4522H12.4525H12.4528H12.4532H12.4535H12.4538H12.4541H12.4544H12.4547H12.455H12.4553H12.4556H12.4559H12.4562H12.4565H12.4568H12.4571H12.4574H12.4577H12.458H12.4583H12.4586H12.459H12.4593H12.4596H12.4599H12.4602H12.4605H12.4608H12.4611H12.4614H12.4618H12.4621H12.4624H12.4627H12.463H12.4633H12.4637H12.464H12.4643H12.4646H12.4649H12.4652H12.4656H12.4659H12.4662H12.4665H12.4668H12.4672H12.4675H12.4678H12.4681H12.4684H12.4688H12.4691H12.4694H12.4697H12.4701H12.4704H12.4707H12.471H12.4714H12.4717H12.472H12.4723H12.4727H12.473H12.4733H12.4737H12.474H12.4743H12.4746H12.475H12.4753H12.4756H12.476H12.4763H12.4766H12.477H12.4773H12.4776H12.478H12.4783H12.4786H12.479H12.4793H12.4796H12.48H12.4803H12.4806H12.481H12.4813H12.4816H12.482H12.4823H12.4827H12.483H12.4833H12.4837H12.484H12.4843H12.4847H12.485H12.4854H12.4857H12.486H12.4864H12.4867H12.4871H12.4874H12.4878H12.4881H12.4884H12.4888H12.4891H12.4895H12.4898H12.4902H12.4905H12.4909H12.4912H12.4915H12.4919H12.4922H12.4926H12.4929H12.4933H12.4936H12.494H12.4943H12.4947H12.495H12.4954H12.4957H12.4961H12.4964H12.4968H12.4971H12.4975H12.4978H12.4982H12.4985H12.4989H12.4992H12.4996H12.4999H12.514L12.5282 10.6792C13.3282 10.6339 13.9376 9.97086 13.9399 9.1745C13.9526 8.32538 13.2563 7.66003 12.4299 7.66003C11.5937 7.66003 10.9199 8.33392 10.9199 9.17004C10.9199 9.98989 11.5636 10.6498 12.3714 10.6797ZM12.4999 11.17H12.4998H12.4997H12.4996H12.4994H12.4993H12.4992H12.4991H12.499H12.4989H12.4987H12.4986H12.4985H12.4984H12.4983H12.4982H12.498H12.4979H12.4978H12.4977H12.4976H12.4974H12.4973H12.4972H12.4971H12.497H12.4969H12.4967H12.4966H12.4965H12.4964H12.4963H12.4962H12.496H12.4959H12.4958H12.4957H12.4956H12.4955H12.4953H12.4952H12.4951H12.495H12.4949H12.4947H12.4946H12.4945H12.4944H12.4943H12.4942H12.494H12.4939H12.4938H12.4937H12.4936H12.4935H12.4933H12.4932H12.4931H12.493H12.4929H12.4927H12.4926H12.4925H12.4924H12.4923H12.4922H12.492H12.4919H12.4918H12.4917H12.4916H12.4914H12.4913H12.4912H12.4911H12.491H12.4909H12.4907H12.4906H12.4905H12.4904H12.4903H12.4901H12.49H12.4899H12.4898H12.4897H12.4895H12.4894H12.4893H12.4892H12.4891H12.4889H12.4888H12.4887H12.4886H12.4885H12.4884H12.4882H12.4881H12.488H12.4879H12.4878H12.4876H12.4875H12.4874H12.4873H12.4872H12.487H12.4869H12.4868H12.4867H12.4866H12.4864H12.4863H12.4862H12.4861H12.486H12.4858H12.4857H12.4856H12.4855H12.4854H12.4852H12.4851H12.485H12.4849H12.4848H12.4846H12.4845H12.4844H12.4843H12.4841H12.484H12.4839H12.4838H12.4837H12.4835H12.4834H12.4833H12.4832H12.4831H12.4829H12.4828H12.4827H12.4826H12.4824H12.4823H12.4822H12.4821H12.482H12.4818H12.4817H12.4816H12.4815H12.4813H12.4812H12.4811H12.481H12.4809H12.4807H12.4806H12.4805H12.4804H12.4802H12.4801H12.48H12.4799H12.4797H12.4796H12.4795H12.4794H12.4792H12.4791H12.479H12.4789H12.4788H12.4786H12.4785H12.4784H12.4783H12.4781H12.478H12.4779H12.4778H12.4776H12.4775H12.4774H12.4773H12.4771H12.477H12.4769H12.4768H12.4766H12.4765H12.4764H12.4763H12.4761H12.476H12.4759H12.4757H12.4756H12.4755H12.4754H12.4752H12.4751H12.475H12.4749H12.4747H12.4746H12.4745H12.4744H12.4742H12.4741H12.474H12.4738H12.4737H12.4736H12.4735H12.4733H12.4732H12.4731H12.4729H12.4728H12.4727H12.4726H12.4724H12.4723H12.4722H12.472H12.4719H12.4718H12.4717H12.4715H12.4714H12.4713H12.4711H12.471H12.4709H12.4708H12.4706H12.4705H12.4704H12.4702H12.4701H12.47H12.4698H12.4697H12.4696H12.4694H12.4693H12.4692H12.469H12.4689H12.4688H12.4687H12.4685H12.4684H12.4683H12.4681H12.468H12.4679H12.4677H12.4676H12.4675H12.4673H12.4672H12.4671H12.4669H12.4668H12.4667H12.4665H12.4664H12.4663H12.4661H12.466H12.4659H12.4657H12.4656H12.4655H12.4653H12.4652H12.4651H12.4649H12.4648H12.4646H12.4645H12.4644H12.4642H12.4641H12.464H12.4638H12.4637H12.4636H12.4634H12.4633H12.4631H12.463H12.4629H12.4627H12.4626H12.4625H12.4623H12.4622H12.462H12.4619H12.4618H12.4616H12.4615H12.4614H12.4612H12.4611H12.4609H12.4608H12.4607H12.4605H12.4604H12.4602H12.4601H12.46H12.4598H12.4597H12.4595H12.4594H12.4593H12.4591H12.459H12.4588H12.4587H12.4586H12.4584H12.4583H12.4581H12.458H12.4578H12.4577H12.4576H12.4574H12.4573H12.4571H12.457H12.4568H12.4567H12.4566H12.4564H12.4563H12.4561H12.456H12.4558H12.4557H12.4555H12.4554H12.4553H12.4551H12.455H12.4548H12.4547H12.4545H12.4544H12.4542H12.4541H12.4539H12.4538H12.4537H12.4535H12.4534H12.4532H12.4531H12.4529H12.4528H12.4526H12.4525H12.4523H12.4522H12.452H12.4519H12.4517H12.4516H12.4514H12.4513H12.4511H12.451H12.4508H12.4507H12.4505H12.4504H12.4502H12.4501H12.4499H12.4498H12.4496H12.4495H12.4493H12.4492H12.449H12.4489H12.4487H12.4486H12.4484H12.4483H12.4481H12.448H12.4478H12.4476H12.4475H12.4473H12.4472H12.447H12.4469H12.4467H12.4466H12.4464H12.4463H12.4461H12.4459H12.4458H12.4456H12.4455H12.4453H12.4452H12.445H12.4448H12.4447H12.4445H12.4444H12.4442H12.4441H12.4439H12.4437H12.4436H12.4434H12.4433H12.4431H12.443H12.4428H12.4426H12.4425H12.4423H12.4422H12.442H12.4418H12.4417H12.4415H12.4413H12.4412H12.441H12.4409H12.4407H12.4405H12.4404H12.4402H12.4401H12.4399H12.4397H12.4396H12.4394H12.4392H12.4391H12.4389H12.4387H12.4386H12.4384H12.4382H12.4381H12.4379H12.4378H12.4376H12.4374H12.4373H12.4371C11.2536 11.1342 10.4199 10.2397 10.4199 9.17004C10.4199 8.06618 11.3261 7.16003 12.4299 7.16003C13.5331 7.16003 14.4389 8.06517 14.4399 9.16819C14.4311 10.236 13.6218 11.0968 12.5811 11.1759C12.5719 11.1745 12.5631 11.1734 12.555 11.1726C12.5356 11.1707 12.5201 11.1703 12.5129 11.1702L12.5037 11.1701L12.4999 11.17Z" fill="white" stroke="white"/>
<path d="M12.4998 17.35C11.6398 17.35 10.7698 17.12 10.0998 16.67C9.42982 16.23 9.0498 15.58 9.0498 14.89C9.0498 14.2 9.42982 13.55 10.0998 13.1C11.4498 12.2 13.5598 12.21 14.8998 13.1C15.5698 13.54 15.9498 14.19 15.9498 14.88C15.9498 15.57 15.5698 16.22 14.8998 16.67C14.2298 17.12 13.3598 17.35 12.4998 17.35ZM10.9298 14.34C10.6798 14.5 10.5398 14.7 10.5498 14.88C10.5498 15.06 10.6898 15.26 10.9298 15.42C11.7698 15.98 13.2298 15.98 14.0698 15.42C14.3198 15.26 14.4598 15.06 14.4598 14.88C14.4598 14.7 14.3198 14.5 14.0798 14.34C13.2398 13.79 11.7698 13.79 10.9298 14.34Z" fill="white"/>
</svg>
