<svg width="24" height="24" viewBox="0 0 24 24" fill="none" xmlns="http://www.w3.org/2000/svg">
<path d="M4.9795 18.2007L4.97926 18.2006C4.48653 17.8332 4.02426 17.2438 3.6848 16.5672C3.34529 15.8905 3.15039 15.17 3.15039 14.5614V7.12141C3.15039 5.78886 4.15189 4.3366 5.40489 3.86997L5.40585 3.86961L10.3954 1.99976C10.3955 1.99974 10.3956 1.99971 10.3957 1.99968C10.8192 1.84145 11.3936 1.75391 11.9904 1.75391C12.5872 1.75391 13.1616 1.84145 13.5851 1.99968C13.5852 1.99971 13.5853 1.99974 13.5853 1.99976L18.5749 3.86961L18.5759 3.86997C19.8289 4.3366 20.8304 5.78886 20.8304 7.12141V14.5514C20.8304 15.1652 20.6353 15.8857 20.2961 16.5606C19.957 17.2355 19.4948 17.8228 19.0015 18.1906L19.0013 18.1907L14.7013 21.4007L14.7013 21.4007L14.6951 21.4054C13.9657 21.9679 12.9977 22.2614 12.0004 22.2614C11.0044 22.2614 10.0322 21.9685 9.27859 21.4101C9.27843 21.4099 9.27827 21.4098 9.27812 21.4097L4.9795 18.2007ZM10.5756 2.47295L10.5749 2.4732L5.58493 4.3432L5.58423 4.34347C5.03998 4.54836 4.56541 4.97731 4.23033 5.46212C3.89507 5.94717 3.66039 6.54459 3.66039 7.13141V14.5614C3.66039 15.1392 3.85931 15.7874 4.14214 16.3517C4.42486 16.9158 4.82368 17.4604 5.28125 17.802L5.28129 17.8021L9.58095 21.0118C10.2596 21.5194 11.1436 21.7564 12.0016 21.7564C12.8598 21.7564 13.7453 21.5193 14.4282 21.0131L14.4295 21.0121L18.7295 17.8021L18.7304 17.8014C19.1918 17.4553 19.5906 16.9115 19.8726 16.3475C20.1546 15.7835 20.3504 15.1382 20.3504 14.5614V7.12141C20.3504 6.53857 20.115 5.94359 19.7805 5.45962C19.4458 4.9754 18.9727 4.54547 18.4313 4.3353L18.4314 4.33527L18.4258 4.3332L13.4359 2.4632L13.4359 2.46312L13.4268 2.45991C13.0153 2.31468 12.4939 2.25131 12.0003 2.25266C11.5075 2.254 10.9856 2.31998 10.5756 2.47295Z" fill="#082042" stroke="#082042"/>
<path d="M10.3067 12.7746L10.6602 13.1282L11.0138 12.7746L14.7838 9.00465C14.8785 8.90991 15.0419 8.90991 15.1367 9.00465C15.2314 9.09938 15.2314 9.2628 15.1367 9.35754L10.8367 13.6575C10.7854 13.7088 10.7248 13.7311 10.6602 13.7311C10.5957 13.7311 10.5351 13.7088 10.4838 13.6575L8.87379 12.0475C8.77905 11.9528 8.77905 11.7894 8.87379 11.6946C8.96853 11.5999 9.13194 11.5999 9.22668 11.6946L10.3067 12.7746Z" fill="#292D32" stroke="#082042"/>
</svg>
