<svg width="21" height="20" viewBox="0 0 21 20" fill="none" xmlns="http://www.w3.org/2000/svg">
<path d="M18.4155 8.17856L18.3875 7.70833H18.2138L18.4916 7.19847L19.1594 16.3862L19.1596 16.3886C19.2202 17.1703 18.6029 17.8333 17.8164 17.8333H12.7556C12.9103 17.6136 13.029 17.3643 13.1022 17.0924L16.1726 11.4556L15.0514 16.9839L14.9298 17.5833H15.5414H17.8164C18.2361 17.5833 18.5036 17.3681 18.6318 17.2238L18.6318 17.2239L18.6344 17.2209C18.7336 17.1075 18.9362 16.8308 18.907 16.4171L18.4155 8.17856Z" fill="white" stroke="white"/>
<path d="M10.0415 1.8678C10.1249 1.53447 9.91654 1.1928 9.5832 1.10947C9.24987 1.03447 8.9082 1.23447 8.82487 1.5678L8.4082 3.2928H9.69154L10.0415 1.8678Z" fill="white"/>
<path d="M15.5414 1.84244C15.6164 1.50078 15.3997 1.17578 15.0581 1.10078C14.7247 1.02578 14.3914 1.24244 14.3164 1.58411L13.9414 3.30911H15.2247L15.5414 1.84244Z" fill="white"/>
<path d="M18.6838 4.44349C18.4088 3.77682 17.7588 3.30182 16.9588 3.30182H15.2254L14.7588 5.46016C14.6921 5.75182 14.4338 5.95182 14.1504 5.95182C14.1088 5.95182 14.0588 5.95182 14.0171 5.93516C13.6838 5.86016 13.4671 5.52682 13.5338 5.19349L13.9421 3.29349H9.69211L9.16711 5.46016C9.10045 5.74349 8.84211 5.93516 8.55878 5.93516C8.50878 5.93516 8.45878 5.92682 8.40878 5.91849C8.07545 5.83516 7.86711 5.50182 7.95045 5.16016L8.40045 3.28516H6.70878C5.89211 3.28516 5.16711 3.81849 4.92545 4.60182L1.41711 15.8935C1.05045 17.1018 1.94211 18.3352 3.20045 18.3352H14.1504C15.0171 18.3352 15.7671 17.7518 15.9671 16.9102L18.7754 5.63516C18.8254 5.42682 18.8421 5.21849 18.8254 5.01849C18.8088 4.81849 18.7671 4.61849 18.6838 4.44349ZM12.7504 13.9602H6.08378C5.74211 13.9602 5.45878 13.6768 5.45878 13.3352C5.45878 12.9935 5.74211 12.7102 6.08378 12.7102H12.7504C13.0921 12.7102 13.3754 12.9935 13.3754 13.3352C13.3754 13.6768 13.0921 13.9602 12.7504 13.9602ZM13.5838 10.6268H6.91711C6.57545 10.6268 6.29211 10.3435 6.29211 10.0018C6.29211 9.66016 6.57545 9.37682 6.91711 9.37682H13.5838C13.9254 9.37682 14.2088 9.66016 14.2088 10.0018C14.2088 10.3435 13.9254 10.6268 13.5838 10.6268Z" fill="white"/>
</svg>
