<svg width="21" height="20" viewBox="0 0 21 20" fill="none" xmlns="http://www.w3.org/2000/svg">
<path d="M4.58146 14.1013L4.58147 14.1013L4.57918 14.0996C4.38988 13.9598 4.18919 13.7081 4.03484 13.3985C3.88069 13.0893 3.79883 12.7746 3.79883 12.5352V5.78516C3.79883 5.43573 3.93465 5.03947 4.17849 4.68774C4.42216 4.33626 4.74615 4.06901 5.07483 3.94482C5.075 3.94476 5.07518 3.94469 5.07536 3.94462L9.65501 2.22933C9.65539 2.22919 9.65577 2.22905 9.65614 2.22891C9.82156 2.16821 10.0708 2.12891 10.3447 2.12891C10.6185 2.12891 10.8678 2.16821 11.0332 2.22891C11.0336 2.22905 11.0339 2.22919 11.0343 2.22933L15.6125 3.94407C15.6129 3.94422 15.6133 3.94437 15.6137 3.94452C15.938 4.06843 16.2599 4.33524 16.5015 4.68635C16.7435 5.03788 16.8769 5.43298 16.8738 5.78073H16.8738V5.78516V12.5352C16.8738 12.7742 16.7922 13.0866 16.6381 13.3949C16.4842 13.7026 16.2828 13.9566 16.0901 14.1021C16.0899 14.1023 16.0897 14.1024 16.0895 14.1026L11.5079 17.5263L11.5065 17.5273C11.204 17.755 10.7816 17.8831 10.3363 17.8831C9.89105 17.8831 9.46865 17.755 9.16615 17.5273L9.16479 17.5263L4.58146 14.1013ZM11.4655 12.9185V11.0645C12.3223 10.6496 12.9238 9.78024 12.9238 8.75182C12.9238 7.32568 11.7666 6.16849 10.3405 6.16849C8.91435 6.16849 7.75716 7.32568 7.75716 8.75182C7.75716 9.77196 8.35788 10.6476 9.21549 11.0642V12.9185C9.21549 13.5363 9.72269 14.0435 10.3405 14.0435C10.9583 14.0435 11.4655 13.5363 11.4655 12.9185Z" fill="white" stroke="white"/>
</svg>
