<svg width="20" height="20" viewBox="0 0 20 20" fill="none" xmlns="http://www.w3.org/2000/svg">
<path d="M17.5 5.95703H2.5C2.46985 5.95703 2.43857 5.94475 2.41293 5.9191C2.38728 5.89346 2.375 5.86218 2.375 5.83203C2.375 5.80188 2.38728 5.7706 2.41293 5.74496C2.43857 5.71932 2.46985 5.70703 2.5 5.70703H17.5C17.5301 5.70703 17.5614 5.71932 17.5871 5.74496C17.6127 5.7706 17.625 5.80188 17.625 5.83203C17.625 5.86218 17.6127 5.89346 17.5871 5.9191C17.5614 5.94475 17.5301 5.95703 17.5 5.95703Z" fill="#082042" stroke="#082042"/>
<path d="M15 10.125H5C4.96985 10.125 4.93857 10.1127 4.91293 10.0871C4.88728 10.0614 4.875 10.0301 4.875 10C4.875 9.96985 4.88728 9.93857 4.91293 9.91293C4.93857 9.88728 4.96985 9.875 5 9.875H15C15.0301 9.875 15.0614 9.88728 15.0871 9.91293C15.1127 9.93857 15.125 9.96985 15.125 10C15.125 10.0301 15.1127 10.0614 15.0871 10.0871C15.0614 10.1127 15.0301 10.125 15 10.125Z" fill="#082042" stroke="#082042"/>
<path d="M11.6673 14.793H8.33398C7.99232 14.793 7.70898 14.5096 7.70898 14.168C7.70898 13.8263 7.99232 13.543 8.33398 13.543H11.6673C12.009 13.543 12.2923 13.8263 12.2923 14.168C12.2923 14.5096 12.009 14.793 11.6673 14.793Z" fill="#082042"/>
</svg>
