<svg width="25" height="24" viewBox="0 0 25 24" fill="none" xmlns="http://www.w3.org/2000/svg">
<path d="M11.0253 16.6716L11.0252 16.6712L10.3052 14.5112L10.2261 14.2741L9.98897 14.195L7.82897 13.475C5.89258 12.8295 4.77753 12.1161 4.15113 11.4651C3.53652 10.8265 3.38086 10.2375 3.38086 9.77934C3.38086 9.32668 3.53616 8.73727 4.15173 8.09543C4.77851 7.44188 5.8938 6.72369 7.82952 6.0735C7.8297 6.07344 7.82987 6.07338 7.83005 6.07332L16.319 3.24368L16.3196 3.24346C18.3514 2.56301 19.8897 2.81353 20.7889 3.70452C21.6853 4.59263 21.9377 6.13728 21.2567 8.17055L21.2565 8.17122L18.4266 16.6609C17.7761 18.6077 17.06 19.7279 16.4076 20.3569C15.7676 20.9739 15.1788 21.1293 14.7209 21.1293C14.2628 21.1293 13.674 20.9738 13.0354 20.3581C12.3844 19.7306 11.6709 18.6131 11.0253 16.6716ZM7.98224 6.55516L7.98223 6.55517C6.5583 7.03152 5.55588 7.56297 4.89892 8.09433C4.25786 8.61284 3.87086 9.19586 3.87086 9.77934C3.87086 10.3629 4.25792 10.946 4.89942 11.4635C5.55666 11.9937 6.5593 12.5226 7.9833 12.9939C7.98346 12.9939 7.98361 12.994 7.98377 12.994L10.5027 13.8337L10.5027 13.8337L10.5093 13.8358C10.5747 13.8566 10.6336 13.9155 10.6544 13.9809L10.6544 13.981L10.6565 13.9875L11.4962 16.5064C11.4962 16.5066 11.4963 16.5067 11.4963 16.5068C11.9678 17.9315 12.4994 18.9344 13.0325 19.5918C13.5527 20.2333 14.1382 20.6193 14.7209 20.6193C15.3043 20.6193 15.8874 20.2323 16.4059 19.5913C16.9372 18.9343 17.4687 17.9319 17.945 16.508L17.9452 16.5075L20.7752 8.01745L20.7755 8.01653C21.0448 7.20352 21.1653 6.43707 21.1197 5.7667C21.0742 5.09673 20.8592 4.49058 20.4244 4.05579C19.9886 3.61994 19.3812 3.40802 18.7127 3.36535C18.0438 3.32266 17.2802 3.44585 16.4727 3.715L16.4722 3.71517L7.98224 6.55516Z" fill="white" stroke="white"/>
<path d="M10.4343 13.4736L10.4348 13.4731L14.0143 9.88355C14.0144 9.88348 14.0145 9.88342 14.0145 9.88335C14.1093 9.78882 14.2726 9.78888 14.3672 9.88355C14.462 9.97829 14.462 10.1417 14.3672 10.2364L14.3667 10.2369L10.7867 13.8269L10.7809 13.8328L10.7753 13.8388C10.745 13.8713 10.6861 13.9 10.6108 13.9C10.5462 13.9 10.4856 13.8777 10.4343 13.8264C10.3396 13.7317 10.3396 13.5683 10.4343 13.4736Z" fill="white" stroke="white"/>
</svg>
