<svg width="24" height="24" viewBox="0 0 24 24" fill="none" xmlns="http://www.w3.org/2000/svg">
<path d="M12 22.25C6.34614 22.25 1.75 17.6539 1.75 12C1.75 6.34614 6.34614 1.75 12 1.75C17.6539 1.75 22.25 6.34614 22.25 12C22.25 17.6539 17.6539 22.25 12 22.25ZM12 2.25C6.62386 2.25 2.25 6.62386 2.25 12C2.25 17.3761 6.62386 21.75 12 21.75C17.3761 21.75 21.75 17.3761 21.75 12C21.75 6.62386 17.3761 2.25 12 2.25Z" fill="white" stroke="white"/>
<path d="M10.2269 14.1251L10.5804 14.4787L10.934 14.1251L16.074 8.98512C16.1687 8.89038 16.3321 8.89038 16.4269 8.98512C16.5216 9.07985 16.5216 9.24327 16.4269 9.33801L10.7569 15.008C10.7096 15.0553 10.6463 15.0816 10.5804 15.0816C10.5145 15.0816 10.4513 15.0553 10.404 15.008L7.57398 12.178C7.47925 12.0833 7.47925 11.9199 7.57398 11.8251C7.66872 11.7304 7.83214 11.7304 7.92688 11.8251L10.2269 14.1251Z" fill="white" stroke="white"/>
</svg>
