<svg width="21" height="20" viewBox="0 0 21 20" fill="none" xmlns="http://www.w3.org/2000/svg">
<path d="M4.43918 5.30932L4.43954 5.30912L9.37893 2.45209C9.3793 2.45188 9.37967 2.45167 9.38004 2.45145C10.0436 2.07281 10.8534 2.07429 11.5059 2.45099L16.4525 5.30738C16.4531 5.30769 16.4536 5.308 16.4541 5.3083C17.1103 5.6946 17.515 6.38999 17.5225 7.15358V12.8513C17.5225 13.6154 17.1169 14.3164 16.4642 14.6933L16.4642 14.6933L11.5161 17.5505C11.5158 17.5507 11.5155 17.5509 11.5151 17.5511C10.8516 17.9298 10.0417 17.9283 9.38918 17.5516L4.44091 14.6943C3.78467 14.3079 3.38086 13.6048 3.38086 12.8513V7.1513C3.38086 6.38725 3.78644 5.68616 4.43918 5.30932ZM7.10777 12.2971L7.10746 12.2975C6.51348 13.1819 7.13171 14.3846 8.21419 14.3846H12.6809C13.7491 14.3846 14.3862 13.1774 13.7865 12.2958C13.1132 11.2969 11.846 10.668 10.4475 10.668C9.04847 10.668 7.78082 11.2974 7.10777 12.2971ZM12.8892 8.05964C12.8892 6.70849 11.7987 5.61797 10.4475 5.61797C9.09499 5.61797 8.00586 6.71822 8.00586 8.05964C8.00586 9.41078 9.09638 10.5013 10.4475 10.5013C11.7987 10.5013 12.8892 9.41078 12.8892 8.05964Z" fill="white" stroke="white"/>
</svg>
