<svg width="21" height="20" viewBox="0 0 21 20" fill="none" xmlns="http://www.w3.org/2000/svg">
<path d="M9.07498 18.0946L9.07308 18.0935L4.12498 15.2363C4.12469 15.2361 4.12441 15.236 4.12412 15.2358C3.27634 14.7409 2.74805 13.8295 2.74805 12.8515V7.15156C2.74805 6.17358 3.27634 5.26224 4.12411 4.76729C4.1244 4.76712 4.12469 4.76695 4.12498 4.76678L9.07308 1.90956L9.07308 1.90956L9.07498 1.90845C9.91866 1.41631 10.9686 1.41526 11.8227 1.90936L11.823 1.90956L16.7711 4.76678C16.7714 4.76695 16.7717 4.76712 16.772 4.7673C17.6198 5.26225 18.148 6.17358 18.148 7.15156V12.8515C18.148 13.8295 17.6197 14.7409 16.7719 15.2358C16.7716 15.236 16.7714 15.2362 16.7711 15.2363L11.823 18.0935L11.8211 18.0946C11.402 18.3391 10.9231 18.4599 10.448 18.4599C9.97303 18.4599 9.49413 18.3391 9.07498 18.0946ZM9.20124 2.12504L9.20124 2.12503L9.19802 2.12689L4.24802 4.98522L4.24802 4.98522L4.24684 4.9859C3.4776 5.43289 2.99805 6.25509 2.99805 7.15156V12.8515C2.99805 13.7385 3.4766 14.5696 4.24684 15.0172L4.24802 15.0179L9.19684 17.8755C9.19705 17.8756 9.19726 17.8758 9.19747 17.8759C9.96907 18.3239 10.9268 18.324 11.6984 17.876C11.6987 17.8758 11.699 17.8757 11.6993 17.8755L16.6481 15.0179L16.6493 15.0172C17.4185 14.5702 17.898 13.748 17.898 12.8515V7.15156C17.898 6.26458 17.4195 5.43347 16.6493 4.9859L16.6481 4.98522L11.6981 2.12689L11.6981 2.12688L11.6948 2.12504C11.3121 1.90779 10.8772 1.79321 10.448 1.79321C10.0189 1.79321 9.58401 1.90779 9.20124 2.12504Z" fill="#252525" stroke="#252525"/>
<path d="M10.4475 9.29347C9.30701 9.29347 8.38086 8.36731 8.38086 7.22679C8.38086 6.08627 9.30699 5.16016 10.4475 5.16016C11.5881 5.16016 12.5142 6.08627 12.5142 7.22679C12.5142 8.36731 11.588 9.29347 10.4475 9.29347ZM10.4475 5.41016C9.4464 5.41016 8.63086 6.22563 8.63086 7.22679C8.63086 8.22792 9.44638 9.04347 10.4475 9.04347C11.4487 9.04347 12.2642 8.22792 12.2642 7.22679C12.2642 6.22563 11.4487 5.41016 10.4475 5.41016Z" fill="#252525" stroke="#252525"/>
<path d="M13.7799 14.5096C13.4383 14.5096 13.1549 14.2263 13.1549 13.8846C13.1549 12.7346 11.9383 11.793 10.4466 11.793C8.95495 11.793 7.73828 12.7346 7.73828 13.8846C7.73828 14.2263 7.45495 14.5096 7.11328 14.5096C6.77161 14.5096 6.48828 14.2263 6.48828 13.8846C6.48828 12.0429 8.26328 10.543 10.4466 10.543C12.6299 10.543 14.4049 12.0429 14.4049 13.8846C14.4049 14.2263 14.1216 14.5096 13.7799 14.5096Z" fill="#252525"/>
</svg>
