<svg width="24" height="24" viewBox="0 0 24 24" fill="none" xmlns="http://www.w3.org/2000/svg">
<path d="M4.2059 11.6475L3.85235 12.0011L4.2059 12.3546L9.7459 17.8946C9.84064 17.9894 9.84064 18.1528 9.7459 18.2475L9.73981 18.2536L9.73393 18.2599C9.70368 18.2923 9.64481 18.3211 9.56945 18.3211C9.50491 18.3211 9.4443 18.2988 9.39301 18.2475L3.32301 12.1775C3.22827 12.0828 3.22827 11.9194 3.32301 11.8246L9.39301 5.75465C9.48774 5.65991 9.65116 5.65991 9.7459 5.75465C9.84064 5.84938 9.84064 6.0128 9.7459 6.10754L4.2059 11.6475Z" fill="#082042" stroke="#082042"/>
<path d="M20.4999 12.25H3.66992C3.53606 12.25 3.41992 12.1339 3.41992 12C3.41992 11.8661 3.53606 11.75 3.66992 11.75H20.4999C20.6338 11.75 20.7499 11.8661 20.7499 12C20.7499 12.1339 20.6338 12.25 20.4999 12.25Z" fill="#082042" stroke="#082042"/>
</svg>
