<svg width="21" height="20" viewBox="0 0 21 20" fill="none" xmlns="http://www.w3.org/2000/svg">
<mask id="path-1-inside-1_406_19451" fill="white">
<path d="M15.7334 5.20807H16.8667C16.7084 4.98307 16.5417 4.77474 16.3667 4.56641L15.7334 5.20807Z"/>
</mask>
<path d="M15.7334 5.20807H16.8667C16.7084 4.98307 16.5417 4.77474 16.3667 4.56641L15.7334 5.20807Z" fill="white"/>
<path d="M15.7334 5.20807L15.0217 4.5056L13.3413 6.20807H15.7334V5.20807ZM16.8667 5.20807V6.20807H18.7932L17.6845 4.63258L16.8667 5.20807ZM16.3667 4.56641L17.1324 3.92321L16.4263 3.08254L15.655 3.86394L16.3667 4.56641ZM15.7334 6.20807H16.8667V4.20807H15.7334V6.20807ZM17.6845 4.63258C17.5035 4.37535 17.317 4.14299 17.1324 3.92321L15.601 5.2096C15.7664 5.40649 15.9133 5.5908 16.0489 5.78357L17.6845 4.63258ZM15.655 3.86394L15.0217 4.5056L16.4451 5.91054L17.0784 5.26888L15.655 3.86394Z" fill="white" mask="url(#path-1-inside-1_406_19451)"/>
<path d="M15.4923 3.68359C15.2839 3.50859 15.0756 3.34193 14.8506 3.18359V4.31693L15.4923 3.68359Z" fill="white"/>
<path d="M16.3755 4.56589L18.8339 2.10755C19.0755 1.86589 19.0755 1.46589 18.8339 1.22422C18.5922 0.982552 18.1922 0.982552 17.9505 1.22422L15.4922 3.68255C15.8089 3.95755 16.1005 4.25755 16.3755 4.56589Z" fill="white"/>
<path d="M14.8501 2.5C14.8501 2.15833 14.5667 1.875 14.2251 1.875C13.8917 1.875 13.6251 2.14167 13.6084 2.46667C14.0417 2.675 14.4584 2.90833 14.8501 3.18333V2.5Z" fill="white"/>
<path d="M18.1839 5.83203C18.1839 5.49036 17.9005 5.20703 17.5589 5.20703H16.8672C17.1422 5.5987 17.3839 6.01536 17.5839 6.4487C17.9172 6.43203 18.1839 6.16536 18.1839 5.83203Z" fill="white"/>
<path d="M10.6836 12.2917H10.9336C11.2586 12.2917 11.5169 12 11.5169 11.6417C11.5169 11.1917 11.3919 11.125 11.1086 11.025L10.6836 10.875V12.2917Z" fill="white"/>
<path d="M17.5923 6.4513C17.5839 6.4513 17.5756 6.45964 17.5589 6.45964H14.2256C14.1423 6.45964 14.0673 6.44297 13.9839 6.40964C13.8339 6.34297 13.7089 6.2263 13.6423 6.06797C13.6173 5.99297 13.6006 5.91797 13.6006 5.83464V2.5013C13.6006 2.49297 13.6089 2.48464 13.6089 2.46797C12.5256 1.95964 11.3256 1.66797 10.0589 1.66797C5.45892 1.66797 1.72559 5.4013 1.72559 10.0013C1.72559 14.6013 5.45892 18.3346 10.0589 18.3346C14.6589 18.3346 18.3923 14.6013 18.3923 10.0013C18.3923 8.73464 18.1006 7.53464 17.5923 6.4513ZM11.5173 9.8513C12.0506 10.0346 12.7673 10.4263 12.7673 11.6513C12.7673 12.693 11.9423 13.5513 10.9339 13.5513H10.6839V13.7596C10.6839 14.1013 10.4006 14.3846 10.0589 14.3846C9.71725 14.3846 9.43392 14.1013 9.43392 13.7596V13.5513H9.36725C8.25892 13.5513 7.35059 12.618 7.35059 11.468C7.35059 11.118 7.63392 10.8346 7.97559 10.8346C8.31725 10.8346 8.60059 11.118 8.60059 11.4596C8.60059 11.918 8.94225 12.293 9.36725 12.293H9.43392V10.443L8.60059 10.1513C8.06725 9.96797 7.35059 9.5763 7.35059 8.3513C7.35059 7.30964 8.17559 6.4513 9.18392 6.4513H9.43392V6.2513C9.43392 5.90964 9.71725 5.6263 10.0589 5.6263C10.4006 5.6263 10.6839 5.90964 10.6839 6.2513V6.45964H10.7506C11.8589 6.45964 12.7673 7.39297 12.7673 8.54297C12.7673 8.88464 12.4839 9.16797 12.1423 9.16797C11.8006 9.16797 11.5173 8.88464 11.5173 8.54297C11.5173 8.08464 11.1756 7.70964 10.7506 7.70964H10.6839V9.55964L11.5173 9.8513Z" fill="white"/>
<path d="M8.60059 8.35703C8.60059 8.80703 8.72559 8.8737 9.00892 8.9737L9.43392 9.1237V7.70703H9.18392C8.86725 7.70703 8.60059 7.9987 8.60059 8.35703Z" fill="white"/>
</svg>
