<svg width="21" height="20" viewBox="0 0 21 20" fill="none" xmlns="http://www.w3.org/2000/svg">
<path d="M6.52988 6.82176L6.54878 6.83528L6.56886 6.84699C6.70044 6.92375 6.93856 7.0323 7.2004 6.96684L7.21902 6.96219L7.23724 6.95611C7.51466 6.86364 7.65476 6.63583 7.72346 6.44588L9.18841 2.54213C9.18849 2.54192 9.18857 2.54171 9.18865 2.5415C9.38367 2.02661 9.60513 1.78075 9.76951 1.66156C9.93146 1.54413 10.0739 1.52344 10.1625 1.52344C10.251 1.52344 10.3935 1.54413 10.5554 1.66156C10.7198 1.78075 10.9412 2.02661 11.1363 2.5415C11.1364 2.54171 11.1364 2.54192 11.1365 2.54213L12.6027 6.44911L12.6027 6.44911L12.6041 6.45293C12.664 6.60856 12.7983 6.85965 13.0877 6.95611L13.2458 6.48177L13.0877 6.95611C13.3795 7.0534 13.6413 6.93473 13.8054 6.80602L16.8444 4.63886L16.8453 4.63823C17.3575 4.27131 17.7136 4.16007 17.9414 4.14159C18.135 4.1259 18.2646 4.17448 18.3575 4.23414L17.7127 4.4491C17.5264 4.51117 17.2898 4.63101 16.987 4.85101L13.9407 7.02332C13.6347 7.23686 13.301 7.28684 13.0236 7.20311C12.7474 7.11973 12.4979 6.89317 12.363 6.54544L10.8978 2.64101C10.8978 2.64078 10.8977 2.64054 10.8976 2.64031C10.7727 2.30423 10.6447 2.10689 10.5388 1.98585L10.1625 1.55581L9.78617 1.98585C9.68162 2.10534 9.55384 2.30109 9.42876 2.6282L9.42767 2.6311L7.96101 6.53943L7.961 6.53943L7.95996 6.54225C7.83428 6.88337 7.5885 7.10967 7.30375 7.19404L7.30375 7.19403L7.30129 7.19477C7.0213 7.2793 6.68051 7.2266 6.38652 7.01664C6.38648 7.01662 6.38645 7.01659 6.38641 7.01657L3.13671 4.69178L3.13674 4.69175L3.13133 4.68799C2.9254 4.54473 2.73764 4.43587 2.57528 4.37343L1.90071 4.11398C1.97881 4.06572 2.09164 4.02588 2.26001 4.03867C2.46997 4.05461 2.80247 4.15578 3.28001 4.49685C3.28007 4.49689 3.28012 4.49693 3.28018 4.49697L6.52988 6.82176ZM18.3697 4.9567L18.4149 4.27857C18.4889 4.3465 18.5641 4.45382 18.6001 4.63597C18.6449 4.86266 18.6349 5.23856 18.4246 5.83106C18.4246 5.83112 18.4246 5.83118 18.4246 5.83123L15.059 15.2531C15.0589 15.2534 15.0588 15.2537 15.0587 15.254C14.9214 15.6315 14.4842 15.9401 14.0791 15.9401H6.2458C5.84077 15.9401 5.40357 15.6315 5.26625 15.2541C5.26613 15.2538 5.26601 15.2534 5.26589 15.2531L1.81783 5.60022C1.81764 5.59968 1.81745 5.59914 1.81726 5.5986C1.624 5.0447 1.61771 4.69649 1.65974 4.48968C1.68847 4.34832 1.7425 4.25784 1.79887 4.19718L1.90082 4.91082C1.9217 5.05696 1.9628 5.25902 2.06021 5.51374L5.50827 15.1666L5.51142 15.1754L5.51489 15.1841C5.5843 15.3577 5.72238 15.4743 5.80156 15.5313C5.85137 15.5672 5.90977 15.6023 5.97397 15.6303C6.03102 15.6551 6.12814 15.6901 6.2458 15.6901H14.0791C14.2813 15.6901 14.4469 15.5908 14.5296 15.5313C14.582 15.4936 14.6358 15.4469 14.6839 15.3915C14.7253 15.3439 14.7838 15.2655 14.8192 15.1597L18.1816 5.75462C18.1819 5.75387 18.1822 5.75312 18.1825 5.75237C18.3136 5.39576 18.3579 5.1329 18.3697 4.9567Z" fill="#252525" stroke="#252525"/>
<path d="M14.7448 18.457H5.57812C5.54798 18.457 5.5167 18.4447 5.49105 18.4191C5.46541 18.3935 5.45312 18.3622 5.45312 18.332C5.45312 18.3019 5.46541 18.2706 5.49105 18.245C5.5167 18.2193 5.54798 18.207 5.57812 18.207H14.7448C14.7749 18.207 14.8062 18.2193 14.8319 18.245C14.8575 18.2706 14.8698 18.3019 14.8698 18.332C14.8698 18.3622 14.8575 18.3935 14.8319 18.4191C14.8062 18.4447 14.7749 18.457 14.7448 18.457Z" fill="#252525" stroke="#252525"/>
<path d="M12.2448 12.293H8.07812C7.73646 12.293 7.45312 12.0096 7.45312 11.668C7.45312 11.3263 7.73646 11.043 8.07812 11.043H12.2448C12.5865 11.043 12.8698 11.3263 12.8698 11.668C12.8698 12.0096 12.5865 12.293 12.2448 12.293Z" fill="#252525"/>
</svg>
