<svg width="14" height="14" viewBox="0 0 14 14" fill="none" xmlns="http://www.w3.org/2000/svg">
<mask id="path-1-inside-1_603_712" fill="white">
<path d="M3.23117 11.3867C2.87534 11.3867 2.54284 11.2642 2.30367 11.0367C2.00034 10.7509 1.8545 10.3192 1.907 9.85257L2.12284 7.96257C2.16367 7.60674 2.3795 7.13424 2.63034 6.87757L7.4195 1.8084C8.61534 0.542569 9.86367 0.507569 11.1295 1.7034C12.3953 2.89924 12.4303 4.14757 11.2345 5.4134L6.44534 10.4826C6.20034 10.7451 5.74534 10.9901 5.3895 11.0484L3.51117 11.3692C3.412 11.3751 3.3245 11.3867 3.23117 11.3867ZM9.292 1.69757C8.84284 1.69757 8.452 1.97757 8.05534 2.39757L3.26617 7.47257C3.1495 7.59507 3.01534 7.88674 2.992 8.0559L2.77617 9.9459C2.75284 10.1384 2.7995 10.2959 2.9045 10.3951C3.0095 10.4942 3.167 10.5292 3.3595 10.5001L5.23784 10.1792C5.407 10.1501 5.687 9.9984 5.80367 9.8759L10.5928 4.80674C11.3162 4.03674 11.5787 3.32507 10.5228 2.3334C10.0562 1.88424 9.65367 1.69757 9.292 1.69757Z"/>
</mask>
<path d="M3.23117 11.3867C2.87534 11.3867 2.54284 11.2642 2.30367 11.0367C2.00034 10.7509 1.8545 10.3192 1.907 9.85257L2.12284 7.96257C2.16367 7.60674 2.3795 7.13424 2.63034 6.87757L7.4195 1.8084C8.61534 0.542569 9.86367 0.507569 11.1295 1.7034C12.3953 2.89924 12.4303 4.14757 11.2345 5.4134L6.44534 10.4826C6.20034 10.7451 5.74534 10.9901 5.3895 11.0484L3.51117 11.3692C3.412 11.3751 3.3245 11.3867 3.23117 11.3867ZM9.292 1.69757C8.84284 1.69757 8.452 1.97757 8.05534 2.39757L3.26617 7.47257C3.1495 7.59507 3.01534 7.88674 2.992 8.0559L2.77617 9.9459C2.75284 10.1384 2.7995 10.2959 2.9045 10.3951C3.0095 10.4942 3.167 10.5292 3.3595 10.5001L5.23784 10.1792C5.407 10.1501 5.687 9.9984 5.80367 9.8759L10.5928 4.80674C11.3162 4.03674 11.5787 3.32507 10.5228 2.3334C10.0562 1.88424 9.65367 1.69757 9.292 1.69757Z" fill="#082042"/>
<path d="M2.30367 11.0367L2.99289 10.3122L2.98947 10.3089L2.30367 11.0367ZM1.907 9.85257L0.91346 9.73911L0.913273 9.74078L1.907 9.85257ZM2.12284 7.96257L1.12936 7.84856L1.12929 7.84911L2.12284 7.96257ZM2.63034 6.87757L3.34552 7.5765L3.35143 7.57046L3.35723 7.56432L2.63034 6.87757ZM7.4195 1.8084L8.1464 2.49515L8.14642 2.49512L7.4195 1.8084ZM11.2345 5.4134L11.9614 6.10015L11.9614 6.10012L11.2345 5.4134ZM6.44534 10.4826L5.71843 9.79581L5.71428 9.80025L6.44534 10.4826ZM5.3895 11.0484L5.22773 10.0616L5.22113 10.0627L5.3895 11.0484ZM3.51117 11.3692L3.56989 12.3675L3.62506 12.3643L3.67954 12.355L3.51117 11.3692ZM8.05534 2.39757L7.32832 1.71095L7.32805 1.71124L8.05534 2.39757ZM3.26617 7.47257L3.99032 8.16223L3.99346 8.1589L3.26617 7.47257ZM2.992 8.0559L2.00138 7.91927L1.99979 7.93084L1.99846 7.94244L2.992 8.0559ZM2.77617 9.9459L3.76893 10.0662L3.76971 10.0594L2.77617 9.9459ZM3.3595 10.5001L3.50931 11.4888L3.5186 11.4874L3.52787 11.4858L3.3595 10.5001ZM5.23784 10.1792L5.40621 11.165L5.40774 11.1647L5.23784 10.1792ZM5.80367 9.8759L6.52781 10.5656L6.53057 10.5626L5.80367 9.8759ZM10.5928 4.80674L11.3197 5.49348L11.3217 5.49141L10.5928 4.80674ZM10.5228 2.3334L9.82932 3.05394L9.83823 3.06231L10.5228 2.3334ZM3.23117 10.3867C3.10031 10.3867 3.02446 10.3422 2.99288 10.3122L1.61446 11.7613C2.06122 12.1863 2.65037 12.3867 3.23117 12.3867V10.3867ZM2.98947 10.3089C2.9443 10.2664 2.87869 10.1603 2.90074 9.96437L0.913273 9.74078C0.83032 10.4781 1.05637 11.2354 1.61787 11.7645L2.98947 10.3089ZM2.90055 9.96603L3.11638 8.07603L1.12929 7.84911L0.913461 9.73911L2.90055 9.96603ZM3.11632 8.07658C3.12156 8.0309 3.14702 7.9285 3.2048 7.80409C3.26323 7.67829 3.32178 7.6008 3.34552 7.5765L1.91515 6.17864C1.68807 6.411 1.51328 6.6981 1.39087 6.96167C1.26782 7.22664 1.16495 7.53841 1.12936 7.84856L3.11632 8.07658ZM3.35723 7.56432L8.1464 2.49515L6.69261 1.12166L1.90344 6.19082L3.35723 7.56432ZM8.14642 2.49512C8.63596 1.97693 9.01281 1.83982 9.27648 1.83238C9.54024 1.82493 9.92444 1.94064 10.4428 2.43032L11.8162 0.976483C11.0687 0.270329 10.1958 -0.194376 9.22003 -0.166824C8.24411 -0.139269 7.39888 0.374043 6.69258 1.12168L8.14642 2.49512ZM10.4428 2.43032C10.961 2.91986 11.0981 3.29671 11.1055 3.56038C11.113 3.82414 10.9973 4.20834 10.5076 4.72668L11.9614 6.10012C12.6676 5.35263 13.1323 4.47975 13.1047 3.50393C13.0772 2.52801 12.5639 1.68278 11.8162 0.976483L10.4428 2.43032ZM10.5076 4.72666L5.71844 9.79582L7.17223 11.1693L11.9614 6.10015L10.5076 4.72666ZM5.71428 9.80025C5.61883 9.90253 5.36344 10.0393 5.22773 10.0616L5.55128 12.0352C6.12724 11.9408 6.78185 11.5876 7.17639 11.1649L5.71428 9.80025ZM5.22113 10.0627L3.3428 10.3835L3.67954 12.355L5.55787 12.0341L5.22113 10.0627ZM3.45245 10.371C3.25029 10.3829 3.29481 10.3867 3.23117 10.3867V12.3867C3.31797 12.3867 3.39448 12.3813 3.4481 12.377C3.51235 12.3719 3.53373 12.3696 3.56989 12.3675L3.45245 10.371ZM9.292 0.697569C8.40292 0.697569 7.75866 1.2553 7.32832 1.71095L8.78235 3.08419C8.95034 2.90632 9.07595 2.80328 9.16983 2.74675C9.25396 2.69609 9.28747 2.69757 9.292 2.69757V0.697569ZM7.32805 1.71124L2.53888 6.78624L3.99346 8.1589L8.78263 3.0839L7.32805 1.71124ZM2.54203 6.78292C2.37441 6.95892 2.25723 7.17529 2.1879 7.32385C2.11676 7.47631 2.0324 7.69436 2.00138 7.91927L3.98263 8.19254C3.98101 8.20422 3.97938 8.21315 3.97821 8.21903C3.97702 8.22499 3.97605 8.22898 3.97557 8.23089C3.9747 8.23438 3.9749 8.23303 3.97696 8.22684C3.97894 8.2209 3.98197 8.21251 3.98614 8.20214C3.99027 8.19184 3.99505 8.18081 4.00027 8.16962C4.0055 8.15842 4.01071 8.14806 4.01557 8.139C4.02048 8.12984 4.02433 8.12333 4.02668 8.11954C4.0292 8.11549 4.02867 8.1167 4.02458 8.12221C4.02241 8.12513 4.01871 8.12997 4.01341 8.13635C4.00816 8.14267 4.00049 8.15153 3.99031 8.16223L2.54203 6.78292ZM1.99846 7.94244L1.78263 9.83244L3.76971 10.0594L3.98555 8.16936L1.99846 7.94244ZM1.78344 9.82557C1.73451 10.2292 1.81542 10.742 2.21788 11.1221L3.59113 9.66806C3.78359 9.84983 3.77116 10.0476 3.7689 10.0662L1.78344 9.82557ZM2.21788 11.1221C2.62435 11.506 3.13689 11.5452 3.50931 11.4888L3.2097 9.51135C3.21042 9.51125 3.22047 9.50975 3.23873 9.51005C3.25705 9.51036 3.28566 9.51253 3.32202 9.52084C3.39881 9.53839 3.49937 9.5814 3.59113 9.66806L2.21788 11.1221ZM3.52787 11.4858L5.40621 11.165L5.06947 9.19351L3.19114 9.51435L3.52787 11.4858ZM5.40774 11.1647C5.64515 11.1238 5.8667 11.0226 6.01418 10.9432C6.16224 10.8636 6.36539 10.7361 6.52781 10.5656L5.07953 9.18625C5.08874 9.17658 5.09632 9.16931 5.10166 9.16438C5.10705 9.1594 5.11106 9.15598 5.11338 9.15405C5.11772 9.15045 5.11821 9.15034 5.11405 9.15327C5.11012 9.15604 5.10377 9.16029 5.09513 9.16559C5.08657 9.17085 5.07694 9.1764 5.0667 9.1819C5.05647 9.18741 5.04661 9.19234 5.03767 9.19651C5.02864 9.20072 5.02186 9.20355 5.01774 9.20516C5.01335 9.20687 5.0142 9.20633 5.02021 9.20454C5.0234 9.20359 5.02881 9.20206 5.03631 9.20025C5.04373 9.19846 5.05438 9.19611 5.06793 9.19378L5.40774 11.1647ZM6.53057 10.5626L11.3197 5.49348L9.86594 4.11999L5.07677 9.18916L6.53057 10.5626ZM11.3217 5.49141C11.7132 5.0746 12.1768 4.48207 12.2232 3.71352C12.273 2.88991 11.8358 2.19469 11.2074 1.60449L9.83823 3.06231C10.048 3.2593 10.1472 3.4012 10.1922 3.4884C10.2136 3.52987 10.2214 3.55638 10.2244 3.56948C10.2271 3.58175 10.2271 3.5884 10.2268 3.59286C10.2252 3.62056 10.1958 3.76887 9.86399 4.12206L11.3217 5.49141ZM11.2163 1.61292C10.6585 1.076 10.0196 0.697569 9.292 0.697569V2.69757C9.29405 2.69757 9.33196 2.69673 9.41828 2.7402C9.50986 2.78631 9.64673 2.8781 9.82937 3.05389L11.2163 1.61292Z" fill="#082042" mask="url(#path-1-inside-1_603_712)"/>
<mask id="path-3-inside-2_603_712" fill="white">
<path d="M10.1156 6.38587C10.1039 6.38587 10.0864 6.38587 10.0747 6.38587C8.25475 6.20503 6.79058 4.82253 6.51058 3.0142C6.47558 2.77503 6.63891 2.55337 6.87808 2.51253C7.11725 2.47753 7.33891 2.64087 7.37975 2.88003C7.60141 4.2917 8.74475 5.3767 10.1681 5.5167C10.4072 5.54003 10.5822 5.75587 10.5589 5.99503C10.5297 6.2167 10.3372 6.38587 10.1156 6.38587Z"/>
</mask>
<path d="M10.1156 6.38587C10.1039 6.38587 10.0864 6.38587 10.0747 6.38587C8.25475 6.20503 6.79058 4.82253 6.51058 3.0142C6.47558 2.77503 6.63891 2.55337 6.87808 2.51253C7.11725 2.47753 7.33891 2.64087 7.37975 2.88003C7.60141 4.2917 8.74475 5.3767 10.1681 5.5167C10.4072 5.54003 10.5822 5.75587 10.5589 5.99503C10.5297 6.2167 10.3372 6.38587 10.1156 6.38587Z" fill="#082042"/>
<path d="M10.0747 6.38587L9.97587 7.38097L10.0252 7.38587H10.0747V6.38587ZM6.51058 3.0142L5.52108 3.159L5.52236 3.16721L6.51058 3.0142ZM6.87808 2.51253L6.73328 1.52307L6.72151 1.52479L6.70978 1.5268L6.87808 2.51253ZM7.37975 2.88003L8.36773 2.72489L8.36548 2.71174L7.37975 2.88003ZM10.1681 5.5167L10.0702 6.5119L10.071 6.51197L10.1681 5.5167ZM10.5589 5.99503L11.5504 6.12549L11.5526 6.10884L11.5542 6.09213L10.5589 5.99503ZM10.1156 5.38587C10.1156 5.38587 10.1155 5.38587 10.1155 5.38587C10.1155 5.38587 10.1155 5.38587 10.1154 5.38587C10.1154 5.38587 10.1154 5.38587 10.1154 5.38587C10.1154 5.38587 10.1153 5.38587 10.1153 5.38587C10.1153 5.38587 10.1153 5.38587 10.1152 5.38587C10.1152 5.38587 10.1152 5.38587 10.1152 5.38587C10.1151 5.38587 10.1151 5.38587 10.1151 5.38587C10.1151 5.38587 10.1151 5.38587 10.115 5.38587C10.115 5.38587 10.115 5.38587 10.115 5.38587C10.1149 5.38587 10.1149 5.38587 10.1149 5.38587C10.1149 5.38587 10.1148 5.38587 10.1148 5.38587C10.1148 5.38587 10.1148 5.38587 10.1147 5.38587C10.1147 5.38587 10.1147 5.38587 10.1147 5.38587C10.1147 5.38587 10.1146 5.38587 10.1146 5.38587C10.1146 5.38587 10.1146 5.38587 10.1145 5.38587C10.1145 5.38587 10.1145 5.38587 10.1145 5.38587C10.1144 5.38587 10.1144 5.38587 10.1144 5.38587C10.1144 5.38587 10.1144 5.38587 10.1143 5.38587C10.1143 5.38587 10.1143 5.38587 10.1143 5.38587C10.1142 5.38587 10.1142 5.38587 10.1142 5.38587C10.1142 5.38587 10.1141 5.38587 10.1141 5.38587C10.1141 5.38587 10.1141 5.38587 10.114 5.38587C10.114 5.38587 10.114 5.38587 10.114 5.38587C10.1139 5.38587 10.1139 5.38587 10.1139 5.38587C10.1139 5.38587 10.1139 5.38587 10.1138 5.38587C10.1138 5.38587 10.1138 5.38587 10.1138 5.38587C10.1137 5.38587 10.1137 5.38587 10.1137 5.38587C10.1137 5.38587 10.1136 5.38587 10.1136 5.38587C10.1136 5.38587 10.1136 5.38587 10.1135 5.38587C10.1135 5.38587 10.1135 5.38587 10.1135 5.38587C10.1134 5.38587 10.1134 5.38587 10.1134 5.38587C10.1134 5.38587 10.1134 5.38587 10.1133 5.38587C10.1133 5.38587 10.1133 5.38587 10.1133 5.38587C10.1132 5.38587 10.1132 5.38587 10.1132 5.38587C10.1132 5.38587 10.1131 5.38587 10.1131 5.38587C10.1131 5.38587 10.1131 5.38587 10.113 5.38587C10.113 5.38587 10.113 5.38587 10.113 5.38587C10.1129 5.38587 10.1129 5.38587 10.1129 5.38587C10.1129 5.38587 10.1128 5.38587 10.1128 5.38587C10.1128 5.38587 10.1128 5.38587 10.1127 5.38587C10.1127 5.38587 10.1127 5.38587 10.1127 5.38587C10.1126 5.38587 10.1126 5.38587 10.1126 5.38587C10.1126 5.38587 10.1125 5.38587 10.1125 5.38587C10.1125 5.38587 10.1125 5.38587 10.1124 5.38587C10.1124 5.38587 10.1124 5.38587 10.1124 5.38587C10.1124 5.38587 10.1123 5.38587 10.1123 5.38587C10.1123 5.38587 10.1123 5.38587 10.1122 5.38587C10.1122 5.38587 10.1122 5.38587 10.1122 5.38587C10.1121 5.38587 10.1121 5.38587 10.1121 5.38587C10.1121 5.38587 10.112 5.38587 10.112 5.38587C10.112 5.38587 10.112 5.38587 10.1119 5.38587C10.1119 5.38587 10.1119 5.38587 10.1119 5.38587C10.1118 5.38587 10.1118 5.38587 10.1118 5.38587C10.1118 5.38587 10.1117 5.38587 10.1117 5.38587C10.1117 5.38587 10.1117 5.38587 10.1116 5.38587C10.1116 5.38587 10.1116 5.38587 10.1116 5.38587C10.1115 5.38587 10.1115 5.38587 10.1115 5.38587C10.1115 5.38587 10.1114 5.38587 10.1114 5.38587C10.1114 5.38587 10.1114 5.38587 10.1113 5.38587C10.1113 5.38587 10.1113 5.38587 10.1113 5.38587C10.1112 5.38587 10.1112 5.38587 10.1112 5.38587C10.1112 5.38587 10.1111 5.38587 10.1111 5.38587C10.1111 5.38587 10.1111 5.38587 10.111 5.38587C10.111 5.38587 10.111 5.38587 10.111 5.38587C10.1109 5.38587 10.1109 5.38587 10.1109 5.38587C10.1109 5.38587 10.1108 5.38587 10.1108 5.38587C10.1108 5.38587 10.1108 5.38587 10.1107 5.38587C10.1107 5.38587 10.1107 5.38587 10.1106 5.38587C10.1106 5.38587 10.1106 5.38587 10.1106 5.38587C10.1105 5.38587 10.1105 5.38587 10.1105 5.38587C10.1105 5.38587 10.1104 5.38587 10.1104 5.38587C10.1104 5.38587 10.1104 5.38587 10.1103 5.38587C10.1103 5.38587 10.1103 5.38587 10.1103 5.38587C10.1102 5.38587 10.1102 5.38587 10.1102 5.38587C10.1102 5.38587 10.1101 5.38587 10.1101 5.38587C10.1101 5.38587 10.1101 5.38587 10.11 5.38587C10.11 5.38587 10.11 5.38587 10.11 5.38587C10.1099 5.38587 10.1099 5.38587 10.1099 5.38587C10.1099 5.38587 10.1098 5.38587 10.1098 5.38587C10.1098 5.38587 10.1098 5.38587 10.1097 5.38587C10.1097 5.38587 10.1097 5.38587 10.1097 5.38587C10.1096 5.38587 10.1096 5.38587 10.1096 5.38587C10.1095 5.38587 10.1095 5.38587 10.1095 5.38587C10.1095 5.38587 10.1094 5.38587 10.1094 5.38587C10.1094 5.38587 10.1094 5.38587 10.1093 5.38587C10.1093 5.38587 10.1093 5.38587 10.1093 5.38587C10.1092 5.38587 10.1092 5.38587 10.1092 5.38587C10.1092 5.38587 10.1091 5.38587 10.1091 5.38587C10.1091 5.38587 10.1091 5.38587 10.109 5.38587C10.109 5.38587 10.109 5.38587 10.1089 5.38587C10.1089 5.38587 10.1089 5.38587 10.1089 5.38587C10.1088 5.38587 10.1088 5.38587 10.1088 5.38587C10.1088 5.38587 10.1087 5.38587 10.1087 5.38587C10.1087 5.38587 10.1087 5.38587 10.1086 5.38587C10.1086 5.38587 10.1086 5.38587 10.1086 5.38587C10.1085 5.38587 10.1085 5.38587 10.1085 5.38587C10.1085 5.38587 10.1084 5.38587 10.1084 5.38587C10.1084 5.38587 10.1083 5.38587 10.1083 5.38587C10.1083 5.38587 10.1083 5.38587 10.1082 5.38587C10.1082 5.38587 10.1082 5.38587 10.1082 5.38587C10.1081 5.38587 10.1081 5.38587 10.1081 5.38587C10.1081 5.38587 10.108 5.38587 10.108 5.38587C10.108 5.38587 10.108 5.38587 10.1079 5.38587C10.1079 5.38587 10.1079 5.38587 10.1078 5.38587C10.1078 5.38587 10.1078 5.38587 10.1078 5.38587C10.1077 5.38587 10.1077 5.38587 10.1077 5.38587C10.1077 5.38587 10.1076 5.38587 10.1076 5.38587C10.1076 5.38587 10.1076 5.38587 10.1075 5.38587C10.1075 5.38587 10.1075 5.38587 10.1074 5.38587C10.1074 5.38587 10.1074 5.38587 10.1074 5.38587C10.1073 5.38587 10.1073 5.38587 10.1073 5.38587C10.1073 5.38587 10.1072 5.38587 10.1072 5.38587C10.1072 5.38587 10.1072 5.38587 10.1071 5.38587C10.1071 5.38587 10.1071 5.38587 10.107 5.38587C10.107 5.38587 10.107 5.38587 10.107 5.38587C10.1069 5.38587 10.1069 5.38587 10.1069 5.38587C10.1069 5.38587 10.1068 5.38587 10.1068 5.38587C10.1068 5.38587 10.1068 5.38587 10.1067 5.38587C10.1067 5.38587 10.1067 5.38587 10.1066 5.38587C10.1066 5.38587 10.1066 5.38587 10.1066 5.38587C10.1065 5.38587 10.1065 5.38587 10.1065 5.38587C10.1065 5.38587 10.1064 5.38587 10.1064 5.38587C10.1064 5.38587 10.1063 5.38587 10.1063 5.38587C10.1063 5.38587 10.1063 5.38587 10.1062 5.38587C10.1062 5.38587 10.1062 5.38587 10.1062 5.38587C10.1061 5.38587 10.1061 5.38587 10.1061 5.38587C10.1061 5.38587 10.106 5.38587 10.106 5.38587C10.106 5.38587 10.1059 5.38587 10.1059 5.38587C10.1059 5.38587 10.1059 5.38587 10.1058 5.38587C10.1058 5.38587 10.1058 5.38587 10.1058 5.38587C10.1057 5.38587 10.1057 5.38587 10.1057 5.38587C10.1056 5.38587 10.1056 5.38587 10.1056 5.38587C10.1056 5.38587 10.1055 5.38587 10.1055 5.38587C10.1055 5.38587 10.1055 5.38587 10.1054 5.38587C10.1054 5.38587 10.1054 5.38587 10.1053 5.38587C10.1053 5.38587 10.1053 5.38587 10.1053 5.38587C10.1052 5.38587 10.1052 5.38587 10.1052 5.38587C10.1052 5.38587 10.1051 5.38587 10.1051 5.38587C10.1051 5.38587 10.105 5.38587 10.105 5.38587C10.105 5.38587 10.105 5.38587 10.1049 5.38587C10.1049 5.38587 10.1049 5.38587 10.1049 5.38587C10.1048 5.38587 10.1048 5.38587 10.1048 5.38587C10.1047 5.38587 10.1047 5.38587 10.1047 5.38587C10.1047 5.38587 10.1046 5.38587 10.1046 5.38587C10.1046 5.38587 10.1046 5.38587 10.1045 5.38587C10.1045 5.38587 10.1045 5.38587 10.1044 5.38587C10.1044 5.38587 10.1044 5.38587 10.1044 5.38587C10.1043 5.38587 10.1043 5.38587 10.1043 5.38587C10.1043 5.38587 10.1042 5.38587 10.1042 5.38587C10.1042 5.38587 10.1041 5.38587 10.1041 5.38587C10.1041 5.38587 10.1041 5.38587 10.104 5.38587C10.104 5.38587 10.104 5.38587 10.104 5.38587C10.1039 5.38587 10.1039 5.38587 10.1039 5.38587C10.1038 5.38587 10.1038 5.38587 10.1038 5.38587C10.1038 5.38587 10.1037 5.38587 10.1037 5.38587C10.1037 5.38587 10.1036 5.38587 10.1036 5.38587C10.1036 5.38587 10.1036 5.38587 10.1035 5.38587C10.1035 5.38587 10.1035 5.38587 10.1035 5.38587C10.1034 5.38587 10.1034 5.38587 10.1034 5.38587C10.1033 5.38587 10.1033 5.38587 10.1033 5.38587C10.1033 5.38587 10.1032 5.38587 10.1032 5.38587C10.1032 5.38587 10.1032 5.38587 10.1031 5.38587C10.1031 5.38587 10.1031 5.38587 10.103 5.38587C10.103 5.38587 10.103 5.38587 10.103 5.38587C10.1029 5.38587 10.1029 5.38587 10.1029 5.38587C10.1028 5.38587 10.1028 5.38587 10.1028 5.38587C10.1028 5.38587 10.1027 5.38587 10.1027 5.38587C10.1027 5.38587 10.1027 5.38587 10.1026 5.38587C10.1026 5.38587 10.1026 5.38587 10.1025 5.38587C10.1025 5.38587 10.1025 5.38587 10.1025 5.38587C10.1024 5.38587 10.1024 5.38587 10.1024 5.38587C10.1023 5.38587 10.1023 5.38587 10.1023 5.38587C10.1023 5.38587 10.1022 5.38587 10.1022 5.38587C10.1022 5.38587 10.1021 5.38587 10.1021 5.38587C10.1021 5.38587 10.1021 5.38587 10.102 5.38587C10.102 5.38587 10.102 5.38587 10.102 5.38587C10.1019 5.38587 10.1019 5.38587 10.1019 5.38587C10.1018 5.38587 10.1018 5.38587 10.1018 5.38587C10.1018 5.38587 10.1017 5.38587 10.1017 5.38587C10.1017 5.38587 10.1016 5.38587 10.1016 5.38587C10.1016 5.38587 10.1016 5.38587 10.1015 5.38587C10.1015 5.38587 10.1015 5.38587 10.1015 5.38587C10.1014 5.38587 10.1014 5.38587 10.1014 5.38587C10.1013 5.38587 10.1013 5.38587 10.1013 5.38587C10.1013 5.38587 10.1012 5.38587 10.1012 5.38587C10.1012 5.38587 10.1011 5.38587 10.1011 5.38587C10.1011 5.38587 10.1011 5.38587 10.101 5.38587C10.101 5.38587 10.101 5.38587 10.1009 5.38587C10.1009 5.38587 10.1009 5.38587 10.1009 5.38587C10.1008 5.38587 10.1008 5.38587 10.1008 5.38587C10.1007 5.38587 10.1007 5.38587 10.1007 5.38587C10.1007 5.38587 10.1006 5.38587 10.1006 5.38587C10.1006 5.38587 10.1006 5.38587 10.1005 5.38587C10.1005 5.38587 10.1005 5.38587 10.1004 5.38587C10.1004 5.38587 10.1004 5.38587 10.1004 5.38587C10.1003 5.38587 10.1003 5.38587 10.1003 5.38587C10.1002 5.38587 10.1002 5.38587 10.1002 5.38587C10.1002 5.38587 10.1001 5.38587 10.1001 5.38587C10.1001 5.38587 10.1 5.38587 10.1 5.38587C10.1 5.38587 10.1 5.38587 10.0999 5.38587C10.0999 5.38587 10.0999 5.38587 10.0998 5.38587C10.0998 5.38587 10.0998 5.38587 10.0998 5.38587C10.0997 5.38587 10.0997 5.38587 10.0997 5.38587C10.0997 5.38587 10.0996 5.38587 10.0996 5.38587C10.0996 5.38587 10.0995 5.38587 10.0995 5.38587C10.0995 5.38587 10.0995 5.38587 10.0994 5.38587C10.0994 5.38587 10.0994 5.38587 10.0993 5.38587C10.0993 5.38587 10.0993 5.38587 10.0993 5.38587C10.0992 5.38587 10.0992 5.38587 10.0992 5.38587C10.0991 5.38587 10.0991 5.38587 10.0991 5.38587C10.0991 5.38587 10.099 5.38587 10.099 5.38587C10.099 5.38587 10.0989 5.38587 10.0989 5.38587C10.0989 5.38587 10.0989 5.38587 10.0988 5.38587C10.0988 5.38587 10.0988 5.38587 10.0987 5.38587C10.0987 5.38587 10.0987 5.38587 10.0987 5.38587C10.0986 5.38587 10.0986 5.38587 10.0986 5.38587C10.0985 5.38587 10.0985 5.38587 10.0985 5.38587C10.0985 5.38587 10.0984 5.38587 10.0984 5.38587C10.0984 5.38587 10.0983 5.38587 10.0983 5.38587C10.0983 5.38587 10.0983 5.38587 10.0982 5.38587C10.0982 5.38587 10.0982 5.38587 10.0981 5.38587C10.0981 5.38587 10.0981 5.38587 10.0981 5.38587C10.098 5.38587 10.098 5.38587 10.098 5.38587C10.098 5.38587 10.0979 5.38587 10.0979 5.38587C10.0979 5.38587 10.0978 5.38587 10.0978 5.38587C10.0978 5.38587 10.0978 5.38587 10.0977 5.38587C10.0977 5.38587 10.0977 5.38587 10.0976 5.38587C10.0976 5.38587 10.0976 5.38587 10.0976 5.38587C10.0975 5.38587 10.0975 5.38587 10.0975 5.38587C10.0974 5.38587 10.0974 5.38587 10.0974 5.38587C10.0974 5.38587 10.0973 5.38587 10.0973 5.38587C10.0973 5.38587 10.0972 5.38587 10.0972 5.38587C10.0972 5.38587 10.0972 5.38587 10.0971 5.38587C10.0971 5.38587 10.0971 5.38587 10.097 5.38587C10.097 5.38587 10.097 5.38587 10.097 5.38587C10.0969 5.38587 10.0969 5.38587 10.0969 5.38587C10.0968 5.38587 10.0968 5.38587 10.0968 5.38587C10.0968 5.38587 10.0967 5.38587 10.0967 5.38587C10.0967 5.38587 10.0966 5.38587 10.0966 5.38587C10.0966 5.38587 10.0966 5.38587 10.0965 5.38587C10.0965 5.38587 10.0965 5.38587 10.0964 5.38587C10.0964 5.38587 10.0964 5.38587 10.0964 5.38587C10.0963 5.38587 10.0963 5.38587 10.0963 5.38587C10.0962 5.38587 10.0962 5.38587 10.0962 5.38587C10.0962 5.38587 10.0961 5.38587 10.0961 5.38587C10.0961 5.38587 10.096 5.38587 10.096 5.38587C10.096 5.38587 10.096 5.38587 10.0959 5.38587C10.0959 5.38587 10.0959 5.38587 10.0958 5.38587C10.0958 5.38587 10.0958 5.38587 10.0958 5.38587C10.0957 5.38587 10.0957 5.38587 10.0957 5.38587C10.0956 5.38587 10.0956 5.38587 10.0956 5.38587C10.0956 5.38587 10.0955 5.38587 10.0955 5.38587C10.0955 5.38587 10.0954 5.38587 10.0954 5.38587C10.0954 5.38587 10.0954 5.38587 10.0953 5.38587C10.0953 5.38587 10.0953 5.38587 10.0952 5.38587C10.0952 5.38587 10.0952 5.38587 10.0952 5.38587C10.0951 5.38587 10.0951 5.38587 10.0951 5.38587C10.095 5.38587 10.095 5.38587 10.095 5.38587C10.095 5.38587 10.0949 5.38587 10.0949 5.38587C10.0949 5.38587 10.0948 5.38587 10.0948 5.38587C10.0948 5.38587 10.0948 5.38587 10.0947 5.38587C10.0947 5.38587 10.0947 5.38587 10.0947 5.38587C10.0946 5.38587 10.0946 5.38587 10.0946 5.38587C10.0945 5.38587 10.0945 5.38587 10.0945 5.38587C10.0945 5.38587 10.0944 5.38587 10.0944 5.38587C10.0944 5.38587 10.0943 5.38587 10.0943 5.38587C10.0943 5.38587 10.0943 5.38587 10.0942 5.38587C10.0942 5.38587 10.0942 5.38587 10.0941 5.38587C10.0941 5.38587 10.0941 5.38587 10.0941 5.38587C10.094 5.38587 10.094 5.38587 10.094 5.38587C10.0939 5.38587 10.0939 5.38587 10.0939 5.38587C10.0939 5.38587 10.0938 5.38587 10.0938 5.38587C10.0938 5.38587 10.0937 5.38587 10.0937 5.38587C10.0937 5.38587 10.0937 5.38587 10.0936 5.38587C10.0936 5.38587 10.0936 5.38587 10.0935 5.38587C10.0935 5.38587 10.0935 5.38587 10.0935 5.38587C10.0934 5.38587 10.0934 5.38587 10.0934 5.38587C10.0933 5.38587 10.0933 5.38587 10.0933 5.38587C10.0933 5.38587 10.0932 5.38587 10.0932 5.38587C10.0932 5.38587 10.0931 5.38587 10.0931 5.38587C10.0931 5.38587 10.0931 5.38587 10.093 5.38587C10.093 5.38587 10.093 5.38587 10.0929 5.38587C10.0929 5.38587 10.0929 5.38587 10.0929 5.38587C10.0928 5.38587 10.0928 5.38587 10.0928 5.38587C10.0927 5.38587 10.0927 5.38587 10.0927 5.38587C10.0927 5.38587 10.0926 5.38587 10.0926 5.38587C10.0926 5.38587 10.0925 5.38587 10.0925 5.38587C10.0925 5.38587 10.0925 5.38587 10.0924 5.38587C10.0924 5.38587 10.0924 5.38587 10.0923 5.38587C10.0923 5.38587 10.0923 5.38587 10.0923 5.38587C10.0922 5.38587 10.0922 5.38587 10.0922 5.38587C10.0921 5.38587 10.0921 5.38587 10.0921 5.38587C10.0921 5.38587 10.092 5.38587 10.092 5.38587C10.092 5.38587 10.0919 5.38587 10.0919 5.38587C10.0919 5.38587 10.0919 5.38587 10.0918 5.38587C10.0918 5.38587 10.0918 5.38587 10.0918 5.38587C10.0917 5.38587 10.0917 5.38587 10.0917 5.38587C10.0916 5.38587 10.0916 5.38587 10.0916 5.38587C10.0916 5.38587 10.0915 5.38587 10.0915 5.38587C10.0915 5.38587 10.0914 5.38587 10.0914 5.38587C10.0914 5.38587 10.0914 5.38587 10.0913 5.38587C10.0913 5.38587 10.0913 5.38587 10.0912 5.38587C10.0912 5.38587 10.0912 5.38587 10.0912 5.38587C10.0911 5.38587 10.0911 5.38587 10.0911 5.38587C10.091 5.38587 10.091 5.38587 10.091 5.38587C10.091 5.38587 10.0909 5.38587 10.0909 5.38587C10.0909 5.38587 10.0908 5.38587 10.0908 5.38587C10.0908 5.38587 10.0908 5.38587 10.0907 5.38587C10.0907 5.38587 10.0907 5.38587 10.0906 5.38587C10.0906 5.38587 10.0906 5.38587 10.0906 5.38587C10.0905 5.38587 10.0905 5.38587 10.0905 5.38587C10.0904 5.38587 10.0904 5.38587 10.0904 5.38587C10.0904 5.38587 10.0903 5.38587 10.0903 5.38587C10.0903 5.38587 10.0903 5.38587 10.0902 5.38587C10.0902 5.38587 10.0902 5.38587 10.0901 5.38587C10.0901 5.38587 10.0901 5.38587 10.0901 5.38587C10.09 5.38587 10.09 5.38587 10.09 5.38587C10.0899 5.38587 10.0899 5.38587 10.0899 5.38587C10.0899 5.38587 10.0898 5.38587 10.0898 5.38587C10.0898 5.38587 10.0897 5.38587 10.0897 5.38587C10.0897 5.38587 10.0897 5.38587 10.0896 5.38587C10.0896 5.38587 10.0896 5.38587 10.0895 5.38587C10.0895 5.38587 10.0895 5.38587 10.0895 5.38587C10.0894 5.38587 10.0894 5.38587 10.0894 5.38587C10.0894 5.38587 10.0893 5.38587 10.0893 5.38587C10.0893 5.38587 10.0892 5.38587 10.0892 5.38587C10.0892 5.38587 10.0892 5.38587 10.0891 5.38587C10.0891 5.38587 10.0891 5.38587 10.089 5.38587C10.089 5.38587 10.089 5.38587 10.089 5.38587C10.0889 5.38587 10.0889 5.38587 10.0889 5.38587C10.0888 5.38587 10.0888 5.38587 10.0888 5.38587C10.0888 5.38587 10.0887 5.38587 10.0887 5.38587C10.0887 5.38587 10.0887 5.38587 10.0886 5.38587C10.0886 5.38587 10.0886 5.38587 10.0885 5.38587C10.0885 5.38587 10.0885 5.38587 10.0885 5.38587C10.0884 5.38587 10.0884 5.38587 10.0884 5.38587C10.0883 5.38587 10.0883 5.38587 10.0883 5.38587C10.0883 5.38587 10.0882 5.38587 10.0882 5.38587C10.0882 5.38587 10.0881 5.38587 10.0881 5.38587C10.0881 5.38587 10.0881 5.38587 10.088 5.38587C10.088 5.38587 10.088 5.38587 10.088 5.38587C10.0879 5.38587 10.0879 5.38587 10.0879 5.38587C10.0878 5.38587 10.0878 5.38587 10.0878 5.38587C10.0878 5.38587 10.0877 5.38587 10.0877 5.38587C10.0877 5.38587 10.0876 5.38587 10.0876 5.38587C10.0876 5.38587 10.0876 5.38587 10.0875 5.38587C10.0875 5.38587 10.0875 5.38587 10.0875 5.38587C10.0874 5.38587 10.0874 5.38587 10.0874 5.38587C10.0873 5.38587 10.0873 5.38587 10.0873 5.38587C10.0873 5.38587 10.0872 5.38587 10.0872 5.38587C10.0872 5.38587 10.0871 5.38587 10.0871 5.38587C10.0871 5.38587 10.0871 5.38587 10.087 5.38587C10.087 5.38587 10.087 5.38587 10.087 5.38587C10.0869 5.38587 10.0869 5.38587 10.0869 5.38587C10.0868 5.38587 10.0868 5.38587 10.0868 5.38587C10.0868 5.38587 10.0867 5.38587 10.0867 5.38587C10.0867 5.38587 10.0866 5.38587 10.0866 5.38587C10.0866 5.38587 10.0866 5.38587 10.0865 5.38587C10.0865 5.38587 10.0865 5.38587 10.0865 5.38587C10.0864 5.38587 10.0864 5.38587 10.0864 5.38587C10.0863 5.38587 10.0863 5.38587 10.0863 5.38587C10.0863 5.38587 10.0862 5.38587 10.0862 5.38587C10.0862 5.38587 10.0862 5.38587 10.0861 5.38587C10.0861 5.38587 10.0861 5.38587 10.086 5.38587C10.086 5.38587 10.086 5.38587 10.086 5.38587C10.0859 5.38587 10.0859 5.38587 10.0859 5.38587C10.0859 5.38587 10.0858 5.38587 10.0858 5.38587C10.0858 5.38587 10.0857 5.38587 10.0857 5.38587C10.0857 5.38587 10.0857 5.38587 10.0856 5.38587C10.0856 5.38587 10.0856 5.38587 10.0856 5.38587C10.0855 5.38587 10.0855 5.38587 10.0855 5.38587C10.0854 5.38587 10.0854 5.38587 10.0854 5.38587C10.0854 5.38587 10.0853 5.38587 10.0853 5.38587C10.0853 5.38587 10.0852 5.38587 10.0852 5.38587C10.0852 5.38587 10.0852 5.38587 10.0851 5.38587C10.0851 5.38587 10.0851 5.38587 10.0851 5.38587C10.085 5.38587 10.085 5.38587 10.085 5.38587C10.085 5.38587 10.0849 5.38587 10.0849 5.38587C10.0849 5.38587 10.0848 5.38587 10.0848 5.38587C10.0848 5.38587 10.0848 5.38587 10.0847 5.38587C10.0847 5.38587 10.0847 5.38587 10.0847 5.38587C10.0846 5.38587 10.0846 5.38587 10.0846 5.38587C10.0845 5.38587 10.0845 5.38587 10.0845 5.38587C10.0845 5.38587 10.0844 5.38587 10.0844 5.38587C10.0844 5.38587 10.0844 5.38587 10.0843 5.38587C10.0843 5.38587 10.0843 5.38587 10.0842 5.38587C10.0842 5.38587 10.0842 5.38587 10.0842 5.38587C10.0841 5.38587 10.0841 5.38587 10.0841 5.38587C10.0841 5.38587 10.084 5.38587 10.084 5.38587C10.084 5.38587 10.0839 5.38587 10.0839 5.38587C10.0839 5.38587 10.0839 5.38587 10.0838 5.38587C10.0838 5.38587 10.0838 5.38587 10.0838 5.38587C10.0837 5.38587 10.0837 5.38587 10.0837 5.38587C10.0837 5.38587 10.0836 5.38587 10.0836 5.38587C10.0836 5.38587 10.0835 5.38587 10.0835 5.38587C10.0835 5.38587 10.0835 5.38587 10.0834 5.38587C10.0834 5.38587 10.0834 5.38587 10.0834 5.38587C10.0833 5.38587 10.0833 5.38587 10.0833 5.38587C10.0833 5.38587 10.0832 5.38587 10.0832 5.38587C10.0832 5.38587 10.0831 5.38587 10.0831 5.38587C10.0831 5.38587 10.0831 5.38587 10.083 5.38587C10.083 5.38587 10.083 5.38587 10.083 5.38587C10.0829 5.38587 10.0829 5.38587 10.0829 5.38587C10.0829 5.38587 10.0828 5.38587 10.0828 5.38587C10.0828 5.38587 10.0827 5.38587 10.0827 5.38587C10.0827 5.38587 10.0827 5.38587 10.0826 5.38587C10.0826 5.38587 10.0826 5.38587 10.0826 5.38587C10.0825 5.38587 10.0825 5.38587 10.0825 5.38587C10.0825 5.38587 10.0824 5.38587 10.0824 5.38587C10.0824 5.38587 10.0823 5.38587 10.0823 5.38587C10.0823 5.38587 10.0823 5.38587 10.0822 5.38587C10.0822 5.38587 10.0822 5.38587 10.0822 5.38587C10.0821 5.38587 10.0821 5.38587 10.0821 5.38587C10.0821 5.38587 10.082 5.38587 10.082 5.38587C10.082 5.38587 10.082 5.38587 10.0819 5.38587C10.0819 5.38587 10.0819 5.38587 10.0818 5.38587C10.0818 5.38587 10.0818 5.38587 10.0818 5.38587C10.0817 5.38587 10.0817 5.38587 10.0817 5.38587C10.0817 5.38587 10.0816 5.38587 10.0816 5.38587C10.0816 5.38587 10.0816 5.38587 10.0815 5.38587C10.0815 5.38587 10.0815 5.38587 10.0815 5.38587C10.0814 5.38587 10.0814 5.38587 10.0814 5.38587C10.0813 5.38587 10.0813 5.38587 10.0813 5.38587C10.0813 5.38587 10.0812 5.38587 10.0812 5.38587C10.0812 5.38587 10.0812 5.38587 10.0811 5.38587C10.0811 5.38587 10.0811 5.38587 10.0811 5.38587C10.081 5.38587 10.081 5.38587 10.081 5.38587C10.081 5.38587 10.0809 5.38587 10.0809 5.38587C10.0809 5.38587 10.0809 5.38587 10.0808 5.38587C10.0808 5.38587 10.0808 5.38587 10.0808 5.38587C10.0807 5.38587 10.0807 5.38587 10.0807 5.38587C10.0806 5.38587 10.0806 5.38587 10.0806 5.38587C10.0806 5.38587 10.0805 5.38587 10.0805 5.38587C10.0805 5.38587 10.0805 5.38587 10.0804 5.38587C10.0804 5.38587 10.0804 5.38587 10.0804 5.38587C10.0803 5.38587 10.0803 5.38587 10.0803 5.38587C10.0803 5.38587 10.0802 5.38587 10.0802 5.38587C10.0802 5.38587 10.0802 5.38587 10.0801 5.38587C10.0801 5.38587 10.0801 5.38587 10.0801 5.38587C10.08 5.38587 10.08 5.38587 10.08 5.38587C10.08 5.38587 10.0799 5.38587 10.0799 5.38587C10.0799 5.38587 10.0799 5.38587 10.0798 5.38587C10.0798 5.38587 10.0798 5.38587 10.0798 5.38587C10.0797 5.38587 10.0797 5.38587 10.0797 5.38587C10.0797 5.38587 10.0796 5.38587 10.0796 5.38587C10.0796 5.38587 10.0795 5.38587 10.0795 5.38587C10.0795 5.38587 10.0795 5.38587 10.0794 5.38587C10.0794 5.38587 10.0794 5.38587 10.0794 5.38587C10.0793 5.38587 10.0793 5.38587 10.0793 5.38587C10.0793 5.38587 10.0792 5.38587 10.0792 5.38587C10.0792 5.38587 10.0792 5.38587 10.0791 5.38587C10.0791 5.38587 10.0791 5.38587 10.0791 5.38587C10.079 5.38587 10.079 5.38587 10.079 5.38587C10.079 5.38587 10.0789 5.38587 10.0789 5.38587C10.0789 5.38587 10.0789 5.38587 10.0788 5.38587C10.0788 5.38587 10.0788 5.38587 10.0788 5.38587C10.0787 5.38587 10.0787 5.38587 10.0787 5.38587C10.0787 5.38587 10.0786 5.38587 10.0786 5.38587C10.0786 5.38587 10.0786 5.38587 10.0785 5.38587C10.0785 5.38587 10.0785 5.38587 10.0785 5.38587C10.0784 5.38587 10.0784 5.38587 10.0784 5.38587C10.0784 5.38587 10.0783 5.38587 10.0783 5.38587C10.0783 5.38587 10.0783 5.38587 10.0782 5.38587C10.0782 5.38587 10.0782 5.38587 10.0782 5.38587C10.0781 5.38587 10.0781 5.38587 10.0781 5.38587C10.0781 5.38587 10.078 5.38587 10.078 5.38587C10.078 5.38587 10.078 5.38587 10.0779 5.38587C10.0779 5.38587 10.0779 5.38587 10.0779 5.38587C10.0779 5.38587 10.0778 5.38587 10.0778 5.38587C10.0778 5.38587 10.0778 5.38587 10.0777 5.38587C10.0777 5.38587 10.0777 5.38587 10.0777 5.38587C10.0776 5.38587 10.0776 5.38587 10.0776 5.38587C10.0776 5.38587 10.0775 5.38587 10.0775 5.38587C10.0775 5.38587 10.0775 5.38587 10.0774 5.38587C10.0774 5.38587 10.0774 5.38587 10.0774 5.38587C10.0773 5.38587 10.0773 5.38587 10.0773 5.38587C10.0773 5.38587 10.0772 5.38587 10.0772 5.38587C10.0772 5.38587 10.0772 5.38587 10.0771 5.38587C10.0771 5.38587 10.0771 5.38587 10.0771 5.38587C10.077 5.38587 10.077 5.38587 10.077 5.38587C10.077 5.38587 10.077 5.38587 10.0769 5.38587C10.0769 5.38587 10.0769 5.38587 10.0769 5.38587C10.0768 5.38587 10.0768 5.38587 10.0768 5.38587C10.0768 5.38587 10.0767 5.38587 10.0767 5.38587C10.0767 5.38587 10.0767 5.38587 10.0766 5.38587C10.0766 5.38587 10.0766 5.38587 10.0766 5.38587C10.0765 5.38587 10.0765 5.38587 10.0765 5.38587C10.0765 5.38587 10.0764 5.38587 10.0764 5.38587C10.0764 5.38587 10.0764 5.38587 10.0764 5.38587C10.0763 5.38587 10.0763 5.38587 10.0763 5.38587C10.0763 5.38587 10.0762 5.38587 10.0762 5.38587C10.0762 5.38587 10.0762 5.38587 10.0761 5.38587C10.0761 5.38587 10.0761 5.38587 10.0761 5.38587C10.076 5.38587 10.076 5.38587 10.076 5.38587C10.076 5.38587 10.076 5.38587 10.0759 5.38587C10.0759 5.38587 10.0759 5.38587 10.0759 5.38587C10.0758 5.38587 10.0758 5.38587 10.0758 5.38587C10.0758 5.38587 10.0757 5.38587 10.0757 5.38587C10.0757 5.38587 10.0757 5.38587 10.0756 5.38587C10.0756 5.38587 10.0756 5.38587 10.0756 5.38587C10.0756 5.38587 10.0755 5.38587 10.0755 5.38587C10.0755 5.38587 10.0755 5.38587 10.0754 5.38587C10.0754 5.38587 10.0754 5.38587 10.0754 5.38587C10.0753 5.38587 10.0753 5.38587 10.0753 5.38587C10.0753 5.38587 10.0753 5.38587 10.0752 5.38587C10.0752 5.38587 10.0752 5.38587 10.0752 5.38587C10.0751 5.38587 10.0751 5.38587 10.0751 5.38587C10.0751 5.38587 10.075 5.38587 10.075 5.38587C10.075 5.38587 10.075 5.38587 10.075 5.38587C10.0749 5.38587 10.0749 5.38587 10.0749 5.38587C10.0749 5.38587 10.0748 5.38587 10.0748 5.38587C10.0748 5.38587 10.0748 5.38587 10.0747 5.38587V7.38587C10.0748 7.38587 10.0748 7.38587 10.0748 7.38587C10.0748 7.38587 10.0749 7.38587 10.0749 7.38587C10.0749 7.38587 10.0749 7.38587 10.075 7.38587C10.075 7.38587 10.075 7.38587 10.075 7.38587C10.075 7.38587 10.0751 7.38587 10.0751 7.38587C10.0751 7.38587 10.0751 7.38587 10.0752 7.38587C10.0752 7.38587 10.0752 7.38587 10.0752 7.38587C10.0753 7.38587 10.0753 7.38587 10.0753 7.38587C10.0753 7.38587 10.0753 7.38587 10.0754 7.38587C10.0754 7.38587 10.0754 7.38587 10.0754 7.38587C10.0755 7.38587 10.0755 7.38587 10.0755 7.38587C10.0755 7.38587 10.0756 7.38587 10.0756 7.38587C10.0756 7.38587 10.0756 7.38587 10.0756 7.38587C10.0757 7.38587 10.0757 7.38587 10.0757 7.38587C10.0757 7.38587 10.0758 7.38587 10.0758 7.38587C10.0758 7.38587 10.0758 7.38587 10.0759 7.38587C10.0759 7.38587 10.0759 7.38587 10.0759 7.38587C10.076 7.38587 10.076 7.38587 10.076 7.38587C10.076 7.38587 10.076 7.38587 10.0761 7.38587C10.0761 7.38587 10.0761 7.38587 10.0761 7.38587C10.0762 7.38587 10.0762 7.38587 10.0762 7.38587C10.0762 7.38587 10.0763 7.38587 10.0763 7.38587C10.0763 7.38587 10.0763 7.38587 10.0764 7.38587C10.0764 7.38587 10.0764 7.38587 10.0764 7.38587C10.0764 7.38587 10.0765 7.38587 10.0765 7.38587C10.0765 7.38587 10.0765 7.38587 10.0766 7.38587C10.0766 7.38587 10.0766 7.38587 10.0766 7.38587C10.0767 7.38587 10.0767 7.38587 10.0767 7.38587C10.0767 7.38587 10.0768 7.38587 10.0768 7.38587C10.0768 7.38587 10.0768 7.38587 10.0769 7.38587C10.0769 7.38587 10.0769 7.38587 10.0769 7.38587C10.077 7.38587 10.077 7.38587 10.077 7.38587C10.077 7.38587 10.077 7.38587 10.0771 7.38587C10.0771 7.38587 10.0771 7.38587 10.0771 7.38587C10.0772 7.38587 10.0772 7.38587 10.0772 7.38587C10.0772 7.38587 10.0773 7.38587 10.0773 7.38587C10.0773 7.38587 10.0773 7.38587 10.0774 7.38587C10.0774 7.38587 10.0774 7.38587 10.0774 7.38587C10.0775 7.38587 10.0775 7.38587 10.0775 7.38587C10.0775 7.38587 10.0776 7.38587 10.0776 7.38587C10.0776 7.38587 10.0776 7.38587 10.0777 7.38587C10.0777 7.38587 10.0777 7.38587 10.0777 7.38587C10.0778 7.38587 10.0778 7.38587 10.0778 7.38587C10.0778 7.38587 10.0779 7.38587 10.0779 7.38587C10.0779 7.38587 10.0779 7.38587 10.0779 7.38587C10.078 7.38587 10.078 7.38587 10.078 7.38587C10.078 7.38587 10.0781 7.38587 10.0781 7.38587C10.0781 7.38587 10.0781 7.38587 10.0782 7.38587C10.0782 7.38587 10.0782 7.38587 10.0782 7.38587C10.0783 7.38587 10.0783 7.38587 10.0783 7.38587C10.0783 7.38587 10.0784 7.38587 10.0784 7.38587C10.0784 7.38587 10.0784 7.38587 10.0785 7.38587C10.0785 7.38587 10.0785 7.38587 10.0785 7.38587C10.0786 7.38587 10.0786 7.38587 10.0786 7.38587C10.0786 7.38587 10.0787 7.38587 10.0787 7.38587C10.0787 7.38587 10.0787 7.38587 10.0788 7.38587C10.0788 7.38587 10.0788 7.38587 10.0788 7.38587C10.0789 7.38587 10.0789 7.38587 10.0789 7.38587C10.0789 7.38587 10.079 7.38587 10.079 7.38587C10.079 7.38587 10.079 7.38587 10.0791 7.38587C10.0791 7.38587 10.0791 7.38587 10.0791 7.38587C10.0792 7.38587 10.0792 7.38587 10.0792 7.38587C10.0792 7.38587 10.0793 7.38587 10.0793 7.38587C10.0793 7.38587 10.0793 7.38587 10.0794 7.38587C10.0794 7.38587 10.0794 7.38587 10.0794 7.38587C10.0795 7.38587 10.0795 7.38587 10.0795 7.38587C10.0795 7.38587 10.0796 7.38587 10.0796 7.38587C10.0796 7.38587 10.0797 7.38587 10.0797 7.38587C10.0797 7.38587 10.0797 7.38587 10.0798 7.38587C10.0798 7.38587 10.0798 7.38587 10.0798 7.38587C10.0799 7.38587 10.0799 7.38587 10.0799 7.38587C10.0799 7.38587 10.08 7.38587 10.08 7.38587C10.08 7.38587 10.08 7.38587 10.0801 7.38587C10.0801 7.38587 10.0801 7.38587 10.0801 7.38587C10.0802 7.38587 10.0802 7.38587 10.0802 7.38587C10.0802 7.38587 10.0803 7.38587 10.0803 7.38587C10.0803 7.38587 10.0803 7.38587 10.0804 7.38587C10.0804 7.38587 10.0804 7.38587 10.0804 7.38587C10.0805 7.38587 10.0805 7.38587 10.0805 7.38587C10.0805 7.38587 10.0806 7.38587 10.0806 7.38587C10.0806 7.38587 10.0806 7.38587 10.0807 7.38587C10.0807 7.38587 10.0807 7.38587 10.0808 7.38587C10.0808 7.38587 10.0808 7.38587 10.0808 7.38587C10.0809 7.38587 10.0809 7.38587 10.0809 7.38587C10.0809 7.38587 10.081 7.38587 10.081 7.38587C10.081 7.38587 10.081 7.38587 10.0811 7.38587C10.0811 7.38587 10.0811 7.38587 10.0811 7.38587C10.0812 7.38587 10.0812 7.38587 10.0812 7.38587C10.0812 7.38587 10.0813 7.38587 10.0813 7.38587C10.0813 7.38587 10.0813 7.38587 10.0814 7.38587C10.0814 7.38587 10.0814 7.38587 10.0815 7.38587C10.0815 7.38587 10.0815 7.38587 10.0815 7.38587C10.0816 7.38587 10.0816 7.38587 10.0816 7.38587C10.0816 7.38587 10.0817 7.38587 10.0817 7.38587C10.0817 7.38587 10.0817 7.38587 10.0818 7.38587C10.0818 7.38587 10.0818 7.38587 10.0818 7.38587C10.0819 7.38587 10.0819 7.38587 10.0819 7.38587C10.082 7.38587 10.082 7.38587 10.082 7.38587C10.082 7.38587 10.0821 7.38587 10.0821 7.38587C10.0821 7.38587 10.0821 7.38587 10.0822 7.38587C10.0822 7.38587 10.0822 7.38587 10.0822 7.38587C10.0823 7.38587 10.0823 7.38587 10.0823 7.38587C10.0823 7.38587 10.0824 7.38587 10.0824 7.38587C10.0824 7.38587 10.0825 7.38587 10.0825 7.38587C10.0825 7.38587 10.0825 7.38587 10.0826 7.38587C10.0826 7.38587 10.0826 7.38587 10.0826 7.38587C10.0827 7.38587 10.0827 7.38587 10.0827 7.38587C10.0827 7.38587 10.0828 7.38587 10.0828 7.38587C10.0828 7.38587 10.0829 7.38587 10.0829 7.38587C10.0829 7.38587 10.0829 7.38587 10.083 7.38587C10.083 7.38587 10.083 7.38587 10.083 7.38587C10.0831 7.38587 10.0831 7.38587 10.0831 7.38587C10.0831 7.38587 10.0832 7.38587 10.0832 7.38587C10.0832 7.38587 10.0833 7.38587 10.0833 7.38587C10.0833 7.38587 10.0833 7.38587 10.0834 7.38587C10.0834 7.38587 10.0834 7.38587 10.0834 7.38587C10.0835 7.38587 10.0835 7.38587 10.0835 7.38587C10.0835 7.38587 10.0836 7.38587 10.0836 7.38587C10.0836 7.38587 10.0837 7.38587 10.0837 7.38587C10.0837 7.38587 10.0837 7.38587 10.0838 7.38587C10.0838 7.38587 10.0838 7.38587 10.0838 7.38587C10.0839 7.38587 10.0839 7.38587 10.0839 7.38587C10.0839 7.38587 10.084 7.38587 10.084 7.38587C10.084 7.38587 10.0841 7.38587 10.0841 7.38587C10.0841 7.38587 10.0841 7.38587 10.0842 7.38587C10.0842 7.38587 10.0842 7.38587 10.0842 7.38587C10.0843 7.38587 10.0843 7.38587 10.0843 7.38587C10.0844 7.38587 10.0844 7.38587 10.0844 7.38587C10.0844 7.38587 10.0845 7.38587 10.0845 7.38587C10.0845 7.38587 10.0845 7.38587 10.0846 7.38587C10.0846 7.38587 10.0846 7.38587 10.0847 7.38587C10.0847 7.38587 10.0847 7.38587 10.0847 7.38587C10.0848 7.38587 10.0848 7.38587 10.0848 7.38587C10.0848 7.38587 10.0849 7.38587 10.0849 7.38587C10.0849 7.38587 10.085 7.38587 10.085 7.38587C10.085 7.38587 10.085 7.38587 10.0851 7.38587C10.0851 7.38587 10.0851 7.38587 10.0851 7.38587C10.0852 7.38587 10.0852 7.38587 10.0852 7.38587C10.0852 7.38587 10.0853 7.38587 10.0853 7.38587C10.0853 7.38587 10.0854 7.38587 10.0854 7.38587C10.0854 7.38587 10.0854 7.38587 10.0855 7.38587C10.0855 7.38587 10.0855 7.38587 10.0856 7.38587C10.0856 7.38587 10.0856 7.38587 10.0856 7.38587C10.0857 7.38587 10.0857 7.38587 10.0857 7.38587C10.0857 7.38587 10.0858 7.38587 10.0858 7.38587C10.0858 7.38587 10.0859 7.38587 10.0859 7.38587C10.0859 7.38587 10.0859 7.38587 10.086 7.38587C10.086 7.38587 10.086 7.38587 10.086 7.38587C10.0861 7.38587 10.0861 7.38587 10.0861 7.38587C10.0862 7.38587 10.0862 7.38587 10.0862 7.38587C10.0862 7.38587 10.0863 7.38587 10.0863 7.38587C10.0863 7.38587 10.0863 7.38587 10.0864 7.38587C10.0864 7.38587 10.0864 7.38587 10.0865 7.38587C10.0865 7.38587 10.0865 7.38587 10.0865 7.38587C10.0866 7.38587 10.0866 7.38587 10.0866 7.38587C10.0866 7.38587 10.0867 7.38587 10.0867 7.38587C10.0867 7.38587 10.0868 7.38587 10.0868 7.38587C10.0868 7.38587 10.0868 7.38587 10.0869 7.38587C10.0869 7.38587 10.0869 7.38587 10.087 7.38587C10.087 7.38587 10.087 7.38587 10.087 7.38587C10.0871 7.38587 10.0871 7.38587 10.0871 7.38587C10.0871 7.38587 10.0872 7.38587 10.0872 7.38587C10.0872 7.38587 10.0873 7.38587 10.0873 7.38587C10.0873 7.38587 10.0873 7.38587 10.0874 7.38587C10.0874 7.38587 10.0874 7.38587 10.0875 7.38587C10.0875 7.38587 10.0875 7.38587 10.0875 7.38587C10.0876 7.38587 10.0876 7.38587 10.0876 7.38587C10.0876 7.38587 10.0877 7.38587 10.0877 7.38587C10.0877 7.38587 10.0878 7.38587 10.0878 7.38587C10.0878 7.38587 10.0878 7.38587 10.0879 7.38587C10.0879 7.38587 10.0879 7.38587 10.088 7.38587C10.088 7.38587 10.088 7.38587 10.088 7.38587C10.0881 7.38587 10.0881 7.38587 10.0881 7.38587C10.0881 7.38587 10.0882 7.38587 10.0882 7.38587C10.0882 7.38587 10.0883 7.38587 10.0883 7.38587C10.0883 7.38587 10.0883 7.38587 10.0884 7.38587C10.0884 7.38587 10.0884 7.38587 10.0885 7.38587C10.0885 7.38587 10.0885 7.38587 10.0885 7.38587C10.0886 7.38587 10.0886 7.38587 10.0886 7.38587C10.0887 7.38587 10.0887 7.38587 10.0887 7.38587C10.0887 7.38587 10.0888 7.38587 10.0888 7.38587C10.0888 7.38587 10.0888 7.38587 10.0889 7.38587C10.0889 7.38587 10.0889 7.38587 10.089 7.38587C10.089 7.38587 10.089 7.38587 10.089 7.38587C10.0891 7.38587 10.0891 7.38587 10.0891 7.38587C10.0892 7.38587 10.0892 7.38587 10.0892 7.38587C10.0892 7.38587 10.0893 7.38587 10.0893 7.38587C10.0893 7.38587 10.0894 7.38587 10.0894 7.38587C10.0894 7.38587 10.0894 7.38587 10.0895 7.38587C10.0895 7.38587 10.0895 7.38587 10.0895 7.38587C10.0896 7.38587 10.0896 7.38587 10.0896 7.38587C10.0897 7.38587 10.0897 7.38587 10.0897 7.38587C10.0897 7.38587 10.0898 7.38587 10.0898 7.38587C10.0898 7.38587 10.0899 7.38587 10.0899 7.38587C10.0899 7.38587 10.0899 7.38587 10.09 7.38587C10.09 7.38587 10.09 7.38587 10.0901 7.38587C10.0901 7.38587 10.0901 7.38587 10.0901 7.38587C10.0902 7.38587 10.0902 7.38587 10.0902 7.38587C10.0903 7.38587 10.0903 7.38587 10.0903 7.38587C10.0903 7.38587 10.0904 7.38587 10.0904 7.38587C10.0904 7.38587 10.0904 7.38587 10.0905 7.38587C10.0905 7.38587 10.0905 7.38587 10.0906 7.38587C10.0906 7.38587 10.0906 7.38587 10.0906 7.38587C10.0907 7.38587 10.0907 7.38587 10.0907 7.38587C10.0908 7.38587 10.0908 7.38587 10.0908 7.38587C10.0908 7.38587 10.0909 7.38587 10.0909 7.38587C10.0909 7.38587 10.091 7.38587 10.091 7.38587C10.091 7.38587 10.091 7.38587 10.0911 7.38587C10.0911 7.38587 10.0911 7.38587 10.0912 7.38587C10.0912 7.38587 10.0912 7.38587 10.0912 7.38587C10.0913 7.38587 10.0913 7.38587 10.0913 7.38587C10.0914 7.38587 10.0914 7.38587 10.0914 7.38587C10.0914 7.38587 10.0915 7.38587 10.0915 7.38587C10.0915 7.38587 10.0916 7.38587 10.0916 7.38587C10.0916 7.38587 10.0916 7.38587 10.0917 7.38587C10.0917 7.38587 10.0917 7.38587 10.0918 7.38587C10.0918 7.38587 10.0918 7.38587 10.0918 7.38587C10.0919 7.38587 10.0919 7.38587 10.0919 7.38587C10.0919 7.38587 10.092 7.38587 10.092 7.38587C10.092 7.38587 10.0921 7.38587 10.0921 7.38587C10.0921 7.38587 10.0921 7.38587 10.0922 7.38587C10.0922 7.38587 10.0922 7.38587 10.0923 7.38587C10.0923 7.38587 10.0923 7.38587 10.0923 7.38587C10.0924 7.38587 10.0924 7.38587 10.0924 7.38587C10.0925 7.38587 10.0925 7.38587 10.0925 7.38587C10.0925 7.38587 10.0926 7.38587 10.0926 7.38587C10.0926 7.38587 10.0927 7.38587 10.0927 7.38587C10.0927 7.38587 10.0927 7.38587 10.0928 7.38587C10.0928 7.38587 10.0928 7.38587 10.0929 7.38587C10.0929 7.38587 10.0929 7.38587 10.0929 7.38587C10.093 7.38587 10.093 7.38587 10.093 7.38587C10.0931 7.38587 10.0931 7.38587 10.0931 7.38587C10.0931 7.38587 10.0932 7.38587 10.0932 7.38587C10.0932 7.38587 10.0933 7.38587 10.0933 7.38587C10.0933 7.38587 10.0933 7.38587 10.0934 7.38587C10.0934 7.38587 10.0934 7.38587 10.0935 7.38587C10.0935 7.38587 10.0935 7.38587 10.0935 7.38587C10.0936 7.38587 10.0936 7.38587 10.0936 7.38587C10.0937 7.38587 10.0937 7.38587 10.0937 7.38587C10.0937 7.38587 10.0938 7.38587 10.0938 7.38587C10.0938 7.38587 10.0939 7.38587 10.0939 7.38587C10.0939 7.38587 10.0939 7.38587 10.094 7.38587C10.094 7.38587 10.094 7.38587 10.0941 7.38587C10.0941 7.38587 10.0941 7.38587 10.0941 7.38587C10.0942 7.38587 10.0942 7.38587 10.0942 7.38587C10.0943 7.38587 10.0943 7.38587 10.0943 7.38587C10.0943 7.38587 10.0944 7.38587 10.0944 7.38587C10.0944 7.38587 10.0945 7.38587 10.0945 7.38587C10.0945 7.38587 10.0945 7.38587 10.0946 7.38587C10.0946 7.38587 10.0946 7.38587 10.0947 7.38587C10.0947 7.38587 10.0947 7.38587 10.0947 7.38587C10.0948 7.38587 10.0948 7.38587 10.0948 7.38587C10.0948 7.38587 10.0949 7.38587 10.0949 7.38587C10.0949 7.38587 10.095 7.38587 10.095 7.38587C10.095 7.38587 10.095 7.38587 10.0951 7.38587C10.0951 7.38587 10.0951 7.38587 10.0952 7.38587C10.0952 7.38587 10.0952 7.38587 10.0952 7.38587C10.0953 7.38587 10.0953 7.38587 10.0953 7.38587C10.0954 7.38587 10.0954 7.38587 10.0954 7.38587C10.0954 7.38587 10.0955 7.38587 10.0955 7.38587C10.0955 7.38587 10.0956 7.38587 10.0956 7.38587C10.0956 7.38587 10.0956 7.38587 10.0957 7.38587C10.0957 7.38587 10.0957 7.38587 10.0958 7.38587C10.0958 7.38587 10.0958 7.38587 10.0958 7.38587C10.0959 7.38587 10.0959 7.38587 10.0959 7.38587C10.096 7.38587 10.096 7.38587 10.096 7.38587C10.096 7.38587 10.0961 7.38587 10.0961 7.38587C10.0961 7.38587 10.0962 7.38587 10.0962 7.38587C10.0962 7.38587 10.0962 7.38587 10.0963 7.38587C10.0963 7.38587 10.0963 7.38587 10.0964 7.38587C10.0964 7.38587 10.0964 7.38587 10.0964 7.38587C10.0965 7.38587 10.0965 7.38587 10.0965 7.38587C10.0966 7.38587 10.0966 7.38587 10.0966 7.38587C10.0966 7.38587 10.0967 7.38587 10.0967 7.38587C10.0967 7.38587 10.0968 7.38587 10.0968 7.38587C10.0968 7.38587 10.0968 7.38587 10.0969 7.38587C10.0969 7.38587 10.0969 7.38587 10.097 7.38587C10.097 7.38587 10.097 7.38587 10.097 7.38587C10.0971 7.38587 10.0971 7.38587 10.0971 7.38587C10.0972 7.38587 10.0972 7.38587 10.0972 7.38587C10.0972 7.38587 10.0973 7.38587 10.0973 7.38587C10.0973 7.38587 10.0974 7.38587 10.0974 7.38587C10.0974 7.38587 10.0974 7.38587 10.0975 7.38587C10.0975 7.38587 10.0975 7.38587 10.0976 7.38587C10.0976 7.38587 10.0976 7.38587 10.0976 7.38587C10.0977 7.38587 10.0977 7.38587 10.0977 7.38587C10.0978 7.38587 10.0978 7.38587 10.0978 7.38587C10.0978 7.38587 10.0979 7.38587 10.0979 7.38587C10.0979 7.38587 10.098 7.38587 10.098 7.38587C10.098 7.38587 10.098 7.38587 10.0981 7.38587C10.0981 7.38587 10.0981 7.38587 10.0981 7.38587C10.0982 7.38587 10.0982 7.38587 10.0982 7.38587C10.0983 7.38587 10.0983 7.38587 10.0983 7.38587C10.0983 7.38587 10.0984 7.38587 10.0984 7.38587C10.0984 7.38587 10.0985 7.38587 10.0985 7.38587C10.0985 7.38587 10.0985 7.38587 10.0986 7.38587C10.0986 7.38587 10.0986 7.38587 10.0987 7.38587C10.0987 7.38587 10.0987 7.38587 10.0987 7.38587C10.0988 7.38587 10.0988 7.38587 10.0988 7.38587C10.0989 7.38587 10.0989 7.38587 10.0989 7.38587C10.0989 7.38587 10.099 7.38587 10.099 7.38587C10.099 7.38587 10.0991 7.38587 10.0991 7.38587C10.0991 7.38587 10.0991 7.38587 10.0992 7.38587C10.0992 7.38587 10.0992 7.38587 10.0993 7.38587C10.0993 7.38587 10.0993 7.38587 10.0993 7.38587C10.0994 7.38587 10.0994 7.38587 10.0994 7.38587C10.0995 7.38587 10.0995 7.38587 10.0995 7.38587C10.0995 7.38587 10.0996 7.38587 10.0996 7.38587C10.0996 7.38587 10.0997 7.38587 10.0997 7.38587C10.0997 7.38587 10.0997 7.38587 10.0998 7.38587C10.0998 7.38587 10.0998 7.38587 10.0998 7.38587C10.0999 7.38587 10.0999 7.38587 10.0999 7.38587C10.1 7.38587 10.1 7.38587 10.1 7.38587C10.1 7.38587 10.1001 7.38587 10.1001 7.38587C10.1001 7.38587 10.1002 7.38587 10.1002 7.38587C10.1002 7.38587 10.1002 7.38587 10.1003 7.38587C10.1003 7.38587 10.1003 7.38587 10.1004 7.38587C10.1004 7.38587 10.1004 7.38587 10.1004 7.38587C10.1005 7.38587 10.1005 7.38587 10.1005 7.38587C10.1006 7.38587 10.1006 7.38587 10.1006 7.38587C10.1006 7.38587 10.1007 7.38587 10.1007 7.38587C10.1007 7.38587 10.1007 7.38587 10.1008 7.38587C10.1008 7.38587 10.1008 7.38587 10.1009 7.38587C10.1009 7.38587 10.1009 7.38587 10.1009 7.38587C10.101 7.38587 10.101 7.38587 10.101 7.38587C10.1011 7.38587 10.1011 7.38587 10.1011 7.38587C10.1011 7.38587 10.1012 7.38587 10.1012 7.38587C10.1012 7.38587 10.1013 7.38587 10.1013 7.38587C10.1013 7.38587 10.1013 7.38587 10.1014 7.38587C10.1014 7.38587 10.1014 7.38587 10.1015 7.38587C10.1015 7.38587 10.1015 7.38587 10.1015 7.38587C10.1016 7.38587 10.1016 7.38587 10.1016 7.38587C10.1016 7.38587 10.1017 7.38587 10.1017 7.38587C10.1017 7.38587 10.1018 7.38587 10.1018 7.38587C10.1018 7.38587 10.1018 7.38587 10.1019 7.38587C10.1019 7.38587 10.1019 7.38587 10.102 7.38587C10.102 7.38587 10.102 7.38587 10.102 7.38587C10.1021 7.38587 10.1021 7.38587 10.1021 7.38587C10.1021 7.38587 10.1022 7.38587 10.1022 7.38587C10.1022 7.38587 10.1023 7.38587 10.1023 7.38587C10.1023 7.38587 10.1023 7.38587 10.1024 7.38587C10.1024 7.38587 10.1024 7.38587 10.1025 7.38587C10.1025 7.38587 10.1025 7.38587 10.1025 7.38587C10.1026 7.38587 10.1026 7.38587 10.1026 7.38587C10.1027 7.38587 10.1027 7.38587 10.1027 7.38587C10.1027 7.38587 10.1028 7.38587 10.1028 7.38587C10.1028 7.38587 10.1028 7.38587 10.1029 7.38587C10.1029 7.38587 10.1029 7.38587 10.103 7.38587C10.103 7.38587 10.103 7.38587 10.103 7.38587C10.1031 7.38587 10.1031 7.38587 10.1031 7.38587C10.1032 7.38587 10.1032 7.38587 10.1032 7.38587C10.1032 7.38587 10.1033 7.38587 10.1033 7.38587C10.1033 7.38587 10.1033 7.38587 10.1034 7.38587C10.1034 7.38587 10.1034 7.38587 10.1035 7.38587C10.1035 7.38587 10.1035 7.38587 10.1035 7.38587C10.1036 7.38587 10.1036 7.38587 10.1036 7.38587C10.1036 7.38587 10.1037 7.38587 10.1037 7.38587C10.1037 7.38587 10.1038 7.38587 10.1038 7.38587C10.1038 7.38587 10.1038 7.38587 10.1039 7.38587C10.1039 7.38587 10.1039 7.38587 10.104 7.38587C10.104 7.38587 10.104 7.38587 10.104 7.38587C10.1041 7.38587 10.1041 7.38587 10.1041 7.38587C10.1041 7.38587 10.1042 7.38587 10.1042 7.38587C10.1042 7.38587 10.1043 7.38587 10.1043 7.38587C10.1043 7.38587 10.1043 7.38587 10.1044 7.38587C10.1044 7.38587 10.1044 7.38587 10.1044 7.38587C10.1045 7.38587 10.1045 7.38587 10.1045 7.38587C10.1046 7.38587 10.1046 7.38587 10.1046 7.38587C10.1046 7.38587 10.1047 7.38587 10.1047 7.38587C10.1047 7.38587 10.1047 7.38587 10.1048 7.38587C10.1048 7.38587 10.1048 7.38587 10.1049 7.38587C10.1049 7.38587 10.1049 7.38587 10.1049 7.38587C10.105 7.38587 10.105 7.38587 10.105 7.38587C10.105 7.38587 10.1051 7.38587 10.1051 7.38587C10.1051 7.38587 10.1052 7.38587 10.1052 7.38587C10.1052 7.38587 10.1052 7.38587 10.1053 7.38587C10.1053 7.38587 10.1053 7.38587 10.1053 7.38587C10.1054 7.38587 10.1054 7.38587 10.1054 7.38587C10.1055 7.38587 10.1055 7.38587 10.1055 7.38587C10.1055 7.38587 10.1056 7.38587 10.1056 7.38587C10.1056 7.38587 10.1056 7.38587 10.1057 7.38587C10.1057 7.38587 10.1057 7.38587 10.1058 7.38587C10.1058 7.38587 10.1058 7.38587 10.1058 7.38587C10.1059 7.38587 10.1059 7.38587 10.1059 7.38587C10.1059 7.38587 10.106 7.38587 10.106 7.38587C10.106 7.38587 10.1061 7.38587 10.1061 7.38587C10.1061 7.38587 10.1061 7.38587 10.1062 7.38587C10.1062 7.38587 10.1062 7.38587 10.1062 7.38587C10.1063 7.38587 10.1063 7.38587 10.1063 7.38587C10.1063 7.38587 10.1064 7.38587 10.1064 7.38587C10.1064 7.38587 10.1065 7.38587 10.1065 7.38587C10.1065 7.38587 10.1065 7.38587 10.1066 7.38587C10.1066 7.38587 10.1066 7.38587 10.1066 7.38587C10.1067 7.38587 10.1067 7.38587 10.1067 7.38587C10.1068 7.38587 10.1068 7.38587 10.1068 7.38587C10.1068 7.38587 10.1069 7.38587 10.1069 7.38587C10.1069 7.38587 10.1069 7.38587 10.107 7.38587C10.107 7.38587 10.107 7.38587 10.107 7.38587C10.1071 7.38587 10.1071 7.38587 10.1071 7.38587C10.1072 7.38587 10.1072 7.38587 10.1072 7.38587C10.1072 7.38587 10.1073 7.38587 10.1073 7.38587C10.1073 7.38587 10.1073 7.38587 10.1074 7.38587C10.1074 7.38587 10.1074 7.38587 10.1074 7.38587C10.1075 7.38587 10.1075 7.38587 10.1075 7.38587C10.1076 7.38587 10.1076 7.38587 10.1076 7.38587C10.1076 7.38587 10.1077 7.38587 10.1077 7.38587C10.1077 7.38587 10.1077 7.38587 10.1078 7.38587C10.1078 7.38587 10.1078 7.38587 10.1078 7.38587C10.1079 7.38587 10.1079 7.38587 10.1079 7.38587C10.108 7.38587 10.108 7.38587 10.108 7.38587C10.108 7.38587 10.1081 7.38587 10.1081 7.38587C10.1081 7.38587 10.1081 7.38587 10.1082 7.38587C10.1082 7.38587 10.1082 7.38587 10.1082 7.38587C10.1083 7.38587 10.1083 7.38587 10.1083 7.38587C10.1083 7.38587 10.1084 7.38587 10.1084 7.38587C10.1084 7.38587 10.1085 7.38587 10.1085 7.38587C10.1085 7.38587 10.1085 7.38587 10.1086 7.38587C10.1086 7.38587 10.1086 7.38587 10.1086 7.38587C10.1087 7.38587 10.1087 7.38587 10.1087 7.38587C10.1087 7.38587 10.1088 7.38587 10.1088 7.38587C10.1088 7.38587 10.1088 7.38587 10.1089 7.38587C10.1089 7.38587 10.1089 7.38587 10.1089 7.38587C10.109 7.38587 10.109 7.38587 10.109 7.38587C10.1091 7.38587 10.1091 7.38587 10.1091 7.38587C10.1091 7.38587 10.1092 7.38587 10.1092 7.38587C10.1092 7.38587 10.1092 7.38587 10.1093 7.38587C10.1093 7.38587 10.1093 7.38587 10.1093 7.38587C10.1094 7.38587 10.1094 7.38587 10.1094 7.38587C10.1094 7.38587 10.1095 7.38587 10.1095 7.38587C10.1095 7.38587 10.1095 7.38587 10.1096 7.38587C10.1096 7.38587 10.1096 7.38587 10.1097 7.38587C10.1097 7.38587 10.1097 7.38587 10.1097 7.38587C10.1098 7.38587 10.1098 7.38587 10.1098 7.38587C10.1098 7.38587 10.1099 7.38587 10.1099 7.38587C10.1099 7.38587 10.1099 7.38587 10.11 7.38587C10.11 7.38587 10.11 7.38587 10.11 7.38587C10.1101 7.38587 10.1101 7.38587 10.1101 7.38587C10.1101 7.38587 10.1102 7.38587 10.1102 7.38587C10.1102 7.38587 10.1102 7.38587 10.1103 7.38587C10.1103 7.38587 10.1103 7.38587 10.1103 7.38587C10.1104 7.38587 10.1104 7.38587 10.1104 7.38587C10.1104 7.38587 10.1105 7.38587 10.1105 7.38587C10.1105 7.38587 10.1105 7.38587 10.1106 7.38587C10.1106 7.38587 10.1106 7.38587 10.1106 7.38587C10.1107 7.38587 10.1107 7.38587 10.1107 7.38587C10.1108 7.38587 10.1108 7.38587 10.1108 7.38587C10.1108 7.38587 10.1109 7.38587 10.1109 7.38587C10.1109 7.38587 10.1109 7.38587 10.111 7.38587C10.111 7.38587 10.111 7.38587 10.111 7.38587C10.1111 7.38587 10.1111 7.38587 10.1111 7.38587C10.1111 7.38587 10.1112 7.38587 10.1112 7.38587C10.1112 7.38587 10.1112 7.38587 10.1113 7.38587C10.1113 7.38587 10.1113 7.38587 10.1113 7.38587C10.1114 7.38587 10.1114 7.38587 10.1114 7.38587C10.1114 7.38587 10.1115 7.38587 10.1115 7.38587C10.1115 7.38587 10.1115 7.38587 10.1116 7.38587C10.1116 7.38587 10.1116 7.38587 10.1116 7.38587C10.1117 7.38587 10.1117 7.38587 10.1117 7.38587C10.1117 7.38587 10.1118 7.38587 10.1118 7.38587C10.1118 7.38587 10.1118 7.38587 10.1119 7.38587C10.1119 7.38587 10.1119 7.38587 10.1119 7.38587C10.112 7.38587 10.112 7.38587 10.112 7.38587C10.112 7.38587 10.1121 7.38587 10.1121 7.38587C10.1121 7.38587 10.1121 7.38587 10.1122 7.38587C10.1122 7.38587 10.1122 7.38587 10.1122 7.38587C10.1123 7.38587 10.1123 7.38587 10.1123 7.38587C10.1123 7.38587 10.1124 7.38587 10.1124 7.38587C10.1124 7.38587 10.1124 7.38587 10.1124 7.38587C10.1125 7.38587 10.1125 7.38587 10.1125 7.38587C10.1125 7.38587 10.1126 7.38587 10.1126 7.38587C10.1126 7.38587 10.1126 7.38587 10.1127 7.38587C10.1127 7.38587 10.1127 7.38587 10.1127 7.38587C10.1128 7.38587 10.1128 7.38587 10.1128 7.38587C10.1128 7.38587 10.1129 7.38587 10.1129 7.38587C10.1129 7.38587 10.1129 7.38587 10.113 7.38587C10.113 7.38587 10.113 7.38587 10.113 7.38587C10.1131 7.38587 10.1131 7.38587 10.1131 7.38587C10.1131 7.38587 10.1132 7.38587 10.1132 7.38587C10.1132 7.38587 10.1132 7.38587 10.1133 7.38587C10.1133 7.38587 10.1133 7.38587 10.1133 7.38587C10.1134 7.38587 10.1134 7.38587 10.1134 7.38587C10.1134 7.38587 10.1134 7.38587 10.1135 7.38587C10.1135 7.38587 10.1135 7.38587 10.1135 7.38587C10.1136 7.38587 10.1136 7.38587 10.1136 7.38587C10.1136 7.38587 10.1137 7.38587 10.1137 7.38587C10.1137 7.38587 10.1137 7.38587 10.1138 7.38587C10.1138 7.38587 10.1138 7.38587 10.1138 7.38587C10.1139 7.38587 10.1139 7.38587 10.1139 7.38587C10.1139 7.38587 10.1139 7.38587 10.114 7.38587C10.114 7.38587 10.114 7.38587 10.114 7.38587C10.1141 7.38587 10.1141 7.38587 10.1141 7.38587C10.1141 7.38587 10.1142 7.38587 10.1142 7.38587C10.1142 7.38587 10.1142 7.38587 10.1143 7.38587C10.1143 7.38587 10.1143 7.38587 10.1143 7.38587C10.1144 7.38587 10.1144 7.38587 10.1144 7.38587C10.1144 7.38587 10.1144 7.38587 10.1145 7.38587C10.1145 7.38587 10.1145 7.38587 10.1145 7.38587C10.1146 7.38587 10.1146 7.38587 10.1146 7.38587C10.1146 7.38587 10.1147 7.38587 10.1147 7.38587C10.1147 7.38587 10.1147 7.38587 10.1147 7.38587C10.1148 7.38587 10.1148 7.38587 10.1148 7.38587C10.1148 7.38587 10.1149 7.38587 10.1149 7.38587C10.1149 7.38587 10.1149 7.38587 10.115 7.38587C10.115 7.38587 10.115 7.38587 10.115 7.38587C10.1151 7.38587 10.1151 7.38587 10.1151 7.38587C10.1151 7.38587 10.1151 7.38587 10.1152 7.38587C10.1152 7.38587 10.1152 7.38587 10.1152 7.38587C10.1153 7.38587 10.1153 7.38587 10.1153 7.38587C10.1153 7.38587 10.1154 7.38587 10.1154 7.38587C10.1154 7.38587 10.1154 7.38587 10.1154 7.38587C10.1155 7.38587 10.1155 7.38587 10.1155 7.38587C10.1155 7.38587 10.1156 7.38587 10.1156 7.38587V5.38587ZM10.1736 5.39077C8.80617 5.2549 7.70884 4.21767 7.4988 2.86118L5.52236 3.16721C5.87232 5.4274 7.70332 7.15517 9.97587 7.38097L10.1736 5.39077ZM7.50004 2.8694C7.54499 3.17655 7.33345 3.44926 7.04638 3.49827L6.70978 1.5268C5.94438 1.65747 5.40617 2.37351 5.52112 3.159L7.50004 2.8694ZM7.02288 3.50199C6.71573 3.54694 6.44302 3.3354 6.39401 3.04833L8.36548 2.71174C8.2348 1.94633 7.51876 1.40812 6.73328 1.52307L7.02288 3.50199ZM6.39185 3.03516C6.68382 4.89452 8.19108 6.32707 10.0702 6.5119L10.266 4.5215C9.29841 4.42633 8.51901 3.68888 8.36764 2.72491L6.39185 3.03516ZM10.071 6.51197C9.75252 6.4809 9.53412 6.20045 9.56364 5.89793L11.5542 6.09213C11.6304 5.31128 11.062 4.59916 10.2652 4.52142L10.071 6.51197ZM9.56746 5.86458C9.60328 5.59234 9.8317 5.38587 10.1156 5.38587V7.38587C10.8428 7.38587 11.4562 6.84105 11.5504 6.12549L9.56746 5.86458Z" fill="#082042" mask="url(#path-3-inside-2_603_712)"/>
<path d="M12.25 13.2695H1.75C1.51083 13.2695 1.3125 13.0712 1.3125 12.832C1.3125 12.5929 1.51083 12.3945 1.75 12.3945H12.25C12.4892 12.3945 12.6875 12.5929 12.6875 12.832C12.6875 13.0712 12.4892 13.2695 12.25 13.2695Z" fill="#082042"/>
</svg>
