<svg width="21" height="20" viewBox="0 0 21 20" fill="none" xmlns="http://www.w3.org/2000/svg">
<path d="M4.5396 15.0985L4.53937 15.0984C4.14111 14.8014 3.7635 14.3233 3.48516 13.7695C3.2068 13.2156 3.04883 12.628 3.04883 12.1326V5.93255C3.04883 4.85667 3.86199 3.67775 4.87333 3.30111L4.87429 3.30076L9.03221 1.74258C9.0323 1.74254 9.0324 1.74251 9.03249 1.74247C9.37348 1.61509 9.84168 1.54297 10.3322 1.54297C10.8227 1.54297 11.291 1.61511 11.632 1.74254C11.632 1.74255 11.6321 1.74256 11.6321 1.74258L15.7987 3.30087L15.7993 3.30111C16.8107 3.67775 17.6238 4.85667 17.6238 5.93255V12.1242C17.6238 12.6197 17.4659 13.2073 17.1875 13.7611C16.9092 14.315 16.5315 14.7931 16.1333 15.09L16.1331 15.0902L12.5497 17.7652L12.5497 17.7652L12.5458 17.7682C11.9449 18.226 11.1555 18.4659 10.3405 18.4659C9.52621 18.4659 8.734 18.2263 8.12203 17.7729C8.12187 17.7728 8.12171 17.7726 8.12155 17.7725L4.5396 15.0985ZM9.12403 1.98077L9.12337 1.98102L4.96613 3.53894C4.96596 3.539 4.96579 3.53907 4.96562 3.53913C4.48819 3.71693 4.07785 4.08715 3.79016 4.50161C3.50233 4.91629 3.29883 5.43063 3.29883 5.94089V12.1326C3.29883 12.6312 3.46983 13.1844 3.70912 13.6618C3.9483 14.139 4.28795 14.6049 4.68302 14.8999L4.68306 14.8999L8.26605 17.5746C8.84919 18.0107 9.6067 18.2117 10.3363 18.2117C11.066 18.2117 11.8235 18.0107 12.4066 17.5746L15.9896 14.8999L15.9905 14.8992C16.3893 14.6001 16.7288 14.1323 16.9671 13.6547C17.2053 13.1771 17.3738 12.6264 17.3738 12.1326V5.93255C17.3738 5.42544 17.1696 4.91312 16.8825 4.49953C16.5951 4.08552 16.1861 3.71459 15.7113 3.53241L15.7113 3.53239L15.7076 3.53102L11.5493 1.97268L11.5493 1.97266L11.5447 1.97099C11.1954 1.84396 10.7525 1.79079 10.3381 1.79193C9.92365 1.79306 9.47807 1.84866 9.12403 1.98077Z" fill="#252525" stroke="#252525"/>
<path d="M10.3405 10.5404C9.34997 10.5404 8.54883 9.73922 8.54883 8.7487C8.54883 7.75817 9.34997 6.95703 10.3405 6.95703C11.331 6.95703 12.1322 7.75817 12.1322 8.7487C12.1322 9.73922 11.331 10.5404 10.3405 10.5404ZM10.3405 7.20703C9.48935 7.20703 8.79883 7.89756 8.79883 8.7487C8.79883 9.59984 9.48935 10.2904 10.3405 10.2904C11.1916 10.2904 11.8822 9.59984 11.8822 8.7487C11.8822 7.89756 11.1916 7.20703 10.3405 7.20703Z" fill="#252525" stroke="#252525"/>
<path d="M10.3398 13.543C9.99818 13.543 9.71484 13.2596 9.71484 12.918V10.418C9.71484 10.0763 9.99818 9.79297 10.3398 9.79297C10.6815 9.79297 10.9648 10.0763 10.9648 10.418V12.918C10.9648 13.2596 10.6815 13.543 10.3398 13.543Z" fill="#252525"/>
</svg>
