<svg width="21" height="20" viewBox="0 0 21 20" fill="none" xmlns="http://www.w3.org/2000/svg">
<path d="M17.919 5.93482L17.9187 5.93392C17.4335 4.28868 16.0529 2.90787 14.4077 2.42232C13.0712 2.03364 12.3257 2.12348 11.8643 2.46799L17.919 5.93482ZM17.919 5.93482C18.3153 7.26946 18.2154 8.00852 17.8628 8.45946L17.8627 8.45939M17.919 5.93482L17.8627 8.45939M17.8627 8.45939L17.8561 8.46816M17.8627 8.45939L17.8561 8.46816M17.8561 8.46816C17.6463 8.74898 17.3404 8.92192 16.9732 9.02445C16.6023 9.12802 16.1996 9.15082 15.84 9.15082H13.4483C12.6262 9.15082 12.09 8.92002 11.75 8.54025C11.4009 8.15024 11.1816 7.5179 11.1816 6.55915V4.48415C11.1816 3.71435 11.2908 2.8967 11.8642 2.46809L17.8561 8.46816Z" fill="white" stroke="white"/>
<path d="M15.7195 11.4604L15.7195 11.4605L15.7251 11.4667C15.8434 11.5987 15.8999 11.7782 15.8764 11.9611L15.8764 11.9613C15.6441 13.7806 14.6438 15.4581 13.1367 16.5535L13.1355 16.5544C11.9804 17.3994 10.6256 17.833 9.22236 17.833C8.79454 17.833 8.36919 17.7941 7.94542 17.7093L7.94542 17.7093L7.93993 17.7083C5.267 17.2047 3.13375 15.071 2.63033 12.4068L2.63032 12.4067C2.28046 10.5564 2.68432 8.71364 3.78488 7.2023L3.78515 7.20193C4.88052 5.69483 6.55802 4.69453 8.37734 4.46228L8.37925 4.46203C8.55345 4.43911 8.7405 4.49576 8.87192 4.61359L8.87187 4.61364L8.87823 4.61915C9.0174 4.73976 9.09736 4.91798 9.09736 5.09964V8.08297C9.09736 9.82578 10.5129 11.2413 12.2557 11.2413H15.239C15.4207 11.2413 15.5989 11.3213 15.7195 11.4604Z" fill="white" stroke="white"/>
</svg>
