<svg width="20" height="20" viewBox="0 0 20 20" fill="none" xmlns="http://www.w3.org/2000/svg">
<path d="M12.8417 14.9906C12.8151 14.9906 12.7882 14.98 12.7661 14.9579C12.7441 14.9359 12.7334 14.9089 12.7334 14.8823C12.7334 14.8557 12.7441 14.8287 12.7661 14.8067C12.7882 14.7846 12.8151 14.774 12.8417 14.774C15.4679 14.774 17.6084 12.6334 17.6084 10.0073C17.6084 7.38115 15.4679 5.24062 12.8417 5.24062C10.2156 5.24062 8.07507 7.38115 8.07507 10.0073C8.07507 10.0339 8.0644 10.0609 8.04235 10.0829C8.02029 10.105 7.99334 10.1156 7.96673 10.1156C7.94013 10.1156 7.91317 10.105 7.89112 10.0829C7.86906 10.0609 7.8584 10.0339 7.8584 10.0073C7.8584 7.25794 10.0934 5.01562 12.8501 5.01562C15.6068 5.01562 17.8334 7.24961 17.8334 9.99896C17.8334 12.7483 15.5984 14.9906 12.8417 14.9906Z" fill="white" stroke="white"/>
<path d="M7.15817 5.00781C7.18478 5.00781 7.21173 5.01848 7.23378 5.04053C7.25584 5.06259 7.2665 5.08954 7.2665 5.11615C7.2665 5.14275 7.25584 5.16971 7.23378 5.19176C7.21173 5.21381 7.18478 5.22448 7.15817 5.22448C4.53203 5.22448 2.3915 7.365 2.3915 9.99115C2.3915 12.6173 4.53203 14.7578 7.15817 14.7578C9.78431 14.7578 11.9248 12.6173 11.9248 9.99115C11.9248 9.96454 11.9355 9.93759 11.9576 9.91553C11.9796 9.89348 12.0066 9.88281 12.0332 9.88281C12.0598 9.88281 12.0867 9.89348 12.1088 9.91553C12.1308 9.93759 12.1415 9.96454 12.1415 9.99115C12.1415 12.7405 9.90653 14.9828 7.14984 14.9828C4.39314 14.9828 2.1665 12.7488 2.1665 9.99948C2.1665 7.25013 4.40147 5.00781 7.15817 5.00781Z" fill="#292D32" stroke="white"/>
</svg>
