<svg width="21" height="20" viewBox="0 0 21 20" fill="none" xmlns="http://www.w3.org/2000/svg">
<path d="M10.9477 11.3089C9.44796 11.3089 8.22266 10.0902 8.22266 8.58385C8.22266 7.07919 9.44627 5.86719 10.9477 5.86719C12.4474 5.86719 13.6727 7.08584 13.6727 8.59219C13.6727 10.0969 12.449 11.3089 10.9477 11.3089ZM10.9477 6.11719C9.58955 6.11719 8.47266 7.22301 8.47266 8.59219C8.47266 9.96 9.57985 11.0672 10.9477 11.0672C12.3155 11.0672 13.4227 9.96 13.4227 8.59219C13.4227 7.22301 12.3058 6.11719 10.9477 6.11719Z" fill="#252525" stroke="#252525"/>
<path d="M3.84248 7.05421L3.84261 7.05365C4.70365 3.2604 8.0115 1.54297 10.9467 1.54297H10.9467H10.9467H10.9467H10.9467H10.9467H10.9467H10.9467H10.9467H10.9467H10.9467H10.9467H10.9467H10.9467H10.9467H10.9467H10.9467H10.9468H10.9468H10.9468H10.9468H10.9468H10.9468H10.9468H10.9468H10.9468H10.9468H10.9468H10.9468H10.9468H10.9468H10.9468H10.9468H10.9468H10.9468H10.9468H10.9469H10.9469H10.9469H10.9469H10.9469H10.9469H10.9469H10.9469H10.9469H10.9469H10.9469H10.9469H10.9469H10.9469H10.9469H10.9469H10.9469H10.9469H10.9469H10.9469H10.9469H10.9469H10.9469H10.947H10.947H10.947H10.947H10.947H10.947H10.947H10.947H10.947H10.947H10.947H10.947H10.947H10.947H10.947H10.947H10.947H10.947H10.9471H10.9471H10.9471H10.9471H10.9471H10.9471H10.9471H10.9471H10.9471H10.9471H10.9471H10.9471H10.9471H10.9471H10.9471H10.9472H10.9472H10.9472H10.9472H10.9472H10.9472H10.9472H10.9472H10.9472H10.9472H10.9472H10.9472H10.9472H10.9473H10.9473H10.9473H10.9473H10.9473H10.9473H10.9473H10.9473H10.9473H10.9473H10.9473H10.9474H10.9474H10.9474H10.9474H10.9474H10.9474H10.9474H10.9474H10.9474H10.9474H10.9474H10.9475H10.9475H10.9475H10.9475H10.9475H10.9475H10.9475H10.9475H10.9475H10.9475H10.9476H10.9476H10.9476H10.9476H10.9476H10.9476H10.9476H10.9476H10.9477H10.9477H10.9477H10.9477H10.9477H10.9477H10.9477H10.9477H10.9477H10.9478H10.9478H10.9478H10.9478H10.9478H10.9478H10.9478H10.9478H10.9479H10.9479H10.9479H10.9479H10.9479H10.9479H10.9479H10.948H10.948H10.948H10.948H10.948H10.948H10.948H10.9481H10.9481H10.9481H10.9481H10.9481H10.9481H10.9481H10.9482H10.9482H10.9482H10.9482H10.9482H10.9482H10.9483H10.9483H10.9483H10.9483H10.9483H10.9483H10.9484H10.9484H10.9484H10.9484H10.9484H10.9484H10.9485H10.9485H10.9485H10.9485H10.9485H10.9485H10.9486H10.9486H10.9486H10.9486H10.9486H10.9487H10.9487H10.9487H10.9487H10.9487H10.9488H10.9488H10.9488H10.9488H10.9488H10.9489H10.9489H10.9489H10.9489H10.9489H10.949H10.949H10.949H10.949H10.949H10.9491H10.9491H10.9491H10.9491H10.9491H10.9492H10.9492H10.9492H10.9492H10.9493H10.9493H10.9493H10.9493H10.9493H10.9494H10.9494H10.9494H10.9494H10.9495H10.9495H10.9495H10.9495H10.9496H10.9496H10.9496H10.9496H10.9496H10.9497H10.9497H10.9497H10.9497H10.9498H10.9498H10.9498H10.9499H10.9499H10.9499H10.9499H10.95H10.95H10.95H10.95H10.9501H10.9501H10.9501H10.9501H10.9502H10.9502H10.9502H10.9503H10.9503H10.9503H10.9503H10.9504H10.9504H10.9504H10.9504H10.9505H10.9505H10.9505H10.9506H10.9506H10.9506H10.9507H10.9507H10.9507H10.9507H10.9508H10.9508H10.9508H10.9509H10.9509H10.9509H10.951H10.951H10.951H10.9511H10.9511H10.9511H10.9511H10.9512H10.9512H10.9512H10.9513H10.9513H10.9513H10.9514H10.9514H10.9514H10.9515H10.9515H10.9515H10.9516H10.9516H10.9517H10.9517H10.9517H10.9518H10.9518H10.9518H10.9519H10.9519H10.9519H10.952H10.952H10.952H10.9521H10.9521H10.9522H10.9522H10.9522H10.9523H10.9523H10.9523H10.9524H10.9524H10.9525H10.9525H10.9525H10.9526H10.9526H10.9526H10.9527H10.9527H10.9528H10.9528H10.9528H10.9529H10.9529H10.953H10.953H10.953H10.9531H10.9531H10.9532H10.9532H10.9533H10.9533H10.9533H10.9534H10.9534H10.9535H10.9535H10.9535H10.9536H10.9536H10.9537H10.9537H10.9538H10.9538H10.9539H10.9539H10.9539H10.954H10.954H10.9541H10.9541H10.9542H10.9542H10.9543H10.9543H10.9543H10.9544H10.9544H10.9545H10.9545H10.9546H10.9546H10.9547H10.9547H10.9548H10.9548H10.9549H10.9549H10.955H10.955C13.8898 1.54297 17.1978 3.26006 18.059 7.06168C19.0145 11.283 16.471 14.877 14.0423 17.2154C13.1708 18.0492 12.0539 18.468 10.9467 18.468C9.83949 18.468 8.72265 18.0492 7.85115 17.2155C5.42265 14.8773 2.87923 11.2753 3.84248 7.05421ZM17.8178 7.10819L17.8174 7.10619C16.9152 3.17258 13.5204 1.79297 10.9467 1.79297C8.37262 1.79297 4.98602 3.17299 4.09254 7.10674C3.12977 11.3067 5.77653 14.8639 8.03333 17.0283C9.66858 18.6062 12.2332 18.6062 13.8684 17.0282C16.1168 14.864 18.7629 11.3074 17.8178 7.10819Z" fill="#252525" stroke="#252525"/>
</svg>
