<svg width="20" height="20" viewBox="0 0 20 20" fill="none" xmlns="http://www.w3.org/2000/svg">
<path d="M15 8.45964C14.9699 8.45964 14.9386 8.44735 14.9129 8.42171C14.8873 8.39606 14.875 8.36478 14.875 8.33464V6.66797C14.875 5.33294 14.6924 4.08377 13.9337 3.17554C13.1579 2.24681 11.8854 1.79297 10 1.79297C8.11455 1.79297 6.84211 2.24681 6.06627 3.17554C5.30756 4.08377 5.125 5.33294 5.125 6.66797V8.33464C5.125 8.36478 5.11272 8.39606 5.08707 8.42171C5.06143 8.44735 5.03015 8.45964 5 8.45964C4.96985 8.45964 4.93857 8.44735 4.91293 8.42171C4.88728 8.39606 4.875 8.36478 4.875 8.33464V6.66797C4.875 5.48085 5.02312 4.20827 5.70595 3.23673C6.36327 2.30148 7.59282 1.54297 10 1.54297C12.4072 1.54297 13.6367 2.30148 14.2941 3.23673C14.9769 4.20827 15.125 5.48085 15.125 6.66797V8.33464C15.125 8.36478 15.1127 8.39606 15.0871 8.42171C15.0614 8.44735 15.0301 8.45964 15 8.45964Z" fill="#546E7F" stroke="#546E7F"/>
<path d="M14.166 18.457H5.83268C4.0124 18.457 2.99873 18.1722 2.41228 17.5858C1.82583 16.9993 1.54102 15.9856 1.54102 14.1654V12.4987C1.54102 10.6784 1.82583 9.66474 2.41228 9.07829C2.99873 8.49185 4.0124 8.20703 5.83268 8.20703H14.166C15.9863 8.20703 17 8.49185 17.5864 9.07829C18.1729 9.66474 18.4577 10.6784 18.4577 12.4987V14.1654C18.4577 15.9856 18.1729 16.9993 17.5864 17.5858C17 18.1722 15.9863 18.457 14.166 18.457ZM5.83268 8.45703C5.07802 8.45703 4.44162 8.49219 3.91743 8.60284C3.38768 8.71467 2.93662 8.91091 2.58919 9.25905C2.24181 9.60713 2.04659 10.0584 1.93553 10.5875C1.82564 11.1111 1.79102 11.7463 1.79102 12.4987V14.1654C1.79102 14.9177 1.82564 15.5529 1.93553 16.0765C2.04659 16.6057 2.24181 17.0569 2.58919 17.405C2.93662 17.7532 3.38768 17.9494 3.91743 18.0612C4.44162 18.1719 5.07802 18.207 5.83268 18.207H14.166C14.9207 18.207 15.5571 18.1719 16.0813 18.0612C16.611 17.9494 17.0621 17.7532 17.4095 17.405C17.7569 17.0569 17.9521 16.6057 18.0632 16.0765C18.1731 15.5529 18.2077 14.9177 18.2077 14.1654V12.4987C18.2077 11.7463 18.1731 11.1111 18.0632 10.5875C17.9521 10.0584 17.7569 9.60713 17.4095 9.25905C17.0621 8.91091 16.611 8.71467 16.0813 8.60284C15.5571 8.49219 14.9207 8.45703 14.166 8.45703H5.83268Z" fill="#292D32" stroke="#546E7F"/>
<path d="M6.66732 14.1657C6.55898 14.1657 6.45065 14.1408 6.35065 14.0991C6.24231 14.0574 6.15899 13.9991 6.07566 13.9241C5.92566 13.7657 5.83398 13.5574 5.83398 13.3324C5.83398 13.2241 5.85897 13.1157 5.90064 13.0157C5.94231 12.9074 6.00066 12.8241 6.07566 12.7408C6.15899 12.6658 6.24231 12.6074 6.35065 12.5657C6.65065 12.4324 7.02564 12.5074 7.25898 12.7408C7.33398 12.8241 7.39233 12.9157 7.434 13.0157C7.47566 13.1157 7.50065 13.2241 7.50065 13.3324C7.50065 13.5491 7.40898 13.7657 7.25898 13.9241C7.10064 14.0741 6.88398 14.1657 6.66732 14.1657Z" fill="#292D32"/>
<path d="M9.99935 14.1674C9.78268 14.1674 9.56602 14.0757 9.40769 13.9257C9.25769 13.7674 9.16602 13.5591 9.16602 13.3341C9.16602 13.2257 9.18267 13.1174 9.23267 13.0174C9.27434 12.9174 9.33269 12.8257 9.40769 12.7424C9.59936 12.5507 9.89102 12.4591 10.1577 12.5174C10.216 12.5257 10.266 12.5424 10.316 12.5674C10.366 12.5841 10.416 12.6091 10.466 12.6424C10.5077 12.6674 10.5493 12.7091 10.591 12.7424C10.666 12.8257 10.7244 12.9174 10.766 13.0174C10.8077 13.1174 10.8327 13.2257 10.8327 13.3341C10.8327 13.5591 10.741 13.7674 10.591 13.9257C10.5493 13.9591 10.5077 13.9924 10.466 14.0257C10.416 14.0591 10.366 14.0841 10.316 14.1008C10.266 14.1258 10.216 14.1424 10.1577 14.1508C10.1077 14.1591 10.0493 14.1674 9.99935 14.1674Z" fill="#292D32"/>
<path d="M13.3333 14.1674C13.1083 14.1674 12.9 14.0757 12.7417 13.9257C12.6667 13.8424 12.6083 13.7507 12.5667 13.6507C12.525 13.5507 12.5 13.4424 12.5 13.3341C12.5 13.1174 12.5917 12.9007 12.7417 12.7424C12.7833 12.7091 12.825 12.6758 12.8667 12.6424C12.9167 12.6091 12.9667 12.5841 13.0167 12.5674C13.0667 12.5424 13.1167 12.5257 13.1667 12.5174C13.4417 12.4591 13.725 12.5507 13.925 12.7424C14.075 12.9007 14.1667 13.1091 14.1667 13.3341C14.1667 13.4424 14.1417 13.5507 14.1 13.6507C14.0583 13.7591 14 13.8424 13.925 13.9257C13.7667 14.0757 13.55 14.1674 13.3333 14.1674Z" fill="#292D32"/>
</svg>
