<svg width="27" height="28" viewBox="0 0 27 28" fill="none" xmlns="http://www.w3.org/2000/svg">
<path d="M13.5233 23.5964C10.9021 23.5964 8.28083 23.1802 5.79458 22.3477C4.84958 22.0214 4.12958 21.3577 3.81458 20.4914C3.48833 19.6252 3.60083 18.6689 4.11833 17.8139L5.41208 15.6652C5.68208 15.2152 5.92958 14.3152 5.92958 13.7864V10.5352C5.92958 6.35016 9.33833 2.94141 13.5233 2.94141C17.7083 2.94141 21.1171 6.35016 21.1171 10.5352V13.7864C21.1171 14.3039 21.3646 15.2152 21.6346 15.6764L22.9171 17.8139C23.4008 18.6239 23.4908 19.6027 23.1646 20.4914C22.8383 21.3802 22.1296 22.0552 21.2408 22.3477C18.7658 23.1802 16.1446 23.5964 13.5233 23.5964ZM13.5233 4.62891C10.2721 4.62891 7.61708 7.27266 7.61708 10.5352V13.7864C7.61708 14.6077 7.27958 15.8227 6.86333 16.5314L5.56958 18.6802C5.32208 19.0964 5.25458 19.5352 5.40083 19.9064C5.53583 20.2889 5.87333 20.5814 6.33458 20.7389C11.0371 22.3139 16.0208 22.3139 20.7233 20.7389C21.1283 20.6039 21.4433 20.3002 21.5896 19.8952C21.7358 19.4902 21.7021 19.0514 21.4771 18.6802L20.1833 16.5314C19.7558 15.8002 19.4296 14.5964 19.4296 13.7752V10.5352C19.4296 7.27266 16.7858 4.62891 13.5233 4.62891Z" fill="#082042"/>
<path d="M15.6152 4.93313C15.5364 4.93313 15.4577 4.92188 15.3789 4.89938C15.0527 4.80938 14.7377 4.74188 14.4339 4.69688C13.4777 4.57313 12.5552 4.64063 11.6889 4.89938C11.3739 5.00063 11.0364 4.89938 10.8227 4.66313C10.6089 4.42688 10.5414 4.08938 10.6652 3.78563C11.1264 2.60438 12.2514 1.82812 13.5339 1.82812C14.8164 1.82812 15.9414 2.59313 16.4027 3.78563C16.5152 4.08938 16.4589 4.42688 16.2452 4.66313C16.0764 4.84313 15.8402 4.93313 15.6152 4.93313Z" fill="#082042"/>
<path d="M13.5234 26.1602C12.4097 26.1602 11.3297 25.7102 10.5422 24.9227C9.75469 24.1352 9.30469 23.0552 9.30469 21.9414H10.9922C10.9922 22.6052 11.2622 23.2577 11.7347 23.7302C12.2072 24.2027 12.8597 24.4727 13.5234 24.4727C14.9184 24.4727 16.0547 23.3364 16.0547 21.9414H17.7422C17.7422 24.2702 15.8522 26.1602 13.5234 26.1602Z" fill="#082042"/>
</svg>
