<svg width="21" height="20" viewBox="0 0 21 20" fill="none" xmlns="http://www.w3.org/2000/svg">
<path d="M13.5009 16.6108L13.8544 16.9644L14.208 16.6108L16.2996 14.5192C16.3212 14.4977 16.3519 14.4844 16.3878 14.4844C16.4236 14.4844 16.4543 14.4977 16.4759 14.5192C16.4974 14.5407 16.5107 14.5714 16.5107 14.6073C16.5107 14.6431 16.4974 14.6739 16.4759 14.6954L13.9425 17.2287C13.9279 17.2434 13.9138 17.2519 13.901 17.257C13.8876 17.2624 13.8721 17.2656 13.8544 17.2656C13.8367 17.2656 13.8212 17.2624 13.8079 17.257C13.795 17.2519 13.781 17.2434 13.7663 17.2287L12.4996 15.9621C12.4781 15.9405 12.4648 15.9098 12.4648 15.874C12.4648 15.8381 12.4781 15.8074 12.4996 15.7858C12.5212 15.7643 12.5519 15.751 12.5878 15.751C12.6236 15.751 12.6543 15.7643 12.6759 15.7858L13.5009 16.6108Z" fill="#252525" stroke="#252525"/>
<path d="M6.7306 5.36797L6.73057 5.36435C6.72322 4.35026 7.119 3.39499 7.84247 2.67152C8.56724 1.94675 9.52415 1.54297 10.5472 1.54297C12.6544 1.54297 14.3722 3.26078 14.3722 5.36797C14.3722 7.4381 12.7643 9.10658 10.7047 9.18464H10.7047H10.7046H10.7046H10.7045H10.7045H10.7044H10.7044H10.7043H10.7043H10.7042H10.7042H10.7041H10.7041H10.7041H10.704H10.704H10.7039H10.7039H10.7038H10.7038H10.7037H10.7037H10.7036H10.7036H10.7035H10.7035H10.7034H10.7034H10.7033H10.7033H10.7032H10.7032H10.7031H10.7031H10.703H10.703H10.7029H10.7029H10.7028H10.7028H10.7027H10.7027H10.7026H10.7026H10.7025H10.7025H10.7024H10.7024H10.7023H10.7023H10.7022H10.7022H10.7021H10.7021H10.7021H10.702H10.702H10.7019H10.7019H10.7018H10.7018H10.7017H10.7017H10.7016H10.7016H10.7015H10.7015H10.7014H10.7014H10.7013H10.7013H10.7012H10.7012H10.7011H10.7011H10.701H10.701H10.7009H10.7009H10.7008H10.7008H10.7007H10.7007H10.7006H10.7006H10.7005H10.7005H10.7004H10.7004H10.7003H10.7003H10.7002H10.7002H10.7001H10.7001H10.7H10.7H10.7H10.6999H10.6999H10.6998H10.6998H10.6997H10.6997H10.6996H10.6996H10.6995H10.6995H10.6994H10.6994H10.6993H10.6993H10.6992H10.6992H10.6991H10.6991H10.699H10.699H10.6989H10.6989H10.6988H10.6988H10.6987H10.6987H10.6986H10.6986H10.6985H10.6985H10.6984H10.6984H10.6983H10.6983H10.6982H10.6982H10.6981H10.6981H10.698H10.698H10.6979H10.6979H10.6979H10.6978H10.6978H10.6977H10.6977H10.6976H10.6976H10.6975H10.6975H10.6974H10.6974H10.6973H10.6973H10.6972H10.6972H10.6971H10.6971H10.697H10.697H10.6969H10.6969H10.6968H10.6968H10.6967H10.6967H10.6966H10.6966H10.6965H10.6965H10.6964H10.6964H10.6963H10.6963H10.6962H10.6962H10.6961H10.6961H10.696H10.696H10.6959H10.6959H10.6958H10.6958H10.6958H10.6957H10.6957H10.6956H10.6956H10.6955H10.6955H10.6954H10.6954H10.6953H10.6953H10.6952H10.6952H10.6951H10.6951H10.695H10.695H10.6949H10.6949H10.6948H10.6948H10.6947H10.6947H10.6946H10.6946H10.6945H10.6945H10.6944H10.6944H10.6943H10.6943H10.6942H10.6942H10.6941H10.6941H10.694H10.694H10.6939H10.6939H10.6938H10.6938H10.6937H10.6937H10.6937H10.6936H10.6936H10.6935H10.6935H10.6934H10.6934H10.6933H10.6933H10.6932H10.6932H10.6931H10.6931H10.693H10.693H10.6929H10.6929H10.6928H10.6928H10.6927H10.6927H10.6926H10.6926H10.6925H10.6925H10.6924H10.6924H10.6923H10.6923H10.6922H10.6922H10.6921H10.6921H10.692H10.692H10.6919H10.6919H10.6918H10.6918H10.6917H10.6917H10.6916H10.6916H10.6916H10.6915H10.6915H10.6914H10.6914H10.6913H10.6913H10.6912H10.6912H10.6911H10.6911H10.691H10.691H10.6909H10.6909H10.6908H10.6908H10.6907H10.6907H10.6906H10.6906H10.6905H10.6905H10.6904H10.6904H10.6903H10.6903H10.6902H10.6902H10.6901H10.6901H10.69H10.69H10.6899H10.6899H10.6898H10.6898H10.6897H10.6897H10.6896H10.6896H10.6896H10.6895H10.6895H10.6894H10.6894H10.6893H10.6893H10.6892H10.6892H10.6891H10.6891H10.689H10.689H10.6889H10.6888H10.6886H10.6885H10.6883H10.6882H10.688H10.6879H10.6877H10.6876H10.6875H10.6873H10.6872H10.687H10.6869H10.6867H10.6866H10.6865H10.6863H10.6862H10.686H10.6859H10.6857H10.6856H10.6855H10.6853H10.6852H10.685H10.6849H10.6847H10.6846H10.6845H10.6843H10.6842H10.684H10.6839H10.6838H10.6836H10.6835H10.6833H10.6832H10.6831H10.6829H10.6828H10.6826H10.6825H10.6824H10.6822H10.6821H10.682H10.6818H10.6817H10.6815H10.6814H10.6813H10.6811H10.681H10.6809H10.6807H10.6806H10.6804H10.6803H10.6802H10.68H10.6799H10.6798H10.6796H10.6795H10.6794H10.6792H10.6791H10.679H10.6788H10.6787H10.6785H10.6784H10.6783H10.6781H10.678H10.6779H10.6777H10.6776H10.6775H10.6773H10.6772H10.6771H10.6769H10.6768H10.6767H10.6765H10.6764H10.6763H10.6761H10.676H10.6759H10.6758H10.6756H10.6755H10.6754H10.6752H10.6751H10.675H10.6748H10.6747H10.6746H10.6744H10.6743H10.6742H10.6741H10.6739H10.6738H10.6737H10.6735H10.6734H10.6733H10.6731H10.673H10.6729H10.6728H10.6726H10.6725H10.6724H10.6722H10.6721H10.672H10.6719H10.6717H10.6716H10.6715H10.6713H10.6712H10.6711H10.671H10.6708H10.6707H10.6706H10.6704H10.6703H10.6702H10.6701H10.6699H10.6698H10.6697H10.6696H10.6694H10.6693H10.6692H10.669H10.6689H10.6688H10.6687H10.6685H10.6684H10.6683H10.6682H10.668H10.6679H10.6678H10.6677H10.6675H10.6674H10.6673H10.6672H10.667H10.6669H10.6668H10.6667H10.6665H10.6664H10.6663H10.6662H10.666H10.6659H10.6658H10.6657H10.6655H10.6654H10.6653H10.6652H10.665H10.6649H10.6648H10.6647H10.6645H10.6644H10.6643H10.6642H10.664H10.6639H10.6638H10.6637H10.6636H10.6634H10.6633H10.6632H10.6631H10.6629H10.6628H10.6627H10.6626H10.6624H10.6623H10.6622H10.6621H10.6619H10.6618H10.6617H10.6616H10.6615H10.6613H10.6612H10.6611H10.661H10.6608H10.6607H10.6606H10.6605H10.6604H10.6602H10.6601H10.66H10.6599H10.6597H10.6596H10.6595H10.6594H10.6592H10.6591H10.659H10.6589C10.5879 9.1762 10.5156 9.17678 10.4494 9.18351C8.31891 9.09812 6.73058 7.42415 6.7306 5.36797ZM8.02125 2.83688L8.02121 2.83684L8.01616 2.84197C7.34978 3.51801 6.98058 4.41042 6.98058 5.35964C6.98058 7.29362 8.49241 8.86784 10.4238 8.92607L10.4728 8.92755L10.5124 8.92094C10.5129 8.92092 10.5134 8.92089 10.514 8.92086C10.5217 8.92043 10.5339 8.92005 10.5504 8.92005C10.5835 8.92005 10.6249 8.92157 10.6672 8.92483L10.6978 8.92718L10.7284 8.92578C12.6392 8.83848 14.1222 7.27472 14.1222 5.35964C14.1222 3.39928 12.5142 1.79297 10.5472 1.79297C9.58696 1.79297 8.6953 2.17246 8.02125 2.83688Z" fill="#252525" stroke="#252525"/>
<path d="M10.5471 18.801C8.84714 18.801 7.2388 18.3594 6.02214 17.5427C4.8638 16.7677 4.23047 15.7094 4.23047 14.5677C4.23047 13.426 4.87214 12.376 6.02214 11.6094C8.5138 9.94271 12.5638 9.94271 15.0555 11.6094C15.3388 11.801 15.4221 12.1927 15.2305 12.476C15.0388 12.7677 14.6471 12.8427 14.3638 12.651C12.2888 11.2677 8.7888 11.2677 6.7138 12.651C5.9138 13.1844 5.48047 13.8594 5.48047 14.5677C5.48047 15.276 5.9138 15.9677 6.7138 16.501C7.72214 17.176 9.08047 17.5427 10.5388 17.5427C10.8805 17.5427 11.1638 17.826 11.1638 18.1677C11.1638 18.5094 10.8888 18.801 10.5471 18.801Z" fill="#252525"/>
</svg>
