<svg width="21" height="20" viewBox="0 0 21 20" fill="none" xmlns="http://www.w3.org/2000/svg">
<path d="M7.0957 5.6263C7.0957 3.71911 8.64685 2.16797 10.554 2.16797C12.4609 2.16797 14.0118 3.71859 14.0124 5.62534C14.0046 7.49657 12.5458 9.00651 10.6866 9.0763H10.6866H10.6866H10.6866H10.6865H10.6865H10.6865H10.6865H10.6864H10.6864H10.6864H10.6864H10.6863H10.6863H10.6863H10.6863H10.6862H10.6862H10.6862H10.6862H10.6861H10.6861H10.6861H10.6861H10.686H10.686H10.686H10.686H10.6859H10.6859H10.6859H10.6859H10.6858H10.6858H10.6858H10.6857H10.6857H10.6857H10.6857H10.6856H10.6856H10.6856H10.6856H10.6855H10.6855H10.6855H10.6855H10.6854H10.6854H10.6854H10.6854H10.6853H10.6853H10.6853H10.6852H10.6852H10.6852H10.6852H10.6851H10.6851H10.6851H10.6851H10.685H10.685H10.685H10.6849H10.6849H10.6849H10.6849H10.6848H10.6848H10.6848H10.6847H10.6847H10.6847H10.6847H10.6846H10.6846H10.6846H10.6845H10.6845H10.6845H10.6845H10.6844H10.6844H10.6844H10.6843H10.6843H10.6843H10.6843H10.6842H10.6842H10.6842H10.6841H10.6841H10.6841H10.684H10.684H10.684H10.684H10.6839H10.6839H10.6839H10.6838H10.6838H10.6838H10.6837H10.6837H10.6837H10.6836H10.6836H10.6836H10.6835H10.6835H10.6835H10.6835H10.6834H10.6834H10.6834H10.6833H10.6833H10.6833H10.6832H10.6832H10.6832H10.6831H10.6831H10.6831H10.683H10.683H10.683H10.6829H10.6829H10.6829H10.6828H10.6828H10.6827H10.6827H10.6827H10.6826H10.6826H10.6826H10.6825H10.6825H10.6825H10.6824H10.6824H10.6824H10.6823H10.6823H10.6823H10.6822H10.6822H10.6821H10.6821H10.6821H10.682H10.682H10.682H10.6819H10.6819H10.6818H10.6818H10.6818H10.6817H10.6817H10.6816H10.6816H10.6816H10.6815H10.6815H10.6815H10.6814H10.6814H10.6813H10.6813H10.6813H10.6812H10.6812H10.6811H10.6811H10.6811H10.681H10.681H10.6809H10.6809H10.6808H10.6808H10.6808H10.6807H10.6807H10.6806H10.6806H10.6805H10.6805H10.6805H10.6804H10.6804H10.6803H10.6803H10.6802H10.6802H10.6802H10.6801H10.6801H10.68H10.68H10.6799H10.6799H10.6798H10.6798H10.6797H10.6797H10.6797H10.6796H10.6796H10.6795H10.6795H10.6794H10.6794H10.6793H10.6793H10.6792H10.6792H10.6791H10.6791H10.679H10.6789H10.6788H10.6787H10.6786H10.6786H10.6785H10.6784H10.6783H10.6782H10.6781H10.678H10.6779H10.6778H10.6777H10.6776H10.6775H10.6774H10.6773H10.6772H10.6771H10.677H10.6769H10.6768H10.6767H10.6767H10.6766H10.6765H10.6764H10.6763H10.6762H10.6761H10.676H10.6759H10.6758H10.6757H10.6756H10.6755H10.6755H10.6754H10.6753H10.6752H10.6751H10.675H10.6749H10.6748H10.6747H10.6746H10.6746H10.6745H10.6744H10.6743H10.6742H10.6741H10.674H10.6739H10.6738H10.6738H10.6737H10.6736H10.6735H10.6734H10.6733H10.6732H10.6731H10.6731H10.673H10.6729H10.6728H10.6727H10.6726H10.6725H10.6725H10.6724H10.6723H10.6722H10.6721H10.672H10.6719H10.6719H10.6718H10.6717H10.6716H10.6715H10.6714H10.6713H10.6713H10.6712H10.6711H10.671H10.6709H10.6708H10.6708H10.6707H10.6706H10.6705H10.6704H10.6703H10.6703H10.6702C10.5915 9.06763 10.5111 9.06865 10.4374 9.07528C8.53655 8.99289 7.0957 7.484 7.0957 5.6263Z" fill="white" stroke="white"/>
<path d="M14.5101 12.2152L14.5101 12.2153L14.5124 12.2168C15.4547 12.8375 15.9134 13.6539 15.9208 14.4679C15.9201 15.2927 15.4578 16.102 14.5084 16.7427C13.4409 17.4593 12.0103 17.8326 10.5542 17.8326C9.09789 17.8326 7.6671 17.4592 6.59955 16.7424L6.59818 16.7415C5.64923 16.1089 5.1875 15.2993 5.1875 14.4826C5.1875 13.665 5.65 12.8479 6.605 12.2163L6.60515 12.2162C7.67766 11.5062 9.10966 11.1367 10.5646 11.1367C12.0197 11.1367 13.4467 11.5063 14.5101 12.2152ZM9.30895 16.2528L9.31663 16.2605L9.32464 16.2678C9.50391 16.4321 9.75422 16.5492 10.0292 16.5492C10.2862 16.5492 10.5495 16.4527 10.7494 16.2528L12.8464 14.1558C13.2542 13.7597 13.254 13.1045 12.8458 12.7087C12.4502 12.3171 11.803 12.3183 11.4089 12.7123L10.0292 14.0921L9.69939 13.7623C9.30412 13.3671 8.65421 13.3671 8.25895 13.7623C7.86368 14.1576 7.86368 14.8075 8.25895 15.2028L9.30895 16.2528Z" fill="white" stroke="white"/>
</svg>
