<svg width="24" height="24" viewBox="0 0 24 24" fill="none" xmlns="http://www.w3.org/2000/svg">
<path d="M12 15.25C10.2061 15.25 8.75 13.7939 8.75 12C8.75 10.2061 10.2061 8.75 12 8.75C13.7939 8.75 15.25 10.2061 15.25 12C15.25 13.7939 13.7939 15.25 12 15.25ZM12 9.25C10.4839 9.25 9.25 10.4839 9.25 12C9.25 13.5161 10.4839 14.75 12 14.75C13.5161 14.75 14.75 13.5161 14.75 12C14.75 10.4839 13.5161 9.25 12 9.25Z" fill="#082042" stroke="#082042"/>
<path d="M9.29506 21.6261L9.29505 21.6261L9.28974 21.6276C8.78935 21.7626 8.27942 21.6908 7.84725 21.4315L7.84729 21.4315L7.83943 21.4269L6.11942 20.4369L6.11883 20.4366C5.62587 20.1538 5.26895 19.6941 5.11296 19.1308C4.96627 18.5652 5.04116 17.9915 5.32369 17.4991L5.32465 17.4974C5.48974 17.2071 5.60884 16.9078 5.656 16.6181C5.70286 16.3303 5.68369 16.0144 5.52135 15.7374C5.21133 15.2086 4.53815 15.0303 3.9 15.0303C2.71614 15.0303 1.75 14.0641 1.75 12.8803V11.1203C1.75 9.93643 2.71614 8.97029 3.9 8.97029C4.53815 8.97029 5.21133 8.79201 5.52135 8.26315C5.8349 7.72827 5.64497 7.04869 5.32247 6.49934C5.04025 6.00616 4.96658 5.4227 5.11336 4.86823L5.11381 4.8665C5.25952 4.30793 5.61339 3.84932 6.1158 3.5657L6.1158 3.56571L6.11834 3.56425L7.84834 2.57425L7.84837 2.57431L7.85501 2.57037C8.74208 2.04441 9.92719 2.34744 10.4696 3.26478L10.4696 3.26478L10.4713 3.26754L10.5893 3.46422C10.92 4.0344 11.4019 4.47529 12.015 4.47529C12.6294 4.47529 13.1119 4.03264 13.4427 3.4608C13.4427 3.46075 13.4428 3.46069 13.4428 3.46064L13.5513 3.27315C13.5516 3.27277 13.5518 3.2724 13.552 3.27203C14.0945 2.34804 15.277 2.04472 16.1739 2.5797L16.1738 2.57975L16.1806 2.58363L17.9006 3.57363L17.9012 3.57397C18.3941 3.85682 18.7511 4.3165 18.907 4.87976C19.0537 5.44537 18.9788 6.01906 18.6963 6.51145L18.6954 6.51313C18.5303 6.80348 18.4112 7.10274 18.364 7.39245C18.3171 7.68027 18.3363 7.99621 18.4987 8.27315C18.8087 8.80201 19.4819 8.98029 20.12 8.98029C21.3039 8.98029 22.27 9.94643 22.27 11.1303V12.8903C22.27 14.0741 21.3039 15.0403 20.12 15.0403C19.4818 15.0403 18.8087 15.2186 18.4987 15.7474C18.1851 16.2823 18.375 16.9619 18.6975 17.5113C18.9824 18.0089 19.0608 18.5903 18.9084 19.1357L18.9084 19.1357L18.9062 19.1441C18.7605 19.7026 18.4066 20.1613 17.9042 20.4449L17.9017 20.4463L16.1751 21.4344C15.8657 21.6047 15.5395 21.6903 15.21 21.6903C15.05 21.6903 14.8823 21.6678 14.7042 21.6259C14.2097 21.4882 13.8 21.1784 13.5387 20.743L13.4207 20.5463C13.0899 19.9761 12.6081 19.5353 11.995 19.5353C11.3806 19.5353 10.898 19.978 10.5672 20.5499L10.4592 20.7364C10.4589 20.7369 10.4586 20.7374 10.4583 20.738C10.1931 21.1871 9.7813 21.5007 9.29506 21.6261ZM13.8567 20.2898L13.8573 20.2908L13.9659 20.4784C13.9661 20.4788 13.9664 20.4793 13.9667 20.4797C14.1561 20.8104 14.4704 21.0433 14.8387 21.1354C15.1931 21.2239 15.5696 21.1841 15.8933 20.9914L17.6199 19.9934C17.9901 19.7798 18.2775 19.4228 18.3931 18.9891C18.5063 18.5647 18.451 18.1181 18.2331 17.7404L18.2322 17.7389C17.7242 16.8655 17.7069 16.0509 18.0341 15.4784C18.3586 14.9105 19.0688 14.5203 20.09 14.5203C21.0061 14.5203 21.74 13.7864 21.74 12.8703V11.1103C21.74 10.207 21.009 9.46029 20.09 9.46029C19.0688 9.46029 18.3586 9.0701 18.0341 8.50222C17.7069 7.92964 17.7242 7.11507 18.2322 6.24167L18.2331 6.24015C18.451 5.86247 18.5063 5.4159 18.3931 4.99146C18.2776 4.55843 18.0025 4.21625 17.642 3.99446L17.6353 3.99028L17.6283 3.98632L15.903 2.99899C15.2278 2.59505 14.3551 2.83647 13.9595 3.50592L13.9595 3.50591L13.9573 3.50977L13.8473 3.69977L13.8467 3.7008C13.3372 4.58564 12.6503 5.00029 11.99 5.00029C11.3308 5.00029 10.6449 4.58692 10.1357 3.70492L10.0281 3.50933L10.024 3.50186L10.0196 3.49454C9.6304 2.84062 8.76766 2.60955 8.09931 2.99767C8.0991 2.99779 8.0989 2.99791 8.09869 2.99803L6.37014 3.99719C6.37005 3.99725 6.36995 3.9973 6.36986 3.99735C6.36983 3.99737 6.36981 3.99739 6.36978 3.9974C5.99973 4.21102 5.7125 4.56788 5.59688 5.00146C5.4837 5.4259 5.53902 5.87247 5.7569 6.25015L5.75779 6.25167C6.26579 7.12507 6.28306 7.93964 5.95588 8.51222C5.63137 9.0801 4.9212 9.47029 3.9 9.47029C2.98386 9.47029 2.25 10.2041 2.25 11.1203V12.8803C2.25 13.7836 2.98103 14.5303 3.9 14.5303C4.9212 14.5303 5.63137 14.9205 5.95588 15.4884C6.28306 16.0609 6.26579 16.8755 5.75779 17.7489L5.75691 17.7504C5.53902 18.1281 5.4837 18.5747 5.59688 18.9991C5.71235 19.4321 5.98753 19.7743 6.34795 19.9961L6.35474 20.0003L6.36166 20.0043L8.08504 20.9905C8.41615 21.1922 8.80356 21.2354 9.15373 21.1447C9.53454 21.0488 9.836 20.799 10.0251 20.4935L10.029 20.4872L10.0327 20.4808L10.1422 20.2917C10.1423 20.2915 10.1424 20.2914 10.1424 20.2913C10.6537 19.4125 11.3419 18.9903 12 18.9903C12.6603 18.9903 13.3472 19.4049 13.8567 20.2898Z" fill="#292D32" stroke="#082042"/>
</svg>
