<svg width="21" height="20" viewBox="0 0 21 20" fill="none" xmlns="http://www.w3.org/2000/svg">
<path d="M1.60198 17.6539L1.60134 17.653C1.21278 17.1305 1.10037 16.4798 1.29411 15.8585L1.2942 15.8582L4.80253 4.58319L4.80255 4.58319L4.80381 4.579C5.05655 3.74097 5.82812 3.16797 6.70845 3.16797H16.9584C17.767 3.16797 18.4908 3.64832 18.7959 4.39133L18.7959 4.39136L18.7993 4.39929C18.9617 4.7762 18.999 5.21524 18.8972 5.65998L16.0899 16.9305L16.0899 16.9305L16.0886 16.936C15.8759 17.8331 15.0792 18.4597 14.1501 18.4597H3.2001C2.56638 18.4597 1.98237 18.1677 1.60198 17.6539ZM1.53936 15.9362L1.53932 15.9362L1.53759 15.942C1.37713 16.4807 1.46897 17.0532 1.8155 17.5163C2.14394 17.9609 2.65996 18.218 3.20844 18.218H14.1585C14.9619 18.218 15.664 17.6707 15.8525 16.8867C15.8527 16.8858 15.8529 16.885 15.8531 16.8841L18.6603 5.6054L18.661 5.60244C18.7497 5.23676 18.7329 4.84863 18.5754 4.49374C18.2987 3.84217 17.6807 3.41797 16.9668 3.41797H6.71677H6.21677V3.50011C5.67049 3.66468 5.21999 4.09256 5.04709 4.66306L1.53936 15.9362Z" fill="#292D32" stroke="#252525"/>
<path d="M18.7067 5.00625L18.7067 5.00601C18.7019 4.94078 18.7512 4.88264 18.8139 4.87499C18.8974 4.87405 18.947 4.9341 18.951 4.98704C18.951 4.9871 18.951 4.98716 18.951 4.98723L19.776 16.3371L19.776 16.3373C19.8158 16.8815 19.6226 17.428 19.2508 17.8263L19.2508 17.8263L19.245 17.8327C18.8845 18.2324 18.3627 18.4591 17.8163 18.4591H13.833C13.8029 18.4591 13.7716 18.4468 13.7459 18.4212C13.7203 18.3955 13.708 18.3643 13.708 18.3341C13.708 18.304 13.7203 18.2727 13.7459 18.247C13.7716 18.2214 13.8029 18.2091 13.833 18.2091H17.8163C18.3007 18.2091 18.7485 18.0069 19.0735 17.6586C19.4026 17.3061 19.5667 16.8357 19.5317 16.3562C19.5317 16.3562 19.5317 16.3561 19.5317 16.356L18.7067 5.00625Z" fill="#252525" stroke="#252525"/>
<path d="M8.56615 5.94159C8.51615 5.94159 8.46615 5.93324 8.41615 5.92491C8.08282 5.84157 7.8745 5.50821 7.95783 5.16655L8.82448 1.56659C8.90781 1.23326 9.24115 1.02488 9.58281 1.10822C9.91615 1.19155 10.1245 1.52491 10.0412 1.86658L9.17449 5.46664C9.10782 5.74997 8.84948 5.94159 8.56615 5.94159Z" fill="#252525"/>
<path d="M14.1502 5.94881C14.1085 5.94881 14.0585 5.94879 14.0169 5.93213C13.6835 5.85713 13.4669 5.52378 13.5335 5.19045L14.3168 1.57381C14.3918 1.23214 14.7252 1.02385 15.0585 1.09051C15.3919 1.15718 15.6085 1.49876 15.5418 1.83209L14.7585 5.44883C14.7002 5.74883 14.4419 5.94881 14.1502 5.94881Z" fill="#252525"/>
<path d="M13.5837 10.625H6.91699C6.57533 10.625 6.29199 10.3417 6.29199 10C6.29199 9.65833 6.57533 9.375 6.91699 9.375H13.5837C13.9253 9.375 14.2087 9.65833 14.2087 10C14.2087 10.3417 13.9253 10.625 13.5837 10.625Z" fill="#252525"/>
<path d="M12.7507 13.957H6.08398C5.74232 13.957 5.45898 13.6737 5.45898 13.332C5.45898 12.9904 5.74232 12.707 6.08398 12.707H12.7507C13.0923 12.707 13.3757 12.9904 13.3757 13.332C13.3757 13.6737 13.0923 13.957 12.7507 13.957Z" fill="#292D32"/>
</svg>
