<svg width="14" height="14" viewBox="0 0 14 14" fill="none" xmlns="http://www.w3.org/2000/svg">
<mask id="path-1-inside-1_406_10148" fill="white">
<path d="M12.2501 3.92578C12.2385 3.92578 12.221 3.92578 12.2035 3.92578C9.11763 3.61661 6.03763 3.49995 2.9868 3.80911L1.7968 3.92578C1.5518 3.94911 1.33597 3.77411 1.31263 3.52911C1.2893 3.28411 1.4643 3.07411 1.70347 3.05078L2.89347 2.93411C5.9968 2.61911 9.14097 2.74161 12.291 3.05078C12.5301 3.07411 12.7051 3.28995 12.6818 3.52911C12.6643 3.75661 12.4718 3.92578 12.2501 3.92578Z"/>
</mask>
<path d="M12.2501 3.92578C12.2385 3.92578 12.221 3.92578 12.2035 3.92578C9.11763 3.61661 6.03763 3.49995 2.9868 3.80911L1.7968 3.92578C1.5518 3.94911 1.33597 3.77411 1.31263 3.52911C1.2893 3.28411 1.4643 3.07411 1.70347 3.05078L2.89347 2.93411C5.9968 2.61911 9.14097 2.74161 12.291 3.05078C12.5301 3.07411 12.7051 3.28995 12.6818 3.52911C12.6643 3.75661 12.4718 3.92578 12.2501 3.92578Z" fill="#E45050"/>
<path d="M12.2035 3.92578L12.1038 4.9208L12.1535 4.92578H12.2035V3.92578ZM2.9868 3.80911L3.08437 4.80435L3.08762 4.80402L2.9868 3.80911ZM1.7968 3.92578L1.89161 4.92128L1.89437 4.92101L1.7968 3.92578ZM1.70347 3.05078L1.80057 4.04605L1.80104 4.04601L1.70347 3.05078ZM2.89347 2.93411L2.99104 3.92935L2.99445 3.929L2.89347 2.93411ZM12.291 3.05078L12.1933 4.046L12.1939 4.04605L12.291 3.05078ZM12.6818 3.52911L11.6865 3.43201L11.6855 3.4422L11.6847 3.45242L12.6818 3.52911ZM12.2501 2.92578C12.2501 2.92578 12.2501 2.92578 12.2501 2.92578C12.25 2.92578 12.25 2.92578 12.25 2.92578C12.25 2.92578 12.25 2.92578 12.2499 2.92578C12.2499 2.92578 12.2499 2.92578 12.2499 2.92578C12.2498 2.92578 12.2498 2.92578 12.2498 2.92578C12.2498 2.92578 12.2497 2.92578 12.2497 2.92578C12.2497 2.92578 12.2497 2.92578 12.2497 2.92578C12.2496 2.92578 12.2496 2.92578 12.2496 2.92578C12.2496 2.92578 12.2495 2.92578 12.2495 2.92578C12.2495 2.92578 12.2495 2.92578 12.2494 2.92578C12.2494 2.92578 12.2494 2.92578 12.2494 2.92578C12.2494 2.92578 12.2493 2.92578 12.2493 2.92578C12.2493 2.92578 12.2493 2.92578 12.2492 2.92578C12.2492 2.92578 12.2492 2.92578 12.2492 2.92578C12.2491 2.92578 12.2491 2.92578 12.2491 2.92578C12.2491 2.92578 12.249 2.92578 12.249 2.92578C12.249 2.92578 12.249 2.92578 12.249 2.92578C12.2489 2.92578 12.2489 2.92578 12.2489 2.92578C12.2489 2.92578 12.2488 2.92578 12.2488 2.92578C12.2488 2.92578 12.2488 2.92578 12.2487 2.92578C12.2487 2.92578 12.2487 2.92578 12.2487 2.92578C12.2486 2.92578 12.2486 2.92578 12.2486 2.92578C12.2486 2.92578 12.2486 2.92578 12.2485 2.92578C12.2485 2.92578 12.2485 2.92578 12.2485 2.92578C12.2484 2.92578 12.2484 2.92578 12.2484 2.92578C12.2484 2.92578 12.2483 2.92578 12.2483 2.92578C12.2483 2.92578 12.2483 2.92578 12.2482 2.92578C12.2482 2.92578 12.2482 2.92578 12.2482 2.92578C12.2481 2.92578 12.2481 2.92578 12.2481 2.92578C12.2481 2.92578 12.248 2.92578 12.248 2.92578C12.248 2.92578 12.248 2.92578 12.248 2.92578C12.2479 2.92578 12.2479 2.92578 12.2479 2.92578C12.2479 2.92578 12.2478 2.92578 12.2478 2.92578C12.2478 2.92578 12.2478 2.92578 12.2477 2.92578C12.2477 2.92578 12.2477 2.92578 12.2477 2.92578C12.2476 2.92578 12.2476 2.92578 12.2476 2.92578C12.2476 2.92578 12.2475 2.92578 12.2475 2.92578C12.2475 2.92578 12.2475 2.92578 12.2474 2.92578C12.2474 2.92578 12.2474 2.92578 12.2474 2.92578C12.2473 2.92578 12.2473 2.92578 12.2473 2.92578C12.2473 2.92578 12.2472 2.92578 12.2472 2.92578C12.2472 2.92578 12.2472 2.92578 12.2471 2.92578C12.2471 2.92578 12.2471 2.92578 12.2471 2.92578C12.247 2.92578 12.247 2.92578 12.247 2.92578C12.247 2.92578 12.247 2.92578 12.2469 2.92578C12.2469 2.92578 12.2469 2.92578 12.2469 2.92578C12.2468 2.92578 12.2468 2.92578 12.2468 2.92578C12.2468 2.92578 12.2467 2.92578 12.2467 2.92578C12.2467 2.92578 12.2467 2.92578 12.2466 2.92578C12.2466 2.92578 12.2466 2.92578 12.2466 2.92578C12.2465 2.92578 12.2465 2.92578 12.2465 2.92578C12.2465 2.92578 12.2464 2.92578 12.2464 2.92578C12.2464 2.92578 12.2464 2.92578 12.2463 2.92578C12.2463 2.92578 12.2463 2.92578 12.2463 2.92578C12.2462 2.92578 12.2462 2.92578 12.2462 2.92578C12.2462 2.92578 12.2461 2.92578 12.2461 2.92578C12.2461 2.92578 12.2461 2.92578 12.246 2.92578C12.246 2.92578 12.246 2.92578 12.246 2.92578C12.2459 2.92578 12.2459 2.92578 12.2459 2.92578C12.2459 2.92578 12.2458 2.92578 12.2458 2.92578C12.2458 2.92578 12.2458 2.92578 12.2457 2.92578C12.2457 2.92578 12.2457 2.92578 12.2456 2.92578C12.2456 2.92578 12.2456 2.92578 12.2456 2.92578C12.2455 2.92578 12.2455 2.92578 12.2455 2.92578C12.2455 2.92578 12.2454 2.92578 12.2454 2.92578C12.2454 2.92578 12.2454 2.92578 12.2453 2.92578C12.2453 2.92578 12.2453 2.92578 12.2453 2.92578C12.2452 2.92578 12.2452 2.92578 12.2452 2.92578C12.2452 2.92578 12.2451 2.92578 12.2451 2.92578C12.2451 2.92578 12.2451 2.92578 12.245 2.92578C12.245 2.92578 12.245 2.92578 12.245 2.92578C12.2449 2.92578 12.2449 2.92578 12.2449 2.92578C12.2449 2.92578 12.2448 2.92578 12.2448 2.92578C12.2448 2.92578 12.2448 2.92578 12.2447 2.92578C12.2447 2.92578 12.2447 2.92578 12.2446 2.92578C12.2446 2.92578 12.2446 2.92578 12.2446 2.92578C12.2445 2.92578 12.2445 2.92578 12.2445 2.92578C12.2445 2.92578 12.2444 2.92578 12.2444 2.92578C12.2444 2.92578 12.2444 2.92578 12.2443 2.92578C12.2443 2.92578 12.2443 2.92578 12.2443 2.92578C12.2442 2.92578 12.2442 2.92578 12.2442 2.92578C12.2442 2.92578 12.2441 2.92578 12.2441 2.92578C12.2441 2.92578 12.2441 2.92578 12.244 2.92578C12.244 2.92578 12.244 2.92578 12.2439 2.92578C12.2439 2.92578 12.2439 2.92578 12.2439 2.92578C12.2438 2.92578 12.2438 2.92578 12.2438 2.92578C12.2438 2.92578 12.2437 2.92578 12.2437 2.92578C12.2437 2.92578 12.2437 2.92578 12.2436 2.92578C12.2436 2.92578 12.2436 2.92578 12.2436 2.92578C12.2435 2.92578 12.2435 2.92578 12.2435 2.92578C12.2434 2.92578 12.2434 2.92578 12.2434 2.92578C12.2434 2.92578 12.2433 2.92578 12.2433 2.92578C12.2433 2.92578 12.2433 2.92578 12.2432 2.92578C12.2432 2.92578 12.2432 2.92578 12.2432 2.92578C12.2431 2.92578 12.2431 2.92578 12.2431 2.92578C12.243 2.92578 12.243 2.92578 12.243 2.92578C12.243 2.92578 12.2429 2.92578 12.2429 2.92578C12.2429 2.92578 12.2429 2.92578 12.2428 2.92578C12.2428 2.92578 12.2428 2.92578 12.2428 2.92578C12.2427 2.92578 12.2427 2.92578 12.2427 2.92578C12.2426 2.92578 12.2426 2.92578 12.2426 2.92578C12.2426 2.92578 12.2425 2.92578 12.2425 2.92578C12.2425 2.92578 12.2425 2.92578 12.2424 2.92578C12.2424 2.92578 12.2424 2.92578 12.2424 2.92578C12.2423 2.92578 12.2423 2.92578 12.2423 2.92578C12.2422 2.92578 12.2422 2.92578 12.2422 2.92578C12.2422 2.92578 12.2421 2.92578 12.2421 2.92578C12.2421 2.92578 12.2421 2.92578 12.242 2.92578C12.242 2.92578 12.242 2.92578 12.2419 2.92578C12.2419 2.92578 12.2419 2.92578 12.2419 2.92578C12.2418 2.92578 12.2418 2.92578 12.2418 2.92578C12.2418 2.92578 12.2417 2.92578 12.2417 2.92578C12.2417 2.92578 12.2416 2.92578 12.2416 2.92578C12.2416 2.92578 12.2416 2.92578 12.2415 2.92578C12.2415 2.92578 12.2415 2.92578 12.2415 2.92578C12.2414 2.92578 12.2414 2.92578 12.2414 2.92578C12.2413 2.92578 12.2413 2.92578 12.2413 2.92578C12.2413 2.92578 12.2412 2.92578 12.2412 2.92578C12.2412 2.92578 12.2412 2.92578 12.2411 2.92578C12.2411 2.92578 12.2411 2.92578 12.241 2.92578C12.241 2.92578 12.241 2.92578 12.241 2.92578C12.2409 2.92578 12.2409 2.92578 12.2409 2.92578C12.2409 2.92578 12.2408 2.92578 12.2408 2.92578C12.2408 2.92578 12.2407 2.92578 12.2407 2.92578C12.2407 2.92578 12.2407 2.92578 12.2406 2.92578C12.2406 2.92578 12.2406 2.92578 12.2405 2.92578C12.2405 2.92578 12.2405 2.92578 12.2405 2.92578C12.2404 2.92578 12.2404 2.92578 12.2404 2.92578C12.2404 2.92578 12.2403 2.92578 12.2403 2.92578C12.2403 2.92578 12.2402 2.92578 12.2402 2.92578C12.2402 2.92578 12.2402 2.92578 12.2401 2.92578C12.2401 2.92578 12.2401 2.92578 12.24 2.92578C12.24 2.92578 12.24 2.92578 12.24 2.92578C12.2399 2.92578 12.2399 2.92578 12.2399 2.92578C12.2399 2.92578 12.2398 2.92578 12.2398 2.92578C12.2398 2.92578 12.2397 2.92578 12.2397 2.92578C12.2397 2.92578 12.2397 2.92578 12.2396 2.92578C12.2396 2.92578 12.2396 2.92578 12.2395 2.92578C12.2395 2.92578 12.2395 2.92578 12.2395 2.92578C12.2394 2.92578 12.2394 2.92578 12.2394 2.92578C12.2393 2.92578 12.2393 2.92578 12.2393 2.92578C12.2393 2.92578 12.2392 2.92578 12.2392 2.92578C12.2392 2.92578 12.2391 2.92578 12.2391 2.92578C12.2391 2.92578 12.2391 2.92578 12.239 2.92578C12.239 2.92578 12.239 2.92578 12.239 2.92578C12.2389 2.92578 12.2389 2.92578 12.2389 2.92578C12.2388 2.92578 12.2388 2.92578 12.2388 2.92578C12.2388 2.92578 12.2387 2.92578 12.2387 2.92578C12.2387 2.92578 12.2386 2.92578 12.2386 2.92578C12.2386 2.92578 12.2386 2.92578 12.2385 2.92578C12.2385 2.92578 12.2385 2.92578 12.2384 2.92578C12.2384 2.92578 12.2384 2.92578 12.2384 2.92578C12.2383 2.92578 12.2383 2.92578 12.2383 2.92578C12.2382 2.92578 12.2382 2.92578 12.2382 2.92578C12.2382 2.92578 12.2381 2.92578 12.2381 2.92578C12.2381 2.92578 12.238 2.92578 12.238 2.92578C12.238 2.92578 12.238 2.92578 12.2379 2.92578C12.2379 2.92578 12.2379 2.92578 12.2378 2.92578C12.2378 2.92578 12.2378 2.92578 12.2378 2.92578C12.2377 2.92578 12.2377 2.92578 12.2377 2.92578C12.2376 2.92578 12.2376 2.92578 12.2376 2.92578C12.2375 2.92578 12.2375 2.92578 12.2375 2.92578C12.2375 2.92578 12.2374 2.92578 12.2374 2.92578C12.2374 2.92578 12.2373 2.92578 12.2373 2.92578C12.2373 2.92578 12.2373 2.92578 12.2372 2.92578C12.2372 2.92578 12.2372 2.92578 12.2371 2.92578C12.2371 2.92578 12.2371 2.92578 12.2371 2.92578C12.237 2.92578 12.237 2.92578 12.237 2.92578C12.2369 2.92578 12.2369 2.92578 12.2369 2.92578C12.2369 2.92578 12.2368 2.92578 12.2368 2.92578C12.2368 2.92578 12.2367 2.92578 12.2367 2.92578C12.2367 2.92578 12.2367 2.92578 12.2366 2.92578C12.2366 2.92578 12.2366 2.92578 12.2365 2.92578C12.2365 2.92578 12.2365 2.92578 12.2364 2.92578C12.2364 2.92578 12.2364 2.92578 12.2364 2.92578C12.2363 2.92578 12.2363 2.92578 12.2363 2.92578C12.2362 2.92578 12.2362 2.92578 12.2362 2.92578C12.2362 2.92578 12.2361 2.92578 12.2361 2.92578C12.2361 2.92578 12.236 2.92578 12.236 2.92578C12.236 2.92578 12.2359 2.92578 12.2359 2.92578C12.2359 2.92578 12.2359 2.92578 12.2358 2.92578C12.2358 2.92578 12.2358 2.92578 12.2357 2.92578C12.2357 2.92578 12.2357 2.92578 12.2357 2.92578C12.2356 2.92578 12.2356 2.92578 12.2356 2.92578C12.2355 2.92578 12.2355 2.92578 12.2355 2.92578C12.2354 2.92578 12.2354 2.92578 12.2354 2.92578C12.2354 2.92578 12.2353 2.92578 12.2353 2.92578C12.2353 2.92578 12.2352 2.92578 12.2352 2.92578C12.2352 2.92578 12.2352 2.92578 12.2351 2.92578C12.2351 2.92578 12.2351 2.92578 12.235 2.92578C12.235 2.92578 12.235 2.92578 12.2349 2.92578C12.2349 2.92578 12.2349 2.92578 12.2349 2.92578C12.2348 2.92578 12.2348 2.92578 12.2348 2.92578C12.2347 2.92578 12.2347 2.92578 12.2347 2.92578C12.2346 2.92578 12.2346 2.92578 12.2346 2.92578C12.2346 2.92578 12.2345 2.92578 12.2345 2.92578C12.2345 2.92578 12.2344 2.92578 12.2344 2.92578C12.2344 2.92578 12.2343 2.92578 12.2343 2.92578C12.2343 2.92578 12.2343 2.92578 12.2342 2.92578C12.2342 2.92578 12.2342 2.92578 12.2341 2.92578C12.2341 2.92578 12.2341 2.92578 12.234 2.92578C12.234 2.92578 12.234 2.92578 12.234 2.92578C12.2339 2.92578 12.2339 2.92578 12.2339 2.92578C12.2338 2.92578 12.2338 2.92578 12.2338 2.92578C12.2337 2.92578 12.2337 2.92578 12.2337 2.92578C12.2337 2.92578 12.2336 2.92578 12.2336 2.92578C12.2336 2.92578 12.2335 2.92578 12.2335 2.92578C12.2335 2.92578 12.2334 2.92578 12.2334 2.92578C12.2334 2.92578 12.2334 2.92578 12.2333 2.92578C12.2333 2.92578 12.2333 2.92578 12.2332 2.92578C12.2332 2.92578 12.2332 2.92578 12.2331 2.92578C12.2331 2.92578 12.2331 2.92578 12.2331 2.92578C12.233 2.92578 12.233 2.92578 12.233 2.92578C12.2329 2.92578 12.2329 2.92578 12.2329 2.92578C12.2328 2.92578 12.2328 2.92578 12.2328 2.92578C12.2328 2.92578 12.2327 2.92578 12.2327 2.92578C12.2327 2.92578 12.2326 2.92578 12.2326 2.92578C12.2326 2.92578 12.2325 2.92578 12.2325 2.92578C12.2325 2.92578 12.2324 2.92578 12.2324 2.92578C12.2324 2.92578 12.2324 2.92578 12.2323 2.92578C12.2323 2.92578 12.2323 2.92578 12.2322 2.92578C12.2322 2.92578 12.2322 2.92578 12.2321 2.92578C12.2321 2.92578 12.2321 2.92578 12.2321 2.92578C12.232 2.92578 12.232 2.92578 12.232 2.92578C12.2319 2.92578 12.2319 2.92578 12.2319 2.92578C12.2318 2.92578 12.2318 2.92578 12.2318 2.92578C12.2317 2.92578 12.2317 2.92578 12.2317 2.92578C12.2317 2.92578 12.2316 2.92578 12.2316 2.92578C12.2316 2.92578 12.2315 2.92578 12.2315 2.92578C12.2315 2.92578 12.2314 2.92578 12.2314 2.92578C12.2314 2.92578 12.2313 2.92578 12.2313 2.92578C12.2313 2.92578 12.2313 2.92578 12.2312 2.92578C12.2312 2.92578 12.2312 2.92578 12.2311 2.92578C12.2311 2.92578 12.2311 2.92578 12.231 2.92578C12.231 2.92578 12.231 2.92578 12.2309 2.92578C12.2309 2.92578 12.2309 2.92578 12.2309 2.92578C12.2308 2.92578 12.2308 2.92578 12.2308 2.92578C12.2307 2.92578 12.2307 2.92578 12.2307 2.92578C12.2306 2.92578 12.2306 2.92578 12.2306 2.92578C12.2305 2.92578 12.2305 2.92578 12.2305 2.92578C12.2305 2.92578 12.2304 2.92578 12.2304 2.92578C12.2304 2.92578 12.2303 2.92578 12.2303 2.92578C12.2303 2.92578 12.2302 2.92578 12.2302 2.92578C12.2302 2.92578 12.2301 2.92578 12.2301 2.92578C12.2301 2.92578 12.23 2.92578 12.23 2.92578C12.23 2.92578 12.23 2.92578 12.2299 2.92578C12.2299 2.92578 12.2299 2.92578 12.2298 2.92578C12.2298 2.92578 12.2298 2.92578 12.2297 2.92578C12.2297 2.92578 12.2297 2.92578 12.2296 2.92578C12.2296 2.92578 12.2296 2.92578 12.2296 2.92578C12.2295 2.92578 12.2295 2.92578 12.2295 2.92578C12.2294 2.92578 12.2294 2.92578 12.2294 2.92578C12.2293 2.92578 12.2293 2.92578 12.2293 2.92578C12.2292 2.92578 12.2292 2.92578 12.2292 2.92578C12.2291 2.92578 12.2291 2.92578 12.2291 2.92578C12.2291 2.92578 12.229 2.92578 12.229 2.92578C12.229 2.92578 12.2289 2.92578 12.2289 2.92578C12.2289 2.92578 12.2288 2.92578 12.2288 2.92578C12.2288 2.92578 12.2287 2.92578 12.2287 2.92578C12.2287 2.92578 12.2286 2.92578 12.2286 2.92578C12.2286 2.92578 12.2285 2.92578 12.2285 2.92578C12.2285 2.92578 12.2285 2.92578 12.2284 2.92578C12.2284 2.92578 12.2284 2.92578 12.2283 2.92578C12.2283 2.92578 12.2283 2.92578 12.2282 2.92578C12.2282 2.92578 12.2282 2.92578 12.2281 2.92578C12.2281 2.92578 12.2281 2.92578 12.228 2.92578C12.228 2.92578 12.228 2.92578 12.228 2.92578C12.2279 2.92578 12.2279 2.92578 12.2279 2.92578C12.2278 2.92578 12.2278 2.92578 12.2278 2.92578C12.2277 2.92578 12.2277 2.92578 12.2277 2.92578C12.2276 2.92578 12.2276 2.92578 12.2276 2.92578C12.2275 2.92578 12.2275 2.92578 12.2275 2.92578C12.2274 2.92578 12.2274 2.92578 12.2274 2.92578C12.2273 2.92578 12.2273 2.92578 12.2273 2.92578C12.2273 2.92578 12.2272 2.92578 12.2272 2.92578C12.2272 2.92578 12.2271 2.92578 12.2271 2.92578C12.2271 2.92578 12.227 2.92578 12.227 2.92578C12.227 2.92578 12.2269 2.92578 12.2269 2.92578C12.2269 2.92578 12.2268 2.92578 12.2268 2.92578C12.2268 2.92578 12.2267 2.92578 12.2267 2.92578C12.2267 2.92578 12.2267 2.92578 12.2266 2.92578C12.2266 2.92578 12.2266 2.92578 12.2265 2.92578C12.2265 2.92578 12.2265 2.92578 12.2264 2.92578C12.2264 2.92578 12.2264 2.92578 12.2263 2.92578C12.2263 2.92578 12.2263 2.92578 12.2262 2.92578C12.2262 2.92578 12.2262 2.92578 12.2261 2.92578C12.2261 2.92578 12.2261 2.92578 12.226 2.92578C12.226 2.92578 12.226 2.92578 12.2259 2.92578C12.2259 2.92578 12.2259 2.92578 12.2259 2.92578C12.2258 2.92578 12.2258 2.92578 12.2258 2.92578C12.2257 2.92578 12.2257 2.92578 12.2257 2.92578C12.2256 2.92578 12.2256 2.92578 12.2256 2.92578C12.2255 2.92578 12.2255 2.92578 12.2255 2.92578C12.2254 2.92578 12.2254 2.92578 12.2254 2.92578C12.2253 2.92578 12.2253 2.92578 12.2253 2.92578C12.2252 2.92578 12.2252 2.92578 12.2252 2.92578C12.2251 2.92578 12.2251 2.92578 12.2251 2.92578C12.225 2.92578 12.225 2.92578 12.225 2.92578C12.225 2.92578 12.2249 2.92578 12.2249 2.92578C12.2249 2.92578 12.2248 2.92578 12.2248 2.92578C12.2248 2.92578 12.2247 2.92578 12.2247 2.92578C12.2247 2.92578 12.2246 2.92578 12.2246 2.92578C12.2246 2.92578 12.2245 2.92578 12.2245 2.92578C12.2245 2.92578 12.2244 2.92578 12.2244 2.92578C12.2244 2.92578 12.2243 2.92578 12.2243 2.92578C12.2243 2.92578 12.2242 2.92578 12.2242 2.92578C12.2242 2.92578 12.2241 2.92578 12.2241 2.92578C12.2241 2.92578 12.224 2.92578 12.224 2.92578C12.224 2.92578 12.224 2.92578 12.2239 2.92578C12.2239 2.92578 12.2239 2.92578 12.2238 2.92578C12.2238 2.92578 12.2238 2.92578 12.2237 2.92578C12.2237 2.92578 12.2237 2.92578 12.2236 2.92578C12.2236 2.92578 12.2236 2.92578 12.2235 2.92578C12.2235 2.92578 12.2235 2.92578 12.2234 2.92578C12.2234 2.92578 12.2234 2.92578 12.2233 2.92578C12.2233 2.92578 12.2233 2.92578 12.2232 2.92578C12.2232 2.92578 12.2232 2.92578 12.2231 2.92578C12.2231 2.92578 12.2231 2.92578 12.223 2.92578C12.223 2.92578 12.223 2.92578 12.2229 2.92578C12.2229 2.92578 12.2229 2.92578 12.2228 2.92578C12.2228 2.92578 12.2228 2.92578 12.2227 2.92578C12.2227 2.92578 12.2227 2.92578 12.2227 2.92578C12.2226 2.92578 12.2226 2.92578 12.2226 2.92578C12.2225 2.92578 12.2225 2.92578 12.2225 2.92578C12.2224 2.92578 12.2224 2.92578 12.2224 2.92578C12.2223 2.92578 12.2223 2.92578 12.2223 2.92578C12.2222 2.92578 12.2222 2.92578 12.2222 2.92578C12.2221 2.92578 12.2221 2.92578 12.2221 2.92578C12.222 2.92578 12.222 2.92578 12.222 2.92578C12.2219 2.92578 12.2219 2.92578 12.2219 2.92578C12.2218 2.92578 12.2218 2.92578 12.2218 2.92578C12.2217 2.92578 12.2217 2.92578 12.2217 2.92578C12.2216 2.92578 12.2216 2.92578 12.2216 2.92578C12.2215 2.92578 12.2215 2.92578 12.2215 2.92578C12.2214 2.92578 12.2214 2.92578 12.2214 2.92578C12.2213 2.92578 12.2213 2.92578 12.2213 2.92578C12.2212 2.92578 12.2212 2.92578 12.2212 2.92578C12.2211 2.92578 12.2211 2.92578 12.2211 2.92578C12.221 2.92578 12.221 2.92578 12.221 2.92578C12.2209 2.92578 12.2209 2.92578 12.2209 2.92578C12.2208 2.92578 12.2208 2.92578 12.2208 2.92578C12.2208 2.92578 12.2207 2.92578 12.2207 2.92578C12.2207 2.92578 12.2206 2.92578 12.2206 2.92578C12.2206 2.92578 12.2205 2.92578 12.2205 2.92578C12.2205 2.92578 12.2204 2.92578 12.2204 2.92578C12.2204 2.92578 12.2203 2.92578 12.2203 2.92578C12.2203 2.92578 12.2202 2.92578 12.2202 2.92578C12.2202 2.92578 12.2201 2.92578 12.2201 2.92578C12.2201 2.92578 12.22 2.92578 12.22 2.92578C12.22 2.92578 12.2199 2.92578 12.2199 2.92578C12.2199 2.92578 12.2198 2.92578 12.2198 2.92578C12.2198 2.92578 12.2197 2.92578 12.2197 2.92578C12.2197 2.92578 12.2196 2.92578 12.2196 2.92578C12.2196 2.92578 12.2195 2.92578 12.2195 2.92578C12.2195 2.92578 12.2194 2.92578 12.2194 2.92578C12.2194 2.92578 12.2193 2.92578 12.2193 2.92578C12.2193 2.92578 12.2192 2.92578 12.2192 2.92578C12.2192 2.92578 12.2191 2.92578 12.2191 2.92578C12.2191 2.92578 12.219 2.92578 12.219 2.92578C12.219 2.92578 12.2189 2.92578 12.2189 2.92578C12.2189 2.92578 12.2188 2.92578 12.2188 2.92578C12.2188 2.92578 12.2187 2.92578 12.2187 2.92578C12.2187 2.92578 12.2186 2.92578 12.2186 2.92578C12.2186 2.92578 12.2185 2.92578 12.2185 2.92578C12.2185 2.92578 12.2184 2.92578 12.2184 2.92578C12.2184 2.92578 12.2183 2.92578 12.2183 2.92578C12.2183 2.92578 12.2182 2.92578 12.2182 2.92578C12.2182 2.92578 12.2181 2.92578 12.2181 2.92578C12.2181 2.92578 12.218 2.92578 12.218 2.92578C12.218 2.92578 12.2179 2.92578 12.2179 2.92578C12.2179 2.92578 12.2178 2.92578 12.2178 2.92578C12.2178 2.92578 12.2177 2.92578 12.2177 2.92578C12.2177 2.92578 12.2176 2.92578 12.2176 2.92578C12.2176 2.92578 12.2175 2.92578 12.2175 2.92578C12.2175 2.92578 12.2174 2.92578 12.2174 2.92578C12.2174 2.92578 12.2173 2.92578 12.2173 2.92578C12.2173 2.92578 12.2172 2.92578 12.2172 2.92578C12.2172 2.92578 12.2171 2.92578 12.2171 2.92578C12.2171 2.92578 12.217 2.92578 12.217 2.92578C12.217 2.92578 12.2169 2.92578 12.2169 2.92578C12.2169 2.92578 12.2168 2.92578 12.2168 2.92578C12.2168 2.92578 12.2167 2.92578 12.2167 2.92578C12.2167 2.92578 12.2166 2.92578 12.2166 2.92578C12.2166 2.92578 12.2165 2.92578 12.2165 2.92578C12.2165 2.92578 12.2164 2.92578 12.2164 2.92578C12.2164 2.92578 12.2163 2.92578 12.2163 2.92578C12.2163 2.92578 12.2162 2.92578 12.2162 2.92578C12.2162 2.92578 12.2161 2.92578 12.2161 2.92578C12.2161 2.92578 12.216 2.92578 12.216 2.92578C12.216 2.92578 12.2159 2.92578 12.2159 2.92578C12.2159 2.92578 12.2158 2.92578 12.2158 2.92578C12.2158 2.92578 12.2157 2.92578 12.2157 2.92578C12.2157 2.92578 12.2156 2.92578 12.2156 2.92578C12.2156 2.92578 12.2155 2.92578 12.2155 2.92578C12.2155 2.92578 12.2154 2.92578 12.2154 2.92578C12.2154 2.92578 12.2153 2.92578 12.2153 2.92578C12.2153 2.92578 12.2152 2.92578 12.2152 2.92578C12.2152 2.92578 12.2151 2.92578 12.2151 2.92578C12.2151 2.92578 12.215 2.92578 12.215 2.92578C12.215 2.92578 12.2149 2.92578 12.2149 2.92578C12.2149 2.92578 12.2148 2.92578 12.2148 2.92578C12.2148 2.92578 12.2147 2.92578 12.2147 2.92578C12.2147 2.92578 12.2146 2.92578 12.2146 2.92578C12.2146 2.92578 12.2145 2.92578 12.2145 2.92578C12.2145 2.92578 12.2144 2.92578 12.2144 2.92578C12.2144 2.92578 12.2143 2.92578 12.2143 2.92578C12.2143 2.92578 12.2142 2.92578 12.2142 2.92578C12.2141 2.92578 12.2141 2.92578 12.2141 2.92578C12.214 2.92578 12.214 2.92578 12.214 2.92578C12.2139 2.92578 12.2139 2.92578 12.2139 2.92578C12.2138 2.92578 12.2138 2.92578 12.2138 2.92578C12.2137 2.92578 12.2137 2.92578 12.2137 2.92578C12.2136 2.92578 12.2136 2.92578 12.2136 2.92578C12.2135 2.92578 12.2135 2.92578 12.2135 2.92578C12.2134 2.92578 12.2134 2.92578 12.2134 2.92578C12.2133 2.92578 12.2133 2.92578 12.2133 2.92578C12.2132 2.92578 12.2132 2.92578 12.2132 2.92578C12.2131 2.92578 12.2131 2.92578 12.2131 2.92578C12.213 2.92578 12.213 2.92578 12.213 2.92578C12.2129 2.92578 12.2129 2.92578 12.2129 2.92578C12.2128 2.92578 12.2128 2.92578 12.2128 2.92578C12.2127 2.92578 12.2127 2.92578 12.2127 2.92578C12.2126 2.92578 12.2126 2.92578 12.2126 2.92578C12.2125 2.92578 12.2125 2.92578 12.2125 2.92578C12.2124 2.92578 12.2124 2.92578 12.2124 2.92578C12.2123 2.92578 12.2123 2.92578 12.2123 2.92578C12.2122 2.92578 12.2122 2.92578 12.2122 2.92578C12.2121 2.92578 12.2121 2.92578 12.2121 2.92578C12.212 2.92578 12.212 2.92578 12.212 2.92578C12.2119 2.92578 12.2119 2.92578 12.2119 2.92578C12.2118 2.92578 12.2118 2.92578 12.2118 2.92578C12.2117 2.92578 12.2117 2.92578 12.2116 2.92578C12.2116 2.92578 12.2116 2.92578 12.2115 2.92578C12.2115 2.92578 12.2115 2.92578 12.2114 2.92578C12.2114 2.92578 12.2114 2.92578 12.2113 2.92578C12.2113 2.92578 12.2113 2.92578 12.2112 2.92578C12.2112 2.92578 12.2112 2.92578 12.2111 2.92578C12.2111 2.92578 12.2111 2.92578 12.211 2.92578C12.211 2.92578 12.211 2.92578 12.2109 2.92578C12.2109 2.92578 12.2109 2.92578 12.2108 2.92578C12.2108 2.92578 12.2108 2.92578 12.2107 2.92578C12.2107 2.92578 12.2107 2.92578 12.2106 2.92578C12.2106 2.92578 12.2106 2.92578 12.2105 2.92578C12.2105 2.92578 12.2105 2.92578 12.2104 2.92578C12.2104 2.92578 12.2104 2.92578 12.2103 2.92578C12.2103 2.92578 12.2103 2.92578 12.2102 2.92578C12.2102 2.92578 12.2102 2.92578 12.2101 2.92578C12.2101 2.92578 12.2101 2.92578 12.21 2.92578C12.21 2.92578 12.21 2.92578 12.2099 2.92578C12.2099 2.92578 12.2098 2.92578 12.2098 2.92578C12.2098 2.92578 12.2097 2.92578 12.2097 2.92578C12.2097 2.92578 12.2096 2.92578 12.2096 2.92578C12.2096 2.92578 12.2095 2.92578 12.2095 2.92578C12.2095 2.92578 12.2094 2.92578 12.2094 2.92578C12.2094 2.92578 12.2093 2.92578 12.2093 2.92578C12.2093 2.92578 12.2092 2.92578 12.2092 2.92578C12.2092 2.92578 12.2091 2.92578 12.2091 2.92578C12.2091 2.92578 12.209 2.92578 12.209 2.92578C12.209 2.92578 12.2089 2.92578 12.2089 2.92578C12.2089 2.92578 12.2088 2.92578 12.2088 2.92578C12.2088 2.92578 12.2087 2.92578 12.2087 2.92578C12.2087 2.92578 12.2086 2.92578 12.2086 2.92578C12.2086 2.92578 12.2085 2.92578 12.2085 2.92578C12.2085 2.92578 12.2084 2.92578 12.2084 2.92578C12.2084 2.92578 12.2083 2.92578 12.2083 2.92578C12.2082 2.92578 12.2082 2.92578 12.2082 2.92578C12.2081 2.92578 12.2081 2.92578 12.2081 2.92578C12.208 2.92578 12.208 2.92578 12.208 2.92578C12.2079 2.92578 12.2079 2.92578 12.2079 2.92578C12.2078 2.92578 12.2078 2.92578 12.2078 2.92578C12.2077 2.92578 12.2077 2.92578 12.2077 2.92578C12.2076 2.92578 12.2076 2.92578 12.2076 2.92578C12.2075 2.92578 12.2075 2.92578 12.2075 2.92578C12.2074 2.92578 12.2074 2.92578 12.2074 2.92578C12.2073 2.92578 12.2073 2.92578 12.2073 2.92578C12.2072 2.92578 12.2072 2.92578 12.2072 2.92578C12.2071 2.92578 12.2071 2.92578 12.2071 2.92578C12.207 2.92578 12.207 2.92578 12.207 2.92578C12.2069 2.92578 12.2069 2.92578 12.2068 2.92578C12.2068 2.92578 12.2068 2.92578 12.2067 2.92578C12.2067 2.92578 12.2067 2.92578 12.2066 2.92578C12.2066 2.92578 12.2066 2.92578 12.2065 2.92578C12.2065 2.92578 12.2065 2.92578 12.2064 2.92578C12.2064 2.92578 12.2064 2.92578 12.2063 2.92578C12.2063 2.92578 12.2063 2.92578 12.2062 2.92578C12.2062 2.92578 12.2062 2.92578 12.2061 2.92578C12.2061 2.92578 12.2061 2.92578 12.206 2.92578C12.206 2.92578 12.206 2.92578 12.2059 2.92578C12.2059 2.92578 12.2059 2.92578 12.2058 2.92578C12.2058 2.92578 12.2058 2.92578 12.2057 2.92578C12.2057 2.92578 12.2057 2.92578 12.2056 2.92578C12.2056 2.92578 12.2056 2.92578 12.2055 2.92578C12.2055 2.92578 12.2054 2.92578 12.2054 2.92578C12.2054 2.92578 12.2053 2.92578 12.2053 2.92578C12.2053 2.92578 12.2052 2.92578 12.2052 2.92578C12.2052 2.92578 12.2051 2.92578 12.2051 2.92578C12.2051 2.92578 12.205 2.92578 12.205 2.92578C12.205 2.92578 12.2049 2.92578 12.2049 2.92578C12.2049 2.92578 12.2048 2.92578 12.2048 2.92578C12.2048 2.92578 12.2047 2.92578 12.2047 2.92578C12.2047 2.92578 12.2046 2.92578 12.2046 2.92578C12.2046 2.92578 12.2045 2.92578 12.2045 2.92578C12.2045 2.92578 12.2044 2.92578 12.2044 2.92578C12.2044 2.92578 12.2043 2.92578 12.2043 2.92578C12.2043 2.92578 12.2042 2.92578 12.2042 2.92578C12.2042 2.92578 12.2041 2.92578 12.2041 2.92578C12.204 2.92578 12.204 2.92578 12.204 2.92578C12.2039 2.92578 12.2039 2.92578 12.2039 2.92578C12.2038 2.92578 12.2038 2.92578 12.2038 2.92578C12.2037 2.92578 12.2037 2.92578 12.2037 2.92578C12.2036 2.92578 12.2036 2.92578 12.2036 2.92578C12.2035 2.92578 12.2035 2.92578 12.2035 2.92578V4.92578C12.2035 4.92578 12.2035 4.92578 12.2036 4.92578C12.2036 4.92578 12.2036 4.92578 12.2037 4.92578C12.2037 4.92578 12.2037 4.92578 12.2038 4.92578C12.2038 4.92578 12.2038 4.92578 12.2039 4.92578C12.2039 4.92578 12.2039 4.92578 12.204 4.92578C12.204 4.92578 12.204 4.92578 12.2041 4.92578C12.2041 4.92578 12.2042 4.92578 12.2042 4.92578C12.2042 4.92578 12.2043 4.92578 12.2043 4.92578C12.2043 4.92578 12.2044 4.92578 12.2044 4.92578C12.2044 4.92578 12.2045 4.92578 12.2045 4.92578C12.2045 4.92578 12.2046 4.92578 12.2046 4.92578C12.2046 4.92578 12.2047 4.92578 12.2047 4.92578C12.2047 4.92578 12.2048 4.92578 12.2048 4.92578C12.2048 4.92578 12.2049 4.92578 12.2049 4.92578C12.2049 4.92578 12.205 4.92578 12.205 4.92578C12.205 4.92578 12.2051 4.92578 12.2051 4.92578C12.2051 4.92578 12.2052 4.92578 12.2052 4.92578C12.2052 4.92578 12.2053 4.92578 12.2053 4.92578C12.2053 4.92578 12.2054 4.92578 12.2054 4.92578C12.2054 4.92578 12.2055 4.92578 12.2055 4.92578C12.2056 4.92578 12.2056 4.92578 12.2056 4.92578C12.2057 4.92578 12.2057 4.92578 12.2057 4.92578C12.2058 4.92578 12.2058 4.92578 12.2058 4.92578C12.2059 4.92578 12.2059 4.92578 12.2059 4.92578C12.206 4.92578 12.206 4.92578 12.206 4.92578C12.2061 4.92578 12.2061 4.92578 12.2061 4.92578C12.2062 4.92578 12.2062 4.92578 12.2062 4.92578C12.2063 4.92578 12.2063 4.92578 12.2063 4.92578C12.2064 4.92578 12.2064 4.92578 12.2064 4.92578C12.2065 4.92578 12.2065 4.92578 12.2065 4.92578C12.2066 4.92578 12.2066 4.92578 12.2066 4.92578C12.2067 4.92578 12.2067 4.92578 12.2067 4.92578C12.2068 4.92578 12.2068 4.92578 12.2068 4.92578C12.2069 4.92578 12.2069 4.92578 12.207 4.92578C12.207 4.92578 12.207 4.92578 12.2071 4.92578C12.2071 4.92578 12.2071 4.92578 12.2072 4.92578C12.2072 4.92578 12.2072 4.92578 12.2073 4.92578C12.2073 4.92578 12.2073 4.92578 12.2074 4.92578C12.2074 4.92578 12.2074 4.92578 12.2075 4.92578C12.2075 4.92578 12.2075 4.92578 12.2076 4.92578C12.2076 4.92578 12.2076 4.92578 12.2077 4.92578C12.2077 4.92578 12.2077 4.92578 12.2078 4.92578C12.2078 4.92578 12.2078 4.92578 12.2079 4.92578C12.2079 4.92578 12.2079 4.92578 12.208 4.92578C12.208 4.92578 12.208 4.92578 12.2081 4.92578C12.2081 4.92578 12.2081 4.92578 12.2082 4.92578C12.2082 4.92578 12.2082 4.92578 12.2083 4.92578C12.2083 4.92578 12.2084 4.92578 12.2084 4.92578C12.2084 4.92578 12.2085 4.92578 12.2085 4.92578C12.2085 4.92578 12.2086 4.92578 12.2086 4.92578C12.2086 4.92578 12.2087 4.92578 12.2087 4.92578C12.2087 4.92578 12.2088 4.92578 12.2088 4.92578C12.2088 4.92578 12.2089 4.92578 12.2089 4.92578C12.2089 4.92578 12.209 4.92578 12.209 4.92578C12.209 4.92578 12.2091 4.92578 12.2091 4.92578C12.2091 4.92578 12.2092 4.92578 12.2092 4.92578C12.2092 4.92578 12.2093 4.92578 12.2093 4.92578C12.2093 4.92578 12.2094 4.92578 12.2094 4.92578C12.2094 4.92578 12.2095 4.92578 12.2095 4.92578C12.2095 4.92578 12.2096 4.92578 12.2096 4.92578C12.2096 4.92578 12.2097 4.92578 12.2097 4.92578C12.2097 4.92578 12.2098 4.92578 12.2098 4.92578C12.2098 4.92578 12.2099 4.92578 12.2099 4.92578C12.21 4.92578 12.21 4.92578 12.21 4.92578C12.2101 4.92578 12.2101 4.92578 12.2101 4.92578C12.2102 4.92578 12.2102 4.92578 12.2102 4.92578C12.2103 4.92578 12.2103 4.92578 12.2103 4.92578C12.2104 4.92578 12.2104 4.92578 12.2104 4.92578C12.2105 4.92578 12.2105 4.92578 12.2105 4.92578C12.2106 4.92578 12.2106 4.92578 12.2106 4.92578C12.2107 4.92578 12.2107 4.92578 12.2107 4.92578C12.2108 4.92578 12.2108 4.92578 12.2108 4.92578C12.2109 4.92578 12.2109 4.92578 12.2109 4.92578C12.211 4.92578 12.211 4.92578 12.211 4.92578C12.2111 4.92578 12.2111 4.92578 12.2111 4.92578C12.2112 4.92578 12.2112 4.92578 12.2112 4.92578C12.2113 4.92578 12.2113 4.92578 12.2113 4.92578C12.2114 4.92578 12.2114 4.92578 12.2114 4.92578C12.2115 4.92578 12.2115 4.92578 12.2115 4.92578C12.2116 4.92578 12.2116 4.92578 12.2116 4.92578C12.2117 4.92578 12.2117 4.92578 12.2118 4.92578C12.2118 4.92578 12.2118 4.92578 12.2119 4.92578C12.2119 4.92578 12.2119 4.92578 12.212 4.92578C12.212 4.92578 12.212 4.92578 12.2121 4.92578C12.2121 4.92578 12.2121 4.92578 12.2122 4.92578C12.2122 4.92578 12.2122 4.92578 12.2123 4.92578C12.2123 4.92578 12.2123 4.92578 12.2124 4.92578C12.2124 4.92578 12.2124 4.92578 12.2125 4.92578C12.2125 4.92578 12.2125 4.92578 12.2126 4.92578C12.2126 4.92578 12.2126 4.92578 12.2127 4.92578C12.2127 4.92578 12.2127 4.92578 12.2128 4.92578C12.2128 4.92578 12.2128 4.92578 12.2129 4.92578C12.2129 4.92578 12.2129 4.92578 12.213 4.92578C12.213 4.92578 12.213 4.92578 12.2131 4.92578C12.2131 4.92578 12.2131 4.92578 12.2132 4.92578C12.2132 4.92578 12.2132 4.92578 12.2133 4.92578C12.2133 4.92578 12.2133 4.92578 12.2134 4.92578C12.2134 4.92578 12.2134 4.92578 12.2135 4.92578C12.2135 4.92578 12.2135 4.92578 12.2136 4.92578C12.2136 4.92578 12.2136 4.92578 12.2137 4.92578C12.2137 4.92578 12.2137 4.92578 12.2138 4.92578C12.2138 4.92578 12.2138 4.92578 12.2139 4.92578C12.2139 4.92578 12.2139 4.92578 12.214 4.92578C12.214 4.92578 12.214 4.92578 12.2141 4.92578C12.2141 4.92578 12.2141 4.92578 12.2142 4.92578C12.2142 4.92578 12.2143 4.92578 12.2143 4.92578C12.2143 4.92578 12.2144 4.92578 12.2144 4.92578C12.2144 4.92578 12.2145 4.92578 12.2145 4.92578C12.2145 4.92578 12.2146 4.92578 12.2146 4.92578C12.2146 4.92578 12.2147 4.92578 12.2147 4.92578C12.2147 4.92578 12.2148 4.92578 12.2148 4.92578C12.2148 4.92578 12.2149 4.92578 12.2149 4.92578C12.2149 4.92578 12.215 4.92578 12.215 4.92578C12.215 4.92578 12.2151 4.92578 12.2151 4.92578C12.2151 4.92578 12.2152 4.92578 12.2152 4.92578C12.2152 4.92578 12.2153 4.92578 12.2153 4.92578C12.2153 4.92578 12.2154 4.92578 12.2154 4.92578C12.2154 4.92578 12.2155 4.92578 12.2155 4.92578C12.2155 4.92578 12.2156 4.92578 12.2156 4.92578C12.2156 4.92578 12.2157 4.92578 12.2157 4.92578C12.2157 4.92578 12.2158 4.92578 12.2158 4.92578C12.2158 4.92578 12.2159 4.92578 12.2159 4.92578C12.2159 4.92578 12.216 4.92578 12.216 4.92578C12.216 4.92578 12.2161 4.92578 12.2161 4.92578C12.2161 4.92578 12.2162 4.92578 12.2162 4.92578C12.2162 4.92578 12.2163 4.92578 12.2163 4.92578C12.2163 4.92578 12.2164 4.92578 12.2164 4.92578C12.2164 4.92578 12.2165 4.92578 12.2165 4.92578C12.2165 4.92578 12.2166 4.92578 12.2166 4.92578C12.2166 4.92578 12.2167 4.92578 12.2167 4.92578C12.2167 4.92578 12.2168 4.92578 12.2168 4.92578C12.2168 4.92578 12.2169 4.92578 12.2169 4.92578C12.2169 4.92578 12.217 4.92578 12.217 4.92578C12.217 4.92578 12.2171 4.92578 12.2171 4.92578C12.2171 4.92578 12.2172 4.92578 12.2172 4.92578C12.2172 4.92578 12.2173 4.92578 12.2173 4.92578C12.2173 4.92578 12.2174 4.92578 12.2174 4.92578C12.2174 4.92578 12.2175 4.92578 12.2175 4.92578C12.2175 4.92578 12.2176 4.92578 12.2176 4.92578C12.2176 4.92578 12.2177 4.92578 12.2177 4.92578C12.2177 4.92578 12.2178 4.92578 12.2178 4.92578C12.2178 4.92578 12.2179 4.92578 12.2179 4.92578C12.2179 4.92578 12.218 4.92578 12.218 4.92578C12.218 4.92578 12.2181 4.92578 12.2181 4.92578C12.2181 4.92578 12.2182 4.92578 12.2182 4.92578C12.2182 4.92578 12.2183 4.92578 12.2183 4.92578C12.2183 4.92578 12.2184 4.92578 12.2184 4.92578C12.2184 4.92578 12.2185 4.92578 12.2185 4.92578C12.2185 4.92578 12.2186 4.92578 12.2186 4.92578C12.2186 4.92578 12.2187 4.92578 12.2187 4.92578C12.2187 4.92578 12.2188 4.92578 12.2188 4.92578C12.2188 4.92578 12.2189 4.92578 12.2189 4.92578C12.2189 4.92578 12.219 4.92578 12.219 4.92578C12.219 4.92578 12.2191 4.92578 12.2191 4.92578C12.2191 4.92578 12.2192 4.92578 12.2192 4.92578C12.2192 4.92578 12.2193 4.92578 12.2193 4.92578C12.2193 4.92578 12.2194 4.92578 12.2194 4.92578C12.2194 4.92578 12.2195 4.92578 12.2195 4.92578C12.2195 4.92578 12.2196 4.92578 12.2196 4.92578C12.2196 4.92578 12.2197 4.92578 12.2197 4.92578C12.2197 4.92578 12.2198 4.92578 12.2198 4.92578C12.2198 4.92578 12.2199 4.92578 12.2199 4.92578C12.2199 4.92578 12.22 4.92578 12.22 4.92578C12.22 4.92578 12.2201 4.92578 12.2201 4.92578C12.2201 4.92578 12.2202 4.92578 12.2202 4.92578C12.2202 4.92578 12.2203 4.92578 12.2203 4.92578C12.2203 4.92578 12.2204 4.92578 12.2204 4.92578C12.2204 4.92578 12.2205 4.92578 12.2205 4.92578C12.2205 4.92578 12.2206 4.92578 12.2206 4.92578C12.2206 4.92578 12.2207 4.92578 12.2207 4.92578C12.2207 4.92578 12.2208 4.92578 12.2208 4.92578C12.2208 4.92578 12.2208 4.92578 12.2209 4.92578C12.2209 4.92578 12.2209 4.92578 12.221 4.92578C12.221 4.92578 12.221 4.92578 12.2211 4.92578C12.2211 4.92578 12.2211 4.92578 12.2212 4.92578C12.2212 4.92578 12.2212 4.92578 12.2213 4.92578C12.2213 4.92578 12.2213 4.92578 12.2214 4.92578C12.2214 4.92578 12.2214 4.92578 12.2215 4.92578C12.2215 4.92578 12.2215 4.92578 12.2216 4.92578C12.2216 4.92578 12.2216 4.92578 12.2217 4.92578C12.2217 4.92578 12.2217 4.92578 12.2218 4.92578C12.2218 4.92578 12.2218 4.92578 12.2219 4.92578C12.2219 4.92578 12.2219 4.92578 12.222 4.92578C12.222 4.92578 12.222 4.92578 12.2221 4.92578C12.2221 4.92578 12.2221 4.92578 12.2222 4.92578C12.2222 4.92578 12.2222 4.92578 12.2223 4.92578C12.2223 4.92578 12.2223 4.92578 12.2224 4.92578C12.2224 4.92578 12.2224 4.92578 12.2225 4.92578C12.2225 4.92578 12.2225 4.92578 12.2226 4.92578C12.2226 4.92578 12.2226 4.92578 12.2227 4.92578C12.2227 4.92578 12.2227 4.92578 12.2227 4.92578C12.2228 4.92578 12.2228 4.92578 12.2228 4.92578C12.2229 4.92578 12.2229 4.92578 12.2229 4.92578C12.223 4.92578 12.223 4.92578 12.223 4.92578C12.2231 4.92578 12.2231 4.92578 12.2231 4.92578C12.2232 4.92578 12.2232 4.92578 12.2232 4.92578C12.2233 4.92578 12.2233 4.92578 12.2233 4.92578C12.2234 4.92578 12.2234 4.92578 12.2234 4.92578C12.2235 4.92578 12.2235 4.92578 12.2235 4.92578C12.2236 4.92578 12.2236 4.92578 12.2236 4.92578C12.2237 4.92578 12.2237 4.92578 12.2237 4.92578C12.2238 4.92578 12.2238 4.92578 12.2238 4.92578C12.2239 4.92578 12.2239 4.92578 12.2239 4.92578C12.224 4.92578 12.224 4.92578 12.224 4.92578C12.224 4.92578 12.2241 4.92578 12.2241 4.92578C12.2241 4.92578 12.2242 4.92578 12.2242 4.92578C12.2242 4.92578 12.2243 4.92578 12.2243 4.92578C12.2243 4.92578 12.2244 4.92578 12.2244 4.92578C12.2244 4.92578 12.2245 4.92578 12.2245 4.92578C12.2245 4.92578 12.2246 4.92578 12.2246 4.92578C12.2246 4.92578 12.2247 4.92578 12.2247 4.92578C12.2247 4.92578 12.2248 4.92578 12.2248 4.92578C12.2248 4.92578 12.2249 4.92578 12.2249 4.92578C12.2249 4.92578 12.225 4.92578 12.225 4.92578C12.225 4.92578 12.225 4.92578 12.2251 4.92578C12.2251 4.92578 12.2251 4.92578 12.2252 4.92578C12.2252 4.92578 12.2252 4.92578 12.2253 4.92578C12.2253 4.92578 12.2253 4.92578 12.2254 4.92578C12.2254 4.92578 12.2254 4.92578 12.2255 4.92578C12.2255 4.92578 12.2255 4.92578 12.2256 4.92578C12.2256 4.92578 12.2256 4.92578 12.2257 4.92578C12.2257 4.92578 12.2257 4.92578 12.2258 4.92578C12.2258 4.92578 12.2258 4.92578 12.2259 4.92578C12.2259 4.92578 12.2259 4.92578 12.2259 4.92578C12.226 4.92578 12.226 4.92578 12.226 4.92578C12.2261 4.92578 12.2261 4.92578 12.2261 4.92578C12.2262 4.92578 12.2262 4.92578 12.2262 4.92578C12.2263 4.92578 12.2263 4.92578 12.2263 4.92578C12.2264 4.92578 12.2264 4.92578 12.2264 4.92578C12.2265 4.92578 12.2265 4.92578 12.2265 4.92578C12.2266 4.92578 12.2266 4.92578 12.2266 4.92578C12.2267 4.92578 12.2267 4.92578 12.2267 4.92578C12.2267 4.92578 12.2268 4.92578 12.2268 4.92578C12.2268 4.92578 12.2269 4.92578 12.2269 4.92578C12.2269 4.92578 12.227 4.92578 12.227 4.92578C12.227 4.92578 12.2271 4.92578 12.2271 4.92578C12.2271 4.92578 12.2272 4.92578 12.2272 4.92578C12.2272 4.92578 12.2273 4.92578 12.2273 4.92578C12.2273 4.92578 12.2273 4.92578 12.2274 4.92578C12.2274 4.92578 12.2274 4.92578 12.2275 4.92578C12.2275 4.92578 12.2275 4.92578 12.2276 4.92578C12.2276 4.92578 12.2276 4.92578 12.2277 4.92578C12.2277 4.92578 12.2277 4.92578 12.2278 4.92578C12.2278 4.92578 12.2278 4.92578 12.2279 4.92578C12.2279 4.92578 12.2279 4.92578 12.228 4.92578C12.228 4.92578 12.228 4.92578 12.228 4.92578C12.2281 4.92578 12.2281 4.92578 12.2281 4.92578C12.2282 4.92578 12.2282 4.92578 12.2282 4.92578C12.2283 4.92578 12.2283 4.92578 12.2283 4.92578C12.2284 4.92578 12.2284 4.92578 12.2284 4.92578C12.2285 4.92578 12.2285 4.92578 12.2285 4.92578C12.2285 4.92578 12.2286 4.92578 12.2286 4.92578C12.2286 4.92578 12.2287 4.92578 12.2287 4.92578C12.2287 4.92578 12.2288 4.92578 12.2288 4.92578C12.2288 4.92578 12.2289 4.92578 12.2289 4.92578C12.2289 4.92578 12.229 4.92578 12.229 4.92578C12.229 4.92578 12.2291 4.92578 12.2291 4.92578C12.2291 4.92578 12.2291 4.92578 12.2292 4.92578C12.2292 4.92578 12.2292 4.92578 12.2293 4.92578C12.2293 4.92578 12.2293 4.92578 12.2294 4.92578C12.2294 4.92578 12.2294 4.92578 12.2295 4.92578C12.2295 4.92578 12.2295 4.92578 12.2296 4.92578C12.2296 4.92578 12.2296 4.92578 12.2296 4.92578C12.2297 4.92578 12.2297 4.92578 12.2297 4.92578C12.2298 4.92578 12.2298 4.92578 12.2298 4.92578C12.2299 4.92578 12.2299 4.92578 12.2299 4.92578C12.23 4.92578 12.23 4.92578 12.23 4.92578C12.23 4.92578 12.2301 4.92578 12.2301 4.92578C12.2301 4.92578 12.2302 4.92578 12.2302 4.92578C12.2302 4.92578 12.2303 4.92578 12.2303 4.92578C12.2303 4.92578 12.2304 4.92578 12.2304 4.92578C12.2304 4.92578 12.2305 4.92578 12.2305 4.92578C12.2305 4.92578 12.2305 4.92578 12.2306 4.92578C12.2306 4.92578 12.2306 4.92578 12.2307 4.92578C12.2307 4.92578 12.2307 4.92578 12.2308 4.92578C12.2308 4.92578 12.2308 4.92578 12.2309 4.92578C12.2309 4.92578 12.2309 4.92578 12.2309 4.92578C12.231 4.92578 12.231 4.92578 12.231 4.92578C12.2311 4.92578 12.2311 4.92578 12.2311 4.92578C12.2312 4.92578 12.2312 4.92578 12.2312 4.92578C12.2313 4.92578 12.2313 4.92578 12.2313 4.92578C12.2313 4.92578 12.2314 4.92578 12.2314 4.92578C12.2314 4.92578 12.2315 4.92578 12.2315 4.92578C12.2315 4.92578 12.2316 4.92578 12.2316 4.92578C12.2316 4.92578 12.2317 4.92578 12.2317 4.92578C12.2317 4.92578 12.2317 4.92578 12.2318 4.92578C12.2318 4.92578 12.2318 4.92578 12.2319 4.92578C12.2319 4.92578 12.2319 4.92578 12.232 4.92578C12.232 4.92578 12.232 4.92578 12.2321 4.92578C12.2321 4.92578 12.2321 4.92578 12.2321 4.92578C12.2322 4.92578 12.2322 4.92578 12.2322 4.92578C12.2323 4.92578 12.2323 4.92578 12.2323 4.92578C12.2324 4.92578 12.2324 4.92578 12.2324 4.92578C12.2324 4.92578 12.2325 4.92578 12.2325 4.92578C12.2325 4.92578 12.2326 4.92578 12.2326 4.92578C12.2326 4.92578 12.2327 4.92578 12.2327 4.92578C12.2327 4.92578 12.2328 4.92578 12.2328 4.92578C12.2328 4.92578 12.2328 4.92578 12.2329 4.92578C12.2329 4.92578 12.2329 4.92578 12.233 4.92578C12.233 4.92578 12.233 4.92578 12.2331 4.92578C12.2331 4.92578 12.2331 4.92578 12.2331 4.92578C12.2332 4.92578 12.2332 4.92578 12.2332 4.92578C12.2333 4.92578 12.2333 4.92578 12.2333 4.92578C12.2334 4.92578 12.2334 4.92578 12.2334 4.92578C12.2334 4.92578 12.2335 4.92578 12.2335 4.92578C12.2335 4.92578 12.2336 4.92578 12.2336 4.92578C12.2336 4.92578 12.2337 4.92578 12.2337 4.92578C12.2337 4.92578 12.2337 4.92578 12.2338 4.92578C12.2338 4.92578 12.2338 4.92578 12.2339 4.92578C12.2339 4.92578 12.2339 4.92578 12.234 4.92578C12.234 4.92578 12.234 4.92578 12.234 4.92578C12.2341 4.92578 12.2341 4.92578 12.2341 4.92578C12.2342 4.92578 12.2342 4.92578 12.2342 4.92578C12.2343 4.92578 12.2343 4.92578 12.2343 4.92578C12.2343 4.92578 12.2344 4.92578 12.2344 4.92578C12.2344 4.92578 12.2345 4.92578 12.2345 4.92578C12.2345 4.92578 12.2346 4.92578 12.2346 4.92578C12.2346 4.92578 12.2346 4.92578 12.2347 4.92578C12.2347 4.92578 12.2347 4.92578 12.2348 4.92578C12.2348 4.92578 12.2348 4.92578 12.2349 4.92578C12.2349 4.92578 12.2349 4.92578 12.2349 4.92578C12.235 4.92578 12.235 4.92578 12.235 4.92578C12.2351 4.92578 12.2351 4.92578 12.2351 4.92578C12.2352 4.92578 12.2352 4.92578 12.2352 4.92578C12.2352 4.92578 12.2353 4.92578 12.2353 4.92578C12.2353 4.92578 12.2354 4.92578 12.2354 4.92578C12.2354 4.92578 12.2354 4.92578 12.2355 4.92578C12.2355 4.92578 12.2355 4.92578 12.2356 4.92578C12.2356 4.92578 12.2356 4.92578 12.2357 4.92578C12.2357 4.92578 12.2357 4.92578 12.2357 4.92578C12.2358 4.92578 12.2358 4.92578 12.2358 4.92578C12.2359 4.92578 12.2359 4.92578 12.2359 4.92578C12.2359 4.92578 12.236 4.92578 12.236 4.92578C12.236 4.92578 12.2361 4.92578 12.2361 4.92578C12.2361 4.92578 12.2362 4.92578 12.2362 4.92578C12.2362 4.92578 12.2362 4.92578 12.2363 4.92578C12.2363 4.92578 12.2363 4.92578 12.2364 4.92578C12.2364 4.92578 12.2364 4.92578 12.2364 4.92578C12.2365 4.92578 12.2365 4.92578 12.2365 4.92578C12.2366 4.92578 12.2366 4.92578 12.2366 4.92578C12.2367 4.92578 12.2367 4.92578 12.2367 4.92578C12.2367 4.92578 12.2368 4.92578 12.2368 4.92578C12.2368 4.92578 12.2369 4.92578 12.2369 4.92578C12.2369 4.92578 12.2369 4.92578 12.237 4.92578C12.237 4.92578 12.237 4.92578 12.2371 4.92578C12.2371 4.92578 12.2371 4.92578 12.2371 4.92578C12.2372 4.92578 12.2372 4.92578 12.2372 4.92578C12.2373 4.92578 12.2373 4.92578 12.2373 4.92578C12.2373 4.92578 12.2374 4.92578 12.2374 4.92578C12.2374 4.92578 12.2375 4.92578 12.2375 4.92578C12.2375 4.92578 12.2375 4.92578 12.2376 4.92578C12.2376 4.92578 12.2376 4.92578 12.2377 4.92578C12.2377 4.92578 12.2377 4.92578 12.2378 4.92578C12.2378 4.92578 12.2378 4.92578 12.2378 4.92578C12.2379 4.92578 12.2379 4.92578 12.2379 4.92578C12.238 4.92578 12.238 4.92578 12.238 4.92578C12.238 4.92578 12.2381 4.92578 12.2381 4.92578C12.2381 4.92578 12.2382 4.92578 12.2382 4.92578C12.2382 4.92578 12.2382 4.92578 12.2383 4.92578C12.2383 4.92578 12.2383 4.92578 12.2384 4.92578C12.2384 4.92578 12.2384 4.92578 12.2384 4.92578C12.2385 4.92578 12.2385 4.92578 12.2385 4.92578C12.2386 4.92578 12.2386 4.92578 12.2386 4.92578C12.2386 4.92578 12.2387 4.92578 12.2387 4.92578C12.2387 4.92578 12.2388 4.92578 12.2388 4.92578C12.2388 4.92578 12.2388 4.92578 12.2389 4.92578C12.2389 4.92578 12.2389 4.92578 12.239 4.92578C12.239 4.92578 12.239 4.92578 12.239 4.92578C12.2391 4.92578 12.2391 4.92578 12.2391 4.92578C12.2391 4.92578 12.2392 4.92578 12.2392 4.92578C12.2392 4.92578 12.2393 4.92578 12.2393 4.92578C12.2393 4.92578 12.2393 4.92578 12.2394 4.92578C12.2394 4.92578 12.2394 4.92578 12.2395 4.92578C12.2395 4.92578 12.2395 4.92578 12.2395 4.92578C12.2396 4.92578 12.2396 4.92578 12.2396 4.92578C12.2397 4.92578 12.2397 4.92578 12.2397 4.92578C12.2397 4.92578 12.2398 4.92578 12.2398 4.92578C12.2398 4.92578 12.2399 4.92578 12.2399 4.92578C12.2399 4.92578 12.2399 4.92578 12.24 4.92578C12.24 4.92578 12.24 4.92578 12.24 4.92578C12.2401 4.92578 12.2401 4.92578 12.2401 4.92578C12.2402 4.92578 12.2402 4.92578 12.2402 4.92578C12.2402 4.92578 12.2403 4.92578 12.2403 4.92578C12.2403 4.92578 12.2404 4.92578 12.2404 4.92578C12.2404 4.92578 12.2404 4.92578 12.2405 4.92578C12.2405 4.92578 12.2405 4.92578 12.2405 4.92578C12.2406 4.92578 12.2406 4.92578 12.2406 4.92578C12.2407 4.92578 12.2407 4.92578 12.2407 4.92578C12.2407 4.92578 12.2408 4.92578 12.2408 4.92578C12.2408 4.92578 12.2409 4.92578 12.2409 4.92578C12.2409 4.92578 12.2409 4.92578 12.241 4.92578C12.241 4.92578 12.241 4.92578 12.241 4.92578C12.2411 4.92578 12.2411 4.92578 12.2411 4.92578C12.2412 4.92578 12.2412 4.92578 12.2412 4.92578C12.2412 4.92578 12.2413 4.92578 12.2413 4.92578C12.2413 4.92578 12.2413 4.92578 12.2414 4.92578C12.2414 4.92578 12.2414 4.92578 12.2415 4.92578C12.2415 4.92578 12.2415 4.92578 12.2415 4.92578C12.2416 4.92578 12.2416 4.92578 12.2416 4.92578C12.2416 4.92578 12.2417 4.92578 12.2417 4.92578C12.2417 4.92578 12.2418 4.92578 12.2418 4.92578C12.2418 4.92578 12.2418 4.92578 12.2419 4.92578C12.2419 4.92578 12.2419 4.92578 12.2419 4.92578C12.242 4.92578 12.242 4.92578 12.242 4.92578C12.2421 4.92578 12.2421 4.92578 12.2421 4.92578C12.2421 4.92578 12.2422 4.92578 12.2422 4.92578C12.2422 4.92578 12.2422 4.92578 12.2423 4.92578C12.2423 4.92578 12.2423 4.92578 12.2424 4.92578C12.2424 4.92578 12.2424 4.92578 12.2424 4.92578C12.2425 4.92578 12.2425 4.92578 12.2425 4.92578C12.2425 4.92578 12.2426 4.92578 12.2426 4.92578C12.2426 4.92578 12.2426 4.92578 12.2427 4.92578C12.2427 4.92578 12.2427 4.92578 12.2428 4.92578C12.2428 4.92578 12.2428 4.92578 12.2428 4.92578C12.2429 4.92578 12.2429 4.92578 12.2429 4.92578C12.2429 4.92578 12.243 4.92578 12.243 4.92578C12.243 4.92578 12.243 4.92578 12.2431 4.92578C12.2431 4.92578 12.2431 4.92578 12.2432 4.92578C12.2432 4.92578 12.2432 4.92578 12.2432 4.92578C12.2433 4.92578 12.2433 4.92578 12.2433 4.92578C12.2433 4.92578 12.2434 4.92578 12.2434 4.92578C12.2434 4.92578 12.2434 4.92578 12.2435 4.92578C12.2435 4.92578 12.2435 4.92578 12.2436 4.92578C12.2436 4.92578 12.2436 4.92578 12.2436 4.92578C12.2437 4.92578 12.2437 4.92578 12.2437 4.92578C12.2437 4.92578 12.2438 4.92578 12.2438 4.92578C12.2438 4.92578 12.2438 4.92578 12.2439 4.92578C12.2439 4.92578 12.2439 4.92578 12.2439 4.92578C12.244 4.92578 12.244 4.92578 12.244 4.92578C12.2441 4.92578 12.2441 4.92578 12.2441 4.92578C12.2441 4.92578 12.2442 4.92578 12.2442 4.92578C12.2442 4.92578 12.2442 4.92578 12.2443 4.92578C12.2443 4.92578 12.2443 4.92578 12.2443 4.92578C12.2444 4.92578 12.2444 4.92578 12.2444 4.92578C12.2444 4.92578 12.2445 4.92578 12.2445 4.92578C12.2445 4.92578 12.2445 4.92578 12.2446 4.92578C12.2446 4.92578 12.2446 4.92578 12.2446 4.92578C12.2447 4.92578 12.2447 4.92578 12.2447 4.92578C12.2448 4.92578 12.2448 4.92578 12.2448 4.92578C12.2448 4.92578 12.2449 4.92578 12.2449 4.92578C12.2449 4.92578 12.2449 4.92578 12.245 4.92578C12.245 4.92578 12.245 4.92578 12.245 4.92578C12.2451 4.92578 12.2451 4.92578 12.2451 4.92578C12.2451 4.92578 12.2452 4.92578 12.2452 4.92578C12.2452 4.92578 12.2452 4.92578 12.2453 4.92578C12.2453 4.92578 12.2453 4.92578 12.2453 4.92578C12.2454 4.92578 12.2454 4.92578 12.2454 4.92578C12.2454 4.92578 12.2455 4.92578 12.2455 4.92578C12.2455 4.92578 12.2455 4.92578 12.2456 4.92578C12.2456 4.92578 12.2456 4.92578 12.2456 4.92578C12.2457 4.92578 12.2457 4.92578 12.2457 4.92578C12.2458 4.92578 12.2458 4.92578 12.2458 4.92578C12.2458 4.92578 12.2459 4.92578 12.2459 4.92578C12.2459 4.92578 12.2459 4.92578 12.246 4.92578C12.246 4.92578 12.246 4.92578 12.246 4.92578C12.2461 4.92578 12.2461 4.92578 12.2461 4.92578C12.2461 4.92578 12.2462 4.92578 12.2462 4.92578C12.2462 4.92578 12.2462 4.92578 12.2463 4.92578C12.2463 4.92578 12.2463 4.92578 12.2463 4.92578C12.2464 4.92578 12.2464 4.92578 12.2464 4.92578C12.2464 4.92578 12.2465 4.92578 12.2465 4.92578C12.2465 4.92578 12.2465 4.92578 12.2466 4.92578C12.2466 4.92578 12.2466 4.92578 12.2466 4.92578C12.2467 4.92578 12.2467 4.92578 12.2467 4.92578C12.2467 4.92578 12.2468 4.92578 12.2468 4.92578C12.2468 4.92578 12.2468 4.92578 12.2469 4.92578C12.2469 4.92578 12.2469 4.92578 12.2469 4.92578C12.247 4.92578 12.247 4.92578 12.247 4.92578C12.247 4.92578 12.247 4.92578 12.2471 4.92578C12.2471 4.92578 12.2471 4.92578 12.2471 4.92578C12.2472 4.92578 12.2472 4.92578 12.2472 4.92578C12.2472 4.92578 12.2473 4.92578 12.2473 4.92578C12.2473 4.92578 12.2473 4.92578 12.2474 4.92578C12.2474 4.92578 12.2474 4.92578 12.2474 4.92578C12.2475 4.92578 12.2475 4.92578 12.2475 4.92578C12.2475 4.92578 12.2476 4.92578 12.2476 4.92578C12.2476 4.92578 12.2476 4.92578 12.2477 4.92578C12.2477 4.92578 12.2477 4.92578 12.2477 4.92578C12.2478 4.92578 12.2478 4.92578 12.2478 4.92578C12.2478 4.92578 12.2479 4.92578 12.2479 4.92578C12.2479 4.92578 12.2479 4.92578 12.248 4.92578C12.248 4.92578 12.248 4.92578 12.248 4.92578C12.248 4.92578 12.2481 4.92578 12.2481 4.92578C12.2481 4.92578 12.2481 4.92578 12.2482 4.92578C12.2482 4.92578 12.2482 4.92578 12.2482 4.92578C12.2483 4.92578 12.2483 4.92578 12.2483 4.92578C12.2483 4.92578 12.2484 4.92578 12.2484 4.92578C12.2484 4.92578 12.2484 4.92578 12.2485 4.92578C12.2485 4.92578 12.2485 4.92578 12.2485 4.92578C12.2486 4.92578 12.2486 4.92578 12.2486 4.92578C12.2486 4.92578 12.2486 4.92578 12.2487 4.92578C12.2487 4.92578 12.2487 4.92578 12.2487 4.92578C12.2488 4.92578 12.2488 4.92578 12.2488 4.92578C12.2488 4.92578 12.2489 4.92578 12.2489 4.92578C12.2489 4.92578 12.2489 4.92578 12.249 4.92578C12.249 4.92578 12.249 4.92578 12.249 4.92578C12.249 4.92578 12.2491 4.92578 12.2491 4.92578C12.2491 4.92578 12.2491 4.92578 12.2492 4.92578C12.2492 4.92578 12.2492 4.92578 12.2492 4.92578C12.2493 4.92578 12.2493 4.92578 12.2493 4.92578C12.2493 4.92578 12.2494 4.92578 12.2494 4.92578C12.2494 4.92578 12.2494 4.92578 12.2494 4.92578C12.2495 4.92578 12.2495 4.92578 12.2495 4.92578C12.2495 4.92578 12.2496 4.92578 12.2496 4.92578C12.2496 4.92578 12.2496 4.92578 12.2497 4.92578C12.2497 4.92578 12.2497 4.92578 12.2497 4.92578C12.2497 4.92578 12.2498 4.92578 12.2498 4.92578C12.2498 4.92578 12.2498 4.92578 12.2499 4.92578C12.2499 4.92578 12.2499 4.92578 12.2499 4.92578C12.25 4.92578 12.25 4.92578 12.25 4.92578C12.25 4.92578 12.25 4.92578 12.2501 4.92578C12.2501 4.92578 12.2501 4.92578 12.2501 4.92578V2.92578ZM12.3032 2.93076C9.17923 2.61778 6.027 2.4959 2.88598 2.81421L3.08762 4.80402C6.04826 4.50399 9.05603 4.61545 12.1038 4.9208L12.3032 2.93076ZM2.88923 2.81388L1.69923 2.93055L1.89437 4.92101L3.08437 4.80434L2.88923 2.81388ZM1.70199 2.93028C1.9962 2.90226 2.2781 3.11898 2.30813 3.4343L0.317138 3.62392C0.393836 4.42925 1.1074 4.99596 1.89161 4.92127L1.70199 2.93028ZM2.30813 3.4343C2.33685 3.73584 2.11255 4.01562 1.80057 4.04605L1.60637 2.0555C0.816053 2.13261 0.241754 2.83239 0.317138 3.62392L2.30813 3.4343ZM1.80104 4.04601L2.99104 3.92934L2.7959 1.93888L1.6059 2.05555L1.80104 4.04601ZM2.99445 3.929C6.00698 3.62322 9.07885 3.74032 12.1933 4.046L12.3886 2.05556C9.20309 1.7429 5.98662 1.61501 2.79248 1.93922L2.99445 3.929ZM12.1939 4.04605C11.8754 4.01498 11.657 3.73453 11.6865 3.43201L13.6771 3.62621C13.7533 2.84536 13.1849 2.13324 12.3881 2.0555L12.1939 4.04605ZM11.6847 3.45242C11.7088 3.13983 11.9686 2.92578 12.2501 2.92578V4.92578C12.975 4.92578 13.6198 4.37339 13.6789 3.60581L11.6847 3.45242Z" fill="#E45050" mask="url(#path-1-inside-1_406_10148)"/>
<mask id="path-3-inside-2_406_10148" fill="white">
<path d="M4.95746 3.33797C4.93413 3.33797 4.9108 3.33797 4.88163 3.33214C4.6483 3.2913 4.48496 3.0638 4.5258 2.83047L4.65413 2.0663C4.74746 1.5063 4.8758 0.730469 6.23496 0.730469H7.7633C9.1283 0.730469 9.25663 1.53547 9.34413 2.07214L9.47246 2.83047C9.5133 3.06964 9.34996 3.29714 9.11663 3.33214C8.87746 3.37297 8.64996 3.20964 8.61496 2.9763L8.48663 2.21797C8.40496 1.71047 8.38746 1.6113 7.76913 1.6113H6.2408C5.62246 1.6113 5.6108 1.69297 5.5233 2.21214L5.38913 2.97047C5.35413 3.1863 5.16746 3.33797 4.95746 3.33797Z"/>
</mask>
<path d="M4.95746 3.33797C4.93413 3.33797 4.9108 3.33797 4.88163 3.33214C4.6483 3.2913 4.48496 3.0638 4.5258 2.83047L4.65413 2.0663C4.74746 1.5063 4.8758 0.730469 6.23496 0.730469H7.7633C9.1283 0.730469 9.25663 1.53547 9.34413 2.07214L9.47246 2.83047C9.5133 3.06964 9.34996 3.29714 9.11663 3.33214C8.87746 3.37297 8.64996 3.20964 8.61496 2.9763L8.48663 2.21797C8.40496 1.71047 8.38746 1.6113 7.76913 1.6113H6.2408C5.62246 1.6113 5.6108 1.69297 5.5233 2.21214L5.38913 2.97047C5.35413 3.1863 5.16746 3.33797 4.95746 3.33797Z" fill="#E45050"/>
<path d="M4.88163 3.33214L5.07775 2.35155L5.06591 2.34919L5.05401 2.3471L4.88163 3.33214ZM4.5258 2.83047L5.51085 3.00285L5.51199 2.99609L4.5258 2.83047ZM4.65413 2.0663L5.64032 2.23192L5.64052 2.2307L4.65413 2.0663ZM9.34413 2.07214L8.35714 2.23306L8.35815 2.23899L9.34413 2.07214ZM9.47246 2.83047L8.48648 2.99733L8.48673 2.99876L9.47246 2.83047ZM9.11663 3.33214L8.96829 2.3432L8.9583 2.3447L8.94833 2.3464L9.11663 3.33214ZM8.61496 2.9763L9.6039 2.82796L9.60251 2.81869L9.60094 2.80944L8.61496 2.9763ZM8.48663 2.21797L7.4993 2.37685L7.50065 2.38483L8.48663 2.21797ZM5.5233 2.21214L6.50804 2.38636L6.50939 2.37833L5.5233 2.21214ZM5.38913 2.97047L4.40442 2.79625L4.40317 2.80332L4.40202 2.8104L5.38913 2.97047ZM4.95746 2.33797C4.93568 2.33797 5.00046 2.3361 5.07775 2.35155L4.68551 4.31272C4.82114 4.33984 4.93258 4.33797 4.95746 4.33797V2.33797ZM5.05401 2.3471C5.35243 2.39933 5.56733 2.67998 5.51083 3.00285L3.54077 2.65809C3.4026 3.44762 3.94416 4.18328 4.70925 4.31717L5.05401 2.3471ZM5.51199 2.99609L5.64032 2.23192L3.66794 1.90068L3.53961 2.66485L5.51199 2.99609ZM5.64052 2.2307C5.66536 2.08167 5.68154 1.99253 5.70554 1.91416C5.72723 1.84333 5.74455 1.82073 5.74715 1.81752C5.74817 1.81626 5.74927 1.81495 5.75289 1.8123C5.75669 1.80952 5.7696 1.80066 5.79765 1.78949C5.85592 1.76628 5.98689 1.73047 6.23496 1.73047V-0.269531C5.35812 -0.269531 4.6533 -0.00998443 4.19256 0.559249C3.78751 1.05969 3.70762 1.66258 3.66774 1.9019L5.64052 2.2307ZM6.23496 1.73047H7.7633V-0.269531H6.23496V1.73047ZM7.7633 1.73047C8.00923 1.73047 8.13861 1.76707 8.19582 1.79042C8.22356 1.80175 8.23684 1.81092 8.24148 1.81439C8.246 1.81777 8.24826 1.82017 8.25046 1.82293C8.25554 1.82932 8.2736 1.8549 8.29501 1.92567C8.31853 2.00343 8.33385 2.09008 8.35716 2.23305L10.3311 1.91122C10.2935 1.68061 10.216 1.08064 9.81509 0.577173C9.35866 0.00390774 8.6536 -0.269531 7.7633 -0.269531V1.73047ZM8.35815 2.23899L8.48648 2.99733L10.4584 2.66361L10.3301 1.90528L8.35815 2.23899ZM8.48673 2.99876C8.43575 2.70018 8.63323 2.39346 8.96829 2.3432L9.26497 4.32107C10.0667 4.20081 10.5908 3.43909 10.4582 2.66217L8.48673 2.99876ZM8.94833 2.3464C9.24692 2.29542 9.55364 2.49291 9.6039 2.82796L7.62603 3.12464C7.74629 3.92636 8.50801 4.45052 9.28493 4.31787L8.94833 2.3464ZM9.60094 2.80944L9.47261 2.05111L7.50065 2.38483L7.62898 3.14316L9.60094 2.80944ZM9.47393 2.05909C9.45678 1.95254 9.43139 1.78602 9.38936 1.63723C9.34398 1.47658 9.25036 1.22256 9.02178 1.00305C8.78769 0.778253 8.51898 0.690964 8.31887 0.652607C8.13121 0.616635 7.93526 0.611302 7.76913 0.611302V2.6113C7.83458 2.6113 7.88032 2.61266 7.91235 2.61464C7.94518 2.61668 7.95207 2.61871 7.94236 2.61685C7.92199 2.61294 7.77869 2.58216 7.63648 2.4456C7.56961 2.38138 7.52604 2.31539 7.49924 2.26377C7.47444 2.216 7.46523 2.18288 7.46468 2.18092C7.46419 2.1792 7.46753 2.19102 7.47445 2.22838C7.48139 2.26584 7.48868 2.31068 7.49933 2.37684L9.47393 2.05909ZM7.76913 0.611302H6.2408V2.6113H7.76913V0.611302ZM6.2408 0.611302C6.08032 0.611302 5.88843 0.615281 5.70646 0.647371C5.51329 0.681437 5.23996 0.761991 4.99963 0.986948C4.76402 1.20747 4.66917 1.46595 4.62388 1.62437C4.58189 1.77125 4.55531 1.93849 4.5372 2.04594L6.50939 2.37833C6.52091 2.30997 6.52873 2.26369 6.53619 2.22458C6.54363 2.18557 6.54718 2.17295 6.54685 2.1741C6.54649 2.17536 6.53695 2.20954 6.51108 2.25881C6.48298 2.31232 6.43706 2.38093 6.36634 2.44711C6.21715 2.58676 6.06815 2.61445 6.0538 2.61698C6.04606 2.61834 6.05494 2.61628 6.09037 2.61435C6.12492 2.61247 6.17289 2.6113 6.2408 2.6113V0.611302ZM4.53859 2.03792L4.40442 2.79625L6.37384 3.14469L6.508 2.38635L4.53859 2.03792ZM4.40202 2.8104C4.44738 2.53073 4.68853 2.33797 4.95746 2.33797V4.33797C5.6464 4.33797 6.26089 3.84187 6.37624 3.13054L4.40202 2.8104Z" fill="#E45050" mask="url(#path-3-inside-2_406_10148)"/>
<path d="M8.87338 13.2717H5.12838C3.09254 13.2717 3.01088 12.1459 2.94671 11.2359L2.56754 5.36173C2.55004 5.12256 2.73671 4.91257 2.97588 4.89507C3.22088 4.8834 3.42504 5.06423 3.44254 5.3034L3.82171 11.1776C3.88588 12.0642 3.90921 12.3967 5.12838 12.3967H8.87338C10.0984 12.3967 10.1217 12.0642 10.18 11.1776L10.5592 5.3034C10.5767 5.06423 10.7867 4.8834 11.0259 4.89507C11.265 4.91257 11.4517 5.11673 11.4342 5.36173L11.055 11.2359C10.9909 12.1459 10.9092 13.2717 8.87338 13.2717Z" fill="#E45050"/>
<path d="M7.96789 10.0625H6.02539C5.78622 10.0625 5.58789 9.86417 5.58789 9.625C5.58789 9.38583 5.78622 9.1875 6.02539 9.1875H7.96789C8.20706 9.1875 8.40539 9.38583 8.40539 9.625C8.40539 9.86417 8.20706 10.0625 7.96789 10.0625Z" fill="#E45050"/>
<path d="M8.45768 7.73047H5.54102C5.30185 7.73047 5.10352 7.53214 5.10352 7.29297C5.10352 7.0538 5.30185 6.85547 5.54102 6.85547H8.45768C8.69685 6.85547 8.89518 7.0538 8.89518 7.29297C8.89518 7.53214 8.69685 7.73047 8.45768 7.73047Z" fill="#E45050"/>
</svg>
