<svg width="18" height="20" viewBox="0 0 18 20" fill="none" xmlns="http://www.w3.org/2000/svg">
<path d="M14 0H4C1 0 0 1.79 0 4V20H18V4C18 1.79 17 0 14 0ZM7 15.25H4C3.59 15.25 3.25 14.91 3.25 14.5C3.25 14.09 3.59 13.75 4 13.75H7C7.41 13.75 7.75 14.09 7.75 14.5C7.75 14.91 7.41 15.25 7 15.25ZM7 10.75H4C3.59 10.75 3.25 10.41 3.25 10C3.25 9.59 3.59 9.25 4 9.25H7C7.41 9.25 7.75 9.59 7.75 10C7.75 10.41 7.41 10.75 7 10.75ZM7 6.25H4C3.59 6.25 3.25 5.91 3.25 5.5C3.25 5.09 3.59 4.75 4 4.75H7C7.41 4.75 7.75 5.09 7.75 5.5C7.75 5.91 7.41 6.25 7 6.25ZM14 15.25H11C10.59 15.25 10.25 14.91 10.25 14.5C10.25 14.09 10.59 13.75 11 13.75H14C14.41 13.75 14.75 14.09 14.75 14.5C14.75 14.91 14.41 15.25 14 15.25ZM14 10.75H11C10.59 10.75 10.25 10.41 10.25 10C10.25 9.59 10.59 9.25 11 9.25H14C14.41 9.25 14.75 9.59 14.75 10C14.75 10.41 14.41 10.75 14 10.75ZM14 6.25H11C10.59 6.25 10.25 5.91 10.25 5.5C10.25 5.09 10.59 4.75 11 4.75H14C14.41 4.75 14.75 5.09 14.75 5.5C14.75 5.91 14.41 6.25 14 6.25Z" fill="white"/>
</svg>
