<svg width="101" height="100" viewBox="0 0 101 100" fill="none" xmlns="http://www.w3.org/2000/svg">
<rect x="0.5" y="-0.00390625" width="100" height="100" rx="10" fill="url(#paint0_linear_1111_8013)"/>
<path d="M27.791 66.4961H18.485V33.3311H36.8495C44.72 33.3311 49.67 37.8356 49.67 45.7061C49.67 53.5766 44.72 58.1306 36.8495 58.1306H27.791V66.4961ZM35.81 41.6966H27.791V49.7651H35.81C39.077 49.7651 40.4135 49.1216 40.4135 45.7061C40.4135 42.3401 39.077 41.6966 35.81 41.6966ZM60.9521 66.4961H51.6461V33.3311H70.0106C77.8811 33.3311 82.8311 37.8356 82.8311 45.7061C82.8311 53.5766 77.8811 58.1306 70.0106 58.1306H60.9521V66.4961ZM68.9711 41.6966H60.9521V49.7651H68.9711C72.2381 49.7651 73.5746 49.1216 73.5746 45.7061C73.5746 42.3401 72.2381 41.6966 68.9711 41.6966Z" fill="white"/>
<defs>
<linearGradient id="paint0_linear_1111_8013" x1="0.5" y1="49.9961" x2="100.5" y2="49.9961" gradientUnits="userSpaceOnUse">
<stop stop-color="#00D4D6"/>
<stop offset="0.595" stop-color="#2086F6"/>
<stop offset="1" stop-color="#6C65F0"/>
</linearGradient>
</defs>
</svg>
